<mxfile host="app.diagrams.net" modified="2024-02-28T16:10:10.233Z" agent="Mozilla/5.0 (Windows NT 10.0; Win64; x64) AppleWebKit/537.36 (KHTML, like Gecko) Chrome/122.0.0.0 Safari/537.36" etag="G8rGMnYC3OhtL_9UwyZy" version="23.1.7" type="device">
  <diagram name="Page-1" id="TdAISb1ecbQj9qLkoqOk">
    <mxGraphModel dx="1750" dy="870" grid="1" gridSize="5" guides="1" tooltips="1" connect="1" arrows="1" fold="1" page="1" pageScale="1" pageWidth="827" pageHeight="1169" math="0" shadow="0">
      <root>
        <mxCell id="0" />
        <mxCell id="1" parent="0" />
        <mxCell id="kqIMAGAX-EFwgYahWS3e-1" value="" style="shape=image;verticalLabelPosition=bottom;labelBackgroundColor=default;verticalAlign=top;aspect=fixed;imageAspect=0;image=data:image/jpeg,/9j/4AAQSkZJRgABAQEAeAB4AAD/2wBDAAMCAgMCAgMDAwMEAwMEBQgFBQQEBQoHBwYIDAoMDAsKCwsNDhIQDQ4RDgsLEBYQERMUFRUVDA8XGBYUGBIUFRT/2wBDAQMEBAUEBQkFBQkUDQsNFBQUFBQUFBQUFBQUFBQUFBQUFBQUFBQUFBQUFBQUFBQUFBQUFBQUFBQUFBQUFBQUFBT/wAARCALxA0oDASIAAhEBAxEB/8QAHwAAAQUBAQEBAQEAAAAAAAAAAAECAwQFBgcICQoL/8QAtRAAAgEDAwIEAwUFBAQAAAF9AQIDAAQRBRIhMUEGE1FhByJxFDKBkaEII0KxwRVS0fAkM2JyggkKFhcYGRolJicoKSo0NTY3ODk6Q0RFRkdISUpTVFVWV1hZWmNkZWZnaGlqc3R1dnd4eXqDhIWGh4iJipKTlJWWl5iZmqKjpKWmp6ipqrKztLW2t7i5usLDxMXGx8jJytLT1NXW19jZ2uHi4+Tl5ufo6erx8vP09fb3+Pn6/8QAHwEAAwEBAQEBAQEBAQAAAAAAAAECAwQFBgcICQoL/8QAtREAAgECBAQDBAcFBAQAAQJ3AAECAxEEBSExBhJBUQdhcRMiMoEIFEKRobHBCSMzUvAVYnLRChYkNOEl8RcYGRomJygpKjU2Nzg5OkNERUZHSElKU1RVVldYWVpjZGVmZ2hpanN0dXZ3eHl6goOEhYaHiImKkpOUlZaXmJmaoqOkpaanqKmqsrO0tba3uLm6wsPExcbHyMnK0tPU1dbX2Nna4uPk5ebn6Onq8vP09fb3+Pn6/9oADAMBAAIRAxEAPwD9U6KKKACiiigAooooAKKKKACiiigAooooAKKKKACiiigAooooAKKKKACiiigAooooAKKKKACiiigAooooAKKKKACiiigAooooAKKKKACiiigAooooAKKKKACiiigAooooAKKKKACiiigAooooAKKKKACiiigAooooAKKKKACiiigAooooAKKKKACiiigAooooAKKKKACiiigAooooAKKKKACiiigAooooAKKKKACiiigAooooAKKKKACiiigAooooAKKKKACiiigAooooAKKKKACiiigAooooAKKKKACiiigAooooAKKKKACiiigAooooAKKKKACiiigAooooAKKKKACiiigAooooAKKKKACiiigAooooAKKKKACiiigArkPjB4uvPh/8JPG/inTooJtQ0PQ77U7aO6VmieSG3eRA4UglSVGQCDjPIrr680/aa/5Nt+K//Ypat/6Ry0AfHPw6/a1/bA+LPhK08T+E/hR4O1jQrtpFgvEV4w5RyjfK9+rDDKRyO1dL/wALu/bk/wCiKeEf++v/AL416X/wTT/5M78G/wDXfUP/AEsmr6hoGfCf/C7v25P+iKeEf++v/vjR/wALu/bk/wCiKeEf++v/AL4192UUBc+E/wDhd37cn/RFPCP/AH1/98aP+F3ftyf9EU8I/wDfX/3xr7sooC58J/8AC7v25P8AoinhH/vr/wC+NH/C7v25P+iKeEf++v8A74192UUBc+E/+F3ftyf9EU8I/wDfX/3xo/4Xd+3J/wBEU8I/99f/AHxr7sooC58J/wDC7v25P+iKeEf++v8A740f8Lu/bk/6Ip4R/wC+v/vjX3ZRQFz4T/4Xd+3J/wBEU8I/99f/AHxo/wCF3ftyf9EU8I/99f8A3xr7sooC58J/8Lu/bk/6Ip4R/wC+v/vjR/wu79uT/oinhH/vr/74192UUBc+E/8Ahd37cn/RFPCP/fX/AN8aP+F3ftyf9EU8I/8AfX/3xr7sooC58J/8Lu/bk/6Ip4R/76/++NH/AAu79uT/AKIp4R/76/8AvjX3ZRQFz4T/AOF3ftyf9EU8I/8AfX/3xo/4Xd+3J/0RTwj/AN9f/fGvuyigLnwn/wALu/bk/wCiKeEf++v/AL40f8Lu/bk/6Ip4R/76/wDvjX3ZRQFz4T/4Xd+3J/0RTwj/AN9f/fGj/hd37cn/AERTwj/31/8AfGvuyigLnwn/AMLu/bk/6Ip4R/76/wDvjR/wu79uT/oinhH/AL6/++NfdlFAXPhP/hd37cn/AERTwj/31/8AfGj/AIXd+3J/0RTwj/31/wDfGvuyigLnwn/wu79uT/oinhH/AL6/++NH/C7v25P+iKeEf++v/vjX3ZRQFz4T/wCF3ftyf9EU8I/99f8A3xo/4Xd+3J/0RTwj/wB9f/fGvuyigLnwn/wu79uT/oinhH/vr/740f8AC7v25P8AoinhH/vr/wC+NfdlFAXPhP8A4Xd+3J/0RTwj/wB9f/fGj/hd37cn/RFPCP8A31/98a+7KKAufCf/AAu79uT/AKIp4R/76/8AvjR/wu79uT/oinhH/vr/AO+NfdlFAXPhP/hd37cn/RFPCP8A31/98aP+F3ftyf8ARFPCP/fX/wB8a+7KKAufCf8Awu79uT/oinhH/vr/AO+NH/C7v25P+iKeEf8Avr/74192UUBc+E/+F3ftyf8ARFPCP/fX/wB8aP8Ahd37cn/RFPCP/fX/AN8a+7KKAufCf/C7v25P+iKeEf8Avr/740f8Lu/bk/6Ip4R/76/++NfdlFAXPhP/AIXd+3J/0RTwj/31/wDfGj/hd37cn/RFPCP/AH1/98a+7KKAufCf/C7v25P+iKeEf++v/vjR/wALu/bk/wCiKeEf++v/AL4192UUBc+E/wDhd37cn/RFPCP/AH1/98aP+F3ftyf9EU8I/wDfX/3xr7sooC58J/8AC7v25P8AoinhH/vr/wC+NH/C7v25P+iKeEf++v8A74192UUBc+E/+F3ftyf9EU8I/wDfX/3xo/4Xd+3J/wBEU8I/99f/AHxr7sooC58J/wDC7v25P+iKeEf++v8A740f8Lu/bk/6Ip4R/wC+v/vjX3ZRQFz4T/4Xd+3J/wBEU8I/99f/AHxo/wCF3ftyf9EU8I/99f8A3xr7sooC58J/8Lu/bk/6Ip4R/wC+v/vjR/wu79uT/oinhH/vr/74192UUBc+E/8Ahd37cn/RFPCP/fX/AN8aP+F3ftyf9EU8I/8AfX/3xr7sooC58jfsd/tU/Ej4yfFPx54F+JXhzRfD+seG4I5DDpEcilJPM2SJIWnlVuq42nsetfXNfCP7Jv8AykB/aL/4F/6UJX3dQAUUUUCCiiigAooooAKKKKACiiigAooooAKKKKACiiigAooooAKKKKACiiigAooooAKKKKACiiigAooooAKKKKACiiigAooooAK80/aa/wCTbfiv/wBilq3/AKRy16XXmn7TX/JtvxX/AOxS1b/0jloA8p/4Jp/8md+Df+u+of8ApZNX1DXy9/wTT/5M78G/9d9Q/wDSyavqGgb3CiiigQUUUUAFFFFABRRRQAUUUUAFFFFABRRRQAUUUUAFFFFABRRRQAUUUUAFFFFABRRRQAUUUUAFFFFABRRRQAUUUUAFFFFABRRRQAUUUUAFFFFABRRRQAUUUUAFFFFABRRRQAUUUUAFFFFABRRRQAUUUUAFFFFABRRRQAUUUUAfCP7Jv/KQH9ov/gX/AKUJX3dXwj+yb/ykB/aL/wCBf+lCV93UDCiiigQUUUUAFFFFABRRRQAUUUUAFFFFABRRRQAUUUUAFFFFABRRRQAUUUUAFFFFABRRRQAUUUUAFFFFABRRRQAUUUUAFFFFABXmn7TX/JtvxX/7FLVv/SOWvS680/aa/wCTbfiv/wBilq3/AKRy0AeU/wDBNP8A5M78G/8AXfUP/SyavqGvl7/gmn/yZ34N/wCu+of+lk1fUNA3uFFFFAgooooAKKKKACiiigAooooAKKKKACiiigAooooAKKKKACiiigAooooAKKKKACiiigAooooAKKKKACiiigAooooAKKKKACiiigAooooAKKKKACiivKv2nvjRD8BPgr4h8WELJqMcX2bTbc8+ddyfLEuO4BO4+ymolLlVy4x5pKJ8uftMftb/ABC0P4v3R8CazHpvw/8AB+r6bo3iCT7HBN9uurh2aSNXkRioREKnYQQSfbHtn7c/xk8TfB/4P6bceCtR/s3xVretWmlWFwLeKcguWZsJIrKcqhHIP3q+IviLoPxW8B/sX6z4Y8SfBm70u2uNRj17VvG1x4htZZZbl7hGEj2qrvBIKR43ZHU9xX0N+0l4gi8ffEj9kSzu5BHo2r6hHrMkkhwjypHbtGpPqS5H/Aq2pw0hTbu+eKfzs352upWXYiU9XUS05JNf9u3s+17OLfmfS/x78eX/AMJv2fvGHieO7A1jSdGkkgunjQ5utm2NipG0/vCpxjHbFM/Zl17xL4q+AfgfXPF+otqviLVNNjvrq6aCOEt5uXQbI1VRhGUcAdK8Z/4KSeImuPgvpXw901xN4j8bazaabZ2an53RZVdmx/dDKik/7Qr6g8P6TbeEfC2naZFtjtNMs47dewCRoFH6LUxkuSpUl3SXyTb/APSl9wSjy+zguzf3tJfkzwbwD4k8ffFL9ov4jra+OLjSPAng/VLPTotFt9NtJEvpPs4e4V5njMq/MR91sjPauY/aU/av+JXwt8eaH4d8M/Du3i07U9cttEg8Q+IJS8N5NKFJEFvG6uVUHBkLYyMYrp/2EYf7U+EWt+MHUiXxh4n1TXCzDBKPcGNPw2xiuS/aI/4rz9tz4A+Dx+8t9HjvPEd1HngbR+6Yj/ehwPrTjHlqUYS/u3+5OV+vR6BPatJdOa3ybUbdNXbU9u/aO1DXNB+DfiTXdC8VT+EbzRbObUnvraygumkWKJ28rbOrKAxC84yMcVa/Z51bxF4g+B/gjVvFt82o+I9R0qC9vbloY4SzyrvxsjVVGAwHAHSvPv28NSni/Zz1fRLNtt/4lvrHQbcerXFwisP++A9e8aPpsOi6TZafbqEgtIEgjUdlVQoH5ClD4ZvzS+5Xf/pUQlvBeT+5tW/KRcooopAFFFFABRRRQAUUUUAFFFFABRRRQB8I/sm/8pAf2i/+Bf8ApQlfd1fCP7Jv/KQH9ov/AIF/6UJX3dQMKKKKBBRRRQAUUUUAFFFFABRRRQAUUUUAFFFFABRRRQAUUUUAFFFFABRRRQAUUUUAFFFFABRRRQAUUUUAFFFFABRRRQAUUUUAFeaftNf8m2/Ff/sUtW/9I5a9LrzT9pr/AJNt+K//AGKWrf8ApHLQB5T/AME0/wDkzvwb/wBd9Q/9LJq+oa+Xv+Caf/Jnfg3/AK76h/6WTV9Q0De4UUUUCCiiigAooooAKKKKACiiigAooooAKKKKACiiigAooooAKKKKACiiigAooooAKKKKACiiigAooooAKKKKACiiigAooooAKKKKACiiigAooooAK8z+LXwA8PfGnxD4N1PxHe6o9t4Xvv7SttJt5Y1s7mcY2tOpjLPtxwAy9T1zXplfkX+0f8Gv+Ggv+CmviHwD/bH9g/2v9n/4mH2X7T5XlaLFN/q96bs+Vt+8Mbs84xRs0+q1Humu5+o/xY+Gek/GT4d634M1yS6h0rV4fInksnVJkAYMChZWAIKjqDXE+Lf2UvAfjz4R+Gvh7r8N9qemeHIIYdM1B7ny76AxIEVxKiqN20DPy4OBxwK+OP8AhzX/ANVf/wDLZ/8Auyj/AIc1/wDVX/8Ay2f/ALspWVmu9vw2+65V9tdr/jv99j62+Ff7HHgL4W+LYPFfn674v8U20ZhttY8V6k19PbqcjEfCqpwSMhcgE4PJr0z4o2Os6r8NvFNj4dSOTXrrTLiCxWWQRr5zxsqEsegyRzX5+/8ADmv/AKq//wCWz/8AdlH/AA5r/wCqv/8Als//AHZRNe0g4S22+8IPkkprf/I+yv2VfCvinwB8GdC8JeKfDln4eudCt47GL7HqYvVu1VQWnOI08ss5b5Pm+prZj+BOgx/Heb4svealN4jfSBoqWsksZtIoN4fKLs3hyc8lyPmPFfDn/Dmv/qr/AP5bP/3ZR/w5r/6q/wD+Wz/92VpKblP2j3/zVn992ZxjGMeRbf00fUnxg8DeP/i38XPAVjN4YsbHwB4Y8RQ65JrB1hZJ7wxQtsX7N5Y2Ykb++2QM8V9DV+av/Dmv/qr/AP5bP/3ZR/w5r/6q/wD+Wz/92VC0jy/P56L9EU7OXN5W/N/qz9KqK/NX/hzX/wBVf/8ALZ/+7KP+HNf/AFV//wAtn/7soDQ/SqivzV/4c1/9Vf8A/LZ/+7KP+HNf/VX/APy2f/uygND9KqK/NX/hzX/1V/8A8tn/AO7KP+HNf/VX/wDy2f8A7soDQ/SqivzV/wCHNf8A1V//AMtn/wC7KP8AhzX/ANVf/wDLZ/8AuygND9KqK/LD/gmv4N/4Vz+218UPCf2z+0P7B0nVNL+2eV5Xn+RqVrF5mzLbd2zO3JxnGT1r9T6AYUUUUCPhH9k3/lID+0X/AMC/9KEr7ur4R/ZN/wCUgP7Rf/Av/ShK+7qBhRRRQIKKKKACiiigAooooAKKKKACiiigAooooAKKKKACiiigAooooAKKKKACiiigAooooAKKKKACiiigAooooAKKKKACiiigArzT9pr/AJNt+K//AGKWrf8ApHLXpdeaftNf8m2/Ff8A7FLVv/SOWgDyn/gmn/yZ34N/676h/wClk1fUNfL3/BNP/kzvwb/131D/ANLJq+oaBvcKKKKBBRRRQAUUUUAFFFFABRRRQAUUUUAFFFFABRRRQAUUUUAFFFFABRRRQAUUUUAFFFFABRRRQAUUUUAFFFFABRRRQAUUUUAFFFFABRRRQAUUUUAFfmr/AM5nP8/9C7X6RWeoWuoLK1rcw3IhlaGQwyB9kinDIcdGB4IPIr83f+czn+f+hdoGj9KqKzPEXibR/B+kzarr2rWOiaZDjzb3UblLeFMnA3O5Cj8TXGfEH4yafoHw/s9d8MTWXiq81q4i0/QI7O5WS3v7qUlYwJEJHljDO7DOFRj2penp83t94W/r8/uPRqK8c8O/GW+j+J3jXQfEt/oNh4f8IaNps2pawQ1rGL64EjSAvJKVSIIqEA5I38sa6DSfiVdXfxs1LwbMlnLpkmgW2uaXeW+S8imZ4plc7irAHymUqBw569aq2qS6/pd/km/QnZNvpb8bf5pHodFFFIYUUUUAFFFFABRRRQAUUUUAFFFFAH5q/sS/8pJPj5/3H/8A08QV+lVfmr+xL/ykk+Pn/cf/APTxBX6VUDYUUUUCPhH9k3/lID+0X/wL/wBKEr7ur4R/ZN/5SA/tF/8AAv8A0oSvu6gYUUUUCCiiigAooooAKKKKACiiigAooooAKKKKACiiigAooooAKKKKACiiigAooooAKKKKACiiigAooooAKKKKACiiigAooooAK80/aa/5Nt+K/wD2KWrf+kctel15p+01/wAm2/Ff/sUtW/8ASOWgDyn/AIJp/wDJnfg3/rvqH/pZNX1DXy9/wTT/AOTO/Bv/AF31D/0smr6hoG9wooooEFFFFABRRRQAUUUUAFFFFABRRRQAUUUUAFFFFABRRRQAUUUUAFFFFABRRRQAUUUUAFFFFABRRRQAUUUUAFFFFABXxB/wUv8A2j/iL+z7/wAK4/4QHxD/AGD/AGv/AGl9t/0K2ufN8r7L5f8Aro32481/u4zu5zgV9v1+av8AwWU/5pB/3GP/AGyoGtw/42J/5/4R2j/jYn/n/hHa/SqigLn5q/8AGxP/AD/wjtH/ABsT/wA/8I7X6VUUBc/NX/jYn/n/AIR2j/jYn/n/AIR2v0qooC5+IXgjx3+0d4S/aY1630CTVLr4nXOoFtb0mzjimt7mUMA5nji/cbBkAyDAXdkMvWvb/hveeKr7/grJo8/jfT9P0vxU8Ob+00qdpraOT/hHjjYzAHldpI5wSQGYDcf0z8P+CtB8K3mq3ekaRaafearcteX9zDEBLdTMeXkfqx7DJ4HAwK/PD/nM5/n/AKF2gdz3L9pvVrvT/wBobwpPrvi3RPA3hOy0OabS9U8TaOdQsH1JpdsoGZokjnWELsZieGfA5NT+C/Ami+D/AIj/AAP07SdVm17Rb6TxB4j/ALSniWFbq/ljT51iVVWNdk021VAAHrya+saxtb8IaR4i1TRNR1C08++0W5a7sJxI6NDI0bxMflI3Ao7Aq2Qc9MgYcPcSXr+Lb/C6+5Cn7zb8vyVvx1vvu/Q+GdFt7i5+Ml18UPFU0Op/DDXPiFc6U+mzRkRW1zAq2ljfSnOJEEsJQKw2oXDdcEfS3gUnxr+0p458UW/z6ToGmW/haCYD5ZbrzGuLoKe4TdAh/wBoMO1ezyIJI2Q5AYYO0kH8CORWT4S8I6R4F0G20XQ7NbHTrfcUj3tIxZmLO7uxLO7MSzMxLEkkkk0Q92MV/KrL7lHX5X+9LTlV1P3nJ/zP/wBuctPnb7m92bFFFFIAooooAKKKKACiiigAooooAKKKKAPzV/Yl/wCUknx8/wC4/wD+niCv0qr81f2Jf+Uknx8/7j//AKeIK/SqgbCiiigR8I/sm/8AKQH9ov8A4F/6UJX3dXwj+yb/AMpAf2i/+Bf+lCV93UDCiiigQUUUUAFFFFABRRRQAUUUUAFFFFABRRRQAUUUUAFFFFABRRRQAUUUUAFFFFABRRRQAUUUUAFFFFABRRRQAUUUUAFFFFABXmn7TX/JtvxX/wCxS1b/ANI5a9LrzT9pr/k234r/APYpat/6Ry0AeU/8E0/+TO/Bv/XfUP8A0smr6hr5e/4Jp/8AJnfg3/rvqH/pZNX1DQN7hRRRQIKKKKACiiigAooooAKKKKACiiigAooooAKKKKACiiigAooooAKKKKACiiigAooooAKKKKACiiigAooooAKKKKACvzV/4LKf80g/7jH/ALZV+lVfmr/wWU/5pB/3GP8A2yoGtz9KqKKKBBRRRQAUUUUAFfmr/wA5nP8AP/Qu1+lVfmr/AM5nP8/9C7QNH6VUUUUCCiiigAooooAKKKKACiiigAooooAKKKKACio7i4itYJJ55EhhjUu8kjBVVQMkknoAKg0nVrHXtMtdS0y8g1DT7qNZre7tZBJFMjDKujKSGUjkEcGgD84P2Jf+Uknx8/7j/wD6eIK/SqvzV/Yl/wCUknx8/wC4/wD+niCv0qoGwooooEfCP7Jv/KQH9ov/AIF/6UJX3dXwj+yb/wApAf2i/wDgX/pQlfd1AwooooEFFFFABRRRQAUUUUAFFFFABRRRQAUUUUAFFFFABRRRQAUUUUAFFFFABRRRQAUUUUAFFFFABRRRQAUUUUAFFFFABRRRQAV5p+01/wAm2/Ff/sUtW/8ASOWvS680/aa/5Nt+K/8A2KWrf+kctAHlP/BNP/kzvwb/ANd9Q/8ASyavqGvl7/gmn/yZ34N/676h/wClk1fUNA3uFFFFAgooooAKKKKACiiigAooooAKKKKACiiigAooooAKKKKACiiigAooooAKKKKACiiigAooooAKKKKACiiigAooooAK/NX/AILKf80g/wC4x/7ZV+lVfmr/AMFlP+aQf9xj/wBsqBrc/SqvIvi9+1l8KfgP4kttA8deKv7D1a5tFvorf+zru43Qs7or7oonUfNG4wTnjpyK9dr8w/8AgoF4b07xl+3/APBnQNYt/tmk6raaLY3lvvZPNhl1W5SRNykMuVYjIIIzwRQCPqf/AIePfs7f9FD/APKJqP8A8j0f8PHv2dv+ih/+UTUf/kej/h3D+zt/0Tz/AMreo/8AyRR/w7h/Z2/6J5/5W9R/+SKA0D/h49+zt/0UP/yiaj/8j0f8PHv2dv8Aoof/AJRNR/8Akej/AIdw/s7f9E8/8reo/wDyRR/w7h/Z2/6J5/5W9R/+SKA0POND/wCCqHw4m+LWseHtTWRfB3nRrpXiy0hm2SKY1L+fA6iRArlxuUHOB8oHJ8h8PeItL8W/8FgrPWNE1G11bSrxPMt72zlWWKVf+Ed6qykg8gj8K60f8Eo9F1743a/qd1d/8I18MY54v7M0TTbh57ydRFHv3SyljGpk39SzEdNvBrgvh/4B0D4W/wDBWzTPC3hfTo9J0HTYzHbWkbMwQHw+WYlmJZiWZmJJJJJJoK06H6Q/FD4i6X8Jfh/rnjDW1uJNL0i3NzOlqqtKyggbUDMoLEkAZI615R4s+NF78TNL8NeG/Cdprnhe98X6jJaQ6nqFuLW4XTYohNc31uu4sAyFY42YKQ0gbHAz0v7TngPWvif8O7LwtpFh9ut9R1vTRqgMyRiOwS5SWdzuYbhtjxtXJO7gVR8aW50z9qb4ZX0yhbC40LWNMtjjCrclraYKPdooZMeyGnC0n7213+Eeb5pv3fv+Uy0Xu72/N2+9ay+447x94iguPA/x71Twt4k8XWup+FLJLLdeaiTZ291Z2wuA1rhi+W3ospc5c8HI6/RPh3Un1nw/peoSJ5cl1axTsmPulkDEfrXyhD4J8QL8M734Z6nZmy8Z/EzxNqOqavbrMkzWOkvdZmmkeNmUA26xxLz9+VR2OPry3gS1gjhiUJFGoRVHQADAFNfAm/L77e98ru3yYpWUuVdHL7rpR/BX+afUkoooqQCiiigAooooA+KLzVviv+0JqHi3UPDNp4o0g22t3OleH9WtPEcGnaRp6W03lNLcW8chmupGZHYpLEVIKqMDLH7StUljtYUnkE0yoA8gXaGbHJx2ya85vf2d/BEnim78T2elSWOvT3AvmeK/u0s5LsY2zy2kcyQyNkKSSuTjrnmj+wfjD/0PXgf/AMIu8/8AltRF2go+n5f10+/o5e9Ny6a29L/p6/ccFqN1qHxs+PXjjwjd+JdZ8M+EvBNlZb7bQtQk064vbq5jaUzSTxlZBFGgACqwBYsTnGK8y+FfxQ8W+NdU+Cfh648R6jd29x4j125XVBcNHJq2kWCyR27TlcCUO0kec5DbAxzX0Z4v/Z98FfEfUbbVvFekLf66LRbS6vNPurmwS7jHJjljimHmxZziOUuACRzzm54u+BPgXxxa6Bb6poKImgArpTabczWD2aFQjJG9u6MEKgApnaQBkU4e5b+td7+t7adrrsKXv36f8Na3z3v3sz5d+NXje98YeEv2ntTi8Qaq2jafJYeFtGt9P1OWKJLwIqy7QjgZaa5VHH8QTa2RxX1Z8I/hrY/CXwLpvh3T7rUrq3too1/4mWoTXjIRGq7EMrMUjG3hFwo7AVkx/s4/DeHwJrXgyHwtbweGdYu/t95p8M0savcZQiRWVw0ZBjQjYVwV4xXeaLpFt4f0iz0yz877JaQrBF9onknk2qMDdJIzO5wPvMST3JpxtGNlu+W/nZa/jd/8MEvekn2v+O34Jfjufjn4f+KXxJ+Ef7bXxq1j4XeEf+E08QT6trVpPYf2Zc3/AJds2pB2l8u3ZWGHSNdxOPnx1Ir2/wD4ba/bC/6IH/5Zusf/AB6j9iX/AJSSfHz/ALj/AP6eIK/SqpKZ+av/AA21+2F/0QP/AMs3WP8A49R/w21+2F/0QP8A8s3WP/j1fpVRQK5+bv8AwTl8TeIvGf7Vnxj1zxbpP9heJb6yE+oab9mkt/s8pnXKeXIS6Y9GJNfpFXwj+yb/AMpAf2i/+Bf+lCV93UAwooooEFFFFABRRRQAUUUUAFFFFABRRRQAUUUUAFFFFABRRRQAUUUUAFFFFABRRRQAUUUUAFFFFABRRRQAUUUUAFFFFABRRRQAV5p+01/ybb8V/wDsUtW/9I5a9LrzT9pr/k234r/9ilq3/pHLQB5T/wAE0/8Akzvwb/131D/0smr6hr5e/wCCaf8AyZ34N/676h/6WTV9Q0De4UUUUCCiiigAooooAKKKKACiiigAooooAKKKKACiiigAooooAKKKKACiiigAooooAKKKKACiiigAooooAKKKKACiiigAr81f+Cyn/NIP+4x/7ZV+lVfmr/wWU/5pB/3GP/bKga3P0qr81f22v+UknwD/AO4B/wCniev0qr81f22v+UknwD/7gH/p4noBH6VUUUUCCiiigAr81f8AnM5/n/oXa/SqvzV/5zOf5/6F2gaP0qooooEFFFFABRRRQAUUUUAFFFFABRRRQAUUUUAFFFFAH5q/sS/8pJPj5/3H/wD08QV+lVfmr+xL/wApJPj5/wBx/wD9PEFfpVQNhRRRQI+Ef2Tf+UgP7Rf/AAL/ANKEr7ur4R/ZN/5SA/tF/wDAv/ShK+7qBhRRRQIKKKKACiiigAooooAKKKKACiiigAooooAKKKKACiiigAooooAKKKKACiiigAooooAKKKKACiiigAooooAKKKKACiiigArzT9pr/k234r/9ilq3/pHLXpdeaftNf8m2/Ff/ALFLVv8A0jloA8p/4Jp/8md+Df8ArvqH/pZNX1DXy9/wTT/5M78G/wDXfUP/AEsmr6hoG9wooooEFFFFABRRRQAUUUUAFFFFABRRRQAUUUUAFFFFABRRRQAUUUUAFFFFABRRRQAUUUUAFFFFABRRRQAUUUUAFFFFABX5q/8ABZT/AJpB/wBxj/2yr9Kq/NX/AILKf80g/wC4x/7ZUDW5+lVfmr+21/ykk+Af/cA/9PE9fpVX5q/ttf8AKST4B/8AcA/9PE9AI/Sqiiobi8gtFBnmjhDcAyOFz+dAiaiqX9taf/z/AFt/3+X/ABo/trT/APn+tv8Av8v+NAF2vzV/5zOf5/6F2vqGT9uj4a6P8cPEHwy8TX3/AAjOpadNFFbapeOpsLvfCkv+tHETDfj58LwMMScV8uRSpP8A8FmEkjdZI3AZXU5DA+HOCD3FBSP0O8TeOtE8H32hWer3v2W51y+Gm6dGIZJDPcFGfZ8inaNqMdzYUY5NbrMFUsxAAGST2r5q+PGn6/49/ae+E3hnw7qkWjSaNYal4hvL6S3Fw1urKlrG8aN8pkzJIF3AqMklWxg8fJ8SfGfib4L+M/DOreIH1m9u/H3/AAgdh4gWCO1nntJJ4o5pGWJVQOqNOu5FHKg4oinNLl3e3/gSh/6U/u9AlaLu3orX8tHL/wBJVz6PtfjV4Mvbfw5cQawZIPEV/Jpukyi0n23k6BywQ7MbMRuRJ9xgMhjkZ3vCni7SPHGknU9EvBe2QnmtWfy3jKyxSNFIjK4DAq6MOR29K8y1bxJqHh/4/fDb4c+G549M8N2+g3+o6jp8MEZDQReTBaoCVLIA7k/KRnbg5HFM/ZdYXWi/EC/gOdOvvG2ry2eB8pRZhGxX2Mkch/GqVparaza+UlG333fyIleKTe90n81KX5Jf1ovaaKKKkYUUUUAFFFFABRRRQAUUUUAFFFFAH5q/sS/8pJPj5/3H/wD08QV+lVfmr+xL/wApJPj5/wBx/wD9PEFfpVQNhRRRQI+Ef2Tf+UgP7Rf/AAL/ANKEr7ur4R/ZN/5SA/tF/wDAv/ShK+7qBhRRRQIKKKKACiiigAooooAKKKKACiiigAooooAKKKKACiiigAooooAKKKKACiiigAooooAKKKKACiiigAooooAKKKKACiiigArzT9pr/k234r/9ilq3/pHLXpdeaftNf8m2/Ff/ALFLVv8A0jloA8p/4Jp/8md+Df8ArvqH/pZNX1DXy9/wTT/5M78G/wDXfUP/AEsmr6hoG9wooooEFFFFABRRRQAUUUUAFFFFABRRRQAUUUUAFFFFABRRRQAUUUUAFFFFABRRRQAUUUUAFFFFABRRRQAUUUUAFFFFABX5q/8ABZT/AJpB/wBxj/2yr9Kq/NX/AILKf80g/wC4x/7ZUDW5+lVfmr+21/ykk+Af/cA/9PE9fpVX5q/ttf8AKST4B/8AcA/9PE9AI/Sqvhj/AIKtaZFrXgf4YafOzpDd+KEt3aMgMFeJlJGQecH0r7nr4j/4Khf8i78I/wDsb4f/AEA0Atxn/Don4Pf9DJ44/wDA6z/+RKP+HRPwe/6GTxx/4HWf/wAiV9v0UBdn5Tf8Oq/EGvfHDxBpWmX9zoXwy0+4iS21rWGSe9vFMUbSeVGioGw7Ou4hVGP4iDSfCD4X6X8F/wDgqnoXgrRbi8utM0iEwwzX8vmTPnQGdizYA+8xwAAAMAAACv1ar81f+czn+f8AoXaB3Pvyz+GemWfxS1Lx6Li8l1m+0uHSDFI6GCGCOR5BsULuDMzkkliOBgCuA1v9nOHSPhhp/h7wpfO+oab4li8UQ3WsuGM1x9t+0zB2jj43K0iDCcAr1617bRQrxs102+/m/PUl63v13+7l/LQ+adH0fxn8SviV8RvHnh7Trjwy1zo9n4Y0C68UWc1lKiCSSS6uhbunmYVpBsVgodo+oHNe7eAfBOnfDjwXo/hnSVYafplutvG0hy74+87HuzNlie5JroKKa0jyr+t3+bb+YP3pcz/rRL8kkFFFFIAooooAKKKKACiiigAooooAKKKKAPzV/Yl/5SSfHz/uP/8Ap4gr9Kq/NX9iX/lJJ8fP+4//AOniCv0qoGwooooEfCP7Jv8AykB/aL/4F/6UJX3dXwj+yb/ykB/aL/4F/wClCV93UDCiiigQUUUUAFFFFABRRRQAUUUUAFFFFABRRRQAUUUUAFFFFABRRRQAUUUUAFFFFABRRRQAUUUUAFFFFABRRRQAUUUUAFFFFABXmn7TX/JtvxX/AOxS1b/0jlr0uvNP2mv+Tbfiv/2KWrf+kctAHlP/AATT/wCTO/Bv/XfUP/SyavqGvl7/AIJp/wDJnfg3/rvqH/pZNX1DQN7hRRRQIKKKKACiiigAooooAKKKKACiiigAooooAKKKKACiiigAooooAKKKKACiiigAooooAKKKKACiiigAooooAKKKKACvzV/4LKf80g/7jH/tlX6VV+av/BZT/mkH/cY/9sqBrc/SqvzV/ba/5SSfAP8A7gH/AKeJ6/SqvzV/ba/5SSfAP/uAf+niegEfpVXxH/wVC/5F34R/9jfD/wCgGvtyviP/AIKhf8i78I/+xvh/9ANALc+3KKKKBBX5q/8AOZz/AD/0LtfpVX5q/wDOZz/P/Qu0DR+lVFFFAgooooAKKKKACiiigAooooAKKKKACiiigAooooA/NX9iX/lJJ8fP+4//AOniCv0qr81f2Jf+Uknx8/7j/wD6eIK/SqgbCiiigR8I/sm/8pAf2i/+Bf8ApQlfd1fCP7Jv/KQH9ov/AIF/6UJX3dQMKKKKBBRRRQAUUUUAFFFFABRRRQAUUUUAFFFFABRRRQAUUUUAFFFFABRRRQAUUUUAFFFFABRRRQAUUUUAFFFFABRRRQAUUUUAFeaftNf8m2/Ff/sUtW/9I5a9LrzT9pr/AJNt+K//AGKWrf8ApHLQB5T/AME0/wDkzvwb/wBd9Q/9LJq+oa+Xv+Caf/Jnfg3/AK76h/6WTV9Q0De4UUUUCCiiigAooooAKKKKACiiigAooooAKKKKACiiigAooooAKKKKACiiigAooooAKKKKACiiigAooooAKKKKACiivyL/AGj/AINf8NBf8FNfEPgH+2P7B/tf7P8A8TD7L9p8rytFim/1e9N2fK2/eGN2ecYoGj9dK/NX/gsp/wA0g/7jH/tlR/w5r/6q/wD+Wz/92V81/tlfsa/8Mkf8Ih/xV/8Awlf/AAkH2z/mGfY/I8jyP+m0m7d5/tjb3zwDVrn7fV+av7bX/KST4B/9wD/08T0f8Oa/+qv/APls/wD3ZXzX8bv2Nf8AhTn7SXgH4T/8Jf8A2v8A8JV/Z/8AxN/7M8j7L9pvJLb/AFPnNv2+Xu++uc4460ArH7fV8R/8FQv+Rd+Ef/Y3w/8AoBrzH/hzX/1V/wD8tn/7srxL9qH9gD/hm3TfCN1/wnn/AAkX/CQaumlbP7H+y+RuBPmZ8993T7vH1oBWP2Xor81f+HNf/VX/APy2f/uyj/hzX/1V/wD8tn/7soFofb3g/wDaN8A+NPiFr/gWy12K28X6LdSWlxpF7+5mkKnBeLJxKpHPykkAjcBXxD/zmc/z/wBC7XhXhH/gnb8TPE3xk1zw/oEz2vh7QNTe1/4TO+ha0ikaNhl4YwzMzg9kJAK4LA16d8MfCF/4B/4Kv6N4f1PxHf8Ai2/sIfKl1rU9v2i5P/CPE5bHoCFGSThRksckgz9LPiF8RNC+F/huTW/EF01vaCRIIo4Y2lmuJnO2OGKNQWeRjwFAya4u5/aJ0/RfDsmq+IvCPirwvJJdxWOnaZqNpA97qs8gJSO2igmk3Nwchiu3ktgAkZ/7Q/gfxPrmvfDfxV4a0lfEzeEtZfULnw/9pit3u0eB4g8bykJ5kZfcAzKDzyDisH4jaH498WeJfhj8SLTwNcG88K3t99p8G3Gp2gupYriHylnSUSGDzE5O0yYwx+bPFEdd+9vlp+L27Ld7MHpa3a/z10/BHU2P7TXhxtF8a3Wr6PrvhjU/CGnnVNT0PWLeFLz7NsZllj2SvFIrbGUESfeGDioPCv7Unh3xV4o8KaOPD3ibSYfFdvJPomqanYJDa3xSISvGuJDIrBckFkVWwSrMME+VfET4H/EL4naH8RfE19okWneJPGMGm+HbXQo72F303SI7kPcPNNuEbSsrysVjLAAKFLGvWPE/w51fWv2hPhxq0OnhPCPhTR9QZLgSxhReTCKGOMR7t/EQkO7btGcZzxVLpzdf0Tf4+6l/euiX1t0/4CX3Pmv/AHdThvCf7Yl1caf8UvEvifwPrekeDfCd3NbwXkcVqXzAI0lhk/0o7pzK7bQoCbQMvnNdw37T+gnStNuIvDfimbUNYuJIdF0VdOVb7Vo0RXa5hjaQBIMMP3kxjH5jPjul/Bb4hat+zvJ8PtY8JPbalqHjZbzWrk6havDd2MmpG6nuEKybtvlhU2MA5/u16Z8Q/CPi/wAK/tAaT8SfDvheTxvpv/COyeH5dItL23tbiybzxMs0ZndI2VsBGG4MNqkA0la0eb0+6Kd/m/d8tb67VJe9Ll7tr05rJfJXl56W3MT4xftCReJ/2c/Ht34WOr+HPFttcR+HXsLxfs2o6dfXEscUeTG7AHEodXRyCOQa+idKs30/S7O1eaS4eCFImmmYs7lVALMTyScZJNfLDfs9+NtU1DSNV1mxtX1LxN49tfFHiaGzuUaDTbO0hP2W3DMVMxDRwhiqnLMxxtGa+sqf2dd9L/8AgMf/AG5yXy3ZD+JLor/jJr8kn8woooqRhRRRQAUUUUAFFFFAH5q/sS/8pJPj5/3H/wD08QV+lVfmr+xL/wApJPj5/wBx/wD9PEFfpVQNhRRRQI+Ef2Tf+UgP7Rf/AAL/ANKEr7ur4R/ZN/5SA/tF/wDAv/ShK+7qBhRRRQIKKKKACiiigAooooAKKKKACiiigAooooAKKKKACiiigAooooAKKKKACiiigAooooAKKKKACiiigAooooAKKKKACiiigArzT9pr/k234r/9ilq3/pHLXpdeaftNf8m2/Ff/ALFLVv8A0jloA8p/4Jp/8md+Df8ArvqH/pZNX1DXy9/wTT/5M78G/wDXfUP/AEsmr6hoG9wooooEFFFFABRRRQAUV4h4B/a88E/Ej45a/wDCvSbTWBr2jfaBNezwRCylaB1SRY3EpYkFu6DofbK/tHfteeCP2YpdFg8T22rale6tvaG00WCKWVEUqDI4kkQKpZgo5JJzxxQtVFr7W3mVyu8o9Vv5Ht1FRW032m3imCNGJED7H+8uRnB96lp7aEJpq6CiiikMKKKKACiiigAooooAKKKKACiiigAooooAKKKKACiiigAooooAKKKKACvzV/5zOf5/6F2v0qr81f8AnM5/n/oXaBo/SqvzV/4LKf8ANIP+4x/7ZV+lVfmr/wAFlP8AmkH/AHGP/bKgFufpVX5q/ttf8pJPgH/3AP8A08T1+lVfmr+21/ykk+Af/cA/9PE9AI/SqviP/gqF/wAi78I/+xvh/wDQDX25XxH/AMFQv+Rd+Ef/AGN8P/oBoBbn25RRRQIK/LD4kfEjw78I/wDgrRqPizxZqP8AZXh/T/L+03nkSTeX5mgrEnyRqzHLuo4B65PGTX6n14f8SP2Kfgx8XPGmo+LPFng3+1fEGoeX9pvP7UvYfM8uNYk+SOZVGERRwB0yecmgaOa/4ePfs7f9FD/8omo//I9H/Dx79nb/AKKH/wCUTUf/AJHo/wCHcP7O3/RPP/K3qP8A8kUf8O4f2dv+ief+VvUf/kigNA/4ePfs7f8ARQ//ACiaj/8AI9H/AA8e/Z2/6KH/AOUTUf8A5Ho/4dw/s7f9E8/8reo//JFH/DuH9nb/AKJ5/wCVvUf/AJIoDQP+Hj37O3/RQ/8Ayiaj/wDI9H/Dx79nb/oof/lE1H/5Ho/4dw/s7f8ARPP/ACt6j/8AJFH/AA7h/Z2/6J5/5W9R/wDkigNA/wCHj37O3/RQ/wDyiaj/API9H/Dx79nb/oof/lE1H/5Ho/4dw/s7f9E8/wDK3qP/AMkUf8O4f2dv+ief+VvUf/kigNA/4ePfs7f9FD/8omo//I9H/Dx79nb/AKKH/wCUTUf/AJHo/wCHcP7O3/RPP/K3qP8A8kUf8O4f2dv+ief+VvUf/kigNA/4ePfs7f8ARQ//ACiaj/8AI9H/AA8e/Z2/6KH/AOUTUf8A5Ho/4dw/s7f9E8/8reo//JFH/DuH9nb/AKJ5/wCVvUf/AJIoDQP+Hj37O3/RQ/8Ayiaj/wDI9H/Dx79nb/oof/lE1H/5Ho/4dw/s7f8ARPP/ACt6j/8AJFH/AA7h/Z2/6J5/5W9R/wDkigNA/wCHj37O3/RQ/wDyiaj/API9H/Dx79nb/oof/lE1H/5Ho/4dw/s7f9E8/wDK3qP/AMkUf8O4f2dv+ief+VvUf/kigND5Y/4J++JNO8Zft/8Axm1/R7j7ZpOq2mtX1ncbGTzYZdVtnjfawDLlWBwQCM8gV+nleRfCH9k34U/AfxJc6/4F8K/2Hq1zaNYy3H9o3dxuhZ0dk2yyuo+aNDkDPHXk167QDCiiigR8I/sm/wDKQH9ov/gX/pQlfd1fCP7Jv/KQH9ov/gX/AKUJX3dQMKKKKBBRRRQAUUUUAFFFFABRRRQAUUUUAFFFFABRRRQAUUUUAFFFFABRRRQAUUUUAFFFFABRRRQAUUUUAFFFFABRRRQAUUUUAFeaftNf8m2/Ff8A7FLVv/SOWvS680/aa/5Nt+K//Ypat/6Ry0AeU/8ABNP/AJM78G/9d9Q/9LJq+oa+Xv8Agmn/AMmd+Df+u+of+lk1fUNA3uFFFFAgooooAKxfG3ie28FeDtc8QXjBLTS7Ga9lY/3Y0Ln+VbVeL/theFfGPjz9nzxP4Z8C6YdU17WFisvK+0RQBYGkXzmLSOq42BhjOTnpWdTmcGobvRfM0p8vOubbqfF/7NNnP4D+LP7Pfi3VysF3430/xHqOo3DMQG3s8wZvbYENYnxaku/jnqmh/EbUY3SD4gePLDw74dhkHMei2sjZcDt5sxVj7r6Gvo/9qL9krxR8QvDnwZ0HwJNHp0fhmN9Ivr7zkjNvYy28cErKDyx2KwwvPP410XxU/Z/1vUPjF+zvaeGNDA+HngWSaW8mFxEi2xSOMQDYzh3JMfVVP3smuuPIqsLbRlZeUebmv91or1aMHd05N7yi3L/FZq3zdn5WRkfHb9qi9X4yXPwr8JeOPCvw3OlWa3OteLfFEkTCFnUGO3tYJHVZZcMrHOQAfbnj/Af7WXjpv2efjnrmo+ILHxPL4MJs9C8c2WnpbwalK4KK3kkbCUcxngbTvHUcmz8Rf2Y/F/hP9orxd4/0b4W+EfjR4e8U+TK2l+IJ4IbnTZ1UKzI86Muw8k4BJGBj5Rnrf2i/hn8T/ix+ygng3T/BGk6P4h1DVLdLjRdDv4Ra2VkkvmbvMk8tWI2LkKOp4BrlinKla/vSST8m5LX/ALdXbS2rOj3Y1V/Knf1SV7fN9+uiRwnxQ+Lnxu+G/wCyV4I+Jd746VfGmoz2SHR49HtPst3HOCVSQGMuJSoDMY2Rc5AUcGuy+NXxG+LXwh1r4JzS+MYL7VvFmuW+lax4dj0y3WwxJtMhgbYZ12btuWlbOQcDpXS/tRfBXxP8SpPgr4c8PaR9s8NaJ4jtdQ1m4+0QxrbW9uqqvyu4Z8hn4QMeKtfG74S+LPiJ+1J8FNcttJ87wV4VN5fX9+1zEojuHQeUojLiRjujTlVIG7rXQnF1E1s6n3RST+56r12Oez9nruoffJtr8NPl8jP+KXxz8deNPj2fgx8JZtO0nVNOshqHiDxPqdsbmPT42ClI4osgPIQ6H5uPmx2JFT4GfGn4g6D+0J4m+C/xO1XT/FN9YaSus6f4ksbJbNp4flDLNEvyqfm7AY2nrkVneJ/hL8V/g5+0v4t+KHw18N6Z490nxhaQw6ho95qa2FxazIFUOsjjaU+XOBkncRjgGpPBH7PPxC0O3+LXxT8S/YdX+MXivSZ7LTdK0uYLbafH5eIbdJZCoJJWLLEgfJ1OSa54txp81rvllf8Axa2S/DVdL3u2byipT5b2V429NLt/jv5W7nJ/sufGP48/tHTPqNnq+n2HgvT/ABPMb7V760iFxd2YdCljaokW3Cx53Sv82ZBhsit74UftReIfCnhf9oW4+JOsDVr34e6xMloZLeG3L27BhaxARogJdkABIJO/rXrf7Hfwn1L4K/s6+EvCutWostct45Z7+ASJJsmkldyu5CVbAYDIJHHWvk/xB8KR8cf2+PGnh3Qr+O9+HzS6ZrHjFYBmFri1QrHaMw4JZ8ZX/e7rW0or2n1eL0s1f05by+5O3m+7d4jJOEq0ls728ru0fndfd5H1x+yjd/EHWPgrouufEvV21PxNrIOoeUbSG3FpBJgxQhY0XkLhiWy2WIzxXsFNVVjUKoCqowFAwAKdROSlJuKsiIppe87sKKKKgoKKKKACiiigAooooAKKKKACiiigAooooAK/NX/nM5/n/oXa/SqvzV/5zOf5/wChdoGj9Kq/NX/gsp/zSD/uMf8AtlX6VV+av/BZT/mkH/cY/wDbKgFufpVX5q/ttf8AKST4B/8AcA/9PE9fpVX5q/ttf8pJPgH/ANwD/wBPE9AI/SqviP8A4Khf8i78I/8Asb4f/QDX25XxH/wVC/5F34R/9jfD/wCgGgFufblFFFAgooooAKKKKACiiigAooooAKKKKACiiigAooooAKKKKACiiigAooooAKKKKAPhH9k3/lID+0X/AMC/9KEr7ur4R/ZN/wCUgP7Rf/Av/ShK+7qBhRRRQIKKKKACiiigAooooAKKKKACiiigAooooAKKKKACiiigAooooAKKKKACiiigAooooAKKKKACiiigAooooAKKKKACiiigArzT9pr/AJNt+K//AGKWrf8ApHLXpdeaftNf8m2/Ff8A7FLVv/SOWgDyn/gmn/yZ34N/676h/wClk1fUNfL3/BNP/kzvwb/131D/ANLJq+oaBvcKKKKBBRRRQAVyHi74weAvh/qUWneKfG/hzw1qEsIuI7TV9Wt7WV4yzKHCSOCVJVhnGMqR2rr6/Ln/AIKKeEbP4g/t2fCTwtqMk8On65p2kaZcyWrKsqRzapcxuULAgMAxwSCM44NA0fff/DTXwe/6Kv4H/wDCjs//AI5R/wANNfB7/oq/gf8A8KOz/wDjlfNf/Don4Pf9DJ44/wDA6z/+RKP+HRPwe/6GTxx/4HWf/wAiUBofSn/DTXwe/wCir+B//Cjs/wD45R/w018Hv+ir+B//AAo7P/45XzX/AMOifg9/0Mnjj/wOs/8A5Eo/4dE/B7/oZPHH/gdZ/wDyJQGh9Kf8NNfB7/oq/gf/AMKOz/8AjlH/AA018Hv+ir+B/wDwo7P/AOOV81/8Oifg9/0Mnjj/AMDrP/5Eo/4dE/B7/oZPHH/gdZ//ACJQGh9Kf8NNfB7/AKKv4H/8KOz/APjlH/DTXwe/6Kv4H/8ACjs//jlfNf8Aw6J+D3/QyeOP/A6z/wDkSj/h0T8Hv+hk8cf+B1n/APIlAaHuvj/42fBvx94L1nw7J8afCukJqds9sb7TPFNpDcwbhjfG4k4Yf/rrB+C/iz9nH4B+Do/DnhH4keCLS03+bcXE3iWzkuLuU9ZJX8z5mP4ADgADivKP+HRPwe/6GTxx/wCB1n/8iUf8Oifg9/0Mnjj/AMDrP/5EoWl7dQdnZPofSn/DTXwe/wCir+B//Cjs/wD45R/w018Hv+ir+B//AAo7P/45XzX/AMOifg9/0Mnjj/wOs/8A5Eo/4dE/B7/oZPHH/gdZ/wDyJQGh9Kf8NNfB7/oq/gf/AMKOz/8AjlH/AA018Hv+ir+B/wDwo7P/AOOV81/8Oifg9/0Mnjj/AMDrP/5Eo/4dE/B7/oZPHH/gdZ//ACJQGh9Kf8NNfB7/AKKv4H/8KOz/APjlH/DTXwe/6Kv4H/8ACjs//jlfNf8Aw6J+D3/QyeOP/A6z/wDkSj/h0T8Hv+hk8cf+B1n/APIlAaH0p/w018Hv+ir+B/8Awo7P/wCOUf8ADTXwe/6Kv4H/APCjs/8A45XzX/w6J+D3/QyeOP8AwOs//kSj/h0T8Hv+hk8cf+B1n/8AIlAaH0p/w018Hv8Aoq/gf/wo7P8A+OUf8NNfB7/oq/gf/wAKOz/+OV81/wDDon4Pf9DJ44/8DrP/AORKP+HRPwe/6GTxx/4HWf8A8iUBofSn/DTXwe/6Kv4H/wDCjs//AI5R/wANNfB7/oq/gf8A8KOz/wDjlfNf/Don4Pf9DJ44/wDA6z/+RKP+HRPwe/6GTxx/4HWf/wAiUBofSn/DTXwe/wCir+B//Cjs/wD45Wn4b+Onw28Za1b6PoHxC8K65q1zu8iw03Wra4nl2qXbbGjlmwqsxwOACe1fLH/Don4Pf9DJ44/8DrP/AORK+ffgp8IdH+A//BU/RvAugXN9eaTpXneRNqUiPO3m6HJM25kRFPzSMBhRwB160D0P1hooooJCvzV/5zOf5/6F2v0qr81f+czn+f8AoXaBo/SqvzV/4LKf80g/7jH/ALZV+lVfmr/wWU/5pB/3GP8A2yoBbn6VV+av7bX/ACkk+Af/AHAP/TxPX6VV+av7bX/KST4B/wDcA/8ATxPQCP0qr4j/AOCoX/Iu/CP/ALG+H/0A19uV8R/8FQv+Rd+Ef/Y3w/8AoBoBbn25RRRQIKKKjuJ47WCSaZ1iijUu7scBVAyST6Um7K7A8Z/aO/a08F/sww6OfFFtq2pXOqGRobPRYI5pUjTG6Vw8iBUyyjOep6da7jxz8VNF+H/ws1Lx/qS3Muh2OnjUXS2VWmeMqCqqCwUscgAFgMnrX50eP/iJ4L+P2kftC/EbWvF2g2t42mN4e8HaJeanBHdtawOsrSpCzbiZXUFcDPLAV6h+0h46n1r/AIJwfD20t3ZtQ8V2+i6QgU8u4Csw/EwkfjSSnKk7fE3G3/b97fdZN+tjS0fapP4VzX/7ds3+bXyufavgHx5Y/ELwBovi+zt7qx03VrGPUIYb9FSZInXcu8KzAHBB4Y1znwG+O2hftD+CZfFPhyx1Oy0tL2WyQ6pFHG8rR43OoSRxsycAkg8Hisb4zajD8F/2VvE8lqywroXhh7W27AOsHlRD/vorWJ+wn4P/AOEJ/ZR+HtmV2y3VidRk9Sbh2lH/AI66j8K2fK51eX4Va3zb/RfiYLm9nTb+J3v8kv1a+46Lx3+0Vpvgr4oWPgC28KeJ/FXiC409dUddAtYJY7a3aUxB5TJNGQNw7A8U74jftV/CX4S64dG8V+OdM0vVlKrJYgvPNEWAI8xYlYpkEH5scHNcP8Fd3i79rb45eJmAa30mPTfDNo+P7kRmmH/fbiup/aK8T/DX4N/D3xP4q8WaLpM82qRG3a3azje51ecx7I4ORmQkADnhVGeAKwlJxpRnu2r+t/hS+VvmbxipVHDpovwXN9zv9x3Fx8TNLuPh6fGPhyG58b6Y8QltovDfl3E12CwXEW51UkHOcsMYOelZvwQ+M+lfHjwT/wAJRo2marpVl9rmsvI1iKKOYvE21ziOR1xuyM7uxrwr9lTwrrP7NP7Eeo6h4nSSx1CGzv8AxA1jMSGtEaMvHEQehwoJHYsR1r0v9jHwo3g79l/4eWUilZ59MXUJt3UyXDGdiff95XRKCjKa7cv3u/5WaMFK8Ivu380v87pr5ntVFFFZFhRRRQAUUUUAFFFFABRRRQAUUUUAfCP7Jv8AykB/aL/4F/6UJX3dXwj+yb/ykB/aL/4F/wClCV93UDCiiigQUUUUAFFFFABRRRQAUUUUAFFFFABRRRQAUUUUAFFFFABRRRQAUUUUAFFFFABRRRQAUUUUAFFFFABRRRQAUUUUAFFFFABXmn7TX/JtvxX/AOxS1b/0jlr0uvNP2mv+Tbfiv/2KWrf+kctAHlP/AATT/wCTO/Bv/XfUP/SyavqGvl7/AIJp/wDJnfg3/rvqH/pZNX1DQN7hRRXOfEP4haB8K/BuqeKfE+oR6XommxebPcSfXCqo6szEhVUckkAUCOjor5x/Y5/aQ8XftLWPizxFqnhGPQPB8eoGLQL4ynzLiMDDRspHzlSMmRSF3MUAJQmvo6gAr81f22v+UknwD/7gH/p4nr9J1lSRnVXVmQ4YA5KnGcH04I/OvzY/ba/5SSfAP/uAf+niegaP0qoorB8PeOtD8Vaxr+l6Ve/ar7QbpbPUYvKdPImaNZAu5lAb5GU5Ukc460eQjeooooAKKKKACiiigAooooAKKKKACiiigAooooAKKKKACiiigAooooAK/NX/AJzOf5/6F2v0qr81f+czn+f+hdoGj9KqKKKBBX5q/wDOZz/P/Qu1+lVfmr/zmc/z/wBC7QNH6VV+av8AwWU/5pB/3GP/AGyr9Kq/NX/gsp/zSD/uMf8AtlQC3P0qr81f22v+UknwD/7gH/p4nr9Kq/NX9tr/AJSSfAP/ALgH/p4noBH6VV8R/wDBUL/kXfhH/wBjfD/6Aa+3K+I/+CoX/Iu/CP8A7G+H/wBANALc+3KKKKBBXiv7Xmj/ABB8V/BfU/DHw30k6hrevOunXFybuG3WytH4mlJkdSflyuFy3zZxxXtVfn3+3l+0f8Z/hz+0l4O8A/C7xD/Z/wDb2k2fkaf9ispfPvZ7y4hX95cRtt3bI15YKMZ45NTKKkrS2/rT5lxk4u63PdtQ/Yk+GWm/BG88L6b4D8PX3iGPQpLK31ebToPtct15JVZjMy5Dl8Nuzx+FeVw/sofEPxl+xL4C8GXsNv4a+JHg7Uv7Tsbe8uY5oWeOaUxq7xF1wY5ARgnBAzjmvN/+Nif+f+Edo/42J/5/4R2rbbcnfdp+jTbTX3kqKSjHtf5pqzTPXPHXw/8A2hf2qNG07wR498OaF8NPBn2qKXXbux1Rb251JI2DBYUQkRqzAHDnI4JJxg/YOn2Fn4d0e2srWNbawsYFhijXhY40UAD6ACvzi/42J/5/4R2kdP8AgojIjI6hkYYKsPDpBHpSbfK4x0vr8w5dU29tPke3/sXeOrbWPhH8SvEvhmbT/FPjbV9f1XXz4eh1GFLnLyMltHLub9yriIYZ8DBzXkGm+Df2ntS+LknxF8dfA+z8da1bHGi2d54msIbHR1zn9zAJmBfp87EngHrzXO6N4W/b58OtK2k6RYaW0oAkNnbeGoS+OmdoGcZP51p/8bE/8/8ACO09pRlHokl8lb77FP3uZPq2/vd7eh7x+198Unm/ZpfwfrF1pOh/E/xZb6fYv4Vi1GKW5iNzOiShVDbnRR5i7wCp2nmvqXQ9Li0PRbDTbddsFnbx28ajsqKFA/IV+Zt94T/b31TUotQvNG0+7v4tvl3U9r4ZeVNpyuHIyMHpzxWr/wAbE/8AP/CO076PTd3+XRfLX7yHHVa7L8Xu/nZfcfpVRX5q/wDGxP8Az/wjtH/GxP8Az/wjtSOx+lVFfmr/AMbE/wDP/CO0f8bE/wDP/CO0BY/SqivzV/42J/5/4R2j/jYn/n/hHaAsfpVRX5q/8bE/8/8ACO0f8bE/8/8ACO0BY/SqivzV/Zw/aP8A2if+GzvD3wn+LHiH/n4/tPSPsWnf9A6W5h/fW8f/AFyb5X9j3FfpVQAUUUUCPhH9k3/lID+0X/wL/wBKEr7ur4R/ZN/5SA/tF/8AAv8A0oSvu6gYUUUUCCiiigAooooAKKKKACiiigAooooAKKKKACiiigAooooAKKKKACiiigAooooAKKKKACiiigAooooAKKKKACiiigAooooAK4T496Df+KvgX8RdF0q2a91TUvDmo2dpbRkBpZpLWREQZ4yWIHPrXd0UAfm9+z/4q/al/Z9+FeleB9M+BMeqWWnvO6XV3chZG82V5DkLLjguR+Fei/8ADSf7Wv8A0bzZf+BZ/wDjtfblFA7nwtrf7V37UvhvSLzVdW+A2labplnE09zeXV+I4oY1GWZmM2AAO5r5f8efE346f8FAJtPu7HwFLqngzw/cr52j6LI0NrNOQC3myu+WfbxxyivwAWyfuH9sz4H/ABR/aG1rwf4M0LVLXRvhldSmXxBdRSEXIZDuAdM/vEIxsUcb+WwACPoL4bfDjw/8JfBOl+FPDFgmnaNp0XlwxLyzHqzuf4nY5YsepJoHc+OfD/xz/aj8J6HYaNo/7NumadpVhAlta2kFztSKNQAqgeb0AFaH/DSf7Wv/AEbzZf8AgWf/AI7X25RQI/F34xftKfHTwb+09ceJJLC58AeNbqCzgn8O2bG4gukChYleIlhJuB4HUE8YNdV8TvHHjv4h/tpfs6az8RfCC+C/EcjaCrWKy586MatKRN5Zy0O4lh5bksNvJ5r9Rrf4P+D7f4j3/j3+wrWbxfeRR276rOvmSxxou1Vj3ZEYx124J7k8V8D/ALbX/KST4B/9wD/08T0FXP0pJwCT0r460/44fEzxhovgJPD/AIgtodU8Z+OtVis5ruwhkih0O1M427AqlgBGjbshySBvwa+v721+22c9uZJIRNG0fmREB1yMZGQRkfSvMvBX7OPhjwJdeAZ9PutTl/4QrTLnTNNjuZY2V1uCnmzS4jG6U7Oq7R8zcehG3NeW2n+f5pL0bJfw2W//AAGv1v6pGB8C/FXi+b4ufFPwb4g8Sv4v0zw4+nm01S5soLadJJ4GkkgYQIiMFAQg7c/Pgk1634y8UWfgfwjrXiLUCwsdJspr6fb12RoXbHvgVw0XgPXPhrq/iPVPA2laf4jvvFGptqmqt4k1x7AQuIo4o0h8mym3IFj6Ngj1bPGnp0fjTxdHfaN438IeF7Tw7fWstvcf2b4iuL+SUONpjMT2EA2kFsnfkeh7TPmlC0fit+Nv8/vKjyqd5fDf8P8Ag7+XoeEfCn4rfFr4keLvBWsW3/CQDTNUm+0a5o+peGBp2j6dYvEzIILqaNZ7iYHywGRmRyWO1VxX1rXm3w1+Co+GVxbLbeN/FmtaVZwfZrLR9YvIZba1j6Kq7IVkfaAADI7kAV6TWsnHaO39f119TJc17y3/AA/r7vQKKKKgoKKKKACiiigAooooAKKKKACiiigAooooAKKKKACvzV/5zOf5/wChdr9Kq/NX/nM5/n/oXaBo/SqiiigQV+av/OZz/P8A0LtfpVX5q/8AOZz/AD/0LtA0fpVX5q/8FlP+aQf9xj/2yr9Kq/NX/gsp/wA0g/7jH/tlQC3P0qr81f22v+UknwD/AO4B/wCniev0qr81f22v+UknwD/7gH/p4noBH6VV8R/8FQv+Rd+Ef/Y3w/8AoBr7cr4j/wCCoX/Iu/CP/sb4f/QDQC3PtyiiigQV+av7bX/KST4B/wDcA/8ATxPX6VV+av7bX/KST4B/9wD/ANPE9A0fpVRRVPV9Ws9B0q81PUbmOzsLOF57i4mbakUaglmY9gACaTaSuwSbdkXKK828OfHbR/EviLwlokWk6zZ33iXS7nWbRbyCOPyrWFkUSTDzCyeZ5qFVwTg/MFIxXR3/AI/07TPiDpHg+5juI9S1WxuL60mKr5EiwNGske7dneBKrY24xnnjFVyu6Xe/4Xv91n9xN+v9a/8ADo6aiiikMKKKKACiiigAooooAKKKKACiiigD81f+czn+f+hdr9Kq/NX/AJzOf5/6F2v0qoGwooooEfCP7Jv/ACkB/aL/AOBf+lCV93V8I/sm/wDKQH9ov/gX/pQlfd1AwooooEFFFFABRRRQAUUUUAFFFFABRRRQAUUUUAFFFFABRRRQAUUUUAFFFFABRRRQAUUUUAFFFFABRRRQAUUUUAFFFFABRRRQAUUUUAFFFFABRRRQAUUUUAFfmr+21/ykk+Af/cA/9PE9fpVX5q/ttf8AKST4B/8AcA/9PE9A0fpVRRRQIKKKKACiiigAooooAKKKKACiiigAooooAKKKKACiiigAooooAKKKKACvzV/5zOf5/wChdr9Kq/NX/nM5/n/oXaBo/SqiiigQV+av/OZz/P8A0LtfpVX5q/8AOZz/AD/0LtA0fpVX5q/8FlP+aQf9xj/2yr9Kq/NX/gsp/wA0g/7jH/tlQC3PS/8Ah7t8Hv8AoW/HH/gBZ/8AyXXyL+0R+114O+Ln7W3wy+KOj6brlt4f8Mf2Z9str6CFLqT7Nfy3EnlqsrKco4Ay685zgc1+p3/DMvwe/wCiUeB//Ccs/wD43X59/tgfDLwd4Z/b/wDgn4d0fwnoeleH9Q/sT7ZpNjpsMNrc+Zqs0cnmRKoV9yAKcg5AAPFA1Y9w/wCHu3we/wChb8cf+AFn/wDJdfOv7ZP7dngL9obSfAtr4c0jxHZSaFrsep3J1S2t4w8SqQQmyd8t7HA96/R7/hmX4Pf9Eo8D/wDhOWf/AMbr4/8A+CjXwd8BeB9B+F0nhzwR4c8PyXnimK3uW0vSbe2M8RQ5RyiDcvseKAVjrP8Ah7t8Hv8AoW/HH/gBZ/8AyXR/w92+D3/Qt+OP/ACz/wDkuvpT/hmX4Pf9Eo8D/wDhOWf/AMbo/wCGZfg9/wBEo8D/APhOWf8A8boFofCHjj/grPPb/F6w1Twbot5f+AG02K3vtE16GK2uftQllLzQyRPJjMbRD5iQdh+UfePC/Fr9oDwv+0j+3L8AvFfhX7UlpHcaFZXVvew+XLb3C6rI7RnqGwsiHcpIOeucgfYnxE/4JyfDL4k/F/T/ABPc2FpoPhaz0yK0Phfw5ZR6fFd3CyzO00rxAHBWRF+UBjsHzgACvm39q7wdofgL/goL+z1onhzSbPRNJthoAis7GFYo1/4nE+TgDknuTye9BWh9i/tO/ELxNpOu+BPA/hSx1a7vPE891LeNoVzb2179ktow8iQS3DpHG7F0BbduCh9vzYI801Twp430vwhpvhPxfc6jDonjbxxp9nZ6PrGsNq15ZaciGeeGa7Ykv5pt2Gzc4VXIDHNfTvxC+Fvhj4pWNnaeJdNa9WynFzaTwXM1rcW0mCN8U0LpIhIJB2sMg4Nc7rnwI0ibwr4d0bQbmbRf7C1u21u0ubiSW/kMscmZA7SyF38xGkQsXyN+ecYp0/dkm+6+7mT/ACW2vXuyZ+9Gy7P77St+LXbp2Pmr4y+Pdetv2sNbGktNomhxWOk+DL7xfDsf+xDeSPOSiE/6yQmBA5yseQxB4B9p1zRorf8AaH+D/hzT5729Ph3R9U1G6ub66kuZ/JZIreMyyyEszO7McsefLPpXoGqfBPwVrWl+MNPvdEW5tPF0y3GtI9xNm6kVERWDb8xkLGmPLK4K5GDzR8P/AIXx+Dde8Q67eag2sa3rEkcZupIyv2ezhBW3tU3O7bUBZmYsS7u7HGQAU/diovpd/etvlJtruuz3U/ebkvJfdZX+cUl5O26vbuaKKKQBRRRQAUUUUAFFFFABRRRQAUUUUAfmr/zmc/z/ANC7X6VV+av/ADmc/wA/9C7X6VUDYUUUUCPhH9k3/lID+0X/AMC/9KEr7ur4R/ZN/wCUgP7Rf/Av/ShK+7qBhRRWfr+vad4V0S+1jV72HTtLsYWuLm7uGCxxRqMszH0ApNpK7BJt2RoUV8L/ABi/a3Pxn8UfCvwX8O7bxv4eg1/xRaS/8JJJZy6Za6nYRk+ctvLvDyLgqWG0DA5r2f4o/tufD34X6trWm/Y/EXiyfQiv9syeGdLa7g0vJx/pExZY0x3G4kHjrxT+zzPTVr7ktfxsFve5V2T+9tfofQNFfI/xi/bivfCfjb4XaP4S8D+ItftPFNpHrNwbfRnuLqaxZd/l2kayLumAGXzwikHnPHonxU/bG8D/AAr1S90iWw8Q+J9d060F9qWleGdMN7Np0JXcXuW3COIBeTufgc9xlv3Vd6atfdv936AldpLqk/v2/rzR7pRXLfC/4jaX8WvAWjeL9EjuotK1aHz7dbyIRy7dxGWUE46evSuD/a68f2Pw8+ButXl7rOvaA19JDp1vf+GY431COWWQBfKEjoM4Bz8wIGSDnFKScXy21vb53t+YQtOzT07+Xc9lor5z139sbwZ8L9e1zwNf2ni7xL4i8J6XbXF8+n6WLya5Uwq7SHy2+UqpDSO4RFLD5uRXsHwr+J2h/GTwDpHjHw3LLLo+qRtJCbiPy5F2sUZWXJwQysDyenWqtdNx1Xf7/wDJk6q3MrN/5J/qdZRXBfG74z6D8A/h/c+L/EcV5PpkE8Nu0dgqNKWlkCLgO6LgE5JLDABqX4TfGDQvjRo1/rHhuK/bSLa7a0ivry2MMd5tVWMsGTl4/mwHwASDjPWpXvXa6f8AA/zQ3pa/X+v0O4or598Tft9fAfwb4k1bQNY8d/Y9W0q7msby3/si/fyponKSJuWAq2GUjIJBxwTWZ/w8e/Z2/wCih/8AlE1H/wCR6B6n0rRXzV/w8e/Z2/6KH/5RNR/+R6P+Hj37O3/RQ/8Ayiaj/wDI9AWZ9K0V81f8PHv2dv8Aoof/AJRNR/8Akej/AIePfs7f9FD/APKJqP8A8j0BZn0rRXzV/wAPHv2dv+ih/wDlE1H/AOR6P+Hj37O3/RQ//KJqP/yPQFmfStFfNX/Dx79nb/oof/lE1H/5Ho/4ePfs7f8ARQ//ACiaj/8AI9AWZ9K0V81f8PHv2dv+ih/+UTUf/kej/h49+zt/0UP/AMomo/8AyPQFmfStFfNX/Dx79nb/AKKH/wCUTUf/AJHo/wCHj37O3/RQ/wDyiaj/API9AWZ9K0V81f8ADx79nb/oof8A5RNR/wDkej/h49+zt/0UP/yiaj/8j0BZn0rRXzV/w8e/Z2/6KH/5RNR/+R6P+Hj37O3/AEUP/wAomo//ACPQFmfStFfNX/Dx79nb/oof/lE1H/5Ho/4ePfs7f9FD/wDKJqP/AMj0BZn0rRXzV/w8e/Z2/wCih/8AlE1H/wCR6P8Ah49+zt/0UP8A8omo/wDyPQFmfStFfNX/AA8e/Z2/6KH/AOUTUf8A5Ho/4ePfs7f9FD/8omo//I9AWZ9K0V81f8PHv2dv+ih/+UTUf/kej/h49+zt/wBFD/8AKJqP/wAj0BZn0rRXzV/w8e/Z2/6KH/5RNR/+R6P+Hj37O3/RQ/8Ayiaj/wDI9AWZ9K0V81f8PHv2dv8Aoof/AJRNR/8Akej/AIePfs7f9FD/APKJqP8A8j0BZn0rRXzV/wAPHv2dv+ih/wDlE1H/AOR6P+Hj37O3/RQ//KJqP/yPQFmfStfmr+21/wApJPgH/wBwD/08T16Ton/BVL4eP8XNX8PanHIfBhmjXSvFlnDKEZTEpb7RBIqyKBJuXcoPb5QPmryT9rfxNpHjD/goV+zzq+hana6vpd0nh+SC8spllikU6xPyGU4oGj9PKoafr+mateahZ2OpWl7d6fKIby3t51kktpCoYJIoOUYqQcNg4INX6+SNO/aC8SrYaPqPhLwl4Zl1zxt4/v8AR4FSB7YXdhaiWM3U8isWaUCAZkwRtGAnShay5f63S/UT0jzf1s3+h9b0V438Gvid4v8AEPxL+IfgjxhFolzd+GPsMsWp6DDLBDKlzEziN45ZJCHXb1DYIYHAr129u47CznuZWCRQxtI7HoABkn9KUmox5nta4JNvl6k9FeJfsv8AxN+Ifxl8G2PjLxTpehaJoGpWxewtLFZjdynzCFmcsxVI2QDCDcT97cM7R7bVyi4uz3JvfYKKKKkYUUUUAFFFFABRRRQAUUUUAFFFFABRRRQAUUUUAFfmr/zmc/z/ANC7X6VV+av/ADmc/wA/9C7QNH6VUUUUCCvzV/5zOf5/6F2v0qr81f8AnM5/n/oXaBo/SqvzV/4LKf8ANIP+4x/7ZV+lVfmr/wAFlP8AmkH/AHGP/bKgFufpVX5q/ttf8pJPgH/3AP8A08T1+lVfmr+21/ykk+Af/cA/9PE9AI/SqviP/gqF/wAi78I/+xvh/wDQDX25XxH/AMFQv+Rd+Ef/AGN8P/oBoBbn25RRRQIK/NX9tr/lJJ8A/wDuAf8Ap4nr9Kq/NX9tr/lJJ8A/+4B/6eJ6Bo/SqiiigQUUUUAFFFFABRRRQAUUUUAFFFFABRRRQAUUUUAfmr/zmc/z/wBC7X6VV+av/OZz/P8A0LtfpVQNhRRRQI+Ef2Tf+UgP7Rf/AAL/ANKEr7ur4R/ZN/5SA/tF/wDAv/ShK+7qBhXi37Ynwp8Q/Gv9nvxN4S8LTRxazeeTJFHNJ5aTiOVJGiLdBuC454zjOBXtNFTKPMrMqMnCXMj448H/AAn+LXjL49/CPxN4y8F6Z4R8L+DtBubeC00/VYrv7NdNF5Q3gbeWAUhUDKoUZck15HdfsxfH7Tf2efiB8LrTwnpN02qa/wD2nNr8WsRfaNajaaNiqxuVEeNu4tI4JClQhzur9I6K05ryu/8Ah/e5vz/DQiPuLTpa3lZOKt8m/nqfLfiL4R+PtF/a4+Gvi3Q/DtnrHgbSvDg0CWZr2OBtLyzeZKIydznZtUBAffGK8i1T9nn47aFof7QXhrR/DOk6mvjm/uL+DxO2rRrcXMDs2LRYWxhtrEbpHRV3NjfxX6A0VElzJp9eZf8AgT5n+Ov4O6HF8jTXTl/8lVl+Gn5WZ4j8N/ih8M/g38O/C/gfXfiD4R0HWtA0u1sL3Tb3XrSKa3mSJQ6upk4O7Ncl+0Z4Xvf2lh8Ih4Dm0/xX4LtPFkOqa1q2malbS28UNvwRkSfvCSzDCBiCOQK+m6K0lNzqe1lvdS8rp3+4iMeSHs47Wa+TVvv/AKsfG2kfA/4kWdj+1F4lfw3s8X+NpZrHw9bi9ti81osbxRPv8zbHkODhyp+Tp0r0T4F+NPh7+z38HvCHw+8V+PfCXhzxNoumwxanpd9r1pHNb3Lr5kispk/vOeehBBHBr6FoqI+7HlW1or/wFNL83fz7Fy958z3u3/4Fa/5JLyPlj9qzwxd/tVeA/A+kfDm403xn4Wk8U20uvahpWq20kENrFnzAW8z5yN4O1Mtx06V9RW1tFZ28VvBGsMESBI40GFVQMAAdgBUtFNe6nFdXf8Ev0E7yab6K34t/qfPvib9gX4D+MvEmra/rHgT7Zq2q3c19eXH9r36ebNK5eR9qzhVyzE4AAGeAKzP+HcP7O3/RPP8Ayt6j/wDJFfStFId2fNX/AA7h/Z2/6J5/5W9R/wDkij/h3D+zt/0Tz/yt6j/8kV9K0UBdnzV/w7h/Z2/6J5/5W9R/+SKP+HcP7O3/AETz/wAreo//ACRX0rRQF2fNX/DuH9nb/onn/lb1H/5Io/4dw/s7f9E8/wDK3qP/AMkV9K0UBdnzV/w7h/Z2/wCief8Alb1H/wCSKP8Ah3D+zt/0Tz/yt6j/APJFfStFAXZ81f8ADuH9nb/onn/lb1H/AOSKP+HcP7O3/RPP/K3qP/yRX0rRQF2fNX/DuH9nb/onn/lb1H/5Io/4dw/s7f8ARPP/ACt6j/8AJFfStFAXZ81f8O4f2dv+ief+VvUf/kij/h3D+zt/0Tz/AMreo/8AyRX0rRQF2fNX/DuH9nb/AKJ5/wCVvUf/AJIo/wCHcP7O3/RPP/K3qP8A8kV9K0UBdnzV/wAO4f2dv+ief+VvUf8A5Io/4dw/s7f9E8/8reo//JFfStFAXZ81f8O4f2dv+ief+VvUf/kij/h3D+zt/wBE8/8AK3qP/wAkV9K0UBdnzV/w7h/Z2/6J5/5W9R/+SKP+HcP7O3/RPP8Ayt6j/wDJFfStFAXZ81f8O4f2dv8Aonn/AJW9R/8Akij/AIdw/s7f9E8/8reo/wDyRX0rRQF2fNX/AA7h/Z2/6J5/5W9R/wDkij/h3D+zt/0Tz/yt6j/8kV9K0UBdnzV/w7h/Z2/6J5/5W9R/+SKP+HcP7O3/AETz/wAreo//ACRX0rRQF2fNX/DuH9nb/onn/lb1H/5Io/4dw/s7f9E8/wDK3qP/AMkV9K0UBdn58R/8Eo/D+tfGzXtUu7z/AIR74aRzxHS9B02eSa6mURR+YJJpSxRTIJO7MQeCvFeb/tL/AA18MfCf9vz9nvw74R0W10LR4ToLC3tUxuc6vMC7seXcgDLMSTgc8V+p9fmr+21/ykk+Af8A3AP/AE8T0DR+kd9DLcWVxFDL5E0kbKkpXdsYjAbGRnB7ZrxT4d/sww+Abr4VyHxCdRh8C6bfWqxmy8v7ZdXRXzLknzDs6P8ALhvv/e459yooXuu6/rdfq/6SJeqt/X9af1dnj2l+F9T+Dvifxnr9n4f1v4g3vjHVv7QmGjLY2xsIo4IoYoXN1dxb+FYhl9TlV4zpalq/iP4peHPEHheTwX4m8AtqemXFrHruqvplxFbu6FAfLtr6R2YbsgYA45YV6fRUuKlHklqrW+VrfkUpOMuaOjvf53uYPgHwjb+AfA/h/wAM2j+bbaPYQWEcm3bvWKNUDYycZxnGe9b1FFaSk5ycpbszjFRSitkFFFFSUFFFFABRRRQAUUUUAFFFFABRRRQAUUlc3oPxM8IeKbrUrXRfFWi6xdaYCb6DT9QhnktcZB81UYlOh+9joaVwOlor52uv2h/E97oPhPW9K07TI7Hxn4sttI8Pw3UMjSvpp3NLdyYkA3PHFJJGAAFUpu3EkDuPih8Z7bwj4etta0G+0nW7Sy8Q2Wj61HFMJntkmnSB1yj/ALuVGlRsNngEY5BFJN2Xd2+b5f8A5JX7A9Puv+f/AMi7dz1GvzV/5zOf5/6F2v0qr81f+czn+f8AoXaQ0fpVRRXI/Fb4qeHfgv4D1Txd4ovRZaTYJlsDLyueEjjX+J2PAH4nABNAjrq/NX/nM5/n/oXa9l/Yt8cfGH49ePfE/wAV/E17JoXw11KP7Hovhd03K2xhtmjJAICguGkH+sZiMYRQvjX/ADmc/wA/9C7QUj9Kq/NX/gsp/wA0g/7jH/tlX6VV+av/AAWU/wCaQf8AcY/9sqBLc/SqvzV/ba/5SSfAP/uAf+niev0qr8sP+ClGuax4Z/ba+F+seHbD+1fEGn6Tpd3p1h5LzfabmPUrp4ovLQhn3OFXapBOcDmgEfqfXxH/AMFQv+Rd+Ef/AGN8P/oBrzH/AIba/bC/6IH/AOWbrH/x6vEv2of2ivj38T9N8Iw/Eb4Y/wDCJW+naul3psn9gX9l9qugCBFmeRg+R/CuDQNI/ZeivzV/4ba/bC/6IH/5Zusf/HqP+G2v2wv+iB/+WbrH/wAeoFY/SncN2M89cV+a37bX/KST4B/9wD/08T14V+0N+1p+0Nd+MPB/iLxRoF58Kdb0uO5TTZbPS7zTvtaOYjKrpcu4mUFI8rjbzyDkUl18XvHHxt/a4/Z78SeP9BGh6ubvQ4IJEt3gS/thqrsl0qN0DF2Xj5SUJGAcAGkftBWD478a6Z8O/COqeI9YkaPT9PhMriNdzyHosaL/ABOzEKqjqWArmf2ifFn/AAg/wJ8fa4p2y2ei3TRc4/eGNlQf99Fa+fdP+B+k/CrQ/gJ4YEMk+oa5rWnnXr+5kaV7trKxnuIIiWJ2xpIi7EGAAg460RXO2ttYr727/clf7hO0Upb6Sf8A4Ck/xufQcPjnxv8AZbe4uPh+lvG+hS6nM51pCIL1cGOxI8vcSykkyhdqkEfNwT0Hw58bWnxK8A+HvFVhG0NprFjDexxOctGHQNsJ9QSR+FeB6Z4vs9I+KX7RvxF1Bh9g8OWVnoULdSfItmuJEX1LSXCrj1xXrf7O/hC88BfAvwLoGoJ5WoWOkW6XMf8AclKBnX8GJH4VUbSi5f4WvSXM/wAuX0063bmXutL1X3KN/ud/x6WS9EoooqRhRRRQAUUUUAfMXxm/a2Hhnx9r/g7w3rvhXR9V0G2jkuf+Eijnu5764kjMiWtraW7pI7bdpaTJwXUBWOce9/DvX9U8VeA/D+sa1pD6Bq9/Yw3N3pcjZa1lZAWjJIzwTjnn1rz68+CfijRfHviXxB4H8dweGrTxLNFd6pp99oi35+0JGsRlgk86PyyyIoIdZFyM46itub4o+J7aaSFfhB40u1jYoLiK70MLLg43ANqQIB68gHnkCiOkLPd2/wCD8tfuS0TuOWsrrb/hv69W9bWM/wCJnxS1+1+IeifDrwPaadP4r1Gyl1W5vtYEj2em2SOE81442V5WdztVAy9CSwxz5reftQeLtH0fXNCvtO0V/H+k+MdM8K+bbxTHT7wXbRyCZIzJvVhCzkoXbay5yRxXd+JPhTr3jTxho/xK8M6rP8N/GQ0t9IvLTWtPg1NJLUyeYscscNyEDq43K6SkYYgg9Bi6p+yXE3hXSIdJ8W3Vr4xsfEq+LJfEuo2a3Zvr/ayMZoA0YMextqorLtCrg8HLh7rXN31/8DW3lyXT839xK0k+Xtp/4C9/+37fJet9jx58YNf034sa54R0Q6TbWmk+DZ/EN1qGo28k3k3BlKQKQkqZTbHKzLwTgYYVU/Y3bx3ffBTQ9Z8ca7ba3LrVuuq2rCGYXUSzs8pSWSSZw4AdFQKqBVUDBqGx/Zfu5m+K11r3ji81rVfH+kxaVPeiySD7AiRSxkQoHI2ZlyE6jHLMSWr1D4W+E9S8CfD/AEPw7quq22t3Wl2yWgvbSxNmjxoNsf7rzJNpChQfmOSCcDOA42jFp72X5yb+68V8hT1attf9IpfjzfefmR8a/i9o/wAB/wDgqfrPjnX7a+vNJ0ryfPh02NHnbzdDjhXaruin5pFJyw4B69K+gv8Ah7t8Hv8AoW/HH/gBZ/8AyXXkXiTwzo/jL/gsFcaPr+k2OuaTc7fPsNStkuIJdvh8Ou6NwVbDKrDI4IB7V94/8My/B7/olHgf/wAJyz/+N1JWh81/8Pdvg9/0Lfjj/wAALP8A+S6P+Hu3we/6Fvxx/wCAFn/8l19Kf8My/B7/AKJR4H/8Jyz/APjdH/DMvwe/6JR4H/8ACcs//jdAtD41/wCCf/xC074r/tg/G3xfpEN1b6ZrNr9rt4r1FWZUadcBwrMAfoTX6K18CfsZ6Jp3hv8Abs/aB0vSLC10vTLVDFb2dlCsMMKC4TCoigBR7AV990AwooooEFFcofil4YHxLHw//tPPi46d/a39nLbynFrv2eYZNvlj5uNpbPtXV0dL/wBdg62Cim+YvmbNw343bc849cU6gAoormNZ+Jnhjw/420HwhqOsQ2viTXUlk07T2DF7hYhucggYGBnqRnBxnFHWwdLnT0UUUAFFcl4s+K/hXwN4o8MeHNb1T7HrfiaZ7fSbRbeWVrl0ALjKIQgAYcuQOetdbRuroNnZhRRRQAUUUUAFFFFABRRRQAUUUUAFFFFABRRRQAUUUUAFFFFABRRRQAUUUUAFFFFABRRRQAUUUUAFFFFABRRRQAV+av7bX/KST4B/9wD/ANPE9fpVX5q/ttf8pJPgH/3AP/TxPQNH6VUUUUCCiiigAooooAKKKKACiiigAooooAKKKKACiiigAooooA8V/bFl16P9n3xGmgSz20sz20N7dW0DzyW9i06LdSCNCGYLEXJCkHbnBHWvA9Q0Xw7e/Cn4l+OPDXxA0bxprWg+C7zSLNPCOkppmn6fbSoWICq8heTEY4aQ7QPujOT9zVV1TS7TW9Mu9Ov4EurG7heCeCQfLJGylWU+xBIqbWjK2rd/ytb0tf72aRklKLfR/qn+n4I+Of2ivCPiTxz4m+Fngb4b6vHoeoeH/Cmoa9bTLHu4EEdrAikEbC/mSKHHK5JHIFbj6x4Z+JHwW+DngzwRp0Wl2/iTVLO7n0yIZaxgsZluL4y553LLEImZuS8gySTX1NoWi2fhvRbDSdPjaGwsYEtreN5XkZY0UKoLuSzYAHJJJ7mqdv4P0i28WXfiZLPOuXNqlk95JI7kQIxYRorEqi7iSQoG44JzgY35vfvv73N8021+ia8rrdmCi+RR6pW+9JP8btetmbVfkX+0f4J8Y/Eb/gpr4h8O+Adf/wCEX8W3n2f7Fq32ya08jZosUkn72FWkXdGjr8o53YPBNfrpX5q/85nP8/8AQu1kaoyvFX7J37Vngfw3qOv67+0VDpmj6fC1xdXc/jPWAkaKOSf3PPsBySQBzXinwp/Z9+PX7bWj3ty3jW61jw7pFwUgv/GGs3strJNjDC3DLI27bjJ2jAIBOeK/Tv8Aaq/ZpP7TvhfQ9Am8Wah4d0yz1GO7vLS1RXivowQCrjghgN2w5KgnJVuMeqeCvBei/Dvwrpnhvw7p8Wl6LpsIgtrWEcIo9SeSSckk8kkk8mgLn50ab+wl+1vo2n21hp/xxhsbG1jWGC1tvFurxxRRqMKiqIAFUAAADgYr5z/4Uj8Yf+Gzv+Fef8J9/wAXa/6Gv+2bz/oHef8A8fWzz/8Aj3/d/d/2fu81+31fmr/zmc/z/wBC7QCYf8MS/thf9F8/8vLWP/jNfNf7ZXwR+MPwc/4RD/hbHj7/AITj+0vtn9mf8Tm81D7L5fked/x8Iuzd5kX3c52c9BX7fV+av/BZT/mkH/cY/wDbKgE9T9Kq/NX9tr/lJJ8A/wDuAf8Ap4nr9Kq/NX9tr/lJJ8A/+4B/6eJ6BI/SqviP/gqF/wAi78I/+xvh/wDQDX25XxH/AMFQv+Rd+Ef/AGN8P/oBoBbn25RRRQI4rxl8GfBnxC8WaB4j8S6Ba65qegrINNN8vmRW7SMjM4jPylsxphmBK4yMGvgr9trj/gpF8AwOB/xIP/TxPX6VV+av7bX/ACkk+Af/AHAP/TxPQNH6N65oOmeJtLn03WNOtNW06fAls76BZoZMEEbkYEHBAPI6gVkeNPAGneODoL3slxbT6JqcOq2U9oyq6Sxhl2ncpBRkd0YYyVY4IOCOmoo6p9tfuF0a+X37nE+Ifg/4a8RSWiyWa2VlHqy63d2FjFFDBqV2uCkl0Am6Uqyo/UZZF3bgMV21FFHS39dvySDrcKKKKACiiigAooooAKKKKACiiigAooooA/NX/nM5/n/oXa/SqvzV/wCczn+f+hdr9KqBsKKKKBHwj+yb/wApAf2i/wDgX/pQlfd1fCP7Jv8AykB/aL/4F/6UJX3dQMK+fP2jfjb4o8O/EHwH8LPh+bG28Z+MHlk/tTUojNDptpEpaSXywRvchW2gnHynPWvoOvJvjJ+zP4U+NviLw34g1a81vRde0Bn+x6p4f1BrK5Eb/ejLqCdp/wBnDDJwRk0vtRvtfX+vW1/K41tLvbT1/r8T5A+HfxL1j4M+P/2jPip458Q/8LH1Pwhb2fhi01NLKKwW8mZyfJEcWVjCybAxGT1PJrt9O+Knx30z49fBjQvEXjbSZP8AhN4ZdR1LwrpuiRJFplqiCTH2hi0rsw3LnIAKnr1r2XS/2J/hvpfwz8aeBGXVb3QfFepHVbsXd4HngmypXypAobClARv3k5O4tk1P4A/Y78GfDvx74b8ZWmq+JNV1/Q7GXT4rrWtRF41xG67R5jOm75F4RUKKoJ+Xk1pTaTjzbJL/ANJbennN6+W3Uipqpcu8r/mktfKK+8+afgdrXijwr8Qvj98dfEHj6bVfDvh3UrrSr7To9IgRtYW1RhCiSZPkKjOgAT7x5Y9av6h8dfj1NqfwT12fxho+kp8SNWiS38F2GjRSC305irGaS5lJkZxGy8KFHze2K+hvDP7GvgDwxZfEXTo5tavdF8dM76jpN5fbraBnYszW4ChkYkg7iWPyLzxWJof7EfhLwHfeEdf0K+8Qa74i8G+c+jR+IdbLQSbo9iW8jmCQxQp/CIUGCSSGqabUfZ820VD8L83rd29FsXU9/n5d5OX5e76W/wArn0jXyn4o+MWqx/tceM7P7Ta/8In4B8DSapco9lA8qXj/AD5ExQyKDGVyqsFO3kGvZIde+LrTRibwP4JSIsA7J4yvGYLnkgHShk47ZH1rn9S/ZT8K6rqHxWvptV1xbv4kW0Vnq0qXEObeJEMYS2zF8oKnB37+grOSk7tdpfe1Zfnf5FRcVpLvH7uZN/grfM+T9N/aI/aD0v4Q/Bjx1qni/SrmTxZ4ij0oaG2iwia/gklkxLJKuAnChQsaKcbWLEkiv0YrxbV/2WfC95pnwutorjU5I/httl0Wye5jjhupkRVja6byWJ5QHKBcFmOD0rf/ALe+MP8A0Ivgf/wtLz/5U10SlFuSj/M7ellb8U35XMUpaN9lf1u7/g0fN3x0t/FHxK/b38F6H4R1Kw0e88IeGLjU5NT1G0a7js2nLRs4hDpvfBiwCwHOTnGD6n+wv8XPF/xm+DFzrnjK9t9Vv4NYurG31K3t1txdwR7dshRQFByWHAHAHeu20n9n/RLH4jeNfHjX2qL4j8XadFp16BcRvDZxpGExbfugw6A5fdkgHA6VsfBP4O6H8Bfhvpfgrw7LeXGl6eZWSbUHR55GkkZ2LsiqpOWI4UcAVnT92HLLt+Lk2/uVl53Kqe/LmXdfco2/F6/LzPN/E37fXwH8G+JNW0DWPHf2PVtKu5rG8t/7Iv38qaJykiblgKthlIyCQccE1mf8PHv2dv8Aoof/AJRNR/8AketPxN+wL8B/GXiTVtf1jwJ9s1bVbua+vLj+179PNmlcvI+1Zwq5ZicAADPAFZn/AA7h/Z2/6J5/5W9R/wDkikPQP+Hj37O3/RQ//KJqP/yPR/w8e/Z2/wCih/8AlE1H/wCR6P8Ah3D+zt/0Tz/yt6j/APJFH/DuH9nb/onn/lb1H/5IoDQP+Hj37O3/AEUP/wAomo//ACPR/wAPHv2dv+ih/wDlE1H/AOR6P+HcP7O3/RPP/K3qP/yRR/w7h/Z2/wCief8Alb1H/wCSKA0D/h49+zt/0UP/AMomo/8AyPR/w8e/Z2/6KH/5RNR/+R6P+HcP7O3/AETz/wAreo//ACRR/wAO4f2dv+ief+VvUf8A5IoDQP8Ah49+zt/0UP8A8omo/wDyPR/w8e/Z2/6KH/5RNR/+R6P+HcP7O3/RPP8Ayt6j/wDJFH/DuH9nb/onn/lb1H/5IoDQP+Hj37O3/RQ//KJqP/yPR/w8e/Z2/wCih/8AlE1H/wCR6P8Ah3D+zt/0Tz/yt6j/APJFH/DuH9nb/onn/lb1H/5IoDQP+Hj37O3/AEUP/wAomo//ACPR/wAPHv2dv+ih/wDlE1H/AOR6P+HcP7O3/RPP/K3qP/yRR/w7h/Z2/wCief8Alb1H/wCSKA0D/h49+zt/0UP/AMomo/8AyPR/w8e/Z2/6KH/5RNR/+R6P+HcP7O3/AETz/wAreo//ACRR/wAO4f2dv+ief+VvUf8A5IoDQP8Ah49+zt/0UP8A8omo/wDyPR/w8e/Z2/6KH/5RNR/+R6P+HcP7O3/RPP8Ayt6j/wDJFH/DuH9nb/onn/lb1H/5IoDQP+Hj37O3/RQ//KJqP/yPR/w8e/Z2/wCih/8AlE1H/wCR6P8Ah3D+zt/0Tz/yt6j/APJFH/DuH9nb/onn/lb1H/5IoDQP+Hj37O3/AEUP/wAomo//ACPR/wAPHv2dv+ih/wDlE1H/AOR6P+HcP7O3/RPP/K3qP/yRR/w7h/Z2/wCief8Alb1H/wCSKA0D/h49+zt/0UP/AMomo/8AyPR/w8e/Z2/6KH/5RNR/+R6P+HcP7O3/AETz/wAreo//ACRR/wAO4f2dv+ief+VvUf8A5IoDQP8Ah49+zt/0UP8A8omo/wDyPR/w8e/Z2/6KH/5RNR/+R6P+HcP7O3/RPP8Ayt6j/wDJFH/DuH9nb/onn/lb1H/5IoDQP+Hj37O3/RQ//KJqP/yPR/w8e/Z2/wCih/8AlE1H/wCR6P8Ah3D+zt/0Tz/yt6j/APJFH/DuH9nb/onn/lb1H/5IoDQP+Hj37O3/AEUP/wAomo//ACPR/wAPHv2dv+ih/wDlE1H/AOR6P+HcP7O3/RPP/K3qP/yRR/w7h/Z2/wCief8Alb1H/wCSKA0D/h49+zt/0UP/AMomo/8AyPR/w8e/Z2/6KH/5RNR/+R6P+HcP7O3/AETz/wAreo//ACRR/wAO4f2dv+ief+VvUf8A5IoDQ8x0X/gqp8Pf+Fuaz4f1SORvBJmQaV4ssoJgpUxIWFxbuokUCTeu5Qe3y4y1eS/tbeKNH8Zf8FCP2etY0HU7TWNKul0B4byxmWWKQf2xP0ZSRXbx/wDBKPw9rXxr1/Vby8Ph/wCGsc8R0vQNMnkmuplEUe/zJpSxRTIJO7MQeCnFebftMfDXwx8J/wBvz9nzw94R0W10HR4ToLLbWqY3OdYmBd2PzO5AGWYknA54oHp0P1Pr52s/2iPBvgf+2vEc934y1a21/wAZyeGre0uAl2kV3ChjYWUKNuW3LRNwMuXYnbzX0FfSTRWVw9vEZ51jYxxAgb2A4XJ4GT618r/Cb4C+MdHuPgVF4g0lYoPDq6xr2vSG5hkEeq3RPlphXJcjz5juXKjb16UR1nrt/wAG7/CLXq0KXwef/Aa/Nr5XPa/hj8bNM+JniDxJoC6LrXhrX/D5gN7peuwRRyiOZS0UqmKSRGVgrfxZBByBXoZIUEngCvAPCd/pfwh+KXxS8XfEjXdF8Gf8JVqtvBora1q9tB9qsbS2jRXTdJ/fkkJU4YZGQMiux1L40eFPHXhvxDpvw98X+G/GHiz+y7mSx0nSNbtZppZBGQnAk+UbioLHAGeTUzk/Z80Fd2vbzte3+fmVGN58rdle1/w+6+3keH/Av9qm20/w7qWt+JLTxbq2ka/40vLWDxA0Pm6bpySXPk2sAaSQMI8Kn+pRkUuQSDmvr+vmW4+A/iG2+C3wJ8AWumq1rouq6XeeJGWaJVhS3Rp5M/N8+64Cj5N2c56c19NVtKKiuVO/K7eqSjZ/N3MubmlzJW5le3Zty0+SsFFFFZlBRRRQAUUUUAFFFFABRRRQAUUUUAFFFFABRRRQAV+av/OZz/P/AELtfpVX5q/85nP8/wDQu0DR+lVFFFAgr81f+czn+f8AoXa/SqvzV/5zOf5/6F2gaP0qr81f+Cyn/NIP+4x/7ZV+lVfmr/wWU/5pB/3GP/bKgFufpVX5q/ttf8pJPgH/ANwD/wBPE9fpVX5q/ttf8pJPgH/3AP8A08T0Aj9Kq+I/+CoX/Iu/CP8A7G+H/wBANfblfD//AAVKuIrTwr8J555Ehhj8WRO8kjBVRRGSSSegA70Atz7gorzT/hpr4Pf9FX8D/wDhR2f/AMco/wCGmvg9/wBFX8D/APhR2f8A8coEel1+av7bX/KST4B/9wD/ANPE9e8+Of8Ago58M/h/8Y7bwpeX9rrPhi6sYbhfFPh+8jv4LeZnkVopljJwAEQ5UkjfyuOa+cP2sfFmi+OP+Cg37POteH9UtNZ0m6XQGhvLKVZY3H9sT9CO/qOooKR+oFFeD/toePLrwL8GUFhqV/pN/rGtadpUV1pbSi6QSXKGTyvK+csYkkAC8nOBWrp/7Tnh5ofHEWqaJr3hfUPCGmDV7yx12CKOWW0KuUljMckgIYoRgkMDwQKV1yuXa/4JP8mHK7pd/wBXZfjp/wAOex0V85yX13pHw38Gt461/wAVW3ijx54ispBH4dvfLaymkPnJaJvbEdskcWyTaMuA5IJc12fws13Um+MXxd8PXV9c31hYXthe2X2iVpPs63FqpeFCScKHiLBRwPMNXytNp9PzXLp+P4eZHMtGuuvyu1f8P6ses0UUVIwooooAKKKKACiiigAooooAKKKKAPzV/wCczn+f+hdr9Kq/NX/nM5/n/oXa/SqgbCiiigR8I/sm/wDKQH9ov/gX/pQlfd1fCP7Jv/KQH9ov/gX/AKUJX3dQMKKKKBBRRRQAUUUUAFFFFABRRRQAUUUUAFFFFABRRRQAUUUUAFFFUdc1qy8N6Lf6tqU62un2MElzcTyHCxxopZmP0ANKTUU29hpOTsi9RXxT4Bu/i/8AttR3vi228cah8I/hW88tvo9noUajU9QRGKmaSc8x8gj5TjIIA43H3/4T/D67+AXhXW38VfE/WPF+lowuRqXiy4UtYxKvzBpmPIJ5JY+n41ZxV56f1+Auto69P67nq9FeReBP2tfhB8TPFn/CM+GvHmm6nrhYpHajzIzMwGSImdVWU4BPyE9K2PFv7Qnw98C+PrTwVrniOKx8U3lqLy20028zvNGWKqEKoVZyVYCMHeccKaXbz2Dv5HotFee+DPj94D8f3niGy0bXC+oeHlL6rYXtlcWd1aKBks8M8aPjjrtxXhvwc/4KEeDPi58ddY8F291b2+jyPFbeHLpbS7efV5WBMjEeWBCqgH/WAZyDnqKI+9JRW7V/l/wencJe7Fyey0/r069j60orymx/ao+FepTWcFt4ut5Lm81l/D9tbm2nWWe9RlR40Qx7mVWdQZACgz96pfih+1B8LPgxqcWm+MvGmn6PqUgUiyw886hjhWaOJWZVPqwA70dE++35/k0Ozu12/wCG/M9Rory/4jfF3RF/Z58WePvD2rWur6VBol3d2t7Zyh45GWNgoDDvvAGOoPFcL/wT78It4P8A2TPA0ci4n1CGXU5D6+dKzqf++ClNJ3mnpy2/G/8AkJ2tFrW9/wALf5o+iqK+VP2a/GWv/Eb9qr4+6jPrmp3XhbRLu20XTtNlvJGs4ZUBWZo4idituhySBn5z60nizxl4g8S/8FC/B/g7Tdd1Kz8O6D4am1XU9NtbySO3uZHLonnRqQr43REbgcUR972f95X9PdcvyX4jl7vtP7unq7pfm/wPqyivJLf9qz4XX194jsbLxJJqV/4dnlg1Sy0/S7y6uLZoyRIxjjhZmRSCDIoKcfeq5qHxs8E+KvgdrfjvR/Gkdr4WWxnz4is4XlazIUrv8rbv3oSDsK5zjjmolK0HNa2V/wDL7xqPvKD0u7Hp9FfGnjb9q7S/2Tv2a/BrS+L7j4qeL9XslvNJvNYt7i3fUrd5AxmclSUVFkGFkbewAGeuPpT4N/Frw/8AGrwHY+J/DepLq1hLmGS5jtZrdDMgAkCrMqttDZGefqa1cdZW15Xb+vy9dNzO9uW/X+v+D6anb0UUVBQUUUUAFFFFABRRRQAV+av7bX/KST4B/wDcA/8ATxPX6VV+av7bX/KST4B/9wD/ANPE9A0fpVRRRQIKKKKACiiigAooooAKKKKACiiigAooooAKKKKACiiigAooooAKKKKACvzV/wCczn+f+hdr9Kq/NX/nM5/n/oXaBo/SqiiigQV+av8Azmc/z/0LtfpVX5q/85nP8/8AQu0DR+lVfmr/AMFlP+aQf9xj/wBsq/SqvzV/4LKf80g/7jH/ALZUAtz9Kq/NX9tr/lJJ8A/+4B/6eJ6/SqvzV/ba/wCUknwD/wC4B/6eJ6AR+lVfDH/BVrTIta8D/DDT52dIbvxQlu7RkBgrxMpIyDzg+lfc9fEf/BUL/kXfhH/2N8P/AKAaAW4z/h0T8Hv+hk8cf+B1n/8AIlH/AA6J+D3/AEMnjj/wOs//AJEr7fooC7PzC8Yf8Embq8+MMGl+EtavNN+HsdjDNda3rssVzdNcF5A8UMUSR7sKsZywUDcfmboOJ+LnwB8Lfs3/ALc3wC8KeE1ujZyXGhXtzcX0xlluLhtVkRpG6KuVjQbVAHy9Mkk/rnX5q/ttf8pJPgH/ANwD/wBPE9A0z7O+LngPWvHPxW+EkkOnC48M6Dqd1rGpXTSxgRTJbNHarsLbmJeVjlQQNnOOK8l+NXwx8TXGj/tJ+K7/AE50i1LTbG10lFkSVrixtIvNmwqsSu53mG1gDx0r62ooV0tPP73bX7lb0C+qb8vuTvb73f1Pm74qeKdI1f47fB957+CDw7oGj6n4yu7l2AijhWBIIZGPYfv3I+ldr+zzoV/JYeJ/HOsWkthqnjXUzqi2c6lZLazWNYbSNweVbyo1dgejSMO1dj4Z+Fvhnwh4m1rxFpmnyLrmstm9v7q7mupXUMWEaGV28uMMxIjTagzwK6uqTSXnr+Lv+kVfy8yLbLorfgv83J213XYKKKKkYUUUUAFFFFABRRRQAUUUUAFFFFAH5q/85nP8/wDQu1+lVfmr/wA5nP8AP/Qu1+lVA2FFFFAj4R/ZN/5SA/tF/wDAv/ShK+7q+Ef2Tf8AlID+0X/wL/0oSvu6gYUUUUCCiiigAooooAKKKKACiiigAooooAKKKKACiiigAooooAK8s/am8O6p4s/Zz+IukaNG8+p3Wi3KQwxjLSHYSUA9WAI/GvU6KzqR9pBw7lwlySUux8wfsK/GvwR4g/Zs8HaXb67pthqmiWK2OoadcXMcU0MiEgsUJB2t94N0OfUGuH/4KBeJLXxNN8EfDtzqkS/DbxL4kjGs6jBODbTRo8exGkU42kNIc5xlM/w17T40/Yp+CPxC8RPruufD3Tp9UkkMss1rLNaiVyclpEhdFck9SwOa7jV/gr4F174fW3gbUfC2nXnhK1RY4NKlizFCF+6U7qRk4IOeetbzl7Saqta8yduj1u/+BoZwiqacIvSzV+qurL7j5M/bRsPD3iD4i/Aj4eeALXT08aWmvQXsA0hED6bp8YG4tt+4nAYA8ERE1t/CzS7f4k/8FHPir4luYo7mLwZpNrpVkzDPlTSIu5h6H/Xj/gRr6I+FX7O/w3+CJnfwT4RsNCnnXZLdRhpZ3XOdplkZn257ZxWr4J+EPhL4d+IPFGueH9J+wat4muheatctczTNcygsQ2JHYIBvb5UAHPSiD5ZJvX4n85JL8En8wl70Wlp8K+Sbl+L/AAPmT9le4g8Q/tRftN+PJFU2dtfw6QkmOCsCusn/AKJQ/jWf+wDr2mWXwE+JfxJu5rZr3U9c1PXLlNyl4I0TcAR1H8R/4FX1T8Pfg/4Q+FcGuQ+F9HGnR65fSalqIe4ln+0XEn33JldiM/3Rge1c14c/ZV+FXhDTfFlhong+30qz8VW7Wurw2txPGLiIggoMSfu1wx4j29TWNn7NwX8iivJ6Nv5tGl4ufM+s+Z+mqS9bM+dv+Cd/wW0e3+B//C0dU0W31rxlrN1eX9lcX0KySWqrIwVYN3+rLOjMWXBO4c8Cs/8AYO1rwTb/AAX+IXxP8e3+mz+Kr/VbyTxJd6tsM0EagbYCG5CnkhR1JwOgA+1fBPgvRfhz4U0zw14dsV03RNNhEFparI8nloOcbnJY9TySTXm/iD9jv4MeKvGEnijVfh5pF3rUkhlllZXWOVyclpIQwjdieSWUnr6mtZ2c5cmkXHlXktOnnbUiN3FOe/NzPz3/ACvofBGmz6r4P/4Jx+OpxbzaZp3jjxYIvD+nvkFbWSWPhR6MIZB7gZ71+nHw98Mp4J+Hvhzw/Au1NL0y3slUf9M4lX+lZvj74M+Dfifpmh6d4k0SO/sNEvIr/T7WOaWCOCaMERttiZQwAJG1sr7V2tNtcsorrb7oxUV8938xO8nFvpf75O7+WyPif/gnd4x0LR/BPxTl8QaxY6V4l/4S6+vNYt765SKSAEKAzbiPl3CTnpkGpf2WdWj+Inx0+PHx3AZvDDBdH0e8kBCzQWyAyumf4T5UZz/tH0r3Lx1+yD8HPiV4qbxJ4j8BabqGtO/mS3StJD5zYxulWN1WQ47uDXoK+AfD0PgmXwhb6Tb2PhqS0ewOnWINtGsDqVZF8sqVyCeVIPOc5rJ35brSShyrtslf7l+LNHyyk0/hcuZ97Xvb7/yR8ZfsQ/Z/Bn7IvxK+LF9DGNU16fVdYnuCvzPHErhUz6bxKcerGvKry3n8Ef8ABLDw3osI2ap441iOGNF4L+bds4/OOBfzr9BrD4G+CNL+Er/DO00TyPBD20lo2lrdT8xSMWdfN3+ZyWJzuzz1qnqn7Ovw91rw14O8P3vh4TaP4QnhudEtPtlwq2skQxGxIkBkwP8AnoWB5zmtZcjk0l7vuL/t2L1XzViYykrSfxJzl/29JafdqfM/7XOl6bb+N/2XvhbLJDa6cmsQ3E7zMETyrRI0VST/AHgzj619uQLEsS+SEEZGR5YGDnuMVwnxY+AfgD44w6fF458M2viAae5e1eZ5I3iJILAPGyttO1crnBxyK7q1tYrG1htoEEcEKLHGg6KoGAPyo5m4vm3cm/vt/kRyqLio7KKX3X/zJaKKKgoKKKKACiiigAooooAK/NX9tr/lJJ8A/wDuAf8Ap4nr9Kq/NX9tr/lJJ8A/+4B/6eJ6Bo/SqiiigQUUUUAFFFFABRRRQAUUUUAFFFFABRRRQAUUUUAFFFFABRRXg+jfGDx54u+OXjjw5pGnaDbeCPB91ax3+sXoma4l32wlmhiVXCmQbh8xwFAAKuW+VXV7fP5d/wAR2dr/ANeh65rXjnw34bmni1fxBpelSwRJPKl7exQtHG7+WjsGYYVn+UE8FuBzV+x1rT9UuL23sr+2vJ7GUQXUUEyu1vIVVwkgByrbWVsHBwwPQ18m6J4lkm+Hfg7xJe6LpXiLXvjB4utTPb65a/aYotO3PJCipuA/c20KsvUCRi2CSa9W+HbMv7UHxdjtjix/s3RHnVen2opcAn6+UIc+wWtFF6826uvmkn+F7epMmlt6/Jtx/S/oe01+av8Azmc/z/0LtfpVX5PfGv4vaP8AAf8A4Kn6z451+2vrzSdK8nz4dNjR5283Q44V2q7op+aRScsOAevSoKR+sNFfEH/D3b4Pf9C344/8ALP/AOS65f4mf8FcvBsvgjVIvAfhvxCniuSPy7KXXLW3S1iYnBkfy53YlRkhcYJABIFAWZ9y2PxF8Mal411Dwha69YT+KNPgS6utJSdTcRRP91inXHTPpuXONy5/Pf8A5zOf5/6F2vK/2Qv2svhJ8C7zWPGfjjT/ABj4s+KOtSSG71eO0tpY4YmYEpG0lyrMzEZZyoPRQMAlsT/hrrwd/wAPAv8Ahef9m65/wiX/AD5+RD9v/wCQV9j+55vl/wCs5/1n3eevFA7H7M1+av8AwWU/5pB/3GP/AGyr0v8A4e7fB7/oW/HH/gBZ/wDyXXyL+35+114O/ap/4QT/AIRPTdc0/wDsH7f9p/tmCGLf5/2fZs8uWTOPJbOcdRjPOAEtT9ma/NX9tr/lJJ8A/wDuAf8Ap4nr0v8A4e7fB7/oW/HH/gBZ/wDyXXyv8Yv2oPB37QX7bXwc8c6Ol9oPh/SLvRrS8m8QiG28rytSeaSVmWV1WMJKCWLDG1s4AzQCR+w9fEf/AAVC/wCRd+Ef/Y3w/wDoBr7cr4j/AOCoX/Iu/CP/ALG+H/0A0CW59uUUUUCCvzV/ba/5SSfAP/uAf+niev0qr81f22v+UknwD/7gH/p4noGj9KqKKKBBRRRQAUUUUAFFFFABRRRQAUUUUAFFFFABRRRQB+av/OZz/P8A0LtfpVX5q/8AOZz/AD/0LtfpVQNhRRRQI+Ef2Tf+UgP7Rf8AwL/0oSvu6vhH9k3/AJSA/tF/8C/9KEr7uoGFFFFAgooooAKKKKACiiigAooooAKKKKACiiigAooooAKKKKACvz7/AG8v2j/jP8Of2kvB3gH4XeIf7P8A7e0mz8jT/sVlL597PeXEK/vLiNtu7ZGvLBRjPHJr9BK/NX9tr/lJJ8A/+4B/6eJ6BoP+Nif+f+Edo/42J/5/4R2v0qooC5+av/GxP/P/AAjtH/GxP/P/AAjtfpVRQFz81f8AjYn/AJ/4R2j/AI2J/wCf+Edr9KqKAufmr/xsT/z/AMI7R/xsT/z/AMI7X6VUUBc/NX/jYn/n/hHaP+Nif+f+Edr9KqKAufmr/wAbE/8AP/CO0f8AGxP/AD/wjtfpVRQFz81f+Nif+f8AhHaP+Nif+f8AhHa/SqigLn5q/wDGxP8Az/wjtH/GxP8Az/wjtfpVRQFz81f+Nif+f+EdrN8TeJP+CgPg3w3q2v6xcfY9J0q0mvry42eH38qGJC8j7VBZsKpOACTjgGv08rzT9pr/AJNt+K//AGKWrf8ApHLQO581/wDBND9o/wCIv7QX/Cx/+E+8Q/29/ZH9m/Yv9CtrbyvN+1eZ/qY03Z8pPvZxt4xk19v1+av/AARr/wCav/8AcH/9va/SqgT3CiiigQUVwXhX46+BPG3xC8QeB9E8R2d/4n0Ibr6wibLKOAxU9H2swVtpO1jg4Nd7QAV+av7bX/KST4B/9wD/ANPE9fpVX5q/ttf8pJPgH/3AP/TxPQNH6VUUUUCCiiigAooooAKKKKACiiigAooooAKKKKACiiigAooooAK86+HnwgXwPpvjiC41Q6tceKtZvNWuLjyPJMYnVUSIDc2QiKq7sjOM4HSvRaKlxTTT6q3ydn+iGm1a3R3+ev8Amz52+H/wP17TvCXwevNcWSPUPhtY3kC6BbrFIdSm8k20EqzeaETMYLAN/wA9fmKkGvQ/gl4D1Lwjourar4i8o+LvE1++r6sIW3pC7KqR26N/EsUSRxg9ypPevRqK1c3KTk93+ru/vdvuVibaJdv6X3Xf36hX5h+JPDOj+Mv+CwVxo+v6TY65pNzt8+w1K2S4gl2+Hw67o3BVsMqsMjggHtX6eV+av/OZz/P/AELtQUj3f9qpvgB+y/8ADmTXNR+E3gW+1u83QaPpI8O2Ya7mA5LYj+WNMgs3oQBywB86/Yp/Ycsbi2u/id8WvCukXOs6+GmsfC1xpkKWVhBJhgzWpTYjkfdTHyL1+Ynb9teLPAfhzx5FYR+I9DsNbTT7qO+tFvrdZfInQ5WRMjhh7diR0Nb1AXPNP+GZfg9/0SjwP/4Tln/8br8+/wDhWXg7/h7R/wAIf/wieh/8Il/0Af7Nh+wf8gHzf9Rt8v8A1nz9Pvc9ea/U+vzV/wCczn+f+hdoGj7f/wCGZfg9/wBEo8D/APhOWf8A8br8+/8AgrF8MvB3w5/4VZ/wifhPQ/C/2z+1ftP9jabDaefs+x7N/lqu7bvbGem446mv1Pr81f8Agsp/zSD/ALjH/tlQC3Pt/wD4Zl+D3/RKPA//AITln/8AG6/Lr/gqN4F8N/D/APaA8P6d4W8PaV4a0+Xwxb3ElppFlFaxPIbu7UuUjUAsQqjOM4UDtX7IV+Rf/BXb/k5Lw3/2KVt/6WXlAR3P10r4j/4Khf8AIu/CP/sb4f8A0A19uV8R/wDBUL/kXfhH/wBjfD/6AaBLc+3KKKKBBX5q/ttf8pJPgH/3AP8A08T19aeJv2yvh74D+OF58MfFt63hvUkit5bXUrwgWU/mpu2tJ/yyYHj58KePmycV8kftqTx3X/BR39n+aGRZYZF8PukkbBlZTrE5BBHUEUFI/SwkKCTwK5rQfid4O8U6lqGnaL4s0PV9Q09S97aWGpQzy2yg4JkRWJQZ4+YCvMv2y7zU7P4JTizN5FpU+pWMGvXGnhzPBpTTqLt12Atjy8hiOQpY15t8cPEfgHxJ8F9GT4eSaZe/D2017TbHxVceG4QY7fRw+6VGMa8x8R7wM4UtnvSj733pffbV+Wq+59ga29G/uvou7029O59NeFPiN4T8eNeDw14o0bxEbNtlyNJ1CG68hueH8tjtPB6+lVbL4ueBdS1TTdMs/Gnh661LUk8yxs4dVgea6UZBaJA+XHytyoPQ+lfLnizxf4f1Dx/q3xM+HEFuvgzwR4G1OC91vS4RFZahcOqm3tInAAl8ryyxK5CFgM5OKqt8H9I8E/DX9mTwPZ6ZbW+uah4i0/Vb67WMfaGeC2e6uHL/AHs5ATrwpA6VpGPM1fTWK++Ulf7lzej+ZEvdT9JP/wABin+bt/Vj6JsP2lPh7qPxY1T4ew+JNOGvadbiabffW4jaTLh4E/ebmljEbM67fkGM9a6yw+JfhDVbW9ubLxVol5bWVvHeXU1vqMLpBBIpaOVyGwqMoJVjgEDINfIl9430nRdO/a78QZt4PFsNzJZwWLoFuYoUs47e3lC9QskkjEMPvZq/44+Gfhr4H6P8BtD1nTrbT/hjZzmXxVfyQDyJ76O2BtHvWA5jMxc5fKhgg4GKiOsYt9VHX/Fdv7lZebsupclaTS6c2n+G35/8HyPp6T4s+Fr7wDrni3QfEGk+IdI0q1nuJbvS72O5hBijLspeNiM4HTNN+C/irWfHXwl8I+I/ENva2ms6tpkF9cwWaMkUbSIHCqGZiMAjqTXx58U7tPEmn/Grxn4NtWsvCPivTdJ8G6ZcRQeTDrN5NceVJdRLgb0VJhGJOjbTgkDNfdej6ZFoukWOnwKFgtII4I1HZVUKP0FUl7rk+tvla9/vTiyJfEorpf8A9tt9z5l6ouUUUVIwooooAKKKKACiiigD81f+czn+f+hdr9Kq/NX/AJzOf5/6F2v0qoGwooooEfCP7Jv/ACkB/aL/AOBf+lCV93V8I/sm/wDKQH9ov/gX/pQlfd1AwooooEFFFFABRRRQAUUUUAU9Y1ix8PaTeapqd3DYadZwtPcXVw4SOKNQSzMT0AAJrxnwX+1x4Y+IzavNoHh/xY/h+w0641FfFV5oz22kXCRAlljncgs3tt9fQ1v/ALUHwt1X40fAjxd4N0O+j07VdTtlWCWZisbMsivscgEhW27ScdGrx5dL+Neu/sm+LPAN38L7Pw7r9roEWg6THY69bTDUcr5MsoGVSBQnzAM5JyR165Su4VLbpaed09fk7afoaxUeaF9m9fLb89deljwnw58S/HeofAj4FQ33jjXrfW/H3jmbUby/fV50lj0yKRhJEJN+VhCgNtyFA7V9y/Bz436R8cLHVNS8O6VrEeg2l09rba1fwRxW2pFSQz22JC7xgj7zKoPbODj5Y8VfsU+IPiNrnwh8I61YXFj4F8J+CZbK61O0vokb+1JY9jJsV95G4KxIG1hkEkHFfQv7Iuh+OvCPwP0Xwx8QtHXSdb0HdpsLx3MMyXdrHxDKDG7Y+XC4bDZXJAzXY+X30ujdvS/KvwinbrzXOfV8surSv6u8vu963ly2PZ6K/Pv4nf8ABJ3/AIWN8SfFniz/AIWn/Z/9vatd6p9j/wCEe83yPPmeXy9/2pd23fjdgZxnA6VzP/Dmv/qr/wD5bP8A92VgaaH6VUV+av8Aw5r/AOqv/wDls/8A3ZR/w5r/AOqv/wDls/8A3ZQGh+lVFfmr/wAOa/8Aqr//AJbP/wB2Uf8ADmv/AKq//wCWz/8AdlAaH2XH+1X8O4fjZrfwr1PWBoni3TXgWOPUQIob3zYIpl8mXO0tiULsYhiQcAjmvjT9tr/lJJ8A/wDuAf8Ap4nrx3/h2L8RdR+Nut+DdJuhL4U0l4Fk8ZalaG0t5t8EUrCKHe7SMpkKfKxXKHLLnA6T40fCh/gr+27+zn4UfxNrHi1rX+wSdQ1qbzJedYm+RP7kYx8qEnaDjJoGfrRXlsn7QGm33iy60Pw54Z8R+MVsbxbDUdU0S2haxsZyQGR5ZZY95TdlhEHK4OcHivUJFLxsobaSCAw7e9fPf7Nei+PvhD4bsvh5rPgSe5trG7vJH8X2+p2htbxZJZJllMRk88SMXClSmAcndihb69Px/r7302Yn8N1/W55j46+IniTVo/ifLZeJtV0+PWviHpXg7SGgv5IhZRQeT9reEhh5e7E+4rjODnpX1H8N/idpvxQtb++0Sy1A6Jbzm3ttYuY1S21Hb96S2O4u8YORvKqGxlSw5r5fs/2U/EXj7wj8M/C/jnQ5IdJl1fXPEvivydQjDQ3dwZfs0W6OTL/6/qm4fJgnBr6I/Z70vxX4c+F+meH/ABlZ+Tq2hs+lx3Yljdb+2hbZBcjYx274whKthgwOR0q46Q5Zbq3z0jF/im13UriqfHeO13+cmv8AyW3pa3U9JoooqACiiigAooooAK5zx98QdC+GXhubXPEN59jsY2WJAkbSSzyscJFFGoLSSMeAqgkmujrxD9oXwb4q1bxn8LvFXh/Qm8W2PhbVbi8vdAiuobeWYyW7RRTRtM6RlomYnDMPvcUuqXn/AF/X36FLr6P8jR8K/tLaLr3ijXtD1fw54h8FTaLpK65d3PiSK2hhW0LsqyExzyFCdjna4U4U5Arzb4mfH6/+ImqfDTw74W0Pxj4csPEviazaLxJPGthDe2UObiZYwJhcBXSPGHjUMpbtjPO+M/gP8UfiRp3xz1HU9Js7LWfEn9jJpFiL2NoZ7O1IlktDIDlSxLozMFBZiR8vNdreeE/iR8VPjL4P13VvCH/CD+GdC0TU0tFn1G2ubmDUJ40hRnWF2XAQvt2FuA24qSFpp25ZWu1Z29Pe/HSNl1v0aFupK+jur+qS28m29em2qYz4/ftV22j/AAw8ezeDtD8Sa7/Z9tcacPE+lQRJp9nfEeUoE0kqM5SRlBaFXwRjqMV7z4C0u60PwP4e06/u7jUL610+3huLu8laWaaRY1DO7sSWYkEkk5JNfJdp8LvipcfAv4ffCu58B2ujaPoer6ePEOrTavavHeWcFyJpJ4EV92GKB28za3OArZJH0P8A8NNfB7/oq/gf/wAKOz/+OVdlGMknfX8EtHbom5P7uthO8nHS1r/i9r9WuX8dLXE+IHiDTJPix8OfC82o+IrPVrmS71WCLRp0itJo7eIK6XoJ3PETMu1VBy4BOMUv7TX/ACbb8V/+xS1b/wBI5axtH8M6h4r/AGlF+IMawXfgy38Ix2Ojanb3UU0V1LcXBlmePYxO3ZHD8xGDngnmtn9pr/k234r/APYpat/6Ry1O0VffW/3tfkkD+J220/JP820flj+wH+114O/ZW/4Tv/hLNN1zUP7e+wfZv7Gghl2eR9o37/MljxnzlxjPQ5xxn66/4e7fB7/oW/HH/gBZ/wDyXXh//BJ34ZeDviN/wtP/AISzwnofij7H/ZX2b+2dNhu/I3/bN+zzFbbu2LnHXaM9BX6Cf8My/B7/AKJR4H/8Jyz/APjdIp2ufNf/AA92+D3/AELfjj/wAs//AJLrzT9oP/gq5pHiX4c3uj/C3Stf0fxDffuH1TWIYYvskJB3PD5c0hMnQAnAXJPJAr1H9ta4+En7O3gmxsPD/wAGPB+qePfEzvZ6Hbx+FLWRUfhTKcQkOyl0Cx9WZhxjNaH7IH7Afhj4beCH1T4meGtF8UeM9ZAmubTUrGG6ttNXJIhiRlKB+fmZRjI2rwMkDQ+bv2Rv2yvgT+zL4JeKXw/4z1fxpqmJta1r7BaMZXzny42a6DeWpJ68scscZwPe/wDh7t8Hv+hb8cf+AFn/APJdfSn/AAzL8Hv+iUeB/wDwnLP/AON0f8My/B7/AKJR4H/8Jyz/APjdAaHwTYf8FZr7SfjJrtydFutb+GN9PG9lZ3ccVvqdgvlIr7SjMjjeHbazHO77y9Bh/Hz4veGvjl+3V+zv4t8J3U13o902hRq09u8Lq66zOHQqwHIPGRkccE19a6d/wTp+FZ+MWu+OtX0m1v7K6mjfTvC1taJa6XZKsSId0ScSksrNg4T5zlSea+eP2z7ODT/+CjP7P1tawR21tCvh9I4YUCIijWJwFUDgADsKA0P0vrwzx5+134W8E2+t3tr4f8S+K9G0S4Fpqes6FaQtZ205dU8nzJpo/NcMyqREHwTg4PFeza1a3F9o1/bWk/2W7mt5I4Z/+eblSFb8CQa+ObD4SfFe++Cfw4+GMngWHR9N0HXNObX7xtUtZv7ThiuxLLPCFkzsYjzW8zEhOFCHJIcPemova8fxdm/kt/XyYnpG/r+C/XofQvjH4+aV4Y1+XQNN0DX/ABj4gtrZLy903w/bRSPYxOCUaeSWWOJC2DhS+4gEgEc15d8CfjymkfBvRPEHiKTXvEXiPxxqupalo3h+3DXmoPbm4kMcUSM+2OKOIJklljXPUZGc+78HfF3wL/wvDTfDXg2LXtR8X39zqmk+JZNUtoIVSS2SNLeRGbzPMj2FU+XYcjLqMmpPCvwm8cfBnx74G1nSPCP/AAmGn2XgS18LNbw6jb276ZdRyB5JGMrANG5xuaPc3yfdPFELNXfVL5XUpNfJqMb+d/IJ6aLWzfzs0k/mpOVvK2+p1v7P/jzWvij8YPivrV7ba7oekaZJYaHa6BrEyf6NNHE0s7mOKWSIOxmj+ZWJKhcnsPXPiN4qsPA3gHxH4h1SS5i07S9Pnu7h7PHnhEjLHy8kDfgcZIGcV4j8C/Eml/AnwzrMHxe8U+FvBvjjxHrt/r11Y3+uW0W6OSYpE8e5wWj2RKAeuBggEEDR+OHiHSv2ivg94h8IfDHxJoPjLUr+Wztb6PRtZtZja2b3CefI+JOB5aycdT0AJpSjzxjCO7SXo2lf5J3uVFqNRynsm/uT0+9Jep6r8K7WOz+G/hmOG91nUYjp8MiXXiKcT6hIrIGBuHHDSc8kcZrqqjt7dLW3ihjXbHGoRVHYAYAqSrm1KTaMYJqKUtwoooqCwooooAKKKKACiiigAooooAKKKKACiiigAr81f+czn+f+hdr9Kq/NX/nM5/n/AKF2gaP0qooooEFfkX+0f8Gv+Ggv+CmviHwD/bH9g/2v9n/4mH2X7T5XlaLFN/q96bs+Vt+8Mbs84xX66V+av/OZz/P/AELtBSD/AIc1/wDVX/8Ay2f/ALsr5r/bK/Y1/wCGSP8AhEP+Kv8A+Er/AOEg+2f8wz7H5HkeR/02k3bvP9sbe+eP2+r81f8Agsp/zSD/ALjH/tlQCbuH/Dmv/qr/AP5bP/3ZXyN+11+zP/wyt8SdN8J/8JH/AMJR9s0mPVPtn2H7Js3zTReXs8yTOPJzuz/FjHGT+8dfkX/wV2/5OS8N/wDYpW3/AKWXlA02elf8Oa/+qv8A/ls//dleJftQ/sAf8M26b4Ruv+E8/wCEi/4SDV00rZ/Y/wBl8jcCfMz577un3ePrX7L18R/8FQv+Rd+Ef/Y3w/8AoBoEmzzH/hzX/wBVf/8ALZ/+7KP+HNf/AFV//wAtn/7sr9KqKBXZ+Rcv/BKnx7cfFu78NafrcT+ErOOJ5fFl/ZG2SRnQMyQ24kdpCucZ3Bc5ywIxT/i18DdK/Z5/bc/Z58H6Pqep6tawyaFO1xqlwZG3tq8wYIv3Y0+XIRRgEk8kkn9ca+Rf2uv2A/8Ahqn4k6b4s/4Tv/hF/sekx6X9j/sf7Xv2TTS+Zv8APjxnzsbcfw5zzgA7n11RX5q/8Oa/+qv/APls/wD3ZR/w5r/6q/8A+Wz/APdlAtD9KqK/NX/hzX/1V/8A8tn/AO7KP+HNf/VX/wDy2f8A7soDQ/SqivzV/wCHNf8A1V//AMtn/wC7KP8AhzX/ANVf/wDLZ/8AuygND9KqK/NX/hzX/wBVf/8ALZ/+7KP+HNf/AFV//wAtn/7soDQ/SqivzV/4c1/9Vf8A/LZ/+7KP+HNf/VX/APy2f/uygND9KqK/NX/hzX/1V/8A8tn/AO7KP+HNf/VX/wDy2f8A7soDQ/SqivzV/wCHNf8A1V//AMtn/wC7KP8AhzX/ANVf/wDLZ/8AuygND9KqK/NX/hzX/wBVf/8ALZ/+7KP+HNf/AFV//wAtn/7soDQP+czn+f8AoXa/SqviD9nD/gmh/wAM+/Gfw94+/wCFj/29/ZH2j/iX/wBh/ZvN822lh/1n2l9uPN3fdOduOM5r7foBhRRRQI+Ef2Tf+UgP7Rf/AAL/ANKEr7ur4R/ZN/5SA/tF/wDAv/ShK+7qBhRRRQIKKKKACiiigAooooAKKKKACiiigAooooAKKKKACiiigAr81f22v+UknwD/AO4B/wCniev0qr81f22v+UknwD/7gH/p4noGj9KqKKKBBRRRQAUUUUAFFFFABRRRQAUUUUAFFFFABRRRQAV5p+01/wAm2/Ff/sUtW/8ASOWvS680/aa/5Nt+K/8A2KWrf+kctAHxB/wRr/5q/wD9wf8A9va/SqvzV/4I1/8ANX/+4P8A+3tfpVQN7lS+0my1OS1kvLO3u3tZRPbtPErmGQAgOhI+VsEjI55NW6KKBBRRRQAV+av7bX/KST4B/wDcA/8ATxPX6VV+av7bX/KST4B/9wD/ANPE9A0fpVRRRQIKKKKACiiigAooooAKKKKACiiigAooooAKKKKACiiigAooooAKKKKACvzV/wCczn+f+hdr9Kq/NX/nM5/n/oXaBo/SqiiigQV+av8Azmc/z/0LtfpVX5q/85nP8/8AQu0DR+lVfmr/AMFlP+aQf9xj/wBsq/SqvzV/4LKf80g/7jH/ALZUAtz9Kq/Iv/grt/ycl4b/AOxStv8A0svK/XSvyL/4K7f8nJeG/wDsUrb/ANLLygcdz9dK+I/+CoX/ACLvwj/7G+H/ANANfblfEf8AwVC/5F34R/8AY3w/+gGgS3PtyiiigQUUUUAFFFFABRRRQAUUUUAFFFFABRRRQAUUUUAFFFFABRRRQAUUUUAFFFFAHwj+yb/ykB/aL/4F/wClCV93V8I/sm/8pAf2i/8AgX/pQlfd1AwooooEFFFFABRRRQAUUUUAMmlWGJ5HO1EUsSewFfGXwn/bJ+KPxF8A+I/Hi/D7T7rwh4fGoyT3Vo0iTX5iDGCC2jLucj5DJKeOWCpkV9deLNHuPEHhbWNLtL0abdX1nNbRXhi83yHdCok2ZXdtJzjIzjqK8j8A/s5az8Kv2c9L+Gng/wAezaDrNgzSJ4ni0qKVmdpmlYm2kZlwd20gseB1qNffflZer3fy/UvS0V56+i6fP9PQ8k8O/tP/ABP8afsz/EH4lw3/AMN2Wx0sXenQaRc3ks1i+N0sN4rYxMqfdC4Bcr/DyfS/2ILf4kx/AvR7n4i6lY6tNqESahp11HPcT3zwTgy5u3mODJlwAE+VVAFc9of7Cun2fwz+Jmgan4yvdT8R/EAxvq3iCGwhtEDxtvUx2seEVSxYsM87jyK9w+DvgXUvhn8NdB8Mav4ik8V32mQfZ21aW2W2MqgnYPLUkKFTao5J+XJOTW/urnt1Uf1v+Ntepk7tRXZy/S366dCjqn7RHwq0TUrvTtR+Jng6w1C0me3ubS61+0jlhkRiro6NICrKQQQRkEEVV/4aa+D3/RV/A/8A4Udn/wDHK8H8df8ABLn4VfEHxt4h8U6j4g8Yw6hrmo3Gp3Mdre2ixJJNK0jhA1sSFBY4BJOMcmsP/h0T8Hv+hk8cf+B1n/8AIlZl6H0p/wANNfB7/oq/gf8A8KOz/wDjlH/DTXwe/wCir+B//Cjs/wD45XzX/wAOifg9/wBDJ44/8DrP/wCRKP8Ah0T8Hv8AoZPHH/gdZ/8AyJQGh9Kf8NNfB7/oq/gf/wAKOz/+OUf8NNfB7/oq/gf/AMKOz/8AjlfNf/Don4Pf9DJ44/8AA6z/APkSj/h0T8Hv+hk8cf8AgdZ//IlAaHUT/wDBST4Z6L8cNd8Daze266Dbvbrpvi7S7lb2wuPMgidhI0edm2R3Tcu5RsO7bg14D+2JrFh4g/4KIfs96jpd7b6jp9ynh+SC7tJVlilU6xPhlZSQR7ilt/8Agkk9/wDGTWoD4gu9K+F9o8IsrieWK41W+BgjaXG1FjjAlMihmXOFHyn7x5b9oD4QeFfgf+3h+z54X8H6b/ZmkxPoMpVpGkeWVtXmDSOzEksdo9uOABxQVofq7Xm1r+0Z8OLzxJqmgxeKLdtU0proahGYZgln9nGZmmkKbI1GDhmYBirBSSDj0aWTy43fBbaCcKMk/QV8vfCbwVYaD+y/4in8c+ENdlm8b6hqF/r2lWOlzy6iRd3EgUNCi+aCkWzoMjGcVLb959l+L2+W9/0BJaeq+7W/6fedn44/a+8EeFvhXr3jbT11XWbfTQkcVu2j31qLqaQMYVV5LfARyuPNwUGRzkgH1DwD4ytfH3hPT9ctIbq3juU+aG8s57WRHHDrsnjR8BgQCVGRyODXyL4gs/iLq37OsWk61ovifX/D0HjXT4rVrrSmOuSeH4Z4pPNuLWNd7OGTbjYHK4LKOa+1rW4W6tYZ1SSNZEDhZUKOARnBU8g+x5Fa2Vm13Xy91PX1vbyat3M9fdXr6PVr8LX8079rS0UUVAwooooAKKKKACiiigAooooAKKKKACvNP2mv+Tbfiv8A9ilq3/pHLXpdeaftNf8AJtvxX/7FLVv/AEjloA+IP+CNf/NX/wDuD/8At7X6VV+av/BGv/mr/wD3B/8A29r9KqBvcKKKKBBRRRQAV+av7bX/ACkk+Af/AHAP/TxPX6VV+av7bX/KST4B/wDcA/8ATxPQNH6VUUUUCCiiigAooooAKKKKACiiigAooooAKKKKACiiigAooooAK4P4M/FH/hb3hW915NM/sy0j1W90+2/0jzvtEdvO8ImzsXbvKE7eceprW+J3iqPwP8OPFHiKVtqaVplzek/9c4mYfqK+LtH+BWk/D34e/s0C0gmHxD1bxDp9zNrTzubmKFopbu7hUk/LFt3KYxhTnJGSSXT96dnt7q/8Cdr/ACs7jl7sL9fefyirtfij7C1T4j+T8TtL8E6Xp/8Aad/JatqOqT+f5cem2uSsbt8rbnkkBVU4yFkbI24OJ/wt7WdH17wlpvifwgfD/wDwkWr32kwSDUkuShiSSS2kIRcYnjic7cgocA5zxwvgXxNH4fh/aK8fX7f6TY6xdQlmHKW9lYxeUg9sl2HvIfWuI+GvheW38OfsveCQmdTs438YaoD1hQWsm5m92nvFUeuG9KdP3uX0i/lJOX/ksUwlZc3/AG8l6x0/GTX4fP7Br81f+czn+f8AoXa/Sqvya+OX/Ce/8PStb/4Vj9k/4Tj9x/Z/27Z5P/IEj83dv+X/AFXmYz3xUjR+stMmmjt4XlldYoo1LO7nCqAMkk9hXwp/xnl/1KX/AJKV86eKPjJ+07+0p4m134IW2q6ZrVzho9WHh8QRQCNCPMWS6GBsDEKwB+Y/J82SCCsfdvwP/bGsPj98bfFfhHwr4dur/wAJ6Jbqy+LY5B5EkoYgqVIGFbnYQSTsY4wcj5h/5zOf5/6F2pvg/wDBj9sT4E+D4/DPgzSfB+laWJWnk+e2klnlbAaSR2JZmwAOegAAwABXgf8Axfn/AIb4/wCYT/wvD/tl9j/5BX/fH/Hr/wCPe9BR+0Ffmr/wWU/5pB/3GP8A2yrvP+M8v+pS/wDJSvk39vP/AIXz/wAUN/wu7+yf+X7+yP7L8r/p38/f5f8A2xxn3oEtz9oK/Iv/AIK7f8nJeG/+xStv/Sy8r6G/4zy/6lL/AMlK+IP24P8Ahbf/AAtjSf8Ahcv9nf8ACUf2JD9m/szy/L+yefPszs43eZ5vvjFALc/c2viP/gqF/wAi78I/+xvh/wDQDWb/AMZ5f9Sl/wCSlfNX7Z3i79oPw23gCL41po81kupSalpkGl+Spkkt/LEgZowcDEqjn19qAS1P2DooooJCiiigAooooAKKKKACiiigAr8vP+CtXxW8X2Xj7w94Ftr2803wlJpAv5Yrd2jjv5nlkRhIRgOEWNcKc4Lk9xX6h1518aP2ffAf7QOi22meN9Cj1WO1cyWtwkjQz27HGdkiEMAcDK9DgZHAoGj4B/4JK/Fbxfe+PvEPgW5vbzUvCUekG/iiuHaSOwmSWNFEZOQgdZGyoxkoD2NfqHXnXwX/AGffAf7P2i3OmeCNCj0qO6cSXVw8jTT3DDON8jksQMnC9Bk4HJr0WgGFFFFAgooooAKKKKACiiigAooooA+Ef2Tf+UgP7Rf/AAL/ANKEr7ur4R/ZN/5SA/tF/wDAv/ShK+7qBhRRRQIKKKKACiiigAooooAKKKKACiiigAooooAKKKKACiiigAr81f22v+UknwD/AO4B/wCniev0qr81f22v+UknwD/7gH/p4noGj9KqKKKBBRRRQAUUUUAFFFFABRRRQAUUV5Z8cPidq3g2bwr4Y8LRWsvjLxdfNYac98rNb2qJGZJ7mRVILiNBkICNxKjIGaOyXUaX4foep1g+MvHOifD/AE221DXr37Da3F5BYQuIpJS880gjiQKik5ZmAzjA6nA5r5hvfjb4v+DXjX4rf254xu/iFpXhPRdO8uxuLGztN+rXsrLFCrQRKypjy+GLEB8knFRfEjRPGcfxS+C9j458fNrX2jU5/Eeo6FaadbW+n2S2Ns0u6JghnZVkZFBkkbOc4BxgVvdbfu3V/Tr8+XX0s3uDT95dUnbzdrr8Wl63tsfWmt61ZeHNGv8AVtSnW10+xgkubmdgSI40UszEAEnABPFR+HPEFh4s8P6brelzNc6ZqNtHd2szRvGXidQyNtcBlyCDggH1FfGPxk8WfEH4sfsx6j44Pi6XwvpHi54dM0Xwnp9hbP59rd3C28f2meVHkMjo5c+UYwoOOcZr7S0XS4tD0aw063ULBZ28dvGoHAVFCgfkKrlaUnLdO3ztd3++P4ibV1y67/pa34md4k8daH4R1PQNP1a9+y3mvXn2DTovKd/Pn2NJsyqkL8qMctgcda5L9pr/AJNt+K//AGKWrf8ApHLWf4s8da4v7SfgLwXpV99n0qTR9R1jWbcRRsZkQxRW4LMpZR5kjH5SM7ecjitD9pr/AJNt+K//AGKWrf8ApHLUr4VLvf8AB2/NMb0lb0/z/Jr+tviD/gjX/wA1f/7g/wD7e1+lVfkX/wAE0P2j/h1+z7/wsf8A4T7xD/YP9r/2b9i/0K5ufN8r7V5n+pjfbjzU+9jO7jODX2//AMPHv2dv+ih/+UTUf/kegb3PpWivmr/h49+zt/0UP/yiaj/8j1wHxy/4KffDDw78O9Rm+G+t/wDCV+L5R5NlbSaddW8MDN/y2kMsSBlXrtByxwOASwBWZ9jWmu6bf6nfadbX9tcahYbPtdrFMrS2+8bk3qDldw5Geoq9X5h/sU/Hj4J/CGPWvH3xE+Kc+pfFHxTltS36dqMyW0ZYN5ZK2+15CQCzDKjAVOAS31P/AMPHv2dv+ih/+UTUf/kegLH0rX5q/ttf8pJPgH/3AP8A08T11tr/AMFXPC2mfGjXdG1C0OsfDh54xpfiTTYJY7iJTFHv823lCs6iQycgKwAGFfrXmX7T/wAQvDfxP/b/AP2e9f8ACmtWevaPcf2AEurOQOob+2JyVYdVYZGVYAjPIFA0fqVRUF9eQ6bZXF3cOI7eCNpZHPRVUZJ/IV8d+Pfi98UfEnwZg+KOi+MP+EKttd1K1sfC3h20021na4inukhilupLiOQl3QtJsi2BRgZJyaI+9JRXkvvdl94raXf9W1f3dT7LrB8H+OtE8e2uoXOhXv2+Cwv59MuJPJkjC3ELbJUG9Ru2txuXKnHBNeI6l8QfFvxK1j4hPofjA+BfB/gSSSwutUs7G2uby/vYoRLcHM6PHHFGGVcBCzHdyoGK87/Z58ReLrjwP8Ofhn4b1VNF17VtCl8aeI/Ek9ok81vHd3LvGsMTDyzNI8hOXUqqoflOQKcVzbdlb5ptP05Yt99vQUvdWvfX5aNevM4r7z6ysfHOial4y1TwpbXvm6/plrDeXloIpAIopi4iYvt2EsY34BJ45A4rYu7qKxtZrmd/LhhRpHbBOFAyT+VfO/7JOl39x4q+MniLVNeufFF1P4l/saPV7yGGKSeKyhWP7sKJGAHeRflUZxnqTXpn7Qfjy5+GPwR8beKLGVYNQ03Sp5bSRlDBbjaVi4YEH5yvBHNRN8sFJdUn96uvzLhHmqcnnb7nZ/jf5HU+DfGGkeP/AAvpniPQbv7do2pQrcWlz5Tx+ZGejbXAYfiAa2axvBa6mvg/QxrVybzWBYwfbbgoqGWby18xtqgKMtk4AA9q2a1nFRk4roYwlzRUu4UUUVBYUUUUAFFFFABRRRQAUUUUAUtY0XT/ABFpd1pmq2Ftqem3UZiuLO8hWaGZD1V0YEMD6EVDceGdHu7zS7ufSbGa60vcdPnktkZ7PcmxvKYjMeV+U7cZHHStOigDwn4tfATWfE2neLdD8J3Vnp2k+PblJPE1zqFy++1QRxRO1nCkRDPLFHtbzJFAIBGeRXpPhP4Z6T4R8Raxrlu9zd6nqUcNuZrtlb7PbQrtitogqjbEpLNjklnYknjHW0U1orL+uiXyW3z7g/e3/r+v0QV+av8Azmc/z/0LtfpVX5q/85nP8/8AQu0ho+pv21Zfi5efDK20H4R6U11qGu3S6fqGpwXAjn0+B8LvTkEAk4aQZ2KCcfxLt/sq/sw6B+zB8O49F0/bfa7ebZtX1crhrqYDoufuxrkhV+pPLEn2migQV+av/OZz/P8A0LtfpVX5q/8AOZz/AD/0LtA0fpVX5q/8FlP+aQf9xj/2yr9Kq/NX/gsp/wA0g/7jH/tlQC3P0qr8i/8Agrt/ycl4b/7FK2/9LLyv10r8i/8Agrt/ycl4b/7FK2/9LLygcdz9dK/NX/gsp/zSD/uMf+2VfpVX5q/8FlP+aQf9xj/2yoEtz9KqKKKBBRRRQAUUUUAFFFFABRRRQAUUV+df/BTT9rHx58L/ABpovw/8F6rceGoZtMXU73UrMhbibzJJI1jR+qKvlEkrgknrxyDP0Uor86/+CZf7WPjz4oeNNa+H/jTVbjxLDDpjanZaleENcQ+XJHG0bv1dW80EFskEdeeP0UoAKKKKBBRRRQAUUUUAFFFFABRRRQB8I/sm/wDKQH9ov/gX/pQlfd1fCP7Jv/KQH9ov/gX/AKUJX3dQMKKKKBBRRRQAUUUUAFFFFABRRRQAUUUUAFFFFABRRRQAUUUUAFfmr+21/wApJPgH/wBwD/08T1+lVfmr+21/ykk+Af8A3AP/AE8T0DR+lVFFFAgooooAKKKKACiiigAooooAK4D4pfBrS/ipceH7+fVNV8P65oFy9zpus6JLHHc25dCkijzI5EZXU4IZT0HSu/ooHex4nH+yP4H/ALB8d6TcTaxeweMpLa41Ga5uw06TwKNk0cmwMJN4EhLFvm6AL8tX/Dv7NOhaP45tfF+qeIfEni3X4NKn0c3GvXcUqyW8rKSDGkSKpAUgFAuQzbtxwR67RR/w34W/LT0F/X43/PU8Cs/2N/C1jY+G7JvEfivU9L8L6lDqmh6RfalGbSyeJy6RALDlo84GZN7qBhWGTnsm8QfGFVJ/4QTwQQOePGl4T/6aa9Loou7Wv/w/f8EGm/8AX9angPwTt9d8ffGjxX8S9a8PXvhy0bRrHQNPttQhmhkdkaSa6dFmjjk8vzJFVWeNC+zO0Cuz/aa/5Nt+K/8A2KWrf+kctel15p+01/ybb8V/+xS1b/0jlpt6JLZf8O/xbYfacn1/RWX4JH5rf8E0P2cPh1+0F/wsf/hPvD39vf2R/Zv2L/Tbm28rzftXmf6mRN2fKT72cbeMZNfb/wDw7h/Z2/6J5/5W9R/+SK+av+CNf/NX/wDuD/8At7X6VUinufBf7T37Ov7Kv7Mvw5n8Qat8PVu9VuN0OlaQNe1FZL2cDpnzztRcgs2OB6kgHjf2Mf8AgnNoPizwpN41+L3h9yusDzNK8MpdXFutpAxDLLIyOJNxHCoznC8tlj8v3d8Q/gn4I+K2q+HdS8V+HrTWb3w/dfbNPmnU7on9Dj7yZ2sUbKkqpI4FdxQK581f8O4f2dv+ief+VvUf/kij/h3D+zt/0Tz/AMreo/8AyRX0rRQF2fCem/8ABKfwJcfF7W9c1SeS28BiaM6V4V064mLFBEgfz7iRjJgyCQ7VOcEfOPu15V+1d4P0PwH/AMFBf2etE8OaTZ6JpFqNAWGzsYVijT/icT5OB3PUnqTya/UGvzV/ba/5SSfAP/uAf+niegaP0kvbOHUbOe0uY1mt542ikjboysMEH6g14Vp/7GvhKzsfDVhN4i8U6lpvhjUrfUtDsb6+hkh0/wAmTzFhjXyRlOAuX3SBRtDgE597ooj7suZb6fht9xL1Vn/V9zw/xV+yR4Y8VT+M4/8AhIfFGkaN4uZ59W0PS7+OGzmuGQI1wB5RcOdqkrv2MR8yMOK1NW/Zq0C71zQdY0rXfEPhbUtK0iPQTcaJdxxNeWKEFYZt0bdCCQybGGThhXrlFC0Vl/Vk1+Ta9NNht8zu/wCr2f5pP113PHPB/wAN/EHwG8OQeFvht4e0nXdAE1xevc+JvE09rdCaaZ5GXEdhMHUbgAzNuwMHJG48L8aJ/iL8Uv7J+Geq+Brawj1TU9OvLzU9Fv7vULGKxhuRNOJp5bK3jVyIVURqzOd4+UDmvp2imm+ZSetmn9239dhPZpaXv+O7/rqJ04paKKQBRRRQAUUUUAFFFFABRRRQAUUUUAFFFFABRRRQAV+av/OZz/P/AELtfpVX5q/85nP8/wDQu0DR+lVFFFAgr81f+czn+f8AoXa/SqvzV/5zOf5/6F2gaP0qr81f+Cyn/NIP+4x/7ZV+lVfmr/wWU/5pB/3GP/bKgFufpVX5F/8ABXb/AJOS8N/9ilbf+ll5X66V+Rf/AAV2/wCTkvDf/YpW3/pZeUDjufrpX5q/8FlP+aQf9xj/ANsq/SqvzV/4LKf80g/7jH/tlQJbn6VUUUUCCiiigAooooAKKKKACiiigArwn9pv9jvwR+1JBpsviF73S9a01WjttW01lWXyicmJwylXTPIyMgk4Iy2fdqKAPCf2ZP2O/BH7LcGpS+HnvdU1rUlWO51bUmVpfKByIkCqFRM8nAySBknC492oooAKKKKACiiigAooooAKKKKACiiigD4R/ZN/5SA/tF/8C/8AShK+7q+Ef2Tf+UgP7Rf/AAL/ANKEr7uoGFFFFAgooooAKKKKACiiigAooooAKKKKACiiigAooooAKKKKACvzV/ba/wCUknwD/wC4B/6eJ6/SqvzV/ba/5SSfAP8A7gH/AKeJ6Bo/SqiiigQUUUUAFFFFABRRRQAUUUUAFFFFABRRRQAUUUUAFeaftNf8m2/Ff/sUtW/9I5a9LrzT9pr/AJNt+K//AGKWrf8ApHLQB8Qf8Ea/+av/APcH/wDb2v0qr81f+CNf/NX/APuD/wDt7X6VUDe4UUUUCCiiigAr81f22v8AlJJ8A/8AuAf+niev0qr81f22v+UknwD/AO4B/wCniegaP0qooooEFFFFABRRRQAUUUUAFFFFABRRRQAUUUUAFFFFABRRRQAUUUUAFFFFABX5q/8AOZz/AD/0LtfpVX5q/wDOZz/P/Qu0DR+lVFFFAgr81f8AnM5/n/oXa/SqvzV/5zOf5/6F2gaP0qr81f8Agsp/zSD/ALjH/tlX6VV+av8AwWU/5pB/3GP/AGyoBbn6VV+Rf/BXb/k5Lw3/ANilbf8ApZeV+ulfkX/wV2/5OS8N/wDYpW3/AKWXlA47n66V+av/AAWU/wCaQf8AcY/9sq/SqvzV/wCCyn/NIP8AuMf+2VAlufpVRRRQIKKKKACiiigAooooAKKKKACviD/goB+3F4j/AGd/EWi+DfBNtZrrl3ZjUbzUL6EyrDEzukaRpkAsTG5JOQABxzkfb9fKn7aH7C9l+1NdaVr2ma2nhzxXp0BtPPngMsF1b7mZY3AIZSrMxDDPDMCDwQDRxf8AwT//AG4vEf7RHiLWvBvja2s21y0szqNnqFjCYlmiV0SRJEyQGBkQgjAIJ44yft+vlT9i/wDYXsv2WbrVde1PW08R+K9RgFp58EBigtbfcrNGgJLMWZVJY44VQAOSfqugGFFFFAgooooAKKKKACiiigAooooA+Ef2Tf8AlID+0X/wL/0oSvu6vhH9k3/lID+0X/wL/wBKEr7uoGFFFFAgooooAKKKKACiiigAooooAKKKKACiiigAooooAKKKKACvzV/ba/5SSfAP/uAf+niev0qr81f22v8AlJJ8A/8AuAf+niegaP0qooooEFFFFABRRRQAUUUUAFFFFABRRRQAUUVwfwl+KB+Klv4nuo9L/s+y0nXrzRbeb7R5v2wW7BGmxtXYC+9dvzfdznnAFq7Ltf8AFL9UD0V33t+b/RneUVwml/FA6t8aNe8BQaZmLRtItdSuNU+0f8tJ5JFSDytv92Itu3dwMd67l3EaM7HCqMkmjZcz2Dry9f8ANX/UdXmn7TX/ACbb8V/+xS1b/wBI5a0fgn8Tm+MXw50/xcNL/si3v5bgW0Bn84vDHM8aS7tq/fVA+McbsZPWs79pr/k234r/APYpat/6Ry02mnZgfEH/AARr/wCav/8AcH/9va/SqvzV/wCCNf8AzV//ALg//t7X6VUhvcKKK5D4sfFbw78FvAep+LfFF6tlpVimT3eaQ/cijX+J2PAH4nABNAjr6K+Tf2J/id8X/jtrXi74ieLPJ0n4b6q4j8P6HLCDLHsON8Ug2kx4yGZgd78rtCkH6yoAK/NX9tr/AJSSfAP/ALgH/p4nr9ILXVLO/nuoba7guJrSTyriOKRWaFyoba4B+U7WBwexBr83/wBtr/lJJ8A/+4B/6eJ6Bo/SqiiigQUUVwnwc+KB+LfhvUdbTTP7MtINXvtNtT9o877THbztD5/3V27mRvl5xjqaN9P6/rUNlf5fm/0O7orhPDfxQ/4ST4teMfBcGmbYPDVrYyzan9oz5k1wsj+T5e3jaiK27cc7xwO/Wa9rEHh/Q9Q1S5IW2sbeS5lJOAFRSx5+gqZSUY8723KUXKXKty/RXJfCXxzP8TPhn4Z8WXOl/wBiy61YRX/2Az+cYVkXco37V3fKQfujrXW1pKLhJxluiIyUkmgoooqRhRRRQAUUUUAFFFFABRRRQAUUUUAFFFFABX5q/wDOZz/P/Qu1+lVfmr/zmc/z/wBC7QNH6VUUUUCCvzV/5zOf5/6F2v0qr81f+czn+f8AoXaBo/SqvzV/4LKf80g/7jH/ALZV+lVfmr/wWU/5pB/3GP8A2yoBbn6VV+Rf/BXb/k5Lw3/2KVt/6WXlfrpX5F/8Fdv+TkvDf/YpW3/pZeUDjufrpX5q/wDBZT/mkH/cY/8AbKv0qr81f+Cyn/NIP+4x/wC2VAlufpVRRRQIKKKKACiiigAooooAKKKKACiivlT9tD9uiy/ZZutK0HTNETxH4r1GA3fkTzmKC1t9zKsjkAsxZlYBRjhWJI4BAPquivlT9i/9uiy/amutV0HU9ETw54r06AXfkQTmWC6t9yq0iEgMpVmUFTnhlIJ5A+q6ACiiigAooooAKKKKACiiigAooooA+Ef2Tf8AlID+0X/wL/0oSvu6vhH9k3/lID+0X/wL/wBKEr7uoGFFFFAgooooAKKKKACiiigAooooAKKKKACiiigAooooAKKKKACvzV/ba/5SSfAP/uAf+niev0qr81f22v8AlJJ8A/8AuAf+niegaP0qooooEFFFFABRRRQAUUUUAFFFFAEVzN9nt5ZdrP5aFtqjk4GcCvzp+IV54Y+LP7NY8aeLJrfxJ8TPHmpLYaTaXEnn/wBhRyXogWOCHpCIoz80m0FnYZOWUV+jdcnH8I/AsN1fXMfgvw9Hc31xHd3cy6VAHuJ0feksh2ZZ1f5gxyQeRzRG3NeW2n56/f36fNlczUfd3/4Gn3PW3X5I+ZtW1DwR4n8X/Fq4+KlxaXPhX4drb6XpPhjU5sWwQWqSm5aAnE0srMEQkHAUBeSa4v4KaZY3GhfBb4X+IboaH4IvfCl34y1G0FwbWHVJpbgMlq7hgTHGspdo84IC5yBivtTVvhn4P1/Xf7b1Twpoepaz5Jtv7Ru9OhluPKIIMfmMpbaQSNucYJo1r4Z+D/Eljpdlq3hTQ9Us9K2/2fb3unQzR2e0AL5SspEeAABtxjApxdvi12v5tKV36ttS9VbzFpa0fl5bWX3Xj877ngn7E+heE21L4veJ/BWnWOneGdS8TfYNOTTohHA0FrBGm9AONrSPK3HXOa9g/aA8XHwF8EPHWvq22Wx0a6liz3k8tgg/FitT6x8L3kKJ4Y8U6p8P7UvJNPaeG7HTFiuZpG3PNILi0mO8nOSCM5ycnmk0v4Xy/Z76z8U+K9W+IWk3kYjfS/E1jpjWwwwYNtgs4ixyB94ke2eamcVVhyPsl9ytf5lQl7Opz2vrf8b/AIHzv+x14NudL8Tf8I98RLaE+NvBejWKaDZxyF7O202aBQZ4FIGZmlWVJZDk5AUYU4Pu/wC01/ybb8V/+xS1b/0jlrum8N6S+uxa22l2TazDbm0j1E26faEhLBjEJMbghIB2g4yAa4X9pr/k234r/wDYpat/6Ry1rOfO7/1v+u787mMI8unp+X9W8rH5Gfsa/wDDRP8AxV//AAoP/pz/ALa/5B3/AE3+z/8AH5/23+5+P8NfSn/GxP8Az/wjtH/BGv8A5q//ANwf/wBva/SqszVvU/L/AMWeLP2+/AvhvUNf1/UINK0bT4jPdXlw3h0JGg7n1OcAAckkAZJrxWTRf2of279AtNXkguvG2i6LcvFBJI2n6dbrMQC2EJiWVgMAthsZxkZxX6U/tbfsx6r+05Z+E9HTxjceH/DNlqAn1jTY48i+ixkEEf8ALRcYXd8o3lsEqAfZ/Bng3Rvh74V0zw54fsI9M0bTYFt7a1i6Io9zySepJ5JJJ5NAXPzn03Tf+ChGj6fbWFjbxWllaxLDBbwp4cVIo1ACqoHAAAAA9qsf8bE/8/8ACO1+lVFArn4dv4w/aN8J/tSav5Vxq3/C4bmaBNTs9LjgmFziJPLWWK3BgdBGUzxhckkg5NexfHTUfHuqftxfs5XHxK0rS9G8WMugfaLbSLhpYsf2vNgnI+Vs5yqs4GOGOcD9SNJ8F6DoOu6vren6PZ2msau6vqF/FConuiqhV3v1YBVAAzgV+d/7bX/KST4B/wDcA/8ATxPQO5+jutagdI0a/vhC1wbW3knESfefapbaPc4xX55+OrXwp8UvgL4N8QeJ7u38V/FP4kaxYRQTSSGdtHgmvIw8VvHki2jjjxGWABZ25JJr9Ga5Kz+EfgXTZpprTwX4etZZrxNRlkh0qBGe6RiyTsQnMikkhz8wJJBpw92ak+8fwd2vn+nmJv3bLz/LT7v62R8seJvEHgjxhL8bfFHxWe01DTfBN9LouieF9Vl/0eBIrdWSZbcnEks8j/K5BOFAXHNY/wAJdD0yaP4W/CnxleR6V4H0rwDH4ovdNmufs0GrXdxKdyzHcPMiiDMxjJ2ksCwIAr7D1b4V+Cte1q41jU/CGg6jq1zbtaT393pkEs8sLLtaJpGUsyEEgqTgg4qbXPhv4S8UHTDrPhfRdWOlkGw+3afDN9kIxgxblOzGB93HQUo+6kn5feoyV/Vt83qvmErP4dN/xcWl6WTj6O/keFfsM6L4cXw38Q/EvhTT7XTfDuu+LLs6ZDZRCOL7JAEgjKqOgJSRv+BV2X7YmuT6L+zb43SzG7UNUtF0e1QHBeW6kW3UD8Za6rVvhZMzRR+GPF+seANOXezab4bsdLW3kld2d5iJ7OVt7MxJIYAnnGSSZdH+GLRxyxeJ/E2p/EG1MkU8Ft4lsdNaO2mjbeksYt7SH5wwBBbOCoIweaJJVIqMtrJPzSST+bSHGTpzc473bXzd19x43+yb4fP/AAkPikeNIYZPid4Vkj0MxRuXtbDTfKVrUWSkArFIgyzEbndG3HAAH03WdD4d0q31y41qLTLOPWbiFbebUUt0FxLEpJWNpMbioJJCk4GTWjVyk5Wb3/q7+e782Zxio3S2/rT5bLySCiiioKCiiigAooooAKKKKACiiigAooooAKKKKACvzV/5zOf5/wChdr9Kq/NX/nM5/n/oXaBo/SqiiigQV+av/OZz/P8A0LtfpVX5q/8AOZz/AD/0LtA0fpVX5q/8FlP+aQf9xj/2yr9Kq/NX/gsp/wA0g/7jH/tlQC3P0qr8i/8Agrt/ycl4b/7FK2/9LLyv10r8i/8Agrt/ycl4b/7FK2/9LLygcdz9dK/NX/gsp/zSD/uMf+2VfpVX5q/8FlP+aQf9xj/2yoEtz9KqKKKBBRRRQAUUUUAFFFFABRRRQAV8Qf8ABQD9h3xH+0R4i0Xxl4JubNtctLMadeaffTGJZold3jeN8EBgZHBBwCCOeMH7fooA+IP+Cf8A+w74j/Z38Ra14y8bXNmuuXdmdOs9PsZjKsMTOjyPI+ACxMaAAZAAPPOB9v0UUAFFFFABRRRQAUUUUAFFFFABRRRQB8I/sm/8pAf2i/8AgX/pQlfd1fCP7Jv/ACkB/aL/AOBf+lCV93UDCiiigQUUUUAFFFFABRRRQAUUUUAFFFFABRRRQAUUUUAFFFFABX5q/ttf8pJPgH/3AP8A08T1+lVfmr+21/ykk+Af/cA/9PE9A0fpVRRRQIKKKKACiiigAooooAKKKKACiiigAooooAKKKKACvNP2mv8Ak234r/8AYpat/wCkctel15p+01/ybb8V/wDsUtW/9I5aAPiD/gjX/wA1f/7g/wD7e1+lVfmr/wAEa/8Amr//AHB//b2v0qoG9wooooEFFFFABX5q/ttf8pJPgH/3AP8A08T1+lVfmH/wUC8Sad4N/b/+DOv6xcfY9J0q00W+vLjYz+VDFqty8j7VBZsKpOACTjgGgaP08or5q/4ePfs7f9FD/wDKJqP/AMj0f8PHv2dv+ih/+UTUf/kegLM+laK+av8Ah49+zt/0UP8A8omo/wDyPR/w8e/Z2/6KH/5RNR/+R6Asz6Vor5q/4ePfs7f9FD/8omo//I9H/Dx79nb/AKKH/wCUTUf/AJHoCzPpWivmr/h49+zt/wBFD/8AKJqP/wAj0f8ADx79nb/oof8A5RNR/wDkegLM+laK+av+Hj37O3/RQ/8Ayiaj/wDI9H/Dx79nb/oof/lE1H/5HoCzPpWivmr/AIePfs7f9FD/APKJqP8A8j0f8PHv2dv+ih/+UTUf/kegLM+laK+av+Hj37O3/RQ//KJqP/yPR/w8e/Z2/wCih/8AlE1H/wCR6Asz6Vor5q/4ePfs7f8ARQ//ACiaj/8AI9H/AA8e/Z2/6KH/AOUTUf8A5HoCzPpWivmr/h49+zt/0UP/AMomo/8AyPR/w8e/Z2/6KH/5RNR/+R6Asz6Vor5q/wCHj37O3/RQ/wDyiaj/API9H/Dx79nb/oof/lE1H/5HoCzPpWivmr/h49+zt/0UP/yiaj/8j0f8PHv2dv8Aoof/AJRNR/8AkegLM+la/NX/AJzOf5/6F2vpX/h49+zt/wBFD/8AKJqP/wAj18i/Df4keHfi5/wVo07xZ4T1H+1fD+oeZ9mvPIkh8zy9BaJ/kkVWGHRhyB0yOMGgaP1PooooJCvzV/5zOf5/6F2v0qr81f8AnM5/n/oXaBo/SqvzV/4LKf8ANIP+4x/7ZV+lVfmr/wAFlP8AmkH/AHGP/bKgFufpVX5F/wDBXb/k5Lw3/wBilbf+ll5X66V+Rf8AwV2/5OS8N/8AYpW3/pZeUDjufrpX5q/8FlP+aQf9xj/2yr9Kq/NX/gsp/wA0g/7jH/tlQJbn6VUUUUCCiiigBGYKpJOAOSTXm/ws/aM+HXxr1nW9K8FeJI9dvtFIF9HHazxLHlmUEPIiq4JU8oSO/cVwn7bHxS1DwT8K4vC/hpmbxv44ul8P6NFG2HVpSFll45ARCfm7Flrx79nf4f2PwA/bg1PwDpw22Fz4AspA4Xb580Lxo8h92KyMfqadNc87PbVfNRcn9yt9/kE/dhdb6P5cyj+N393mfWg+LvhJvikfh0NW3eMhYf2mdNW2mO22zjeZNnljnsWzyOKTxt8X/CPw78ReF9B8Qat9g1fxNcmz0m1W2mma5lBUEZjRggG9fmcgc9a+b/2ch/wnn7cXx/8AGJPmwaOlp4dtX7LtAEij/gUH/j1N+J2fiB/wUc+F2hj95aeEfD9zrUy9Qsku9F/UQmiHvexv9rV+lnL/ANJS+bHP3fa2+zovXRf+lP7kfWuva7Y+F9D1DWNUuFtNN0+3kurm4YEiOJFLO2ACTgAngZrhPCX7Rnw/8ceCtc8XaRrVxJ4c0W3N3e391pd3aokQQyb1EsStINqk/IG/UVyP7cfiGbQP2YPGkVqN17q0MWj26A4LPcypDgf8Bdvyri/20nbwH+yXpvgHSW8u+16XTfCVkijltxRWAHvHGw/Go96Sly73UV6vv5K8fvKSjeN9tW/RW/4P3Hu3wl+M/g345+GpfEHgfWRrmkxXLWj3At5oCsqqrFSsqK3R1OcY5rLtv2jvh1efF6T4X2/iNZ/HMe7fpcdpcNsxH5hBlEflAhOcb/brxXyn8BPiHpn7LPgX9pWGSP8AceFfE8jafZdDM88apbRgAfxMiDp0ya5/9kn4b6h4f/bMgGun7R4otPBj61r08g+f+0r6cSOp91jlVP8AgFbRUZ1Eo/C43+bhzfpr6ruZyvGEm907fJSUX+at31Ps/Sf2hvAWufE6X4e2esXD+Lo/OzYSaXdxqRF/rCszRCJgPUOQTwM16PXzd4ZA8Y/t5eMtQ3eZB4P8I2ekqOyTXUrTsfrsUCvpGs18EZPd/wCbS+9JP5lS0nKK2VvxSf6hRRRQIKKKKACiiigAooooAKKKKAPhH9k3/lID+0X/AMC/9KEr7ur4R/ZN/wCUgP7Rf/Av/ShK+7qBhRRRQIKKKKACiiigAooooA+EvFfx4+MXiLX/ANo/UfC/jTT/AA94O8AkLZTXWkQ3UgmhhbzYIidvLupy8nmbflCrycXLj9oz4u+LJv2a9D8Pajp2m+J/GumXGp62Z7JJbZoVjBSVkI3AAB5NqMm4gLuANe2wfsf+ELf4Y+P/AAPHrHiAWHjbU5dV1W/+0Qfa/MkdGZI28naE+TGCpOGbnnjc0L9mrwr4e+JnhrxvbXWptqPh3w8nhrTrOSWM2sVsuRv2iMN5hBIJ3Ywfu0U7JRUunLfzajK/3y5fkrlVHdycd3zW8k3FL7o8z9fw8F+Ffxi+Jfibwr8fdL8R/E7S9JbwVqgs7Lx42iQrHAEZzPm2zsbCoFUEscv1Y4z0v7EusfGrx8uq+MfH/jS41vwRcq0Ph+2vdDtNOuL1dwIvGSJN0aEAhVLHcGJ7DOn4g/YB8C+I/A2qeFZ/E3jC307VPEE3iW+ktr63WW5upABtcm3KmNcZVduQTnJr074J/Au2+CFjqNrbeMfF/i5LxoyG8War9ta3VAQFhwihFOeRjnA9Kqm7Xct+VL52V363v+e7Vpqa6R25m/lfRelrflor3+R/id/wVi/4Vz8SfFnhP/hVn9of2Dq13pf2z/hIfK8/yJni8zZ9lbbu2Z25OM4yetcz/wAPlP8AqkH/AJc3/wBx1+lVFSPQ/NX/AIfKf9Ug/wDLm/8AuOj/AIfKf9Ug/wDLm/8AuOv0qooDQ/NX/h8p/wBUg/8ALm/+46P+Hyn/AFSD/wAub/7jr9KqKA0PxX1D/god8R7f4+a/8QPCO/RdM1yS2afwje3Bv7JzHbRQf3UIZvLDbkCNyASQOe5+L3xP1r4vfttfs6eJde8Gaj4F1C4OgqdN1JgWdRq8xEqdG2Nkgb1VvlPGMMf0gs/2bfh/b/GDWvifcaHFqfjLU3hf7df4lFp5UCQKIFIxH8sYJblsk84wB8Sfttf8pJPgH/3AP/TxPQUfpVXwj4i1DxRrXwC+LnxWuPiB4qtJE8QX58KWWmarLbwW4juRawKVU/vVd0x5bZjwSQoLEn7tZQ6lT0IwecVwqfA3wRH8PNP8DLomPCtjPHdQaf8Aap8CSOfz0Zn373/ejcQzEHvkcUkveu/T8U2/XTQSlZJed/weno76nj93ZeJvih+0hc+HLrxhrejeHfDvg6zbWbXRL6SzN1fXMrsDvQ5jIWHO5NrgHAYAsDw3hfxrLqX7MXh2XW9b8XeJfEmpa1qFp4SstL1+6stS1VFuZY7cTzwyK7xrGu95HJCqNxycZ+sdP+HugaTr3iXWrWwMWqeIxENUufPkLTiKPy4wAWwgCEj5NvXPXmuBuP2SfhfcSaG6aLqVk+h6f/ZenNp/iHUrU29tuLGMGK4XOScknJbAyTgU91Z7f5tyf3OyXlf0aWmva34RUfx3fnb1Wz8AvhnrHwt+H1vpviLxNqnivX7iRrq9vNT1Ge8EcjY/cwtM7MsSABQCcnBJ5Jr0isvwz4bsfB+h2mkab9p+xWqlY/tl3NdS8kk7pZmZ3OSeWY1qVUpczuRFWWoUUUVJQUUUUAFFFFABRRRQAUUUUAFeaftNf8m2/Ff/ALFLVv8A0jlr0uvNP2mv+Tbfiv8A9ilq3/pHLQB8Qf8ABGv/AJq//wBwf/29r9Kq/NX/AII1/wDNX/8AuD/+3tfpVQN7hRRRQIKKKKACvIvi9+yb8Kfjx4kttf8AHXhX+3NWtrRbGK4/tG7t9sKu7qm2KVFPzSOckZ568CvXaKAPmr/h3D+zt/0Tz/yt6j/8kUf8O4f2dv8Aonn/AJW9R/8AkivpWigd2fNX/DuH9nb/AKJ5/wCVvUf/AJIo/wCHcP7O3/RPP/K3qP8A8kV9K0UBdnzV/wAO4f2dv+ief+VvUf8A5Io/4dw/s7f9E8/8reo//JFfStFAXZ81f8O4f2dv+ief+VvUf/kij/h3D+zt/wBE8/8AK3qP/wAkV9K0UBdnzV/w7h/Z2/6J5/5W9R/+SKP+HcP7O3/RPP8Ayt6j/wDJFfStFAXZ81f8O4f2dv8Aonn/AJW9R/8Akij/AIdw/s7f9E8/8reo/wDyRX0rRQF2fNX/AA7h/Z2/6J5/5W9R/wDkij/h3D+zt/0Tz/yt6j/8kV9K0UBdnzV/w7h/Z2/6J5/5W9R/+SKP+HcP7O3/AETz/wAreo//ACRX0rRQF2fNX/DuH9nb/onn/lb1H/5Io/4dw/s7f9E8/wDK3qP/AMkV9K0UBdnzV/w7h/Z2/wCief8Alb1H/wCSKP8Ah3D+zt/0Tz/yt6j/APJFfStFAXZ81f8ADuH9nb/onn/lb1H/AOSKP+HcP7O3/RPP/K3qP/yRX0rRQF2fNX/DuH9nb/onn/lb1H/5Irpfhv8AsU/Bj4R+NNO8WeE/Bv8AZXiDT/M+zXn9qXs3l+ZG0T/JJMynKOw5B65HODXuFFAXCiiigQV+av8Azmc/z/0LtfpVX5q/85nP8/8AQu0DR+lVfmr/AMFlP+aQf9xj/wBsq/SqvzV/4LKf80g/7jH/ALZUAtz9Kq/Iv/grt/ycl4b/AOxStv8A0svK/XSvyL/4K7f8nJeG/wDsUrb/ANLLygcdz9dK/NX/AILKf80g/wC4x/7ZV+lVfmr/AMFlP+aQf9xj/wBsqBLc/SqiiigQUUV+WGrftH/tWfEb9pL4l+Afhd4h/tD+wdW1PyNP+xaVF5FlBeGFf3lxGu7bvjXlixznnk0DPetS+A7/ALX37Tni3V/iZ4Y1m1+G/hS1XR9BsdQS4sPt8xbMtzGRsZkyp+ZThh5fpWZon7Mll+zx+3F8Or74c+DtXtfBGoaPd2+qXkC3N3bW8xWXBlmcsEziIAFgPSvPf+Nif+f+Edo/42J/5/4R2nT/AHfLbpe/ndO9/m7/AHDn76kpdbfK1rW9Lfmej+Cbj4hfsi/Fv4pwSfCzxH8QfDXjDW31nTNW8MxCd1eQsximXPyAbsbmxgr3DcejfsufCXxlN8TfHPxo+JOmR6F4o8UCOz0/Q1mEz6bYJt2o7Djc2xMgf3cnBOB85f8AGxP/AD/wjtH/ABsT/wA/8I7Sh7iXVpWT8tvvtpfsE/ev2bu/W9/uvrbufTP7XBPibxp8DfAyv/yF/GEWozx5+/b2UbTOCPTJSq3x88J678Sf2pvgjpCaJqE/hHw/Lc+IdR1L7JIbNbhFxbo0u3Zv3IflznDZxXxr8Svgb+2t8YprCXxp4YsvET2AdbU3g8Pnyg5BbbgjrtX8hXbW9v8A8FDrS3ighQRwxqERFHh3CqBgAfhTh7tn1UnL8El91k/VBNc10useX8W396bR6PB+zd4r8Xftx+MLnVdLng+Ff9pWPid5pYiIdQvYLYJDEpzhgJJXZhg/cwa9E/Z88H6+37XXx/8AGOs6HqGmWF1JY6dpd5e2kkMd1FHGVdoWYAOuY05XI5FfPH/GxP8Az/wjtYPjjwH+3n8SvDdz4f8AE+lw6zo1wyNNZ3H/AAj3luVYMucEdCAfwpRbgopdE199lf15Vb0CSU3K/Vp/dr+L19T64/ZAz4k8QfGrxw68654zubSCTrvt7NFgjIPpkPX0hX5beBfAP7eXwz8N2+geF9Jt9E0a3Z3is7UeHQilmLMRk9ySa3/+Nif+f+Edp6WjFdEl9yS/QVtZPu2/vbZ+lVFfmr/xsT/z/wAI7R/xsT/z/wAI7SCx+lVFfmr/AMbE/wDP/CO0f8bE/wDP/CO0BY/SqivzV/42J/5/4R2j/jYn/n/hHaAsfpVRXxB/wTQ/aP8AiL+0F/wsf/hPvEP9vf2R/Zv2L/Qra28rzftXmf6mNN2fKT72cbeMZNfb9ABRRRQI+Ef2Tf8AlID+0X/wL/0oSvu6vhH9k3/lID+0X/wL/wBKEr7uoGFFFFAgooooAKKKKACiiigAooooAKKKKACiiigAooooAKKKKACvzV/ba/5SSfAP/uAf+niev0qr81f22v8AlJJ8A/8AuAf+niegaP0qooooEFFFFABRRRQAUUUUAFFFFABRRRQAUUUUAFFFFABXmn7TX/JtvxX/AOxS1b/0jlr0uvNP2mv+Tbfiv/2KWrf+kctAHxB/wRr/AOav/wDcH/8Ab2v0qr81f+CNf/NX/wDuD/8At7X6VUDe4UUUUCCiiigAooooAKKKKACiiigAooooAKKKKACiiigAooooAKKKKACiiigAooooAKKKKACiiigAooooAKKKKACvzV/5zOf5/wChdr9Kq/NX/nM5/n/oXaBo/SqvzV/4LKf80g/7jH/tlX6VV+av/BZT/mkH/cY/9sqAW5+lVfkX/wAFdv8Ak5Lw3/2KVt/6WXlfrpX5F/8ABXb/AJOS8N/9ilbf+ll5QOO5+ulfmr/wWU/5pB/3GP8A2yr9Kq/NX/gsp/zSD/uMf+2VAlufpVRRRQIK/NX9iX/lJJ8fP+4//wCniCv0qr81f2Jf+Uknx8/7j/8A6eIKBo/SqiiigQUUUUAFFFFABRRRQAUUUUAFFFFABRRRQAUUUUAfmr/wRr/5q/8A9wf/ANva/SqvzV/4I1/81f8A+4P/AO3tfpVQN7hRRRQI+Ef2Tf8AlID+0X/wL/0oSvu6vhH9k3/lID+0X/wL/wBKEr7uoGFFFFAgooooAKKKKACiiigAooooAKKKKACiiigAooooAKKKKACvzV/ba/5SSfAP/uAf+niev0qr81f22v8AlJJ8A/8AuAf+niegaP0qooooEFFFFABRRRQAUUUUAFFFFABRRXN6h8S/CGk+J7Xw3feKtEsvEV0QLfSLjUYY7uYnoEhLb2z7CjrYOlzpKK5tfiV4RbxZ/wAIsPFWinxPjP8AYo1GH7bjGc+Tu39OelV9c+LXgbwzNNDrHjPw/pMsNyLOSO+1SCFknKBxEwZxhyrK2084YHGDQB1lFeY/EL9o/wAA/C/xp4a8L+IPEFjZaprjMYxNewRJaxhGYSzl5F2I5XYhwdzHA7kdha+PvDF9rKaRbeI9JuNWeSWFbCK+iadniAMqiMNuLICCwxlcjOKN9v6tuD03N6vNP2mv+Tbfiv8A9ilq3/pHLXT6J8SvCPiXXrzQ9I8VaLqutWWftWm2OowzXMGDg741YsuDxyK8N8XfEzVPih+zZ+0deXdvaQaXpdv4i0bS3tkYNNBb2bo0khLEFjL5gyABgDjvQve27X+V0v1B6avvb52b/Q+a/wDgjX/zV/8A7g//ALe1+lVfmr/wRr/5q/8A9wf/ANva/Sqgb3CiiigQUUUUAFFFFABRRRQAUUUUAFFFFABRRRQAUUUUAFFFFABRRRQAUUUUAFFFFABRRRQAUUUUAFFFFABRRRQAV+av/OZz/P8A0LtfpVX5q/8AOZz/AD/0LtA0fpVX5q/8FlP+aQf9xj/2yr9Kq80+Mv7OHw6/aC/sf/hPvD39vf2R532L/Tbm28rzdnmf6mRN2fKT72cbeMZNAI81/wCHj37O3/RQ/wDyiaj/API9fnR/wUY+Nfgz48fG7RNf8C6z/bmk23h6CxluPss1vtmW5uXZNsqIx+WRDkDHPXg1+i//AA7h/Z2/6J5/5W9R/wDkivzo/wCCjHwU8GfAf43aJoHgXRv7D0m58PQX0tv9qmuN0zXNyjPuld2HyxoMA446cmgpWP0X/wCHj37O3/RQ/wDyiaj/API9fEH/AAUv/aP+HX7QX/CuP+EB8Q/29/ZH9pfbf9CubbyvN+y+X/ro03Z8p/u5xt5xkV9v/wDDuH9nb/onn/lb1H/5Ir4g/wCCl/7OHw6/Z9/4Vx/wgPh7+wf7X/tL7b/ptzc+b5X2Xy/9dI+3Hmv93Gd3OcCgStc+3/8Ah49+zt/0UP8A8omo/wDyPR/w8e/Z2/6KH/5RNR/+R6P+HcP7O3/RPP8Ayt6j/wDJFH/DuH9nb/onn/lb1H/5IoFoeP8A7Nv/AAVO8NeNTa6H8UraLwlrLYRdatgx06Y5AG8EloCc9TuTgksvSuE/YXvbfUv+Ci/x0u7SeK6tLiPXZYZ4XDpIjavblWVhwQQQQR1zXp/7Nv8AwS98HfDkWutfEeSDxx4hUBv7O2H+y7dscjYwzPjnlwFP9zPNeZ/sOwR2v/BR348QwxrFDGuvIkcahVVRrFuAAB0AFA9Oh9x/FP4yr4D1nSvDuk6ZDrvirU4ZbuGyur9LG2gtoyA8887K3lpuZVG1GZieBgEjym/+OFz8ffA/hDw7pdtL4dvfGGuXei6jJZ3gnWOys97XslrcqF8xHVBGsoC/63IAIrf+NX7Pd94y+K+neO9N8O+C/GkiaT/ZFxovjiJjBEFlMsdxBIIZtkmWZWGzkEcjHOjrXhPXNM+KfwX1qfSYDHY2+paTqEWg27tZ2LTwI8bgYykWbfZuYAZdemaIWaXN3/Ju3qmkk/XfoEtH7nbf5a+jTenpt1PLfD3xG0/wl+0t8SLHwzoceu+Ira30rwp4f8N2MqwLHbwQmaeWV9rCC3jNwoLlTyoVQzECvWNHlnsf2t9UgQLENT8FWt1qEMUm5Fniu5EibJAzlZJFzgZCDjiuH0f9lvXvC+tQePbCbRU+I6+L73W7y8V5fKvNLuHKPZu4iLkrBsKjaQJE44Oa9I+DXh/UtX8V+LviRrljcaZeeIHistN0+8iaOe10y33CESI3KPI7yylSAQHUHBUiqg7qEpbpa+rj/wDJSv6qXZETSXPGOzsl8pf/ACMfxXc9aoooqRhRRRQAUUUUAFFFFABRRRQAUUUUAfmr/wAEa/8Amr//AHB//b2v0qr81f8AgjX/AM1f/wC4P/7e1+lVA3uFFFFAj4R/ZN/5SA/tF/8AAv8A0oSvu6vhH9k3/lID+0X/AMC/9KEr7uoGFFFFAgooooAKKKKACiiigAooooAKKKKACiiigAooooAKKKKACvzV/ba/5SSfAP8A7gH/AKeJ6/SqvzV/ba/5SSfAP/uAf+niegaP0qooooEFFFFABRRRQAUUUUAFFFFAGX4om1C28M6tLpMQn1WO0ma0iPR5ghKL+LYr5R+AXizwrL8A7nS/C9zZan8cZNIu9S1GzvIs6r/bIjYu04dd6lZSFXdgYCheK+wqKhxupK/xK3pvt9+voi1Kzi7bO/k/X9PV9z4J0j/hD/H/AMF/hj8PPAEIv/iONU03Utau47Yi90a4ilWW+ur2QrujkLLImHOXL4AIqe90rRp/2Z/2g/ibd6Za3+s+MNV1Sys7meIO/kif7DaohI4G5Q3HU49Bj7vorWTU+a6+K9/ny3t20ikvn6Ex9xxf8tvw5t/nK/yPlGxtdG8P/tYfD3wxr0tvCdB+Hpt9NN8o3X9y0iLIIy332SK2LEDkBia4Lw74Nvm/Y/8AiR8SfC2lST+OfGl7qGqG/tYt18ljLesrLA2Nwxb72Cr3YnrX3XRRKTknffX8ZOT+/Rei8xU/3bVtly/+Sx5V/n6nxhqWteAPFHiL4Vv8IobSXQ/AAuNZ1fXNJt9kFjZR2jqbSSXAzLKzKWjJ3fKWYDrW94V0WbR/+Cb3iSW7BF9qvgrWdZuSRgmS7guLgk/9/R+VfWNeaftNf8m2/Ff/ALFLVv8A0jlp82kvPX87/fp91+pPL8K7af5fm/v8j8jP2Nfgj8YfjH/wl/8Awqfx9/wg/wDZv2P+0/8Aic3mn/avM8/yf+PdG37fLl+9jG/jqa+lP+GJf2wv+i+f+XlrH/xmj/gjX/zV/wD7g/8A7e1+lVQaN6n5q/8ADEv7YX/RfP8Ay8tY/wDjNH/DEv7YX/RfP/Ly1j/4zX6VUUCufmr/AMMS/thf9F8/8vLWP/jNH/DEv7YX/RfP/Ly1j/4zX6VUUBc/NX/hiX9sL/ovn/l5ax/8Zo/4Yl/bC/6L5/5eWsf/ABmv0qooC5+av/DEv7YX/RfP/Ly1j/4zR/wxL+2F/wBF8/8ALy1j/wCM1+lVFAXPzV/4Yl/bC/6L5/5eWsf/ABmj/hiX9sL/AKL5/wCXlrH/AMZr9KqKAufmr/wxL+2F/wBF8/8ALy1j/wCM0f8ADEv7YX/RfP8Ay8tY/wDjNfpVRQFz81f+GJf2wv8Aovn/AJeWsf8Axmj/AIYl/bC/6L5/5eWsf/Ga/SqigLn5q/8ADEv7YX/RfP8Ay8tY/wDjNH/DEv7YX/RfP/Ly1j/4zX6VUUBc/NX/AIYl/bC/6L5/5eWsf/GaP+GJf2wv+i+f+XlrH/xmv0qooC5+av8AwxL+2F/0Xz/y8tY/+M0f8MS/thf9F8/8vLWP/jNfpVRQFz81f+GJf2wv+i+f+XlrH/xmj/hiX9sL/ovn/l5ax/8AGa/SqigLn5q/8MS/thf9F8/8vLWP/jNH/DEv7YX/AEXz/wAvLWP/AIzX6VUUBc/NX/hiX9sL/ovn/l5ax/8AGaP+GJf2wv8Aovn/AJeWsf8Axmv0qooC5+av/DEv7YX/AEXz/wAvLWP/AIzR/wAMS/thf9F8/wDLy1j/AOM1+lVFAXPzV/4Yl/bC/wCi+f8Al5ax/wDGaP8AhiX9sL/ovn/l5ax/8Zr9KqKAufmr/wAMS/thf9F8/wDLy1j/AOM0f8MS/thf9F8/8vLWP/jNfpVRQFz81f8AhiX9sL/ovn/l5ax/8ZrzX9nDwT4x+HP/AAU18PeHfH2v/wDCUeLbP7R9t1b7ZNd+fv0WWSP97MqyNtjdF+YcbcDgCv10r81f+czn+f8AoXaB3P0qooooJCvyL/4K7f8AJyXhv/sUrb/0svK/XSvyL/4K7f8AJyXhv/sUrb/0svKCo7n66V+av/BZT/mkH/cY/wDbKv0qr81f+Cyn/NIP+4x/7ZUCW5+lVFFFAgr81f2Jf+Uknx8/7j//AKeIK/SqvzV/Yl/5SSfHz/uP/wDp4goGj9KqKKKBBRRRQAUUUUAFFFFABRRRQAUUUUAFFFFABRRRQB+av/BGv/mr/wD3B/8A29r9Kq/NX/gjX/zV/wD7g/8A7e1+lVA3uFFFFAj4R/ZN/wCUgP7Rf/Av/ShK+7q+Ef2Tf+UgP7Rf/Av/AEoSvu6gYUUUUCCiiigAooooAKKKKACiiigAooooAKKKKACiiigAooooAK/NX9tr/lJJ8A/+4B/6eJ6/SqvzV/4KGeDfiT/w1t8P/HPgbwJrniv/AIR/SdPu4prHR7m8tftMF/czLFI0Q/3CVDA4YdMg0DR+lVFfmr/w21+2F/0QP/yzdY/+PUf8Ntfthf8ARA//ACzdY/8Aj1AWP0qor81f+G2v2wv+iB/+WbrH/wAeo/4ba/bC/wCiB/8Alm6x/wDHqAsfpVRX5q/8Ntfthf8ARA//ACzdY/8Aj1H/AA21+2F/0QP/AMs3WP8A49QFj9KqK/NX/htr9sL/AKIH/wCWbrH/AMeo/wCG2v2wv+iB/wDlm6x/8eoCx+lVFfmr/wANtfthf9ED/wDLN1j/AOPUf8Ntfthf9ED/APLN1j/49QFj9KqK/NX/AIba/bC/6IH/AOWbrH/x6j/htr9sL/ogf/lm6x/8eoCx+lVFfmr/AMNtfthf9ED/APLN1j/49R/w21+2F/0QP/yzdY/+PUBY/SqivzV/4ba/bC/6IH/5Zusf/HqP+G2v2wv+iB/+WbrH/wAeoCx+lVeaftNf8m2/Ff8A7FLVv/SOWviD/htr9sL/AKIH/wCWbrH/AMerD8dftWftbfEDwT4h8Laj8CJ4dP1zTrjTLmS18H6usqRzRNG5QtKQGAY4JBGccGgdjc/4I1/81f8A+4P/AO3tfpVX59/8Enfhl4x+HP8AwtP/AISzwnrnhf7Z/ZX2b+2dNmtPP2fbN+zzFXdt3rnHTcM9RX6CUCe4UUUUCCiiigAooooAKKKKACiiigAooooAKKKKACiiigAooooAKKKKACiiigAooooAKKKKACiiigAooooAKKKKACvzV/5zOf5/6F2v0qr81f8AnM5/n/oXaBo/SqiiigQV+Rf/AAV2/wCTkvDf/YpW3/pZeV+ulfkX/wAFdv8Ak5Lw3/2KVt/6WXlBUdz9dK/NX/gsp/zSD/uMf+2Vel/8Pdvg9/0Lfjj/AMALP/5Lr5F/b8/a68HftU/8IJ/wiem65p/9g/b/ALT/AGzBDFv8/wCz7NnlyyZx5LZzjqMZ5wAlqfszRXxB/wAPdvg9/wBC344/8ALP/wCS6P8Ah7t8Hv8AoW/HH/gBZ/8AyXQKzPt+vzV/Yl/5SSfHz/uP/wDp4grC+A//AAVZ1Tw/rU2lfEmwm17w5JcP9l1i1jVL+2iLnYJUB2yhVIGQQ3BOXNX/ANgfWrXxJ/wUH+Ner2LSNY6hba3dwNNC8TmN9Wt2UsjgMhwRlWAI6EA0DtY/Tiorq6hsreW4uJUgt4kMkksrBVRQMliTwAB3rzz9or4nXnwc+DHibxdptvb3mqWEKCytrpWaOWeSRY40Kqykgs44BBrzTxxe+NfHX/CBfD/xtDpNhJ4w1WW71HT9GMpEWkW0KzSWssjn53eQxxuyhVKuwA7kV5aL+v8Ahlq/L5C0Wr8/w/qy8z3CP4keEpoppY/FOivFDFbzyuuoQkRxznEDsd3CyHhCeG7Zro6+TvHfii08a/Bz9prUptF0bT7PSxd6DaahY2nlXV2LW1XaZpMneUmdlTAAXGAM819O+FWuW8L6O16c3hs4TOT/AM9Ng3frmq0a5l2T+UldfhuJ3jZPu1842T/F/galFFFSAUUUUAFITgZPApay/FGlTa74Z1bTba5NlcXlpNbx3K9YmdCof8Cc/hUTbjFuKuyopOSTdjzD/hqLww3iDSbRNI8QSaDqupro1n4rWzQaXPeMzKsaMZBKwLqVEgjMZPRsc17HXyL8CfhRp/wfs/D0vjn4bvoD+FrPbceNNe8WpeaVA8aFPtFrFNcuYN5P/PKLaHI7Yr3OD9pT4RXU0cMPxT8FSzSMESOPxDZszMTgAASckmtmkvdTu/66ff20t6vO7u21Zf119Lfj6FDxt+0Vo3hPxBq2i6f4e8R+Mr7RYVn1geG7OOZNNRl3L5rSSRguV+by03vjnbyK0dF+PHhbxN4k8G6Ro0lzqp8VaTPrVjeW8a+QlrF5YLS7mDKSZVUAKeQQcYryTS/CHxV+Gd58UdB8O+EYNffxhrd1q2neLJtSgitbQXCKu26iZvOJh24AjRgwCjK84o+Fvgr4y+AvxK8LXHhjwz/wm+h6d4Jj8M21z/aEFn9kuhcGWWaZZGDeXISpJjDsNuNp4qIWsnLql9/LJtfKXKr9bv5XNWb5en5c0Un81zO3T8+m+MX7WDeFfh74w1Twd4Z1DXNZ0XX18LRNPFF9la/bywGP79XaPdKqcYbfxgDLD3DwjrV34i8O2WoX2j32g3cyEyafqQiE8RBI+YRSSJzjIw54I78V8nWvwR+JWl/A/wADQ3vhpda8TR+Pm8W+JtHsb63jedftM0o8uSSQRnB8hsFxwMdRivseNi0asylGIyVOMj24qkrQ13ul/wCSxvbycnL7hS+Oy21/9KaV/kk/mfmV/wAEfdc07Rv+Ftf2hqFrY+Z/ZGz7TMse7H23ONxGcZH51+jn/CceHP8AoP6X/wCBsf8A8VX5If8ABO79lbwN+0z/AMLA/wCEzTUW/sT+z/sn2C68n/Xfad+75Tn/AFKY/Gvsn/h1b8Dv+eXiH/wZ/wD2FSU7XPqb/hOPDn/Qf0v/AMDY/wD4qj/hOPDn/Qf0v/wNj/8Aiq+Wf+HVvwO/55eIf/Bn/wDYUf8ADq34Hf8APLxD/wCDP/7CgWhx37Id1De/t8/tDz280c8EgZkkiYMrD7QnII6195V4f8Av2PPh9+zbrup6v4OXVEu9Rthaz/brvzl2BgwwNowcivcKACiiigQUUUUAFFFFABRRRQAUUUUAFFFFABRRRQAUUUUAFFFFABRRRQAUUUUAFFFFABRRRQAUUUUAFFFFABRRRQAUUUUAFFFFABRRRQAUUUUAFFFFABRRRQAUUUUAFFFFABRRRQAUUUUAFFFFABRRRQAUUUUAFFFFABRRRQAUUUUAFFFFABRRRQAUUUUAFFFFABX5q/8AOZz/AD/0LtfpVX5q/wDOZz/P/Qu0DR+lVFFFAgrkPF3wf8BfEDUotR8U+CPDniXUIoRbx3er6Tb3UqRhmYIHkQkKCzHGcZYnvXX0UAeaf8My/B7/AKJR4H/8Jyz/APjdfn3/AMFYvhl4O+HP/CrP+ET8J6H4X+2f2r9p/sbTYbTz9n2PZv8ALVd23e2M9Nxx1NfqfX5q/wDBZT/mkH/cY/8AbKgpbn2//wAMy/B7/olHgf8A8Jyz/wDjdH/DMvwe/wCiUeB//Ccs/wD43XpdFBJ82/AX9gv4afA/VptfNgniTxPJO88d/qEK+VZ7jkJbQj5YwOzHLf7QHA+Z/wBiX/lJJ8fP+4//AOniCv0qr81f2Jf+Uknx8/7j/wD6eIKCj7u+MPwv/wCFtaFo+kyan/ZtnZ61Y6rcr9n837VHbzCXyPvLt3Mq/NzjHQ1nePvBerX3xi+GnizTLT7XbaUdQsNR/eopht7iFSJQGI3YkhjUhcnD5xgGvTaKFpt3v96s/wAFYnf7rfm/zZ862/7PesWHhvQ/h41z/anhu81258S+J9dZEg+1k3RuUs0h8xm+eQxhmPy7ImGcsAPomlop305f67fkkvl6g9W5f13/ADb/AOGsFFFFIAooooAKKKKACiiigAooooAKKKKAPzV/4I1/81f/AO4P/wC3tfpVX5q/8Ea/+av/APcH/wDb2v0qoG9wooooEFFFFABRRRQAUUUUAFFFFABRRRQAUUUUAFFFFABRRRQAUUUUAFFFFABRRRQAUUUUAFFFFABRRRQAUUUUAFFFFABRRRQAUUUUAFFFFABRRRQAUUUUAFFFFABRRRQAUUUUAFFFFABRRRQAUUUUAFFFFABRRRQAUUUUAFFFFABRRRQAUUUUAFFFFABRRRQAUUUUAFFFFABX5q/85nP8/wDQu1+lVfmr/wA5nP8AP/Qu0DR+lVFFFAgooooAK/NX/gsp/wA0g/7jH/tlX6VV+av/AAWU/wCaQf8AcY/9sqBrc/SqiiigQV+av7Ev/KST4+f9x/8A9PEFfpVX5q/sS/8AKST4+f8Acf8A/TxBQNH6VUVwXxS+KX/Cub7wVYw6Z/a154m12HRoovtHk+SrI8kk2drbgiRk7eM+orrPEXiDT/Ceg6jrWrXSWWmafbvdXNxIcLHGilmY/QCldcrl0X+Sf6oLPmUer/za/NM0aK898P8Aj/xZ4g0PwjqsXgR4YNbuSbyKbU0SXS7Iq7RTyoyAvIwEYMKZKlz8x2k1ofCz4jL8StD1K7awOl3um6teaRd2Zm83ZLbzMmQ21chlCuOBw+O1VytNp7r/AIH+aJurJ9H/AMH/ACZ2VFFFIYUUUUAFFFFABRRRQAUUUUAFFFFAH5q/8Ea/+av/APcH/wDb2v0qr81f+CNf/NX/APuD/wDt7X6VUDe4UUUUCCiiigAooooAKKKKACiiigAooooAKKKKACiiigAooooAKKKKACiiigAooooAKKKKACiiigAooooAKKKKACiiigAooooAKKKKACiiigAooooAKKKKACiiigAooooAKKKKACiiigAooooAKKKKACiiigAooooAKKKKACiiigAooooAKKKKACiiigAooooAKKKKACiiigAr81f+czn+f+hdr9Kq/NX/AJzOf5/6F2gaP0qooooEFFFFABX5q/8ABZT/AJpB/wBxj/2yr9Kq80+Mv7OHw6/aC/sf/hPvD39vf2R532L/AE25tvK83Z5n+pkTdnyk+9nG3jGTQNHmv/Dx79nb/oof/lE1H/5Ho/4ePfs7f9FD/wDKJqP/AMj0f8O4f2dv+ief+VvUf/kij/h3D+zt/wBE8/8AK3qP/wAkUBoeU/Bj/gqd4M8S+KL7QPHcK6BF9tlh07xFbI5sriHzCImmQjfCxXaSSCvUnYOK84/YT1K01j/gon8cr+wuYb2xuotcngubdw8csbavbsrqw4ZSCCCOCDXdfBr/AIJV+FtF8Wahr3xAuV1ay+2zSad4ZsZZBbRQeYTEJ5id8hCbcqMDI5ZxXB/sH6XZ6H/wUQ+OGm6daQ2Gn2cOuW9ta20YjihiTV7dURFHCqAAABwAKB6dD6i+N/hOy+L37T3ww8H6i8z6Roml6j4jvraCVo/O3GO2hRypB2kvJkZ+YBgeCa8f0jQ7O08G+NtA0WD+zPA2tfFyy0G302HIt4bWOWAXKovRUkljdSBx83vX3Evh/S012TW102zXWZLcWj6iIEFw0IYsIjJjcUDEnbnGSTXNeKvhD4b8SeEW8PxWMeiWY1CLVozpEcds0d5HOtwJhhCu4yLliVO7LZ606b9m4t9N/P31L/0lcop++ml8vL3Wv/Snc848WyR+IP2xfBVm5AtPCfhbUNZmYkBI5LmWO3jJ9Dsjm/DNav7Ksb6h4F1/xSUMdv4r8R6jrdpnjdavLsgf/gUcaP8ARhVDRfgLrfizVvH2u+P9Rg0/UvFUFppbWfhe6dkt9OgLEwefLErEzGSTeVRSA2FII3V7dp+n22k2NtZWcEdraW0awwwRKFSNFACqAOgAAFOPuxXezX3y5n/7avkxT952W10/ujy/m5P7ixRRRUgFFFFABRRRQAUUUUAFFFFABRRRQB+av/BGv/mr/wD3B/8A29r9Kq/NX/gjX/zV/wD7g/8A7e1+lVA3uFFFFAgooooAKKKKACiiigAooooAKKKKACiiigAooooAKKKKACiiigAooooAKKKKACiiigAooooAKKKKACiiigAooooAKKKKACiiigAooooAKKKKACiiigAooooAKKKKACiiigAooooAKKKKACiiigAooooAKKKKACiiigAooooAKKKKACiiigAooooAKKKKACiiigAooooAK/NX/nM5/n/oXa/SqvzV/wCczn+f+hdoGj9KqKKKBBRRRQAUUUUAFFFFABX5q/sS/wDKST4+f9x//wBPEFfpVX5q/sS/8pJPj5/3H/8A08QUDR+lVFFFAgooooAKKKKACiiigAooooAKKKKACiiigAooooA/NX/gjX/zV/8A7g//ALe1+lVfmr/wRr/5q/8A9wf/ANva/Sqgb3CiiigQUUUUAFFFFABRRRQAUUUUAFFFFABRRRQAUUUUAFFFFABRRRQAUUUUAFFFFABRRRQAUUUUAFFFFABRRRQAUUUUAFFFFABRRRQAUUUUAFFFFABRRRQAUUUUAFFFFABRRRQAUUUUAFFFFABRRRQAUUUUAFFFFABRRRQAUUUUAFFFFABRRRQAUUUUAFFFFABRRRQAUUUUAFfmr/zmc/z/ANC7X6VV+ff7R/7Bvxh+I37TXiH4o+AfGOh+F/tn2f7Fc/2peWl/BssoreT5oYG27tjj5X5VuepFA0foJRX5q/8ADEv7YX/RfP8Ay8tY/wDjNH/DEv7YX/RfP/Ly1j/4zQFj9KqK/NX/AIYl/bC/6L5/5eWsf/GaP+GJf2wv+i+f+XlrH/xmgLH6VUV+av8AwxL+2F/0Xz/y8tY/+M0f8MS/thf9F8/8vLWP/jNAWP0qqOeZLaCSaQ4SNS7HHYDJr82f+GJf2wv+i+f+XlrH/wAZqG9/Yp/a+hs55Jvjz5kSRszr/wAJjrByoHIwYfSgLH6C/DX4qeE/jB4bh17wdrtpr2lyYzLav80TEA7JEOGjfB5VgCPSvgD9iX/lJJ8fP+4//wCniCvCv2Jv2cfjt4p8UWfivwHqF58P9F3DzPEN4GSC5T+6sB/4+hyeCNmerA17Z+wlDc2//BRL44xXtyt5eRxa4s1ysfliVxq9uGcJk7QTk4ycZxQM/TOiivlz7J4a+NXx9+JumfE2a0u9E8Imzs9J8NarOEtNksAlkvXiLBZWZjsVmBChCBgk0K7fKvX+vvQul3/X9f1qfUdFfGVvpPw38T+Jvi6fikthH4d8ByRaPonh3UJ9lvptglqjLcQw7uZJWYhZAC3yqqkdK574QeC9X+LXjL4OeG/iHJqF23hvwTd6vqFrdTOkk6XdyIrWC5OdzfuYhuVj823DZBIpxXPa3Wz+TjKS+do7d2KXupt9NPndLTyu9z7Y8WeK9K8C+GdT8Qa7eLp+j6bA1zd3TKzCONRljhQSfoASav2F7FqVjb3cBYwXEayxllKnawBGQeRwehr889b8K6Dffs4+I9BNlbxeGte+LY0vw9aTYMGnQC8SGQw54jUiK56YADn1r1mT4F+C/G/7UDeE7fRraz8B+DvCcZk0LTs29rcXF7dPKFkWMjcmIFcqeCwUnOKcUpWfR/h7im7/AHpeo5rlv5X+fv8AIrfc3/Wv11XB6p8UfsPxp0H4fQaZ9qk1DR7rWLm+8/b9kjikjjQbNp3b2kIzuGNvft8hat/wh/jv4H/En4geOZVvviX/AGnqOmaJatcN9u0a5ilaGwtLKINuik3LG/yDLFiSSK9f/Z2h1nxB8dvGOreI5PtOt+HfDGheG7uf1u2ha6uvx3yJnFFNczTe1rv5xdvufLf1W6Yp+6mut7fNSSf3q9vR7WPpqiiipAKKKKACiiigAooooA/NX/gjX/zV/wD7g/8A7e1+lVfmr/wRr/5q/wD9wf8A9va/Sqgb3CiiigQUUUUAFFFFABRRRQAUUUUAFFFFABRRRQAUUUUAFFFFABRRRQAUUUUAFFFFABRRRQAUUUUAFFFFABRRRQAUUUUAFFFFABRRRQAUUUUAFFFFABRRRQAUUUUAFFFFABRRRQAUUUUAFFFFABRRRQAUUUUAFFFFABRRRQAUUUUAFFFFABRRRQAUUUUAFFFFABRRRQAUUUUAFFFFABRRRQAUUUUAFFFFABSMoZSCMg8EGlooAZFEkEaRxoscaAKqKMBQOgA7CvzY/Yl/5SSfHz/uP/8Ap4gr9Kq/NXxl/wAE8/jz/wALu8d+OvA3xA0Pwp/wkGrX93FNY61f2d19mnuWmWKRorf/AHCVDEZUdcA0DR+lVcx4k+F/gzxlq1pqmv8AhHQtc1OzAFte6lpsNxNDg5Gx3UsvPPB61+fn/DEv7YX/AEXz/wAvLWP/AIzR/wAMS/thf9F8/wDLy1j/AOM0dbhbofoNrXw18I+JNfs9c1bwromqa3ZYFrqV7p0M1zBg5GyRlLLg+hrVh0HTLfWrnV4tOtI9WuYUt579IFE8saElEaTG5lUsxAJwNxx1r85P+GJf2wv+i+f+XlrH/wAZo/4Yl/bC/wCi+f8Al5ax/wDGaPILH6DXXw08IX/hc+G7nwrolx4daQzHSJdOha0Lly5bySuzJcls4zkk9a0dM8M6Pot9dXun6TY2F5dpFHcXFrbJHJMsa7YldlALBF4UHoOBivzo/wCGJf2wv+i+f+XlrH/xmj/hiX9sL/ovn/l5ax/8ZoC1z9Bv+Fa+Ef8AhLP+Ep/4RXRf+Enxj+2v7Oh+24xjHnbd/TjrWrpug6Zo9zf3Fhp1pY3GoTfaLyW2gWN7mXaF8yQgAu21VG45OAB2r85P+GJf2wv+i+f+XlrH/wAZo/4Yl/bC/wCi+f8Al5ax/wDGaNgsfpVRX5q/8MS/thf9F8/8vLWP/jNH/DEv7YX/AEXz/wAvLWP/AIzQFj9KqK/NX/hiX9sL/ovn/l5ax/8AGaP+GJf2wv8Aovn/AJeWsf8AxmgLH6VUV+av/DEv7YX/AEXz/wAvLWP/AIzR/wAMS/thf9F8/wDLy1j/AOM0BY/SqivzV/4Yl/bC/wCi+f8Al5ax/wDGaP8AhiX9sL/ovn/l5ax/8ZoCwf8ABGv/AJq//wBwf/29r9Kq+Rf2A/2RfGP7K3/Cd/8ACWaloeof299g+zf2NPNLs8j7Rv3+ZFHjPnLjGehzjjP11QD3CiiigQUUUUAFFFFABRRRQAUUUUAFFFFABRRRQAUUUUAFFFFABRRRQAUUUUAFFFFABRRRQAUUUUAFFFFABRRRQAUUUUAFFFFABRRRQAUUUUAFFFFABRRRQAUUUUAFFFFABRRRQAUUUUAFFFFABRRRQAUUUUAFFFFABRRRQAUUUUAFFFFABRRRQAUUUUAFFFFABRRRQAUUUUAFFFFABRRRQAUUUUAFFFFABRRRQAUUUUAFFFFABRRRQAUUUUAFFFFABRRRQAUUUUAFFFFABRRRQAUUUUAFFFFABRRRQB//2Q==;movable=0;resizable=0;rotatable=0;deletable=0;editable=0;locked=1;connectable=0;" vertex="1" parent="1">
          <mxGeometry width="629.54" height="563" as="geometry" />
        </mxCell>
        <mxCell id="kqIMAGAX-EFwgYahWS3e-2" value="" style="shape=image;verticalLabelPosition=bottom;labelBackgroundColor=default;verticalAlign=top;aspect=fixed;imageAspect=0;image=data:image/jpeg,/9j/4AAQSkZJRgABAQEAeAB4AAD/2wBDAAMCAgMCAgMDAwMEAwMEBQgFBQQEBQoHBwYIDAoMDAsKCwsNDhIQDQ4RDgsLEBYQERMUFRUVDA8XGBYUGBIUFRT/2wBDAQMEBAUEBQkFBQkUDQsNFBQUFBQUFBQUFBQUFBQUFBQUFBQUFBQUFBQUFBQUFBQUFBQUFBQUFBQUFBQUFBQUFBT/wAARCAJvAaYDASIAAhEBAxEB/8QAHwAAAQUBAQEBAQEAAAAAAAAAAAECAwQFBgcICQoL/8QAtRAAAgEDAwIEAwUFBAQAAAF9AQIDAAQRBRIhMUEGE1FhByJxFDKBkaEII0KxwRVS0fAkM2JyggkKFhcYGRolJicoKSo0NTY3ODk6Q0RFRkdISUpTVFVWV1hZWmNkZWZnaGlqc3R1dnd4eXqDhIWGh4iJipKTlJWWl5iZmqKjpKWmp6ipqrKztLW2t7i5usLDxMXGx8jJytLT1NXW19jZ2uHi4+Tl5ufo6erx8vP09fb3+Pn6/8QAHwEAAwEBAQEBAQEBAQAAAAAAAAECAwQFBgcICQoL/8QAtREAAgECBAQDBAcFBAQAAQJ3AAECAxEEBSExBhJBUQdhcRMiMoEIFEKRobHBCSMzUvAVYnLRChYkNOEl8RcYGRomJygpKjU2Nzg5OkNERUZHSElKU1RVVldYWVpjZGVmZ2hpanN0dXZ3eHl6goOEhYaHiImKkpOUlZaXmJmaoqOkpaanqKmqsrO0tba3uLm6wsPExcbHyMnK0tPU1dbX2Nna4uPk5ebn6Onq8vP09fb3+Pn6/9oADAMBAAIRAxEAPwD9U6KKKACiiigAooooAKKKKAOYvPih4N07xZD4Wu/FuhWvieYqItFm1KFL1ywyu2EtvORyMDmunr8sfBvizRfFH/BTzxn401/VrXTPD/haS8llvb6YRwxrbwizXLE4++wwO56V+g/wp/aL+G/xuur628EeLLPXrqxGbi3jWSOVVzjeEkVSVzxuAI5HPNEPfpQn1kr+iHUXJUlDotPn1PR6KKKBBRRRQAUUUUAFFFFABRRRQAUUUUAFFFFABRRRQAUUUUAFFFFABRRRQAUV5zrP7Q3w98P/ABUs/hvqPiJLXxldwfaYtOa1nKmPY77jME8pRtjc/M46e4rT+G/xj8G/F+PVpfBuvQeIINKufsl1cWqP5Ky7Q21ZCoWTgjlCRz1oWquv61t+enqD03OzooooAKKKKACiiigAooooAKKKKACiiigAooooAKKKKACiiigAooooAKKKKACiiigAooooAKoa/q0OgaFqOp3DBILK2kuZGPQKilifyFX64b45eEda+IHwf8YeGfDtxaWus6xpk1hbzX0jpChkUoSzIrMBgnoprKrzezly72NKfLzx5trn5mf8E8f2etC/aS+I/jfxv4708axpVhOJFsJiRDcXc7vIS+D8wQDO08EuM9K6T9gnwtYQ/t6fEtvDUBsvDWjx6nFBDGxKLEbpY4056jjI/wB0V9bfsX/sz+IP2Y/gzrXh7VL3Sr7xNqF9Ne+fYSyNbDMSJEpZ41bA25Py9zjNeb/sr/s/3/7Dfh34leN/il4m8Oh9RSJku7O8kMY2eYxQtNHGS7u6gKMkkDvXTzQoz5o/DGFvVtfmmZvmrQlf4pTX3J/gmvxPU/2aPFOm/EL4rfG3xDp9lqtt9n15dDklvNXa6tp2tkKloIPLUQDkEjc+d3UdK+h6+Zv+Cd/hy70r9m6x1rUYGg1LxRqV5rs/mDDP5shCN9CiKR7EV9M0pRdPlg90kn62V/xuLmUpSktm3b0vp+FgoooqBhRRRQAUUUUAFFFFABRRRQAUUUUAFFFFABRRRQAUUUUAFFFJQB+TvxW8EX/7UH/BSbxB4WsNUuNL0+EfYL2+tDiSKzitVS4Ve2WLOnPGX5GOK+nfjF8Nfh/+zZ8KfCPwx8NaJrJsvG3i6ztCuna9JaXfnErunMxSQlR5SAoABzwVqx+y1+x/4w+Ef7QvxA+JnjLU9Dv5Nf8AtP2OPS55pZI/PuRK2/zIkAwFUcE969P+MHwR174mfHj4R+KY7vT4/Cvg6e7vby1nkkFxNcOgEJjQIVIVlBJZhjJxmnR9ynRj6OXyfM1+GnmyqsnKpVl2uo/+A2X5/cj22NBHGqDJCjA3HJ/OnUUUidtAooooAKKKKACiiigAooooAKKKKACiiigAooooAKKKKACiiigAooooAKKKKACiiigAooooAKyvEnhXRfGWm/2dr+j2Guaf5iy/ZdStUuIt6nKtscEZB5BxxXz/AP8ADZX/ABmd/wAKD/4RD/uYf7T/AOod9t/49/J/4B/rP9r2r6VoGMhhjt4UiiRYokUKiIAFUDgADsKfRRQIKKKKACiiigAooooAKKKKACiiigAooooAKKKKACiiigAooooAKKKKACiivmr9jX9sr/hrf/hL/wDikP8AhFP+Ef8Asf8AzE/tnn+f5/8A0xj27fI987u2OQD6VooooAKKKKACiiigAooooAKKKKACiiigAooooAKKKKACiiigAooooAKKKKACiiigAooooAKKKKAPzV/5zOf5/wChdr9Kq/NX/nM5/n/oXa/SqgbCiiigQUUUUAFFFFABRRRQAUUUUAFFFFABRRRQAUUUUAFFFFABRRWL4xtdfvPDl5B4Yv7HTNbkCrb3mo2zXEMXzDcxjV0LELuwNwGcZ4pMa1ZtUV83w+MPiR8Kf2g/Ang3xJ4stvH2g+M4L7a39lRWN1ps1vEJCw8o4aI52/Nkgnqe/wBIVVvdUu/6OwtnZhX5q/8ABGv/AJq//wBwf/29r9Kq/E39jf8AaevP2efCvxF07w3pE2uePfFcumWWhWqQmRBIn2oPIyjliDLHtQfeLDsDSKWx+01vrFhdald6fBe281/aKjXFrHKrSwhwShdQcruAOM9cVcr5b/Yx/ZW1f4QnVviB8QNWutZ+KPihN+pO9wXjtkYhvKODtd8gZbouAqYAJb6koJCiiigAooooAKKKKACiiigAooooAKKKKACiiigAooooAKKKKACiiigAooooAKKKKACiimSypBG8kjrHGgLM7HAUDqSewoA/NaWVIP8Agsw8kjrHGgLM7HAUDw5ySewr3fwf+2lqvxm/aet/A/wv8Ow+JfAOlo6+IPEsjskak8LLC/TaCpVQQTKSxXaq76+GPi/p0f7W3/BQTW9M+HfiOKK18RTpYxa0jOsRhh01Y7tlxguhSGdQAcSAgZ2tmv1a+BvwN8Lfs+eAbPwp4Us/Jto/3lzdy4M97MQA00rAcscfQAAAAACgpnoVeKfFj9pGf4b+P/DHhWy8D6xrb6xrFppDatIy2ljC843fJIwZpmVAzFUXA24LKTXtdeAfFrPij9qn4L+HlO6DSYNU8S3KdcFIlt4Sf+BTt+VOOtSC8/vS1f4Jkv4JPy09dl+Nj2fxd4mj8H+HL3V5LDUNUW2UEWel2xuLmZiwULHGOpJI9AOpIAzXCfs+/Gy7+OWh+ItTufC1x4UXSdauNHW2u7tJ5ZGhC72bYNqkMxXaGcZU/Ma9G1zVItD0W/1GdtsFnbyXEjHsqKWP6CvGv2KtLns/2b/C2oXY/wBO103Gu3DY5Z7qeSbP/fLrRDebfRL729PwUgl8Mbb3/BLX8Wj3KiiikAUUUUAFFFFABRRRQAUUUUAFFFFABRRRQAVxnxS+LGhfCPQE1HWHmnurmT7Pp+lWMZmvNRuD92GCIcux/IDkkAZrs68u+Jn7Mvw6+L/imy8R+K9Eur/WrG3+y213b6ve2hhjySQogmQDO45OMnueBSd9Lf1/X9dilbr/AF/X9dzF+EPwx8Q6l42vfip8RUjh8XXtt9j0vRIZBJDoNiSGMIYcPM5wZJBxkBRwOfa64H4a/Azwb8I7q9ufDFjfWs14ixzNeaveX2VUkgKLiWTbyf4cZ4z0rrPElvql54f1KDRL2HTtYltpEs7y5g86OCYqQjtHkbgGwcZGcVbtZJbL+v8Ag36sjW7b3f8AX/A9D52/bC/bCt/gPZ2/hPwnbjxH8U9aCxabpMCGU2287UllQckkn5I+rH2r5U/4I/8AgfQ9b8VfEPxJf6bDd61okVhDp11KNxthP9q80oOgZhEg3dQMgHDHP07+yX+xrN8J9a1D4h/EfUI/F3xX1WWSSbUWcyx2YbIIiZgCXYdXwMD5FAGd3z9/wRr/AOav/wDcH/8Ab2pL6H6VUUUUEhRRRQAUUUUAFFFFABRRRQAUUUUAFFFFABRRRQAUUUUAFFFFABRRRQAUUUUAFFFFABX59fHz4weNv2zPihqPwJ+ERn0rwnp8zQeLPE8sbIpVWKyRdiI8qy7OGmYEcRhif0Fqhp2g6Zo93qF1Y6fa2dzqMwuLya3hVHuZQioHkIGWbaqrk84UDtQM/LH4N/CnRvgf/wAFUNB8EaAZ30vSIWjjkuX3ySO+gNJI7H1Z3dsDAGcAAACv1dr81f8AnM5/n/oXa/SqgGFef2nwo8n46ah8SJ9U+0PNoUWhW2nfZ9v2ZFmaaR/M3HdvJXjaMbep7egUULRqS3X6q35MW6cej/Rp/mjl/il4Nn+Inw48TeF7bU/7Gm1nT57Aah5PneR5iFC+zcu7AJ43CtDwd4at/BnhLRdAtDutdLsobKJtu3KxoEBx24WtiihaXt1t+F7fmwetr9L/AI2v+SCiiigAooooAKKKKACiiigAooooAKKKKACimuwjVmY4VRkmvAfDn7bXgDxcvhSLR7LxBqOpeI7poLXTLaxWS4giFy1ubqfbIUih3qxDM2SASF4Ipr3nyrcdrRcnsj0LwV4w1/XfiX480W/j00aNojWcdnJaJJ5xkljaR1lZm2khDCcKoxvPJ6131cl4D0nw/Z3nirUdC1WPV5dU1d59RkjuY5hDdJFHA0PyD5diwoNrfMDnNdbS6L0X5C6v1CiiigAr81f+CNf/ADV//uD/APt7X6VV+av/AARr/wCav/8AcH/9vaB9D9KqKKKBBRRRQAUUUUAFFFFABRRRQAUUUUAFFFFABRRRQAUUUUAFFFFABRRRQAUUUUAFFFFABRRRQB+av/OZz/P/AELtfpVX5q/85nP8/wDQu1+lVA2FFFFAgooooAKKKKACiiigAooooAKKKKACiiigAooooA4r41+Ll8B/B/xp4iY7f7M0e6uV92WJio/E4ryL9g74X6d8Jf2YfDV+0KpqetWQ1nULpx87CQGRFJPRVjKgDpncepNen/tAfCm4+N/wj8QeCLfXP+EdbWI0hfUPsv2nYgkVmHl70zuClfvDGe9a2reA2n+FN14M0rUP7JLaO2k2195PmfZ/3PlLJs3DO3g43Dp1qPejCq4/E7JfLmf5tfcXaMnTjLZN3/8AJUvwuc1+zP4jk8bfB3R/FU2i6XoU/iCS41N7bSLXyInEkzlJGGSWkdAjMxPzMSfavUq5/wCHvg+3+HvgPw74XtJPNttG0+Cwjk27d4ijVN2MnGcZxk9a6Ct6nLztQ26enQyi21eW739QooorMoK/NX/gjX/zV/8A7g//ALe1+lVfmr/wRr/5q/8A9wf/ANvaB9D9KqKKKBBRRRQAUUUUAFFFFABRRRQAUUUUAFFFFABRRRQAUUUUAFFFFABRRRQAUUUUAFFFFABRRRQB+av/ADmc/wA/9C7X6VV+av8Azmc/z/0LtfpVQNhRRRQI4f46eJNR8G/BH4ha/o9x9j1bSvD2oX1ncbFfyporaR432sCrYZQcEEHHINfmt8IfjX+2/wDHjw3c6/4G1n+3NJtrtrGW4+y6Hb7ZlRHZNsyIx+WRDkDHPXg1+i37TX/JtvxX/wCxS1b/ANI5a+a/+CRP/JtviT/sbbn/ANI7Ogroeaf8bE/8/wDCO0f8bE/8/wDCO1+lVFArn5q/8bE/8/8ACO0f8bE/8/8ACO1+lVFAXPzV/wCNif8An/hHaP8AjYn/AJ/4R2v0qooC5+Rfwa/aP/bO/aC/tj/hAfEP9vf2R5P23/QtFtvK83f5f+ujTdnyn+7nG3nGRXpX/GxP/P8AwjtH/BGv/mr/AP3B/wD29r9KqBs/NX/jYn/n/hHaP+Nif+f+Edr9KqKBXPzV/wCNif8An/hHaP8AjYn/AJ/4R2v0qooC5+av/GxP/P8AwjtH/GxP/P8AwjtfpVRQFz81f+Nif+f+Edo/42J/5/4R2v0qooC5+av/ABsT/wA/8I7R/wAbE/8AP/CO1+lVFAXPzV/42J/5/wCEdo/4I1/81f8A+4P/AO3tfpVX5q/8Ea/+av8A/cH/APb2gfQ/SqiiigkKKKKACiiigAooooAKKKKACiiigAooooAKKKKACiiigAooooAKKKKACiiigAooooAKKKKAPzL/ALUtf+H1f2Lzf9J/ubT/ANC5nrjHSv00r8q/+c6/+f8AoWK/VSgYUUUUCPMv2oJVg/Zo+LcjnaieEdXZjjoBZSk18y/8EfNQg1H9mjxLJbyeYg8XXKk4I5+xWR7/AFr6S/ax/wCTWfjJ/wBiZrP/AKQzV8q/8EVP+TWfFP8A2Od1/wCkNjQM+/6KKKBBRRRQAUUUUAfmr/wRr/5q/wD9wf8A9va/SqvzV/4I1/8ANX/+4P8A+3tfpVQN7hRRRQIKKKKACiiigAooooAKKKKACvzV/wCCNf8AzV//ALg//t7X6VV+av8AwRr/AOav/wDcH/8Ab2gfQ/SqiiigQUUUUAFFFFABRRRQAUUUUAFFFFABRRRQAUUUUAFFFFABRRRQAUUUUAFFFFABRRVLWtXtvD+j3+qXrmOzsYJLmdwCSsaKWY478A0AfH/w7/4KP6RD8YNZ+GXxl8NS/CTxHBeNDp11qErNZXkW4iNmlZV8vfglXOYyP4geD9lRSpPEkkbrJG4DK6nIYHkEHuK+KtD+KH7Nn/BUHwvc+GNRs5YPEFqHa2stUWO01m2UH/XW7ozhl6EqGYf3l6V5bb/CP9qj9gdpm+G2of8AC7/hZCS6+HbwO17ZxAH5Y4g25cAADyCwJJPlDNAHK/8AOdf/AD/0LFfqpX4h/DP9p7Q/E3/BUjSvi940tH+HGlzFotQtdXdidPmXRGs9rtsBwZlABKrgMCQOcfsv4M+JnhH4jafHfeFfFGj+JLSQErNpV/FcqccHlGPIIII7EGgDpaKKZNNHbxNLLIsUa8s7kAD6k0AeW/tY/wDJrPxk/wCxM1n/ANIZq+Vf+CKn/JrPin/sc7r/ANIbGvVP2z/2qvhF4c+A3xR8LXfxC0KXxLqXhvUdMttJsbtbq5NxPayRxI0cW4plnXl8AA5JA5r89P2C/jj8e9G+D+s/DH4G/DtdX1HUNdm1K48X3gLWmn+ZBbxGM7wsSuoiD5d2JDcRnHIB+tXx4/aM8A/s2+EX1/x1rkWmwsCLayj/AHl3eP8A3IYhyx5GT91c5Ygc1wv7HP7THif9qPw54g8Uap8PpvBPhdblI9Aurm5MkmpwnfvkKlFAC4j+ZSykswB+XJ8J+Gf/AATw0LwzfX3xb/ag8axfEbxJDGbu7OsXBGkWKAFiHMhHmopLYUhIwOAlfQ/7MP7XHgT9qJvFlr4FsdUtrLwtcx2bT3losNvcI28RvAVYjaRGxCnawG3KjNAHutFFFABRRRQB+av/AARr/wCav/8AcH/9va/SqvzV/wCCNf8AzV//ALg//t7X6VUDe4UUUUCCiiigAooooAKKKKACiiigAr81f+CNf/NX/wDuD/8At7X6VV+av/BGv/mr/wD3B/8A29oH0P0qooooEFFFFABRRRQAUUUUAFFFFABRRRQAUUUUAFFFFABRRRQAUUUUAFFFFABRRRQAVyPxg/5JL42/7Ad9/wCk7111cj8YP+SS+Nv+wHff+k70Afld+x1+wX4d/aU/ZL0rxho+tXvgf4n6frN4LHxFYyPhthUxrIoYEYPR0Ksvv0r17w9+2b8dP2Nby38NftL+C7zxR4aVxDbePtCVZN4zxvYBUlOCBhvKkwMkOTmvSf8AgkF/yZzZf9hy+/8AQkr7P1DTrTVrGazvrWG9s5l2S29xGJI3X0ZSMEfWgD8YtK1b4bfthf8ABWKK8EMfiv4d+JkKmG8hltxN5WgFSCrbXVkmh4IxygKkjBr698Yf8Ed/ghrV7HeeH7/xT4NnjbfGmnais0akHIP79HfII4IcV0vxe/4JV/Az4nXR1DSdMvvh7q28SC48LzLDCWGcZgdWjUc5/dhDwOeufNj+w7+1N8LI51+GP7TVxqdruzDZeKVm2oueFG8XKg49FUEjoM8AGsv/AASx1O2URWf7RnxGtrdW+SIXTYVc9OJQM++Pwqvef8EhfDnioqvjL4xfEDxPErhws11HwQMAjzVl5wSM46GjTfCf/BQzRYpLebxn8P8AXTv3C6uYYlOMD5QEtoxgYPVc5J5xiqi/BX9v/wAYXjLq/wAafCfhvT5XdmWwgi8yFSeFTy7IMccAbpM4756gG18WP+CePwC+Bv7OXxT13TPCq3muWfhTVJbPU9dvXuZIp1tJTG8asRGrhwCCqg5AxXyd+wf+3j4e/Zc/Zz1jwjb+HNV8Z/ELVvFFxeadoenxlUaN7W1jRnkwTy8TgKis3y9BkGvp3T/+CUM/jzUYtQ+NXxu8X/EeWOYTLaRytFEOclN0zzEKeR8gTAOBivrH4L/sv/C39nuzEXgPwbp+iXBUpJqG0zXsoJJIe4kLSEZJ+XdgdAAKAPizSf2Wfj7+3Vrlh4k/aG1yXwD8PYpRPa+A9JzFNKueBImSIz0+eUvIPmAVM5HT/wDBIPS7fQ/Anxf020UpaWfjOa3hViSQiRIqgk9eAK+/6+C/+CTX/It/G3/serr/ANAWgD70ooooAKKKKAPzV/4I1/8ANX/+4P8A+3tfpVX5q/8ABGv/AJq//wBwf/29r9KqBvcKKKKBBRRRQAUUUUAFFFFABRRRQAV+av8AwRr/AOav/wDcH/8Ab2v0qr81f+CNf/NX/wDuD/8At7QPofpVRRRQIKKKKACiiigAooooAKKKKACiiigAooooAKKKKACiiigAooooAKKKKACiiigArkfjB/ySXxt/2A77/wBJ3rrqy/FWhR+KPDGr6NLIYotRs5rN5FGSokQoSPpmgD47/wCCQX/JnNl/2HL7/wBCSvtivgr/AII86xd2vwJ8a+C9SSOLUfC/im4tpI16qHjjyD6/vEl544A9K+wfjJpfi7V/hrr0HgPWv7A8XC3MmnXnkQzKZV+YRssqMu18bScZG7I6VMpcqciox5mkdpRXhH7Ov7Stj8SPgHL4w8UTx6Tq/hyOa18TwzARm0ubdf3rFf4QwG4D3x2rM/ZT+Injv4m+HPE/xP8AG+pnTfB2q3Ek3hzQ5baGIWWnx5/fySBA7FwM/MxGASOCMaSjyykm9Er36W6ffuvJNkK7inbd2t1v1+7r8j6Kor5I8L/FT4y/tXSalq3wx1TS/hl8N4J5LWw8Q6lpo1DUNTZG2tLHC5EaR5BHzc5GOeQGat8bvix+y34u8P2nxivNJ8a/D7WrlLBPGel2X2K4sLhvu/aYVJTacZ+XsCc8baSTbSeje1/Pb0v52G9L21tvby39beVz66or5t/bE+LHjXwBcfC3SPAutWuh3ni7xFHo8uoXFkl4IkkAAcIxwcE568+ork/ihqn7Q/7Mvgy48c3vxB0b4t6BpbrLqum3nh6PSrlbcsFZongcglcg/MOBk4OMVKas5PRXtfz0f6orlbso6tq/5r9D6+r4L/4JNf8AIt/G3/serr/0Ba+3fCPiaz8aeFdG8QaeWaw1WzhvbcsMHy5EDrn3wRXwV/wSrbULP4iftLaZbXBufCFp4rzYSSKm55jNdK7ZAycxpBkHgcYxlquUXFuMt0ZxkpJSWzP0MoooqSgooooA/NX/AII1/wDNX/8AuD/+3tfpVX5q/wDBGv8A5q//ANwf/wBva/Sqgb3CiiigQUUUUAFFFFABRRRQAUUUUAFfmr/wRr/5q/8A9wf/ANva/SqvzV/4I1/81f8A+4P/AO3tA+h+lVFFFAgooooAKKKKACiiigAooooAKKKKACiiigAooooAKKKKACiiigAooooAKKKKACiiigD88f2Poo/g7/wUe/aO+HTiaOHxEq+IrQyDCsPME4UeuBfuB14jbJyK/Q6vzv8A2ymPwJ/4KCfAD4ugTQ6TrgPhzVJU+WJfmMW6RuB/q7sNgn/l3yPu19p/HTx7q3w1+Fuu67oHh7UvFGvQwmPT9L0uykupZZ2+VCUjBOwE7mPYA98VMpcquVGPM0j89/2tpNH0H9pbxVp2j3mpW/w21iXSP+FmjTIwYLaVp8oSwOVZ1A3YHc9ScV9m/taSR6L+x349Xw2kUdlH4faG2W0IEa2xVVOzHG0Rk4x2rL+Av7MNppP7O+q+GfHkJ1PxD42WXUPFM83Mr3U4yVz2MeQAR0ZSR1rF/ZZ0PxRH4D8ZfAz4m6FqlzY6CJdLsNduLOVbPVtLkBVBHMRsZ0U42g5AKjqponTfsZ4ZPVK/k+jXpH7P92/YqNRe1jiOl0v8n/29bXzsenfsn2tjZ/sz/DGPTgotj4fs3+XoXaJWkP13ls+9cX/wUKtNPuv2Q/Hx1DaFiit5YGbqJhcRbMe5PH4mvPfhjf8AxW/Yx0258Dat4B1z4p/Dyylkk0LXPCqrc38ELMWEE1sSGJBJORwM4GRws3jbw78SP22NX0TQ9Z8Gal8MfhDY3cWoakuvOqaprDIcrAIFJMSA9dx7g5JGK0xFsVNuGik7+mt/vX4vYih/s9uf7P427ev4dTiP2nNW8QWnwx/ZJ1KLSm13xPHq2lzppjXC25u7kW8RERlfIQs3G5uBnJq38fvi58TviUuhfDH4k+Bl+BnhHxfeR2F34ik1OPWvO+YMLZHgVUhaQgDLnGM9s16l+2F4J1nXvGH7P50DQdQ1Kz0jxna3F22n2kkyWdupT95IUBCIAPvNgDFdZ+258M734q/s1eLtJ0mzmvtbto49R0+C1jMkzzQusm2NRyWZQygDk7qJzi1KrJXi6jbXlaF/61Tta24UoNclNOz5Er+d5W/rc7b4ga9pvwF+A/iDVrSExaX4R8PTTW9umC2y3tyY0GeCTsVRnua+X/8AgkD4Lk8P/snt4huJJJ7rxVrt5qLSycsVjK23XqfmgkOT3Y1z/wDwUU+M2rW37BHhvT7mw1PTPFfjxtP0ybTZYJIbuN1AmuEaM4cZaIRlcciUDGDX2J8B/hzH8Ifgv4J8GRncdE0i2s5XxjfKsY8xvxfcfxqqianJSd3cyp2cI2VtDvKKKKzNAooooA/NX/gjX/zV/wD7g/8A7e1+lVfmr/wRr/5q/wD9wf8A9va/Sqgb3CiiigQUUUUAFFFFABRRRQAUUUUAFfmr/wAEa/8Amr//AHB//b2v0qr81f8AgjX/AM1f/wC4P/7e0D6H6VUUUUCCiiigAooooAKKKKACiiigAooooAKKKKACiiigAooooAKKKKACiiigAooooAKKKKAPkn/gqJ8Hf+Ftfsj+Jbm3iWTVPCjr4htmLFcJCGFx06/uHlOOhKr9a9R/Y8+MqfHr9m3wL4weYTajcWC22pEDBF5D+6n47AuhYezA969fvLODUbOe0uYlntp42ilicZV1YYKn2IJr86v2CdWm/Zd/ak+KP7M+tzSRaZdXT634VluePPTYGKKSfnZoNjfKMA282eeKAP0booooAKKKKACiiuI+NnxX0j4G/CnxP461yQLp+iWT3Jj3AGaT7sUK5IG55CiAZ6sKAPhz40SL+1J/wVE+HvgKHZc+HPhbaf21qWM8XIMczDPRlL/YIyP9/JPSv0ar4U/4JU/DHVG8A+LvjX4rV5PFnxJ1OW9MsqlT9lWVyGAPIDytKw9VWPHGK+66ACiiigAooooA/NX/AII1/wDNX/8AuD/+3tfpVX5q/wDBGv8A5q//ANwf/wBva/Sqgb3CiiigQUUUUAFFFFABRRRQAUUUUAFfmr/wRr/5q/8A9wf/ANva/SqvzV/4I1/81f8A+4P/AO3tA+h+lVFFFAgooooAKKKKACiiigAooooAKKKKACiiigAooooAKKKKACiiigAooooAKKKKACiiigAr4I/4KifCDWtJs/CP7RHgNDD4y+Ht1FJeNCjEzWIkDKzhfmZY3J3LkDy5pcnAr73qpq2k2WvaXeaZqNrFe6feQvb3FtOgaOWN1KsjA9QQSCPegDjvgZ8YNE+Pfwp8OeO9AfNhq9qsphLBntpRxLC+P4kcMp+mehrvK/Mz4K65ef8ABOD9q6/+EXiW7l/4U347nN54a1O5fKWU5IUBmPTnbFJ9IX4BNfpkDnkcigBaKKKACvzg/b68Ual+1V+0P4E/Zc8G3cgs47pNW8W3tuSVt0VdwRyuQPLiLPtcbTJLAMgivqf9sz9qTSv2U/g1qHiWcxXPiK6DWmh6a55uLojhiM/6tPvsfQY6sK8w/wCCc37MeqfCvwZqfxL8febefFTx4xv9RuLzma2gdjIsR4+V3J8xwO+1f4KAPrPwv4Z03wZ4b0rQNGtI7HSdLtY7O0tohhYoo1Coo+gArUoooAKKKKACiiigD81f+CNf/NX/APuD/wDt7X6VV+av/BGv/mr/AP3B/wD29r9KqBvcKKKKBBRRRQAUUUUAFFFFABRRRQAV+av/AARr/wCav/8AcH/9va/SqvzV/wCCNf8AzV//ALg//t7QPofpVRRRQIKKKKACiiigAooooAKKKKACiiigAooooAKKKKACiiigAooooAKKKKACiiigAooooAKKKKAPG/2rP2ZvD37VXwmv/CGtFbS+XNxpWrCPe9hdAELIBxlT0ZcjcpIyDgj5k/Yn/aq8SfDTxef2b/j67aV450l1tdB1m8b91qdvjEUZlP32IH7uT+MYU/Ovzff9eC/tcfsf+Ev2svBcdjqrNo/ijTg0mjeI7VAZ7OQ8hW6b4icFkyOmQVPNAHvVcD8cPjh4T/Z7+HmoeMfGOoLY6ZajbHEuDNdSkHbDEufmdsdOgGSSACR+fmk/tyfFz9g1X+G/x+8I3njJba1k/wCEc8U2VyAdRRNoRHlcYkUZG5z+9TK7lbcDXRfCf9lP4l/tofESw+L37S3naX4Yt283Qvh1taKNY85Tzoycoh/iDfvJONxVQFIBD+zH8IfGH7cPxuX9o34w2L2fgrT5P+KK8LTrmIor5jlKnqi4DFiP3sh3DCIFP6S1Fa2sNlbRW9vEkFvCgjjiiUKiKBgKAOAAOMCpaACiiigAooooAKKKKAPzV/4I1/8ANX/+4P8A+3tfpVX5q/8ABGv/AJq//wBwf/29r9KqBvcKKKKBBRRRQAUUUUAFFFFABRRRQAV+av8AwRr/AOav/wDcH/8Ab2v0qr81f+CNf/NX/wDuD/8At7QPofpVRRRQIKKKKACiiigAooooAKKKKACiiigAooooAKKKKACiiigAooooAKKKKACiiigAooooAKKKKACiiigD8q/+C53/ADRP/uN/+2FfqpX5V/8ABc7/AJon/wBxv/2wr9VKAMbxfp+sap4cvbTQdWj0LVplCw6jJai5EHzDc3lkgMducZOM4znpXi37FdzrurfDrxLq+ueKNW8WfbfE+orY32rXHmP9lhl8hAqgBEUmJm2oAuWOBXrPxU8Vx+Bfhn4r8RSttTStLubzPukTMP1Arkf2U/Cj+C/2cfh7pcq7LkaRDczg9fNmHnPn33SGnT3m/JL723/7b+IT+GK7tv7lZ/8ApS+487/aKg8ar8aPhPZWHj7UtN0nWvEsMa6BpSi1V7W3hee5aeZT5ku4oF25VArYIYnNfTdfP/iPHiz9trwfY43w+E/Cd7qr+izXcyW6fjsjkr6AojpSj5tv8eX/ANtv8wl/Efkkv/bvykvuCiiikAUUUUAfmr/wRr/5q/8A9wf/ANva/SqvzV/4I1/81f8A+4P/AO3tfpVQN7hRRRQIKKKKACiiigAooooAKKKKACvzV/4I1/8ANX/+4P8A+3tfpVX5q/8ABGv/AJq//wBwf/29oH0P0qooooEFFFFABRRRQAUUUUAFFFFABRRRQAUUUUAFFFFABRRRQAUUUUAFFFFABRRRQAUUUUAFFFFABRRRQB+Vf/Bc7/mif/cb/wDbCvdv2kf2tvFvjr4mW3wU/Z7db7xg0+NW8RxBXg05UYb0DEMuF6SOQQM7FDO2F+cv+Cq3xy8LfE7x94W8KeHLz+0rnwj9uj1K7hwYBNMYB5KNn5mTyDuxwC2M5DAfoF+y3+y34Z/Zf8CrpOkqt/rt4FfVtbkjCy3cgHQf3IlydqZ4yScsSSD2PTofD51rwfBo/i6LTvEEk9mkGpo1mPsl2+0CT9y5cBGOTtYtwcZNa8EEdrDHDDGsUMahEjjUKqqBgAAdABUlFAjPh8P6Xb63c6zFptnFq9zClvPqCQILiWNCSiNIBuZVLMQCcDJ9a0KKKACiiigAooooA/NX/gjX/wA1f/7g/wD7e1+lVfmr/wAEa/8Amr//AHB//b2v0qoG9wooooEFFFFABRRRQAUUUUAFFFFABX5q/wDBGv8A5q//ANwf/wBva/SqvzL/AOCP+q2eh6b8adR1G6hsbC1i0ma4urhwkcUai+LMzHgAAE5NA+h+mlFfOf7PH7ZGn/tIfFDxhoHhvwxqJ8LaKitbeKG4guWzhldSAYy33kHJKqxYL0r6MoEFFcn8SPiv4Q+EOgtrPjLxDY+H9PGQsl3JhpCBnbGgy0jf7Kgn2rd0PXLLxHodhq+nzGbT763jureZkaMvG6hlYqwDLkEHBAI70bptdA2sn1L9FcN4X+OHgTxt451Pwf4f8S2eteIdMg+03ltY7pkgTeEO6VQYw24gbN272qbxr8U9N8Ga9o+giw1LXNf1VXlttL0mFZJvJQqJJnLsiJGpdQSzDJIABPFG9rddg2vfpudnXIan8WfC2j+MLbwxdalIusTyRwhI7SeSGORwTHHLOqGKJ3AyqSOrN2Brr6+cpvBHi631jU7e88L3l1plp4sn8XXGp2s1s76ukY3WdrbxmUOJVKwITKI0Ah4Y7shJ++lLbr96v+Db87WG0+RuO/T7nb8Ul879D6Normfhz8QtJ+KPhG08RaL9oWyuHliMV3EYpoZY5GjkjkU9GV0ZT1HHBNdNVNNOzJCiiikMKKKKACiiigAooooAKKKKACiiigAooooAKKKKACiiigAr5I/bY+I3xZvtb0D4P/Cnw/qFtqfiyF2ufFf3ILa3B2yqkoz5ZAILucFQyhAWcEfW9FAH43/t3/sweHP2XfAPwg0XSD9v1m+/tSXV9YkXbJeTKLPAA/hjTcwRO24k5LMT+yFfmr/wWU/5pB/3GP8A2yr9KqCnsFFFFBIUUUUAFFFFABRRRQB+av8AwRr/AOav/wDcH/8Ab2v0qr81f+CNf/NX/wDuD/8At7X6VUDe4UUUUCCiiigAooooAKKKKACiiqmq6rZ6Hpt1qOo3UNjYWsTTXF1cOEjijUZZmY8AAAnJoANV1Wz0PTbrUdRuobGwtYmmuLq4cJHFGoyzMx4AABOTX4efsh/Bnx9+0JqWu+AfDepzaN4LvpbO78UXqj92scRl8hW7uxLy7Y84JXcfuZH1X8RPiJ4y/wCCjnxLl+Hfw7luNC+Dukzq2sa86FftuDkMw4yDj93D3xvfGAEg/wCCNf8AzV//ALg//t7QVsj76+E/wn8NfBTwPp/hTwpp62Gl2a/WSeQ/elkb+J27n6AYAAHYUUUEnzx+3Jpen3nwRvx/Z1pP4h1Wa28OadeSwq00P225ijlWNiMruQHOOu0ele+afpsGn6VbafEgFtBCsCpjjYqhQPyFeV/HXwDrnxC8YfCe3srD7T4f0nxIutavcedGghWCCQwAqzBnzKy/dBxjJx1r16iP8Np9391lb8XIcvijbovxbd/wUT5x/Z68P6Yv7QXxo1LR9OtNM0fR203wxYW9lCsUUSwwGaZVVQAPnnH5Vv8Aw/1JPiJ+0b4t8UWSyw6X4f0iLwyYr2IwXH2oztPM3lOBIqbPJ2swAcHK5HJ0f2ZfAOueB/CHiK48TWH9na/4g8S6lrVzbmaOYqss5EILIzKf3SR9Dx046VxXw88aWmi6P+0R8QLm5iF/b61fiW3yBJBDYWqwwhh1G7y2ceokFTKfIlJ7xhf52Sl/6VIrk53KK+1NR+5tx/CK1/zPJ/gk3xQ/aa1b4oW1v8Qdc8J+CbXxjfquq2Nwz3k8YKrFaWrsf9HhRV3sU5JkUD+KvqceMNVtbH4iXTav4YutM0JGj09re9YzW0kdsHkTUHY7Y3DkHthCCeteffsE+GT4S/ZQ8FyXJxc6jDNq9xI3VjPK8gY/8AK/lXk1lqMGrfsf6/OZl/tn4n+KbiSytN4866W61MRIFXqwECZPHCqfStKlNq+HvslG/wDe92P6O3p6kxqKT9t0cm7f3dX/AJX9fQ+h/wBlWGGD4A+D0itb61nNp5l5/aFs0Est07F7iXDD5leVnYOMqwIIJBBr1imxxiKNUUYVQAAPanU6klKTkla5nBNRSe4UUUVBYUUUUAFFFFABRRRQAUUUUAFFFFABRRRQAUUUUAFFFFABVLWtasPDekXmq6reQ6fptnE09zd3LhIoY1GWdmPAUDkk9Ku1FdWsN9azW1xEk9vMjRyRSDKupGCpHcEGgD8r/wDgqz8WPBfxQ/4Vd/wiHirSPE32H+1PtX9lXkdx5G/7Js37Cdu7Y+M9dp9K/Rfwl8fvhr4+1yHRvDfjvw/r2rTKzx2WnajFNKyqCWIVWJwACa/GD9s39nef9nH42anosEMn/CNahm/0WdgSDbsx/dbu7RtlD3wFY/eFfe3/AAS6/ZtX4f8Aw6k+JetWoXX/ABPEFsN4G6DT8gqR6GVgH/3Vj96Cnsfc9FFFBIUUUUAFFFFABXD+NPjl8PPhxq6aV4q8baF4d1J4lnW01O/jgkaMkgOFYglSVYZ9QfSu4r5H/wCCj37Nv/C7Pg6/iPR7UzeLfCaSXlusSZe6tcZnh45JAG9RycoQPv0DPmL/AIJTfFjwX8L/APhaP/CX+KtI8M/bv7L+y/2reR2/n7Pte/ZvI3bd6Zx03D1r9QfDPijSPGeh2us6DqVrrGk3QLW99ZSiWGUBipKsOCMgjj0r8Ef2afgZqP7RHxg0TwbZF4bWZ/tGo3aYBtrNCPNkGQRuwQq5GCzKDX74+HfD+n+E9B07RdJtY7HS9Pt47W1tohhYokUKqj6ACgcjRooooJCiiigAooooAKKKKACqmq6VZ65pt1p2o2sN9YXUTQ3FrcIHjljYYZWU8EEEjBq3RQBy3w1+F/hf4Q+FYPDnhDR4NE0eF2kW3hySzscszMxLMx9WJOAB0Ar8/v8AgjX/AM1f/wC4P/7e1+lVfmr/AMEa/wDmr/8A3B//AG9oH0P0qooooEFFFFABWbZ+GtI07WL7V7TSrG11W+VEu76G3RJ7hUzsEkgG5guTjJOMmtKigArMuPDOj3Wu2+tzaTYzazbxGCHUZLZGuIoyclFkI3BSewOK06KPMAooooAKKKKACiiigAooooAKKKKACiiigAooooAKKKKACiiigDkPjB4uvPh/8JPG/inTooJtQ0PQ77U7aO6VmieSG3eRA4UglSVGQCDjPIr8uv8Ah7t8Yf8AoW/A/wD4AXn/AMl1+lP7TX/JtvxX/wCxS1b/ANI5a+a/+CRP/JtviT/sbbn/ANI7OgpbHzV/w92+MP8A0Lfgf/wAvP8A5Lo/4e7fGH/oW/A//gBef/JdfrpRQF12Pw2+P37b/i39pPS9EsfGHhTwiy6Rei8t5rG1uo5SMYeFmNy37twF3AYPyrggivULX/grZ8W7G1htrfwt4Egt4UEccUen3iqigYCgC64AHav15ooC6PyL/wCHu3xh/wChb8D/APgBef8AyXR/w92+MP8A0Lfgf/wAvP8A5Lr9dKKAuux+Rf8Aw92+MP8A0Lfgf/wAvP8A5Lo/4e7fGH/oW/A//gBef/JdfrpRQF12PyL/AOHu3xh/6FvwP/4AXn/yXR/w92+MP/Qt+B//AAAvP/kuv10ooC67H5F/8PdvjD/0Lfgf/wAALz/5LoP/AAV0+MJ4PhrwOR/14Xn/AMl1+ulFAXXY/DL4K/treJ/gH4g8W6x4S8HeDre78SXX2i4E9ndMluuSwggAuRsiDMTtOT05wAB6z/w92+MP/Qt+B/8AwAvP/kuv10ooC6PyL/4e7fGH/oW/A/8A4AXn/wAl167+yb/wUY+JPx4/aB8K+Btf0TwrZ6Tqv2rz5tNtLlJ18q0mmXaz3DqPmjUHKngnp1r9F6/NX/nM5/n/AKF2gND9KqKKKCQooooAKKKKACiiigAr81f+CNf/ADV//uD/APt7X6VV+av/AARr/wCav/8AcH/9vaB9D9KqKKKBBRRRQAUUUUAFFFFABRRRQAUUUUAFFFFABRRRQAUUUUAFFFFABRRRQAUUUUAFFFFAHmn7TX/JtvxX/wCxS1b/ANI5a+a/+CRP/JtviT/sbbn/ANI7OvpT9pr/AJNt+K//AGKWrf8ApHLXzX/wSJ/5Nt8Sf9jbc/8ApHZ0D6H2/RRRQIKKKo65rFr4d0W/1W+lWCysbeS5nkY4CxopZj+ABqZSUU5PZDScnZHwV+2doerftAfFvxZpvh+4mUfCXwv/AG1E1uxz/akkiTKmB1PkRHHvX2f8GPiJb/Fj4U+FfF9sV2avp8Vy6qc7JCuJE/4C4YfhXxf+zH4++M8Hh3xZ4z0f4Bv43tfH+r3Gs/2vP4tstPMluSY4ofJkUsFRVIBPXOQMYr0L/gnjr2q+HdP+IHwn8RaRJ4b1nwpq7XcGiy3KXLWlndZlSMSp8sgU5+YcHeOla04uMHSe6Sl87+8v/JkvSIqjTfOtr2+VlZ39U36zOM+H3wJ8GftGftSftCWnxEsLzxHZaJqlkun2smqXUEUAkjkLYWKRf7o69OfU12fxc/Zl1b4B+Eb7x18CvE+vaBqGgQNeTeF73UZr/TNRgT5pIzFMzEPtBwQe2BgncLv7KP8Aydd+1B/2FdO/9FzV9BfGfxZp/gf4S+L9d1SVYrGx0q4lkLn737shVHuxIUDuSK56knSw8Jw0ahF/PlW/c2ivaYmUJarmt/XY+X/2pPjSPiz/AME8Z/H2hzT6VJqi2LOtvMyPBJ9rjjmjDAg4DB19xXa+Hf2A/gvNoljqVtoWq6brd1axySatZeIL9LncUBLZMxXOfbHFfNuteGb7wv8A8EiraG/jaKa7mgvkjbqIpdSV4z+KlW/4FX6NeE/+RV0b/ryh/wDRa12ThGMqtlb3vu91aHMpNxpa9H89dGfLHwy8YeM/2c/2jtM+DfjDxLfeNfB/ie0kufC+uas3mX0EkYJe2mk6vwDyfVMYBIH17Xx5+0ZIvjT9uT9n3w3pjedqGhC81rUPK5MFuQu0v6BjEw/4EPWvsOsotypRlLe7Xqk7J/p8i5JRquMdrJ+jfT8n8woooqQCvzV/5zOf5/6F2v0qr81f+czn+f8AoXaBo/SqiiigQUUUUAFFFFABRRRQAV+av/BGv/mr/wD3B/8A29r9Kq/NX/gjX/zV/wD7g/8A7e0D6H6VUUUUCCiiigAooooAKKKKACiiigAooooAKKKKACiiigAooooAKKKKACiiigAooooAKKKKAPNP2mv+Tbfiv/2KWrf+kctfNf8AwSJ/5Nt8Sf8AY23P/pHZ19KftNf8m2/Ff/sUtW/9I5a+Dv8AgnP+1l8KfgP8Edb0Dx14q/sPVrnxDPfRW/8AZ13cboWtrZFfdFE6j5o3GCc8dORQV0P08or5q/4ePfs7f9FD/wDKJqP/AMj0f8PHv2dv+ih/+UTUf/kegVmfSteW/tN/D/xV8Vfgn4k8IeDrzTtP1fWYltGudTlkjiSBmHnDKI5yU3KOP4uteef8PHv2dv8Aoof/AJRNR/8Akej/AIePfs7f9FD/APKJqP8A8j1MoqSs9iotxaktz3fwH4RtPAPgnQfDVgoWz0mxhsosf3Y0C5/HGfxryi/+Bev6f+1xp/xW0C802HQr7Q20jxBY3EsiXEzKS0MsaqhViCIwdzLgLxmuf/4ePfs7f9FD/wDKJqP/AMj0f8PHv2dv+ih/+UTUf/ketHJyqe0e+v4pp/mZxjyw9mttPwaa/I5+P4E/Hb4a/Gr4keMvhxqXw8udP8aXsNzPb+KRfGWBYlKpt8gAZO9s5PpWxrX7L/j3436hY/8AC6viBZ6n4YtZUuD4P8J2L2djcyKcgzyu7SSL/s8eoINWP+Hj37O3/RQ//KJqP/yPR/w8e/Z2/wCih/8AlE1H/wCR6mPuqK/ltb5bfcXK8m333Ox/ai+Bt58bvgHqnw+8PXNjos1wbUW73CssESQzI+3CAkDamAAPSuN0jw1+1ZNpkek3niP4VeH7aGFYItQ0mw1C7uQoXbu2TMse7AB7jNL/AMPHv2dv+ih/+UTUf/kej/h49+zt/wBFD/8AKJqP/wAj0d/PX9BdtNtjsPgR+zTpvwb1TWfE2pa3feNfH+uY/tTxNqihZZFGP3cSDiKPIHygnoBnAAHstfNX/Dx79nb/AKKH/wCUTUf/AJHo/wCHj37O3/RQ/wDyiaj/API9Ntu3kK3U+laK+av+Hj37O3/RQ/8Ayiaj/wDI9H/Dx79nb/oof/lE1H/5HpDsz6Vr81f+czn+f+hdr6V/4ePfs7f9FD/8omo//I9fIvw3+JHh34uf8FaNO8WeE9R/tXw/qHmfZrzyJIfM8vQWif5JFVhh0YcgdMjjBoGj9T6KKKCQr4s/4KzfFjxh8I/2Z9Iv/BfiK/8ADGoaj4ntLC4vdMlMNwYPs9zMUWQfMmXgjyUIJAKklWYH7Tr4A/4LV/8AJrPhb/sc7X/0hvqAPMvhv+yz+1x8Svh34W8XWPx2mgsfEGlWuqwRXHi/V1kSOeFZVVwImAYBxkAkZ7nrXRf8MS/thf8ARfP/AC8tY/8AjNfav7J3/JrPwb/7EzRv/SGGvVaB3PzV/wCGJf2wv+i+f+XlrH/xmj/hiX9sL/ovn/l5ax/8Zr9KqKAufmr/AMMS/thf9F8/8vLWP/jNe4fsB/si+Mf2Vv8AhO/+Es1LQ9Q/t77B9m/saeaXZ5H2jfv8yKPGfOXGM9DnHGfrqigLhRRRQIKKKKACiiigAooooAKKKKACiiigAooooAKKKKACiiigAooooAKKKKACiiigAooooAzPE3hvTvGXhvVtA1i3+2aTqtpNY3lvvZPNhlQpIm5SGXKsRkEEZ4Ir59/4dw/s7f8ARPP/ACt6j/8AJFfStFAHzV/w7h/Z2/6J5/5W9R/+SKP+HcP7O3/RPP8Ayt6j/wDJFfStFA7s+av+HcP7O3/RPP8Ayt6j/wDJFH/DuH9nb/onn/lb1H/5Ir6VooC7Pmr/AIdw/s7f9E8/8reo/wDyRR/w7h/Z2/6J5/5W9R/+SK+laKAuz5q/4dw/s7f9E8/8reo//JFfEH7Lf7OHw6+I37bXxd8A+IvD39oeEtB/tf8As7T/ALbcxeR5GpRQxfvEkWRtsbsvzMc5ycnmv10r81f2Jf8AlJJ8fP8AuP8A/p4goGj6V/4dw/s7f9E8/wDK3qP/AMkUf8O4f2dv+ief+VvUf/kivpPeu8puG/GduecetOoFdnzV/wAO4f2dv+ief+VvUf8A5Io/4dw/s7f9E8/8reo//JFfStFAXZ81f8O4f2dv+ief+VvUf/kij/h3D+zt/wBE8/8AK3qP/wAkV9K0UBdnzV/w7h/Z2/6J5/5W9R/+SK6X4b/sU/Bj4R+NNO8WeE/Bv9leINP8z7Nef2pezeX5kbRP8kkzKco7DkHrkc4Ne4UUBcKKKKBBXwB/wWr/AOTWfC3/AGOdr/6Q31ff9fAH/Bav/k1nwt/2Odr/AOkN9QB9Vfsnf8ms/Bv/ALEzRv8A0hhr1WvKv2Tv+TWfg3/2Jmjf+kMNeq0AFFFFABRRRQAUUUUAFFFFABRRRQAUUUUAFFFFABRRRQAUUUUAFFFFABRRRQAUUUUAFFFFABRRRQAUUUUAFFFFABRRRQAUUUUAFFFFABX5BfDf9oLRP2af21P2hvF+tQy3jGXXbOwsYeGurptWiZI92MIMI7Fj0CnAJwD+j/7S37S3hf8AZl8Bya7rsgutSuA0emaPE4E17KB0H91BkFnIwAe5IB/OH9gvwrpvx+/bS8W65490SKe/hiv/ABM2myRssMN+17CCGjbJIQzvhW6FVznFBSPq/wDY5+FXxN8bfEC9+PnxV1i/07U9ZtTb6X4ZhdooYrNuU82PPCDqkZ5yd7Esa+hP2gzrdt8L9Z1HR/Fcng6LTbae+vr+2tY5rhreOF2McRkysbEhfnKtgA4GSCPSa8L/AG19Smt/2dPEel2jYvvEEtroNuM9WuriOEj/AL5ZvyrOpFzjyR3ei9XovxLpyUZqUtlv6dfwOi/Zdh1mP9nrwDJ4h1K+1fWrrSYby6vNSneed3mHm4Z2JJwHA68AAV5tZw+NB+2ppOlaj4+1LVdJt9Avtam0S1QWlhbxvOsFrG0aHMrgF2LyE5ZcqF6V9IaRpsWj6TZWEC7YLWBII1HZVUKB+Qrwv4P58UftQfGzxIcPBpg0zw1bN1x5UJnmH/fc4/KuqUlLEOcdvefyasvubRzQTVDllv7v33Tf4Jnv9FFFYmgUUUUAFFFFABXwB/wWr/5NZ8Lf9jna/wDpDfV9/wBfAH/Bav8A5NZ8Lf8AY52v/pDfUAfVX7J3/JrPwb/7EzRv/SGGvVa8q/ZO/wCTWfg3/wBiZo3/AKQw16rQAUUUUAFFFFABRRRQAUUUUAFFFFABRRRQAUUUUAFFFFABRRRQAUUUUAFFFFABRRRQAUUUUAFFFFABRRRQAUUUUAFFFFABRRRQAVHceb5EnkhTNtOwSEhd2OMkds1JRQB8U/Bj9kLxj8QvjNqfxa/aEktdV1uzu3i0Tw/BIJbKBI3IjlA6eWPvRoeTne/zHFeV/sS/8pJPj5/3H/8A08QV+lVfiVfftGeJP2Y/2yPjL4p8LWOlX+oXeuazpkkerxSyRCN9RMhIEciHdmFec4wTx6BS1P21rP1jw9pXiKO2j1XTLPU47W4S7gW8t0mEUyHKSoGB2up5DDkdq/Jv/h7t8Yf+hb8D/wDgBef/ACXR/wAPdvjD/wBC34H/APAC8/8AkugOVn66Vn6T4e0rQZL6TTNMs9Okv7hru7a0t0iNxMwAaWQqBvcgAFjk8Cvyb/4e7fGH/oW/A/8A4AXn/wAl0f8AD3b4w/8AQt+B/wDwAvP/AJLoDlZ+ulFfkX/w92+MP/Qt+B//AAAvP/kuj/h7t8Yf+hb8D/8AgBef/JdAcrP10or86P2Tf+CjHxJ+PH7QPhXwNr+ieFbPSdV+1efNptpcpOvlWk0y7We4dR80ag5U8E9OtfovQLYKKKKBBXwB/wAFq/8Ak1nwt/2Odr/6Q31ff9fAH/Bav/k1nwt/2Odr/wCkN9QB9Vfsnf8AJrPwb/7EzRv/AEhhr1WvKv2Tv+TWfg3/ANiZo3/pDDXqtABRRRQAUUUUAFFFFABRRRQAUUUUAFFFFABRRRQAUUUUAFFFFABRRRQAUUUUAFFFFABRRRQAUUUUAFFFFABRRRQAUUUUAFFFFABRRRQAUUUUAFFFFABRRRQAUUUUAfmr/wA5nP8AP/Qu1+lVfmr/AM5nP8/9C7X6VUDYUUUUCCvgD/gtX/yaz4W/7HO1/wDSG+r7/r4A/wCC1f8Ayaz4W/7HO1/9Ib6gD6q/ZO/5NZ+Df/YmaN/6Qw16rXlX7J3/ACaz8G/+xM0b/wBIYa9VoAKKKKACiiigAooooAKKKKACiiigAooooAKKKKACiiigAooooAKKKKACiiigAooooAKKKKACiiigAooooAKKKKACiiigAooooAKKKKACiiigAooooAKKKKACvM/2h/jHcfAX4Z3vjRPDVz4ostPdPttvZziOWGJjt83lTlVYrnpgHPQGtfxt8bvh18NdVi0zxd4+8L+FdSmhFzHZ63rNtZzPEWZRIEkdSVLI43YxlSOxrk9Y/aa+AfiDSb3S9S+Lfw7vNPvYHtrm3l8T2JSWN1KspHm9CCR+NAH5Y/8ADYml/wDDcf8Awvn/AIRu7/s3/oD/AGhfO/5Bn2L/AFmMfe+fp04r9S/2X/2h5P2mPA914sh8KXfhnSVuTa2j3lysrXZX/WMoVRhVOFz3IYdq/G7xl8IPC9j+0XJ4J0X4g+GLnwbc6iotfFn9tWz2ENm/z7pZxJsDxrlSpILMuAPmXP7BeA/j1+z18NvBmi+FtC+Lnw/tdI0m1S0to/8AhKbEnaoxlj5vLE5JPcknvQUz3OivKv8AhrH4If8ARZPh/wD+FRY//HaP+Gsfgh/0WT4f/wDhUWP/AMdoJPTNSnuLXTbqa0theXccTvDbGTyxK4BKpuwduTgZwcZr8WP+Cg/7f+mftNfDm2+HSeBdW8JazofiRb27/tK5jfY0MNzA8JVRkMGm/wDHTX6t/wDDWPwQ/wCiyfD/AP8ACosf/jtfkr/wVS8IfDPUvibZ/E34beOfCviQeIj5Ot6doet213NDdovy3HlxuxCSIuGOMB0yeZOQD7L/AOCd/wC2/D8ZtJ8GfCXRvAepxN4U8MWdrqevzXSfZYxbwRwhsBScyOvyqSDjJ/hNfelfBX/BPO++B/7MXwDsLXVPi18P4fGniDZqeuFvE9jvikK/u7Ynzj/qlO04ON5kI4NfUH/DWPwQ/wCiyfD/AP8ACosf/jtAHqtFcV4J+N3w6+JWqy6Z4R8feF/FWpQwm5ks9E1m2vJkiDKpkKRuxChnQbsYywHcV2tABRRRQAUUUUAFFFFABRRRQAUUUUAFFFFABRRRQAUUUUAFFFFABRRRQAUUUUAFFFFABRRRQAUUUUAFFFFABRRRQAUUUUAFFFFABRRRQAUUUUAFFFFAH46+Mv2MT+2F/wAFAPjzoR8a3Hhf+x5Yb/7Vc2j6o0u+OJfLG+dCirnCgEqqhUUKqgDtv+HGP/VbP/LU/wDu2vRvgXIdG/4LD/HOx3Mkd54Zjk8tX+VnMelyBiO5wz/Tca/Q6gD8rh/wQ4kWFoR8bz5TMGK/8Ipxkd/+P2mf8OMf+q2f+Wp/921+qlFAH5V/8OMf+q2f+Wp/920f8OMf+q2f+Wp/921+qlFAH5V/8OMf+q2f+Wp/920f8OMf+q2f+Wp/921+qlFAH5V/8OMf+q2f+Wp/920f8OMf+q2f+Wp/921+qlFAH5G/skfsm237Of8AwU0sPB0/iWbxLL4e8PXGs29/HZizWSSa3MJR4y8nyhJ36MCSFPTIP65V+eXwlmfXv+CynxgleR5o9N8KRrCskhIiAh0xGCjPA3SOcerE9a/Q2gAooooAKKKKACiiigAooooAKKKKACiiigAooooAKKKKACiiigAooooAKKKKACiiigAooooAKKKKACiiigAooooAKKKKACiiigAooooAKKKKACiiigD8+vGWo/8ACC/8FkPBmY8R+K/CBgd92MYiutpxjnLWarjjrnPGD+gtfn1/wUaef4b/ALS/7MPxRh2x2llrp0q/nYkbYmlhO38Y3ufyr9BaAPHv2pPjNqvwV+HFtfeG7Oy1Lxdq+qWuj6LY6gGMM1zNIBhgrK2Aoc8EdBU/7Lvxnuvjv8HdM8Tana29hryzTWOq2VqGWOC6ikKOqhmZgCNrAEk4brXi/wAafiN4T1r9tbwJoPinxTo/h3QPAemy6/O2r6hDaxTahNhIIwZGGWRP3nHY1D+y7468M6B+1Z8XfA/hnxFpOveG/EZj8W6XNo97FdQpM2Fu490bEBtxB29dqg06PvJ3+1dry5dLfO039w6nu7dLX/7e/wArw/E3v2r/ANrjxL+zr8VvBOlWOg2es+Fr60l1DXHMMrXlvbRyKskkRVwo2q247lbp26j6d0XWrHxFo9lqumXMd7p17Clxb3ELbkkjZQysD6EEV8s/HHR7PxJ+3J8JNH1GBbrTdR8M61aXVu/3ZYniYMjDuCKq/so+ItR+BPxO1/8AZ18VXMk0NkH1TwdqFwebvT2YsYc92jO7j2fsBSp+9TSe75mvlKSa+SSa/wC3hVNJtrZcqfzSs/vbT9V5npv7NPxy1z4x/D/xdr2uWen211o+vahpcEenxyIjxQY2Ft7sdxzyQQPQCvKfg58c/wBpP9oLwPY+NvCOifC7TdAuJpYltdauNRN0/luUbBjBVeQeTntWj+wj/wAkV+Jn/Y361/7LV7/gmf8A8mj+G/8Ar9vv/Sh6dNcyu+kKb+bWoSdl/wBvzXyTdjS8P/tWeIfBvxH0jwL8Z/BKeCb/AFqTyNI8Qabe/a9Kv5eB5e8qGiYkgANk8jOAQT9K18sf8FLdJsr79lDX7+4VRe6Xe2V3YzdHim+0JHlT2JV3H417vpPi7+yfhDZ+KNabyvsuhJqV60hxt224kkJJ9MGiPvQk+sXb1urr573+QS92UbbSTf3Oz/NfifFP7B2pf8J5+3J+1h4r2bUtdSj0pDuByi3E8St0HVbQH2zjnrX6DV8Gf8EfNG1C4+BPjPxtq3zX/izxTc3Zm/56qiIC/wD39aYfhX3nSAKKKKACiiigAooooAKKKKACiiigAooooAKKKKACiiigAooooAKKKKACiiigAooooAKKKKACiiigAooooAKKKKACiiigAooooAKKKKACiiigAooooA+O/wDgq98ND8Qf2Pdevobc3F94YvbbWoQpwQqsYZj16CKaRiP9n1xXuP7OfxatPip+zn4I8ey3MRS+0SK4vZVfckc8abLlSf8AZlSRT/umu48b+EbDx94M17wzqkYl03WbCfT7lCM5jljZG/RjXw9/wSd8X3/hnw58SPgb4ifZr/gHXZhHEylc28jsr7c9VEySNn0mX1pO9tBq19Tr/wBkL4YeFfj9p/j34u+OPCWi+J5vF/iG4k0z+29NhuzBYwnyolTzFbb91gcddg9KrftTfD/wz+zX45+Enxd8HeGdJ8Lafo+uf2Zrsei2EVpHJaXS7DJII1AO0BgM93Ffa1FWmoyg46KNvuVlb5rR+on73Pzfav8Ajf8ALp6Hyv8AFKRZf2/Pgg6MGRtA1Yhh0IMbc11H7YHwa1Lx94R0zxh4QXyviL4JuP7X0WWMfNcBcGW1Pqsijp3IA6E19AUVGqhGMXZxu0/Pmcl91/mNfG5S1TsmvKyT+/8AA+Pv+Cemuf8ACUfs+ePNYW2a0/tHxPq12LZusfmKj7Pwzj8K85/Ye/a1+F/wb+Aei+CvF2u3mmeLLe6upH0ldGvZ5SrzM6EeXCynKnPWv0Hoq+azdtnGMf8AwFE292z/AJnL77/5nxf8RP8AhKv26PEWgeGNO8K614T+DmnahHqGsaz4gtms59YMfKQW8DfPsOfvEYzzwVAbqf8AgpV8Srf4U/sa+NEjaKK51yGPw9Zws23f552yKo7kQLM2P9mvqevzo/bwuP8Aho79sb4J/s/WgN1pVlcr4g8Qqqb0EfLFGwflIgik6jH+kJ1ziloo8q9fV/0khu8pcz9PkfVX7FXwxb4Q/sr/AA28MzWzWd7FpMd3eQOcslzcE3Eyk5PIeVh6cccV7bSKojUKoCqowABgAUtIAooooAKKKKACiiigAooooAKKKKACiiigAooooAKKKKACiiigAooooAKKKKACiiigAooooAKKKKACiiigAooooAKKKKACiiigAooooAKKKKACiiigAr83/wBqSNv2OP29vA3x4hja38EeNk/sPxNImdscm1Ud254GxIJQB1NvIepr9IK8m/am+AenftLfA/xJ4EvmSC5vIvO068cZ+y3kfzQyeuN3ytjqrMO9AHq0UqTxJJG6yRuAyupyGB5BB7in18Qf8E1P2itQ8QeGdT+B3j0Np3xJ+Hpaw+z3LYkurKJvLVhnqYjhD6qY2ydxx9v0AFFFFABRRRQBieNvGOlfD3wfrXifXLlbPR9ItJb27nb+GONSzfU4HA7nAr4T/wCCZfhHVvi148+KP7TXiqArfeL7+Ww0RZAMxWiOPM2kdVGyGEHr/o75znNZ3/BQL4oa3+0Z8WvDf7Kfw1uGN5qFzFdeK9Shw8VrCvziKTB6RqBK4yMnykBySK+9Phv4A0j4V+AtA8IaBB9n0fRbOOytkJy21FA3Me7E5YnuSTQB0lFFFABRRRQAUUUUAFFFFABRRRQAUUUUAFFFFABRRRQAUUUUAFFFFABRRRQAUUUUAFFFFABRRRQAUUUUAFFFFABRRRQAUUUUAFFFFABRRRQAUUUUAFFFFABRRRQB8Pft1fsr+KpvFmlftAfBTdZ/FPw2A97ZW4z/AGtbICMbOjyBcqV/jQ7eqqD6/wDsg/tjeFf2sPBQubIpo/jGwTZrPhuZ/wB9ayDALoDy8RPRscdDgivoKvjD9qD/AIJ6w+PfGA+KHwd19vhl8V7dzcfarR2htL+UnJMuwEo7cgsAQwJDK2c0AfZ9FfnXp/7fHx0/ZyZ9H/aD+Cuq6lb2aMzeLvDEYMEyKSN7YBgJIBY4kjIGMoM1fm/4LW/BdbctF4S8ePPjhHsrJVz6bvtZP6UAfoLXyD+25+3FD8EbdPh/8PIf+Er+MWtD7NZaXYp9obTy44llRc5fBykffqfl6+Ra5+0l+1f+1oraN8HvhjcfCbw1csY5PFviVjFOI8AhkZ0G0HkHyo5WG4YZcZr3v9kb9g3wl+zDJc+Ir29m8a/EjUCz33ifUly6s/MiwKSSgYklmJLsSctjgAFX9g/9jtv2bfC2peJPFdx/bPxU8VN9q13UnkMvlbmL+QjHr8zFnb+N/UKuPqqiigAooooAKKKKACiiigAooooAKKKKACiiigAooooAKKKKACiiigAooooAKKKKACiiigAooooAKKKKACiiigAooooAKKKKACiiigAooooAKKKKACiiigAooooAKKKKACiiigAr80f2I7WEf8FIvjwBDGBH/bxQbR8uNYgAx6cV+l1fjf4X/aJg/Zl/bI/aB8UnTX1bU7q61zTNMtB9x7qTVY3UyEchAsbk45OABjOQFI/X9vEWlL4gTQjqVoNae3N2unGZftBhDBTII87tm4gbsYzWjXxR+xz+y54rvPGsnx4+Ml5d3XxA1MNLp+mysU+wROpXMijo2w7Vi6Ip5G7hftWRTJGyhihYEBl6j3pCHUV8r/s8/D+30b9qr4t3seravr8mjabpujyaprV41zPNcSq1zNgnCoADCNiBVGOAK1f29/Dq6n8Bdcv31nWLUwwiyttL068a3gvLq5ljhiM4TDSBCxITdtOTuDcYHfli1q3+u336W9RxSc3FuyXX5fp19D6TorI8H6BD4U8J6LoluNsGm2UNmgH92NAg/lWvVySUmk7ozi3KKbVgoooqSgooooAKKKKACiiigAooooAKKKKACiiigAooooAKKKKACiiigAooooAKKKKACiiigAooooAKKKKACiiigAooooAKKKKACiiigAooooAKKKKACiiigAoopGyVIU7WxwcZxQB4H+1t+1toH7MPhEMwj1bxlqKFdJ0RW+Zz082XHKxA/ix4Hcj4K/4J4+G1+J/7ani7VfiBpCXfiSxtdQ1yWC8g2fZ9U+2wK7mLoGVppcKR8pwRgqCPrf4J/sQX2lfGzxB8U/i5r8Pj7xT9uZ9GOwiCCMH93M0Z4VwMBYxlY8ZBY4K+IfsS/wDKST4+f9x//wBPEFBXQ/SqkpaKCTwD9j4HXNB+IXjJjvPifxjqV1C/rbwyC2iH02wfrR+1T/xUOvfBzwYpyNa8Y211PH/et7ON7l/w3JH+de/0U1o4f3eX/wAltb8gevP/AHub/wAmv+VwooopAFFFFABRRRQAUUUUAFFFFABRRRQAUUUUAFFFFABRRRQAUUUUAFFFFABRRRQAUUUUAFFFFABRRRQAUUUUAFFFFABRRRQBj+LvE0fg/wAOXuryWGoaotsoIs9LtjcXMzFgoWOMdSSR6AdSQBmuE/Z9+Nl38ctD8Ranc+Frjwouk61caOttd3aTyyNCF3s2wbVIZiu0M4yp+Y16NrmqRaHot/qM7bYLO3kuJGPZUUsf0FeNfsVaXPZ/s3+FtQux/p2um4124bHLPdTyTZ/75dacN5t9Evvb0/BSCXwxtvf8EtfxaJ/ix+0jP8N/H/hjwrZeB9Y1t9Y1i00htWkZbSxhecbvkkYM0zKgZiqLgbcFlJr2uvAPi1nxR+1T8F/DyndBpMGqeJblOuCkS28JP/Ap2/Kvf6I/w031b+7b80wl8dl2X36v8rBRRXzV/wAPHv2dv+ih/wDlE1H/AOR6QH0rRXzV/wAPHv2dv+ih/wDlE1H/AOR6P+Hj37O3/RQ//KJqP/yPQOzPpWivmr/h49+zt/0UP/yiaj/8j0f8PHv2dv8Aoof/AJRNR/8AkegLM+laK+av+Hj37O3/AEUP/wAomo//ACPR/wAPHv2dv+ih/wDlE1H/AOR6Asw/bi+OnxL/AGdfAem+MfA+laDq+jR3H2bV11e2nle33kCGRTHNGAhbKHIPLJ6mvyx+Fv7XXjH4R/G7xd8UdH03Q7nxB4n+2fbLa+gme1j+03KXEnlqsqsMOgAy7cZzk81+m3jH9vD9mLx74U1bw5rfjpbzSdUtZLS6hbRNR+aN1IOD9n4POQexANfmb8BdJ+Eug/tHxzeN/GUMvw60O7ku7e+Om3cg1YRv+4QxLEXQN8rMHXGFZe4NBSP2Z/Z88SeOPGXwl0HXviHY6ZpfiTU4vtbWGlQyxR28L8xKwkd28zbgtzwTjHGT6NXzV/w8e/Z2/wCih/8AlE1H/wCR6P8Ah49+zt/0UP8A8omo/wDyPQTqfStFfNX/AA8e/Z2/6KH/AOUTUf8A5Ho/4ePfs7f9FD/8omo//I9AWZ9K0V81f8PHv2dv+ih/+UTUf/kej/h49+zt/wBFD/8AKJqP/wAj0BZn0rRXzV/w8e/Z2/6KH/5RNR/+R60/DP7fXwH8ZeJNJ0DR/Hf2zVtVu4bGzt/7Iv082aVwkabmgCrlmAySAM8kUBqfQVFFFAjxSx/aQn1T496Z8OLbwPrFtaXcN7O2vaoy2sbLbEKzQwkF5ELsqh22A5yu4V3PxU+JB+GPhr+1I/D+r+Jrh3McVjo8IdyQjOWkdiqRRgKcu5AHA5JAPmPhT/iq/wBtbxzqOd8PhXwtYaOnostzK9zJ+O1I/wBK6T9rTxQ/g/8AZt+IWoQuUuW0mWztyvXzZ8Qpj33SConzexTj8Vn89Xb71Y1hFOu4va6/FJ/g2dH8EfiTP8YPhT4b8Zz6OdBbWrb7Uunm488xIWIT59q5yoDfdGM45613Nc38NfC8fgj4d+GPD0S7Y9L0y2sgP+ucSr/SukroqqKqSUNruxzU25Qi5b2CiiisjQKKKKACiiigAooooAKKKKACiiigAooooAKKKKACiiigAoor5p+CPxN+Oniv9onx1ovjTwZHofw60/zk02+a1aPzCsiiExylsTB4yzNgYB44xgkfely+Tf3f1oD0jzen4n0tRRRQAUUUUAFFFFAHL/FLwbP8RPhx4m8L22p/2NNrOnz2A1DyfO8jzEKF9m5d2ATxuFaHg7w1b+DPCWi6BaHda6XZQ2UTbduVjQIDjtwtbFee/HL45eFv2fPAN54r8V3nk20f7u2tIsGe9mIJWGJSeWOPoACSQATQtL262/C9vzYPW3lf8bX/ACQ60+FHk/HTUPiRPqn2h5tCi0K2077Pt+zIszTSP5m47t5K8bRjb1Pb0Cvn39jT43fED4+eA9U8VeNPClt4b0y5vWfQpYXYNc2pJxlGGSE4Al4D8kKMZPsl1488PWHi+18K3Ws2dt4iu7b7XbabNKElniDFS0YP38EHIXJHBPUUdFHov1bf5tg92+r/AESX5I3q/Iv/AIJofs4fDr9oL/hY/wDwn3h7+3v7I/s37F/ptzbeV5v2rzP9TIm7PlJ97ONvGMmv10r81f8AgjX/AM1f/wC4P/7e0FLY+lf+HcP7O3/RPP8Ayt6j/wDJFH/DuH9nb/onn/lb1H/5Ir6VooFdnzV/w7h/Z2/6J5/5W9R/+SKP+HcP7O3/AETz/wAreo//ACRX0rRQF2fNX/DuH9nb/onn/lb1H/5Io/4dw/s7f9E8/wDK3qP/AMkV57+15+0p8RvAvxUntPh9frF4f8D6Za614rt1tIZzdJPdRxiDc6M0ZERZ8qVOCTngY+ytF1e18QaPY6nYyrPZXsCXMEinIdHUMpH1BFOPvQ9otrtf15PW3owleMuV/wBbP8Lq/qj53/4dw/s7f9E8/wDK3qP/AMkUf8O4f2dv+ief+VvUf/kiuG8FeJ/jj+0F8TvixpWgfFmz+H2keEPEEml28UPhe21CSWMM+3c0rDHCjPr7Vs+Pfij8c/2WreDxH45l0X4p/DuORI9T1LSLA6dqdgGYKJTEHaNkBI6dzyVHNTFpqLel7b+eq9PmU01KUVq02vudn6nQf8O4f2dv+ief+VvUf/kij/h3D+zt/wBE8/8AK3qP/wAkVY/a6+P2q/Dz9muH4gfD3UrVpr+ey+x30kKzxtDOR8wU8Hgg81FD8Kf2kLGJr+2+Pmj6xcOu9NM1LwXbwWwOMhfMik8wD35NOz1urWdvnZP16om+kbPdXXpsM/4dw/s7f9E8/wDK3qP/AMkUf8O4f2dv+ief+VvUf/kitD4A/tI694r+IGt/C34maDbeF/iVo8AugthIXsdUtjj9/blvmA5Hyknj3DBfoWm1on0Yru7T3R81f8O4f2dv+ief+VvUf/kij/h3D+zt/wBE8/8AK3qP/wAkV9K0Uh3Z81f8O4f2dv8Aonn/AJW9R/8AkivjP4/fBTwZ8B/2/wD4GaB4F0b+w9JubvQr6W3+1TXG6ZtVkRn3Su7D5Y0GAccdOTX6w1+av7bX/KST4B/9wD/08T0DR+lVFFFBJwHw1+FP/CAeKPH+uzap/al54s1cakx+zeV9mjSFIo4M7m37QhO7jO7oKPjV8Kf+FxeF9P0KTVP7Ms4dXstSuh9m877THbzLKYMbl27iijdzj0NZf7RX7RXhb9m3wDP4j8Rz+bcSbo9P0uJgJ76bHCIOwHBZjwo9yAcP9kP4qeP/AIy/CdPFHj7w1b+HLi8uZJNNEBZftNmx3RyGNuUAB2gk/OFDYAIJFpy/3bW/7dtb8l69Q7+d7/Pf8z2+iufs/iB4b1DxhqHhSDWrN/EthGk1xpRkC3CRuoZXCHllII+ZcgHg810FABRRRQAUUUUAFFFFABRRRQAUUUUAFFeBeCf2wvDvxF/aI1j4S6DoupT32ii5/tHVpzGluhhIVhGAWZ/nYLyF7/j77QtYqS2eqG/dk4vdbhRRRQIralqFvpGn3V9dyrBaWsTTTSt0RFBLE/QA1+ZFx+0/4w/az8YeJntPjZo3wB+H2mHyrJJr6ODUb3OcOB5iSsSBk7WCrkABjk1+i/xU8JzePPhn4s8N2032a41fSrqwjmzjY0kTID9Mmvxv+F+k/D74IarqXhr4+fBLxHrWvrd/6FPa3VxAzAADyxGssaSLkbg6k53dxis4+9Ual209b/jb+uhttS5o7318l/wT7H/4Jv8A7QXj34keLPHfg7xL4gl8caHoiiWx8RzId7fvTGAXI3MsijeofLDaefT7yrw79kHVvD+ufC2W98N/DGb4V6Y19JFFpd1a+RNcqqpi4b5QW3ZIyS33fvGvca6an2U97L5+f9fmcsNXJra7+XQ5n4neKk8C/DfxT4ikbamlaZc3uc4/1cTMP1FfC3/BPv4neMZvgT8YviN4y8Ya94jg0yJltBrGpTXSwGC3eZzGJGO0nzIxx6Cve/8Agon4w/4RD9kvxmUcJPqYg0yPP8XmyqHH/fAevmDR1Pwj/wCCS9/cACC+8VSvn1cT3Qj/AFhjrkb9yvLyUV/ib/yOxJc1GL6ybf8AhS/zMb9jvUf2h/2gvhr4wtdL+J+o6FpdtdeZP4m1i4m1G7kkEQK2lv5j/uUAy7upz8yY759O/wCCXnx68ffEtvHWh+MvEF34ksNGht57a91GUzTxMzSKymVvmZSEz8xONvvWx+zKT8Fv+Caer+JNot7260vU9VVjxmRy8cJ/ELHXmP7Bufhb+xT8aviIyGK5mW5jt5D/ABeTbYjx/wBtJiK6qsvZSr2+xBfft+H9dTmgvawp/wB6bS9N/ndf1ax9Xfs5ftQJ8Sfh7e+LfHOp+G/C+n33iK60rw+Xn+xi7gjYLGCZpT5krHdwuM44WvoXOeRyK/Mz9kXwncfCv4wfBjT/AIkRW+p6fr3haS88GSMjCLTLyWQzyptJwZmRxmQjOWRR0r9NKqpBRS+a/wDAfdd/O6u/UlS5pO22/wAnqvkk7fJnmn7R/wAZf+Gffgx4h8ff2P8A29/ZH2f/AIl/2n7N5vm3MUP+s2Ptx5u77pztxxnNfEH/AA+U/wCqQf8Alzf/AHHX6VVxXxl+LOi/A/4b614019biTTdMiDNFaRGSWV2YKiKOgLMVGSQBnJIFYmh8Ff8AD5T/AKpB/wCXN/8AcdfKnjz9q6b40fHS08dfE7w6/izw9p7t9g8IW+pG0tYI8grGX8tywJALnaDIQOQoCj67+CvwV8X/ALeHxGg+Mfxjgey+H9q5/wCEe8LbmEU8YbIABwfKyAXkIBlIxwgAH6K21tDZ28VvbxJBBEgjjijUKqKBgKAOAAO1A9Efmtbf8Fi4bO3it7f4NpBBEgjjij8SBVRQMBQBZ4AA7V8u/tbftbTftQeNfDfiO28OyeDrjRbU28Qi1I3LlvMMgkVxFGUIPTAPTOa/dCvlP9qb9iU/tTfF7wrrOra9/Y3hbSNONvcxWqbru5cys2xCRtQYx8x3dcbe4ATR8t/sa/8ABQb4oTeI9M8Da/oGpfFK2mwkU+npu1S2jHBdmOFlQZGTIVI6l+1dN/wRr/5q/wD9wf8A9va+8PhL8EfBPwN8PLo3gvQLXR7Y4MsqLunuGH8Uspyzn6njtivg/wD4I1/81f8A+4P/AO3tAdGfpVRRRQSFQ3t5Dp9nPdXEixW8EbSySMcBVUZJP4Cpq8P/AGz9S8T2/wCzz4m03wfoupa54g1tF0iCHS7WSeSNZjtlkYICVVY9/wAx4BI5qJuSi+Tfp6vYuCUpJSdl19Op8jfBv9qD4GatoPxm1D4j+LlsNd+I2o3UU1qdLvZ2g04RmG1TfHCy5CktweMjvX0R/wAE6PidF8QP2b9O003q3934WuZdEedVZRJEh3QOAwDAGJkAyAflPFe7/CnwLbfDL4a+GPCloB5Oj6dDZ7h/EyIAzfUtk/jXg/gPwnr/AMLP24PHH2XRNSl8D+PNKh1RtShtJHs7bUIcqyPIBsRnAkb5iCSy10LljN0k7q1k/wDAtPvXN82ZOTqQ9ps73t/i0a+Tt8l9+X+xN/yV79pf/sdH/nLXuv7QkdhN8CPiGuqBTp/9gX3nb+m3yHr5X+E/jrxJ+zr8YvjWdZ+EXxH8RWnijxRLfabe+GtB+1wPEHcBmcuoUHcCD0xXW/E63+L/AO11pq+C7bwZe/Cf4c3rxnWdY8QXEX9p3cAbc0ENtGzbM4GS5wc46ZB5ZRdahGEesYr091J39DojJUsROctlOT9feb09Twnx2183/BKLwKb/AD5v261CbuvlfbZPL/8AHNtfpZZ/8ekH+4v8q+W/23vhHf3X7Jtr4L8BeHrzVf7MutPitNM06IyyiCFgOAOuFHJrXs/2tvEWtaeYPDv7P3xSuNUSPakeu6VDpVuz44zNJKcDPfaa65VFP2rXWbfycYnNGDiqSfSNvndnIfHRUj/4KFfAJ9OAGpvpuoLelPvG2Ecm3d7Z8zGe9fYVfN/wD+BPi9viprfxk+K8lkPHGpWwsNO0XT5PNt9Gs858oP8AxSHuRxy2Cd3H0hWaXLTjB7q7+9t2/H77lyfPUc1tovuW/wDXQKKKKkAr8sP+ClHjL/hXP7bXwv8AFn2P+0P7B0nS9U+x+b5Xn+RqV1L5e/Dbd2zG7BxnOD0r9T6/NX9tr/lJJ8A/+4B/6eJ6BoP+Hyn/AFSD/wAub/7joP8AwWUPb4Q8/wDYzf8A3JX3H+0D8cdF/Z4+GGpeM9bguLuC2KwwWtshLTzvkRpuxhASOWbge5wD8e/s8fs7+Kv2tfiBF8c/jnEX0diJPD3haVSIWhBzGzRnpAOoU8yn5m+X74PQ+Mr39qo/EH49J8SPip4ZPj+3tTmw8NrqH2OytgGzGmDFJujXklcDe3LEjIP1Wv8AwWSCKFX4PhVUYAHiXAH/AJJ1+lSqEUKoCqowABgCloC6PwR/aJ/aS1D44fG6T4kaVY3PgrUfJgjgSz1FpJYGiTbvWZUjIJ9gMetfaP7EP7fnxJ+IniSx8DeKPCl/48LFU/t/R4VW4tEJxvugdsZQf38oeOjsQK9W+Mv/AAT7tf2g/wBpLUvHfi3XHtPCv2a1hi0vTuLm6aOMBt8hGI0zxwCx55Xg19QfDv4Z+FvhN4bh0DwhodnoOlRciC0TBdv77sfmdj/eYkn1oBtHT15V+0/8bE/Z8+CfiHxoIEu721RYbK2k+7JcSMEjDf7IJ3HHOFNeq14Z+2j8DdS/aD+Aes+F9EeNdcSWK+sVmfYkksbZ8st0G5SwBPAJGaxrc3I+X+l1/AulbnXN/XY/MLUPGngf4rfDvWfGvxQ+NnijUPinL51xpfhzTLWcW1pKMiJSzR+UoJAP7t1Cg9zmv0K/4Jv+JPHfij9m+0u/HMt5dst9LHpN5qBZp57IKm1izcsocyBWPUAdgK+V/gzN8UfhNpth4Xn/AGP9L8QeKdNTy4fE0+jLGXwThpLjy2R25xuWQZA/Gv0u+Ht5ruoeBdAuvE+mw6P4imsYX1DT7dg0dvcFB5kakMw2hsgfMfqa7VyxjLl2dl5eqW99LN/5nPK8nHm3V35+np2Ogr5W/wCCg37UGqfs5/DCwtvDLpD4s8RTSW1pcuob7LEigyzKp4LDcirnjLZ5xg/VNfG//BSD9l3xP8fvCPhvWvBtuNR17w7JMG0zzFRriCXYWKFiAXUxqcEjIJxzgHjqbJPa6v6f1+B1Ubc2vn9588/ET9irxR4V/ZzuPjR4h+JviB/iVZ2UerSLNdsViVyp8kSk+YJMMOQ2NwxjvXrXgf8AaR17xl/wTV8aeK/E13JPrtnZ3ehf2hJw9yz7IopCe7fvlBPcqTXA+Pta/ah/a38A6Z8L5vhXN4IsFeGPWdZ1JJLWK58rBDfvQCI9yhiIw5JAwccV7V8cP2StU8P/ALCTfCnwBE2sarYtb3cyKQj6hIswlnIyepOSq56KBWlb+HVX2ZWUV5X1fpb/ADM6TftKTb95ayfy29bnNf8ABOm1i+Ff7FfirxvdYjW4n1DVTIf+edvEEH/j0T/nXlv/AATk+F9t48+Bnxz1LWr+40+z19P7KuL+3K+bHGsTyTlSwIyRMOuar6Jp/wC0TqH7F+pfDG3+F974Z0nSbaWO4vpIJW1HVEact9mgswu/LM/zScqUDEda97/ZZ+Cfirw7+wHrnhZNKudD8aa/Z6q62WpRNbTRzSh4og6uAUJVE6gcEGrr6/WJr+RRX9eaX9XRNHRUoN2vNt/n+Df9anxx+wf+xvoH7Tlx4q1XXtR1PT9J0O5t47UWZjBuGYuzLJuQ8BVTpj71fc+h/tMN4f8Aj58Z28WeKItG+Ffge30/T7e3e0QgXkygsVKRmaRsqyhAT1+7xXkP/BNPQfi18I9a8QeA/FHw6vtC8NyySalNrWoWskbeeEjRYo3+5IpAyCuejc+nC6P8GfiLpOtQ/HC/8KeI9a3/ABIn1C88C3GkSvMbNiVS8FuU3s6bjtJGF4Ixya1b/eQhF+7b8W4xu/xt9+yI3jOUl71/wScrL1sl82vI/TfRdYtvEGkWep2fnfZLuJZovtFvJbybWGRujkVXU47MAfairUUgmiSQBgGAYBlKkZ9QeQfaisXvoNbD6KKKQziPiH8Nr7x5cWUtp488U+Dlt0ZWi8Oy2qLPkg7n863lJIxxgjqa5H/hnnWv+i3fEz/wK0z/AOQa9lopbDuc54D8IXHgrRW0+68S614rlaVpft+vSQvcYIA2ZiijXaMcfLnk8mujooqr3J2CiiikMKKKKACquqaXZ65pt1p+o2kN9YXUTQz2txGJI5Y2GGVlPBBBwQatUUARW1tDZ28VvbxJBBEgjjijUKqKBgKAOAAO1S0UUAFFFFABX5q/8Ea/+av/APcH/wDb2v0qr8sPBv8AwTX/AGkvhz9s/wCET+KGh+F/tmz7T/Y3iDUrTz9m7Zv8u3Xdt3tjPTccdTQNH6n0V+av/DEv7YX/AEXz/wAvLWP/AIzR/wAMS/thf9F8/wDLy1j/AOM0BY/SqivzV/4Yl/bC/wCi+f8Al5ax/wDGaP8AhiX9sL/ovn/l5ax/8ZoCx+lVFfmr/wAMS/thf9F8/wDLy1j/AOM0f8MS/thf9F8/8vLWP/jNAWP0qor81f8AhiX9sL/ovn/l5ax/8Zo/4Yl/bC/6L5/5eWsf/GaAsfpVRX5q/wDDEv7YX/RfP/Ly1j/4zR/wxL+2F/0Xz/y8tY/+M0BY/SqivzV/4Yl/bC/6L5/5eWsf/GaP+GJf2wv+i+f+XlrH/wAZoCx+lVFfmr/wxL+2F/0Xz/y8tY/+M0f8MS/thf8ARfP/AC8tY/8AjNAWP0qr81f22v8AlJJ8A/8AuAf+niej/hiX9sL/AKL5/wCXlrH/AMZo8G/8E8/jz/wu7wJ468c/EDQ/Ff8Awj+rWF3LNfa1f3l19mguVmaKNpbf/fIUsBlj0yTQM/R3WtE0/wASaXc6Zq1jbanp1ynlz2l3EssUq+jKwII+tXFUIoVQFVRgADAFLRQSFFFFABRRRQAUUUUAFeZeL/2c/A/jrxDda3rFvrcmoXW3zWtPEup2kfyqFGIobhEXgD7qjPXqa9NopeY7s8a/4ZF+Gn/Pp4k/8LHWf/kuvV9D0W08N6NZaVYLIllZwrBCs0zzOEUYG53JZj6sxJPUk1eoqru1heYUUUUgCiiigAooooAKKKKAP//Z;imageBorder=#00CC66;strokeWidth=5;" vertex="1" parent="1">
          <mxGeometry x="710" y="130" width="176.12" height="260" as="geometry" />
        </mxCell>
        <mxCell id="kqIMAGAX-EFwgYahWS3e-3" value="" style="shape=image;verticalLabelPosition=bottom;labelBackgroundColor=default;verticalAlign=top;aspect=fixed;imageAspect=0;image=data:image/png,iVBORw0KGgoAAAANSUhEUgAAAqwAAADxCAYAAAAOTeUwAAAAAXNSR0IArs4c6QAAAARnQU1BAACxjwv8YQUAAAAJcEhZcwAAFxEAABcRAcom8z8AAIb7SURBVHhe7d0HWBTX3sdx7r1veqJGk1gSY4xRo1Fjr7EkakzUxJLE3nvvvfdesaOogA0VG4qiiIhgRwEFRHrvvZfd7zuLq0EFK+gq/0+e80RmFrbNmfObM2fO6CGEEEIIIYQOk8AqhBBCCCF0mgRWIYQQQgih0ySwCiGEEEIInSaBVQghhBBC6DQJrEIIIYQQQqdJYBVCCCGEEDpNAqsQQgghhNBpEliFEEIIIYROk8AqhBBCCCF0mgRWIYQQQgih0ySwCiGEEEIInSaBVQghhBBC6DQJrEIIIYQQQqdJYBVCCCGEEDpNAqsQQgghhNBpEliFEEIIIYROk8AqhBBCCCF0mgRWIYQQQgih0/I9sMbFxeHn54eHh4cUKVLyqWjqmNQzKQW1eHl5ERAQgKenZ47rpUiR8uqKpj6GhISgUqm0STBv5HtgXbhwIV999RXlypWTIkVKPhVNHZN6JqWglrJly1KqVCm+/fbbHNdLkSLl1RVNfaxVqxbh4eHaJJg38j2w9u3bl8aNG3P58mUpUqTkU2nZsiVNmzbNcZ0UKW972bBhA0WLFuXQoUM5rpciRcqrK5r6WKJECXx9fbVJMG/ke2Dt168fPXv21P4khMgPgwcPpnfv3tqfhChYbty4QYUKFYiKitIuEUK8Lpr6+N133715gbV///506dJF+5MQIj9ozmR069ZN+5MQBYutrW2+NJBCiOeXX/VRAqsQbwEJrKIgk8AqhO6QwCqEyJUEVlGQSWAVQndIYBVC5EoCqyjIJLAKoTsksAohciWBVRRkEliF0B0SWIUQuZLA+nZTq7X/EDmSwCqE7pDA+hTqtCTiosMI9vPGy8MTL98AgsOjiElIIT1rZ59JmubfmSpez74/jaT4GKLDgwkOCSM87v7ruk9FWmIcMbFxxMVFExkeTkR0IqmZ2tUvQ51OclwssXFJyt+Tli9H6kzS01JJTs14TdvHy3lVgVWVlkhclFLPfO/VM2/fwMfqWeprrWevmhpVhrLdJKeR8RJ1S5UcQ0SQH16e3vgEBBMaHk1cUgrJYb4EBYcQlqp9YBbNc6aQEBOjPEZ53jfmg1aRmZpKanIqGdoleaUgB9Z7dTKc0JAQQkNDlf+HEhYRQ3yeNB4FibLvUrbPpOQnf26qjDRSk5S2OjKU4IAAAgOVEhBEiFJnYxOSSXto33dv/5CktOkRIYH4BfjjGxBKeHQcSWmZqN7SnaQE1txkJhHjeRWrA5tZMXskPZvVpEq5CtRo+jf9Jy5k1TYzTtpd4LzVUbYsOszNkARls3zFVImEu9pw2Hgr62cOolunv2g7fC37LvmTqFmvBMrEAEcuHDFmq5EpB/ZvYdm0MQwbOot1h6/hEf+StzcLt2P7hAH0GLGOw3eynlFkURrQzBTiw7y4ZbMfw23b2Whxl4Q3cD+f74E1M5Fozyuc2b+Z5bNH0LNpjax6VrPpP0o9W8TqbYc4aW/H+TNH2bz4CI6hr6GevTJq1CqlcYsPw9fJmuN7N7PY6AK3Q1K065+DUvfj/a9juW0eo/9pSfXva9K4Q1+GjpnB4g2bWDlxLMs2HcQ+Rvv4LIlEXDdhRvc+DFtliXNU3t7+MG8pDXZmBikxQXjeOIPphm3s3GnD3XTt6jxSIAOrOpV4P6XdOLoD/fmTGTdqFKPHjGb0yDGMnbqCDaZWXHYPJ0mXNw9dknab47v2sHybI/HaRTlJDvPE5fx+DOYOoG21LylevAQlv2lB18kbMDa/wt3IJP7dvJW2PcwVuz1rmdGjEV+VLM2X9fsycf0Bzt8NJy6P64GukMCakxR/bu6ZxeBf69Cw83gWGltw3v4KV69excHJCWcHW05sX8So9jUp/eV3lGqxihO+idmOfl6BzFiCr+xk4pSdHLB1J8jnNlZr+tGwTD0a9T/A7dQUwm+eYMvklZhedMU7NJyI8GACnPazuF11vqvdlQmWIdo/9iLUpLvuZESdr/mgfA9mnXmZv/WWSQ/Hx/USJzbPYuDPX/P5d41ovf4G0W/gUW++BtZkP27smcnAlnVo1HkCi0xOZNWza1n1zBmnrHq2UKlnNZR6Vp4vW67mpN8rrmevkjqZ+BAXbA/vYPmAJpQtU4pS/Qw565+mfcCzUhF1ZTszerejycDV7LG6xLVrDjg6XcHm6BYW9P+Z7z76ijq9NnA6+x0OMyPxPDiORp+VpFQHfY77vEBQfmWSCXO/ydXD+kztVI8SxarSuNcebj7vR/UUBS6wZoThfnwtE/5sR49RK9hh5YCLpyeeWcUNx/P7WDu+D20bD2TOrqv4pry1tTHPqDz3MLldW2r8uQm7WO3CHKjSU0iKDSf42m7m/VkcPb3/ovfjFAyv+BAaFU9yema2fZ+azPQk4sLucs14Eq0/r8xv0w9i5xNBbHI6b+sJTwmsj1BH3uTEvM7UKleOCn9OY7O1KwGxj55oyiQp3JMre6bQocrX/F+l6RjdjnmlPT/p4faYjmxB1T5bOe6rfeZo5YjL/CQWl/wI97dl18zuNBpqgn1E9leWTPClI+zdd5QzXi/XK6pK8OHykT0YHbDhRuhD5xZfmdQAD7wcbuCpPL3O1FFVCgmxEQTd3M/8dqXRe688jdc6EPUG7kTyK7CqI25yfG4nair1rGL76RjY3CEw7tF6lqHUMw8u755E+8pleKfyDIxdYl/DmYwUIq9fxCUwgoc6JPNcJunJsYT53sRqWXu+ePf/ePefjZwKeM7ukphrmAz/nUrl/2DoAa97Z1vuS40i0GEnkxrX4Zd/FmHmr12uoU4jIeA6J4yM2XfOjYAkXe7LziQlLorIgMvsHdGIknpFqPjXbm5IYH1xaYE47ZpKxyo1qdNxPsYXfYl89PNUxRLseIT1/X6jevnf6bP6HO4ve6YuiwpVajDXbF0JiniNZ+vi3XF0c8c5KK8Gl8Tium0YLT/8gP9V6sFMm/Cn779ir7F3XA30/luUT9rtwD5OuzwXSR6WbG4/gHXWfsqzvd0ksGaX6sfVbQOp9en76H3VjVlWITxx/6fy5vLm8TSrrATWa+G8usiWRvSVDfT/tjgle23h1GOVK5OQkwvoWbUc3888i0eydvFbJwD79etYOGY31/O4ocoTyQ7sGl4HvUKV+VlfAusDSj27YjCAmkU+QO/rbsw9F5btVFcOMr24uGEczX5QAuv1iFdYzzTSSfY+g36PxZic9eTV3KAzDj+z0fxQrBCfdNmE5XMG1mTHLQyt/Q2FqgzHwC2nhjeNkMPzmbRgDRtvvuk7h2gclv9DTb3PqdJpjwTWFxaD75ml9Py+OO8Xa8fEYz4kaNc8LpOoK+vo/90XFP6yHSP33SLkZT/3jHC8zqyix/zDnPPO/ZnzVxzue+eyZM1Ojvnk0XiHaDu2TvmT8np6/N97lWk00RKvp2Xh8EvsGnMvsH7cbhvnw5/04aqJ87JhV+/R7LDzI1K79G0lgfWBDKKvb2Nq7SLovVuBhlNP4/3UljGThLs2bO6zlMPOIcrm/qokE3x0ArUKFaZoz+3YRmsXPxCHy9YB1PqoFDXmXyBYuzRHb+xlwokE2y2nV+3faPrXfu5ol+qUmEtsH1xTAutDlHp2bSuTa2nqWUUaTT+D71PzWAYJ7tZKPVvGkVuhT2hI8546+iqHZv5D5a9Gstoq9NX04mdGcHfvMCoVfbHAGnNeqRfVPuG/ZToy8UQwOTa9MVZs2rGL1ccCtAveVCFcXNSBH/W+kMD6EtKCbNjeuxIf6hWiVOdtXAh/SqpKusPpGc0p9t+PKdpwLrudYl7igrdUoq8YMuP3KpQeugvrCO3iVyqdaEcjRjeqS8uBG7DOk8Y8gzDzlSxfNI7+vdvx0wcfUqTOOAxck568Hwm/iMno6vcC659bsXliYFUR63GWnd1HsPW8D6/lo3uFJLDelxGA7aruVP6PHu998zdTlMbpWZqJzMQIfE6fwTks9uFTb8rGmuh/gwuWJzC3OInF4QPss7iIU/CTejTiCXK24bjpbow2bsTA9DQXfeL+PYWgTiI20IVLVmbsnNKaEh9/xActJrDygBW2589h6+yCy507uNmYsGrgT3z63heU7b2SPZbKOtvznD9vg7X5Hgz0l7BwyVZ2n3QnIqfAqo4m0NGWM5anOGFhjvnxM1y4E06SdvVD1JF4ONzilmuIEqMflUG8rwM2xw6wa8sGtuw4wImbgY8He1UK8ZGBeN28wGXXACLTVKSH3eS00QZWL9rAnrMuBGY/eEgOw8fpMKt61aPkf7/gmxazMTxzjvP213AJSSL9iQfH6SQGOWN7cDNLlixWihGHzrkSkHj/Kv5M0mN9cDx9COPVOzh43o3AxOwncZSDFH8nLtvYcOHqFS7ZnMbinDN+cTmc6HkosGrHsGbEEup5FUvlva1cvIadJ53xzxoqmEFqrB+ul0+wd81yli834oSTEs4efS9poXhctsTMZCc7Nm1hx7GL3HriDu3l5HlgzfDn/PKuVNJT6lnZTkyzfkrvqlZmgqaeWT1ezzKj8HOw4dTx41hYHufwfjNOXnQn5LGDTRUZKTHKZ++E0/Wryt9RnjU9Aq+LR9mxZDlrDY5h7xv/b6OrTiExxJEzhhPpWLYI//3kNwasPIClzfmsbTQq6+tWKY+5w23HaziFppAedZerx43Q33UCa/dHeoLTw7h75SwnzE9y5tRRDuw7huUVbyJzauVfMrCmupowpUUJ9PRKUPnvpZjeisrhMw7jtvMdHG4/3mesivPHyc4Fn9CEfz+P7DSf2+UznLQ05+A+M46fvY57ZA6vUZ1OUnQQ/u7XOau819BkpY7FeXL10BZWrlzD+mPX8YzJ+QSpOtoTJ3tbbOyvcMXOGstT9jgpdfvxqi2B9eUl42+xkO5f6Cn7quq03ehA8FM/R6WtOjmVukXfVbazRgzcpvxOcjKJflc5vXcji5asY8t+RwKz/o6K1OgAvK+dYvf6lSxeYszRi4H36nFqDCGOx9g2/le+efcdCv06gVVmVticu46rf7z2+9bUs7u43bqp7OtSSY/x4db5o5isW8/WXeaccw17sJ9UZyQQ7n6Ns3s3sHT5ClafUPbNWStVpMQG43HpJHs3LWGJ/nb2XA+9V0dVsfg7WmA0pgVl3v2Mr34ex+rDZ7G2c+Cmz0sMQUp3Z9+0OazcehJn5/3MaVoMvY9r0HaNg9Luah+TEwmsuZLAel/EOdYPUDYSvXcpVWMKu++maCvLU6gyyUhOJCUzM9vjI7lrb4Hxuo1s27kDQyNjjDYvY+7saYwdvZydVh7aBu9fGdGB3LU+yuFDuzFYs4xFU4bSp/Nf/NF3LutOuROm2WbV8UR4XsHCdBtrR7Wg5Ecf8kHjIczeasqRQwc5ouzcL1+/zrX9K5nyd1X+995nlO40h017zThy5DCHDh3igOEsetb8RHmfn1G1+0Fc7j29lpqMSGfOWhxhz04j9uwyYcfOzayYMoheXccwb+clvJRgps4Kfbe5bG7E+nkj6NJ+HNO3Xn94fF+GskO7fBrLY/vYvmUdS6ePZ0TPv2j9zyimGtpxN077aakSifK7ifXOeQz943e6zTTA9Px1Lh3ewuIRnWhZ6XuqNejC8E32eN6/zD7RH9dLe5jfoTpf6RXmmybjWbnvIIdPWHHZLx4l7z5BKnHeNuyb8gufKaFJT68mnReexjU+TRtYleAYfYNjS0bR6usOTDa6iMf9sZVKkPCw3MXmeQtYYWjGsdOWWOxdy6zxExm9xpKbIckP79xyCqzpkfg5H2N1p+/5UO9/lOm0Eaus8zhpJEe4c/nwIvpXfF95XeVpv+4q2bNKUsAdHC0PYmpqzIYlC5g3th9d/urM36PWs/d6MHkylOwReR5Yw63R76epZ+/xZc1p7PV4/nr24DNWtlU7JSCuW7eVHdu3Y7RrO5uXzmbW5MmMXniAs573GzzlO00K4a6dqVJvuvHX3wOZffAiF63M2a8/jYEt6lO9XA2a9luD6c3Ie8OAlIPDOL+LHF43ij8/+4D3P2hK9zlb2XPoMKcu38DF253rFjtZNqQLXTsPYM4BG6wOrmfmH9+i934NWi86i7f2hSYHOnFhzxY2bdvOVkNj9pgYsHbxfKaNGc/UjebYBT5ycdNLBlaS3Dm9TDn4LqTZvotTqd1Elh9xwDP6kZ1ONup05UDK1Z5TJquYO74vbf5azp6rIY8F3fSoO1wzXYf+uk0Y7DJk3ZJJDOvchV7DF7Bhz3FOnTqL3TV3ghLTSAh25dqhVUzu2YaGg9ZicvI8N633sH56H1o3rMLXNdrRc/4xHKOyP0sykbfNMVy3hFmrTTh04jSnzXewatIERk/ajuXdGFIfauwlsL60TB9sV3WlrLI//LB4e2ZaBZH4pECVJZWEmwb0KV2Y/yltSaNpR7galkDcneOs6VGVd5V9W9EGazkXq/lDmSSHeeByeiX9Kn6QtW/7dbrNvTN/yeH42e9Bf+QvFPvgQz5sOoy520w5dNCKq24eeLraYbZxMVMGdFLqWW/GGxzl6KE9bF85jSFtG1Pvh6rUbjOCBXtvEqjpMUmPIdDhKJv6/ag8j7L9d9ygrT+ZJEX44HhkKX1rakL2V9RcevXeWS9VBO4XzNg0pDFlPvyUUo0HM8fQlAPm1px3icz5oO2p1KS6bGHiVH3WWioHhWovTsz7jS/0PqZk86UcC0jNfb8ngTVXEli10pyNmNj6M2VD/oLvmm/kfPQLtv7qBAItVzGq6xCGrrTPdjo+k0SXvcxoVJWKDQYz/5QH0ff30yn+XD+6genTNnPK/36/TBK+B8bSuFhRPqgxno1Xs1/UFY3XvqFU/LQwhXtuVzZo7eL70j04rVSODz/6mmpzzxPwUDsViu30X6mgVNg6A47ipl2qqWCquDucWTKevpMMMbv97/DtGPtV9C/9nhK8OjD9bAjJaqVRcTrO9vFtqPyhslP4oAVdtrr82wObmUCY034WTFzMdrt/B4InOhowvGYp9D5vw9C9HveOsDOjCXC/xLE5f/LNR8Up23YMC7Yfx9LyKncDPXA8toh+1Urybpk+LDkfnG1HGsalBe2ooleKGr0PZ3sfz0JFmvdBZjYszTv/ac6QnbcfHpuYGYSLlSHjJx/H7UEPkIpk1+2MqFKO8o2msOf+xSrp3tiv6U7p8l2ZfNidmOw7+lyHBMTjtr0XNYuU4vueWzmffeBRzHX2D61F0UK16bLJgaD720jCbU5sWcqMJaZcu/+Bqv25vOJvvnmnBKXbreP408ewPLe8DqypTjuZ8LumnhWnfMtN2Ma8WD1TJ7hjuXgoXXvPYPWlbLtpVRi3do+l4de1adBnM6e9E5TQlU5CtD+3jq1gSIOv+b9iDem+1AiTPWe4eusuPl4X2D26CaXer0DdkQdxzpYfUz33MrXCp3xcpC/LbMO1jUw0wW7W7JzVg6ZF3+GdIsrfW2CIoekRzNZNptsvvRi7wQ4fZdNJj7zKgTlD6dxjHqZ3s52jUAVwZW0XalWsTaNRu7APzXZ+4mUDqyLNzxaTSX9S8XNN46zU0S+b0XnyJswue907+H2EKjkIV4v1TG9XiY80j68ymY0OD/e+qlN8uGgwkU4/92GZ/f1gf5eTk1rwjRJQ3vvuN7qOWcSmXVY4RSYR6X2dC1uGUP+T93iv/kAmrzXB0saeGz7+eFzYysSfv+ODos0ZsN+D+8evys6GzV0r8mG1Low8df97jcPbbCbtS9Tkj+W2eCZnr2QSWF9a9CVMxjdUtpP/UfjLgWy8Hv3w2YEcqUjxOcysqsX4WO+/fNZzPUd9Nd9LMi7bBtBUrzBlWmzGNjZ7/XbhQI8fldBWjT/m2WVrG6O4u3sQ5YsU5tM+Rly4vz9UBeJ8cjPj29RW9nF6/K9wbf6ZtoaN+89x1eUud53PsHt6e2p8/B4flOvKDLO7xGdtGpr2cVhW+1iomwFWD3aiikQHdo+sh94n39NkzXUiH7y8RNx39qXOpyWz9sm2Lz0kIAKH1eOYpm/K6VDNz2kEnVlG7y/f43+fKtv8XndyjRgSWHMlgVUr0nYlQ+v9n1JpS1H+921cvLflPyc1GQFHmfNzXWo1n4aJ5yM9GuoYvPeP5qfin/Nps9kYOd8bjZd0bSfLNfOZ7vV+eEcRa8XiX0orr6kirWbbEHB/A1eF4757MBU0gbX7Vs4GP3IMmOzGyTm/KoG1NFVnW/Pw7DT+nJ3SkvJ6pak7MFtgVUXhe3IhHeuOZLHZnYd7SzWN7rSO1KjbjSnHvf/tyQs7yYJfyqL3jtIYbvs3sGaGXVOOJrvTdqU1Tg9dtujJiUm/UFg5yizd1gD7B59xMsHmE6j7dRHebTaV7U7ZRinG3sBsXGM+LlyLduuvoByYagVjN+8PftArSfWeB7mVW+XPTUYQN9Z1o9In5ag+bC8Xs805lel3kTMGc5llHUTCg482nTCrRXStU5u6fTZlG2cVhcfukVQqVpu2K2zxzv5Z5xpYY7i9tSc1lMBaqdfDgVUVeYW9yu8ULVSHrpuVwJr1/JmEnZjPqHGTmWT18IBlldt2+pf5SNlGWjB8l2uej6PO68AacV4JjXX/p7zeL6nQxpBLCS9SzxLxM5tAs3ItaDnWAi/t0vvUcQ6YDm7AF+9V5pfZFtxK0j5HsBX6vX9Ar0h1/tC/QvCDbUlNtPU82nxXksLNprPL4/6XriLxzi4ml9cE1t4sORf8UP1MctnD7BbF+U+RBnTUv8q9aphGTHA4UXFKI6OK5Mam/jSr0ZgWqx2UZvQREWdZ07EiH71bk/ZLL2i/a0UeBFaNjMibnFw5lD8rfclnH/5H+cz1+LhGV8ZuPotzeEq2A+D7kog6v4Q/PiuEXqUJbHgosKpIcNzJ1Ba1KN54DadC/31NSdfX07v6V7xXfQjLLmev8KnEX11H1xJF0Cvdl/lnA+6F3Cw+nF/Unq/fKUWFcSe4c7/eeB9meqtqlG4+njXX/92ao+1WMuDrzyjdWwk0D42vlMD60vxPsrpfRWX7eJciX43A0Cku2/eUG+WgP/AEi2sVo4jmAKfVbLY6a34rkVsG/WmiV4RvWj4SWDOd2de9mhJYf+TP+dkCa2YYrsYD+E4TWHttxybk4S0z7qYhE+t9zrul2jDuqO+9jo77kpw4MKopxf9XiO/+XMvprEoWiceeIdr28ZHAGncV46wLYSvR9KHAGourYW9qK4G1YvctnHupq5fUqMNPs2jAYjbsdX7QGZIZYoPhgB9457/Kc/Qy4XJOw2g0JLDmSgKrVrTdGoY1fE+ptCUo32oLdlmnMp6Xpld0FI0/+54fu+zgymODPlVk+h5kWv2S/Od/Teiz5TZJ6hRcDCYxoHFHpp30JiImmujoeyUm6jImfRtQ7oPi1O9rhP39tkCp4Hd23Q+sj1RIjSRXLGZrA+uss3g/NLjUD6vJLR4LrKroqxwc+RPlOizD6PajsUczCb4Prre049C0S4mxYVWr8o8E1jQirhkxs1FT+q5TAmtIDDHa9xMd44Xt6j40+fBDytSZgpFbsvZvaQLrROqV/pxP/lzCwexXaMa7YDGnhRJYK9BgkTWeD7JsEBfm3g+sB3B+vPV9igySb21j8A+f8873g1h0Pkz5djRS8LtwDMOJ67BWdhTZm0bN+LvrVmexvu57r9c4I5mESDfsN/Tju6IVqDf7JK7ZP7pcA2u0slPvkWNgzYy4zJ5B2QKr5n2p/bGc0JUufwxn7dUIYrNtI5GeR1nStBzFP/yBjgvPcjePG+y8DqxRF1YztIGm108JKr8rBy1xL1DPUp0w7V2bYp+2pFv2nv0HYvHZP4q6xT/h/xpNY+tN7XTdWYG1KnpfNKKLyR1tb8w9SZdX8lfVL/hP3RHo33xw6EWCmwmTtIF1sXIAk/14JNl1D7OUA8oPS//FLKuwx3ulIqxZ3ak6hb5uzaiTOc1THM71Nd2o/W5hSv22GDNf7XavBN28CKxZ0mMJvn4Eg4kd+aHkx7yrCRd6SpAfZYy1cvSXffvOCpiX9elc/NMcAmsSPoen0qF4KUq138nF2GwVLukyWztVodAXzem1xzPbMAJNYF1Pt5JF0aswhrXXsv+9IK6s7s53StAs1WMv1+8PQsxUwobdGU5fuI2vJpmoNXfyC+XO0dl0KVGUT39fh0VQ9k9aAutLCzyN/sDK2sA6nG2OzxhY/c2ZX6MYhZRt6j9t5rPjtuabT8B5Sz8a5xRYM5zY2y2HwJoRiovR/cBqyLlHOmBSXHcxo9lXfFSmE3NtIh55bSoirBbTqUJh3qnSl8VXNTX0CYE19gpGw3IKrDG4bLsfWDe/3IVfqniCLRbQd/lBDntmfy9xeCoH2k0/ep8PS3Zn4TntON5HSWDNlQRWrRRnIya1/lyptIX5puFiTgS+yK00g7Gf9weV/lOWBv0P4JRTO5PsgElXzWmRr2k28TS+CZ6cmtKZ6p/Vp8vMdRhs24bhtq1s3aqUbZvZsGoJC2fPYcUuK66HaRuJPA+sapLu7GFG9RJ83WM95s/aQEZZs+LXRwOr0tjun0GLYlVo3ncWK7ZsZ4fhtnvvZ6sBm/RXsXTObBav242F+/27FiUTdGxCVmAt1H4ZZppzqffF3eaEJrAWqUD9hXkZWBVpLpiPacqXH9Sizdyz93rqMty5cHQ7U9ZcJtcLZTPTSUsMJ+C2LRbbFzGxayM+K1SeBvMs8zCw1qXrlhsEa3aoCedZ2a4ZVb79jSHLt7Jd+Ty3ZX2eSjHYiP7SRSyYu4gNxxzwfNKtVF5AXgfWlAdDApQG7aelSvh4gXoWcoLZDb9G7+M2DDDNHpDuSyfp+jo6VyiCXpFOTDzicy+YBZ1hbS9NYP2JrrvdyX6dXMLFFXRUAqtevRGsfcbAmnhbaUh/Ls1HX//DPJvHp7VLv72d4Y2/RK98Z2aef/j0+j0ZhFrMpN237/Gfqn2Yd0HbB6sEVo+8CqxZVKQnBHDrpD5jm36T1SP2n3eV0Dp2L7bh2QKFUg9jL66hU46BNQHP/eNo/c7HfFFvORYh2V+TJ+YD6/BNiSZ0Nbmb7XNIIe7KOrpqAmvFcehfz95tFcjlVZrAWpxS3ff8G1jv09zSODWecB8HbI5sYdHg36lbuChFWm/g5L9d4woJrC8t/gYHpv3C/+n9l0Kl+qJ/JfKh7Txn6coBmwmjyhfhPb13+HrQNk4FaWpyHE55HFgTbxkzrem9wKqpZ4+9No/9TG5ZHL3ijelqGqgs0NSfIfeGzL2GwJoZf4tDIwYyfaM59iH/di5Ex0Thd8mQyXUK89/3ylB31inccjqT+0KBdTgGElhf2BsXWNWBp1ih6X1RKu0XlUewxSmXK2SfJPMWB/rUopReCX4aZJZzYFV5cHJ0U8rpFeXHIaY4+igVaNBvfP1tNxZZeRGiuWfzgxJGREwscfHxxCclk3r/BeV5YE0hynY5/3zxKcW7buSkEtafySOBNetpMv25vnEg3xdrQp/1trgEhRKW7T2FR8YQq3k/iYkkPbicP+nfwNpuKQfvX62ioQmsszWBtWIe97BqpBBxejYty5SheOvFHNLsQX3PYL59BeuvZbti/CHR+Nrux3DDNnbb3iXY34lz+r0pV6wi9eecyvvAqvmdoIOMaVKf8o0mstPx4c8zNDSCqNg44uPjSEhOfcoMCc8vrwOrOuAky3pVyapnxauMxMD5eW+1qiLD2YAe1TRX3P7JkBwDq0qpZnsZVUVzt5hfGLTt1r2psIKzBdZdd3IMrP+pN/KZe1j/Dax/M8c67JGGVE3k2YV0q/ShEv665RJYlb9xeS3dar2PXpk2DD2inWJKM/NGngZWLXUy0S5HWN2znrKP0uN/JTswYrdbtttFPimwqoi7uZOpDcrwcakuzLbK1juk7Pf2dPuFRg0GsexqXLYDkOyBdSxrr+UcWL/M3sOaJYMYtzPs3WSAwcHLeEb64nxwBp1KFKPo7+ulhzWvqYO4tqm/8hnq8d7nvzHuuO+/Y4pzpWwrl9bwVwnNBbylaTn3JM5Z1SYmXwPr3HM5BNZQSxZ1rIheiV/ok7UTf509rOkk3N7BiFpl+frLb/iu0vd8//39UomK331NyU80Q6Le471a0zF2zmE6ME1gHfXjcwVWI+lhfSlvXGDVXDxjvbw7VZVK+3+lfqGfqcdDpwyfifoux0c2pqzeR/zQTdnoc2qj1F6cnvAz3/6nAj9PPYNv6FW29W9KsXJdmHfxGbvH8jywpmZdWNWlRBHerz2DHY8NCchFToE1w48r63rzzWf1+dvA6Rkr0OsKrIoYG9Z2/IHCX3Vk7LEbOFqbs3PBXhwf7S7TSHLj5OLxjBo0i01n7+Ifo9nVROO5dwSVPquYx0MCsgVWf1NG/vQjxX+agrH3vce9KnkdWDX1zGpZV6po6tmXzem/3/O551VVu5swrFYJ9P7XiB5rr+cwmb8SWL1MGfdDcf5T7B+mHPO91yhk72HN98CqbLr2a+hX6z30vmpOn4O+OQbz5Gv6dK2pPG/Vfiy4f2P/l+lhDbDD8uIlrP1y+51MYu3W0LumEvj1vuKnAcpB84P9w5MCq/K5pwZze/8MujSpS+VeGzl2V7O/SifmylZmjZ7GbKOrBD90q87nCaza31NH4HpwDkNHTmTKzot4BmkOaNTEXFxNvy81gVWGBOS9DMIurGd4hXeUg8DvabriIg+u/c1NRhhuShtUpbDyOx+0Ztw+V+2tp6NffWANP8OiDrUoVL4rcy9qNubXF1jVib5c3zSI/jNWscHUguPmxzh27N9ifvwo+9eP4Y/iH/C/d6rzz+ar2mkNs4l15PD0pkr9VPY7rTZg9fgcfdmkE+1mzbYuczl081XOBf96SGB9IJ3Yy1uZUKeIcmRTnO96GHHloUu+nyRTe5QUxx3DAdT/9D+833AM6xzvN3zZpN/CrF9NvlSOZPsbe5KW4caBkU0p9F4Vfl1kR0iOT5lOqK8Pbs6B9063ZYbncWBVkex1kNk1i/Ph+60Yse+Ri6600tNi8XENJPH+vFE5DQlQh+CycyhVPihOmS7bsA197PhRoSY5LoTbV724N2NUMsEvEFht57Sl8ssGVuWd3t7Ug2pf/Ei9DiOYtXE7S03u5DCGK4o7e8bxW+n6NB92gFv3H6AKwdVoGBWLPV9gdd7SneqFS1G5t/IZZcsFqsir7BuimSUgW2CNOsm8Xyvyf0VaMmiPx70Dg8ck43vbA2+viMeP2F9CngdW5dXFXDZgvLaele9pzPVnHi+uuvfeEi+x9e8qFNGcyRhxEMfHWrAM0m5to+93X/N501nsdNF+Yi8UWI2Z+F2RFwqsqoDjLGr/jRKsy/PTdBtli32UEsRs5tP2+wqU+n05J0K19Ur1EhddRZxhw9JNLDG+83jDfl/sOVb88T3/VT6/+r32cuPBBvPkwJol8S5Xd0+n56R1GB6xwu7SFS6fs8L6hif+jx15PGtg3YdD1keeQez1LQxuUJUqfy3F9MHQoDRCzy+nTykJrPklM+YGRyY1prjehxRttRILJUU9qVaq425gNrS2Ugc/59u/N3FKaWTuPT4Kx819+UkTWH/dwoXsXbWZtzDtrhx45xRYd/an3IsGVu99jGpRj5KNZnBAU8mUg56sWQc07WMPzUXJ2epP3FVMhtfNMbDe3trrJQNrOkneZ1nTbQxrz/pph8jlIP4qRj2+54P/vkvhNms47vXIHj0jkOsGvSmnfBef/DCHg545zT98XzzBDoeZ1sOQ896v4bbVr5gE1uyS/bhsOIj6nytHjYWa0GurAyG5bylZ0kOcsTa15HpggrJbVZPqacrUFiWV329M5823Hx9UHWXFkgbVqNpiJjvcNFUvGoeN/anzzjt8Unsk664/dFl9lvhbpzm8+yAnnCOVKqFQAqv77ntjdIpoKuRLB1aljUy4jcXYhnyu9wml2y5j/6P3c00NxfP8MczsfIm5f945xzGsKYTb69OnzCf8r1gLBpvcUt7hw1ShzlwwNWaXjY82NDw5sFrMaZlDYL3XUFXT+5qafY48eB8vIvWOEaMbl+eD//uaxoM2sd8/h1Yv7Sa7u1WlsF412s6/rBzD3xeJ286BfKsZEjDf6uHb4OYaWDVH87348dMSlFO+P9vsRwfhZ9nQrjxFPmpAXxP3exd3qdw5Mq45X2lmV2i/HPOH5ylTZBBmf5Ddey0fvtFEHsj7wKpI9uXStgHU+/z/0CvclD7bbxKmXZWb9GBnzir1zCFYM1QnDk/j4TT/9H0K1Z/AFtdHeyCSibSaQf1yTWk18wSu91uOJwTWxEsrcwysie57mPbDF3xSbAArLoTdC8xaTwusmpkoLq7tReX3i/F5kyUcD3s0AqTgqWwHTar9TNvF9oTffz0vM0uA2pV9owbT65+lnMz56FfZZE+zUDO7x7v16LxG2S61i58aWNVxRAQ4YWVzE1ffIAJ8vfH2DiAk+wf5kCcH1iureyj7oXuB9UbWhxeNk/4/VHyvON/3N+Hqg52niiibJXT5vChF22zizEPjbiWw5o0Uop12M6N5RT75sDF9dt7Oto97VBKBp+fSsVRxStYcznKbgGw3OInBWanbmlkCyjTfhG32g5hkO9b/8R3v6dWm04qb//YGqjRnDIdQuUgRPutvjN0jYfF+YP34m64svBB9rw18IJPwY5No36AZjaecxl9TQZXA6rFnKJU+/oRPOm3hbHi2ehBhw/oeSptVpCotDNyyjbeO5Y4SmmsXK01lJTTbPd4MP11aIG5H5/L3UBPOKg1VrtFBM5/3wZHUL6rJGb8yxtQ1W9ugkaa0oesY8E0R/vNJK0Ye9c79LFSKBw4msxm62o67WWf83m4SWB+REeXC6VX9+bl8cT7+simdFu7n/J1wZVeeXQaJwa44KAFur9Fedu21wSU0UVuRlABjOonfvvyGbxrPYO9Dc2NG4L5nMr3/GM6cvU7aOTZVxLsfZnmbsryjHFF91XwEi/bZcPmGI043LmC5exsbFq5g56nreD74U5rT0EP4TgmsH3fbhnLQ+bAML84ubM1HH39N9QXKkexD7UkYF2a04nu9MjQYdgof7VJUSYRfXs+Ahp+h95/i/NBmIqsPWHHRyYGLJ/ZjsmoZa3ce53JY6r+9j0n26P9eUQmszelu4vmggmbEOmMxtSVl9PR4t2JrBq89wtkrjrjcusK5w3vZvmQZG4wtcIjRnOzL+g0iLafSoExxCv+1GvPsXVGa0/Czm/Pxp5VovMKegAdPHsetrX1p8L+ifNViLVah8cRHB+ByO4CYlOesuOleWExuytclfqDFdBuyps17VJoje3rWoJjyHZXruIZjXmFEBHviZmeG4ZR2lHr/K6qONMHG1Zvg6IR74T31JrtG1FFCWRVaamaEyPpDGimEWc2lnRLq3/mhF/MsfYiKDcX3jjO2hw1Y3OkHZVsoSrl/FrBFcyeshETCLm9keLVCaK6u/7H7PAxOXuKm800cLltzfPsG1i5ex/7LXo981y8vXwKrIiPyNpYr+9Hsuy/4+Kuf6br4oFLPIh6rZwlBrly30dSzfexS6oVLWNK90Bh1lX1jfubLYrVoMtkSn+ytmLJu9+g+/DFgHabKQd6DrSHSlk39q6NXvCm9Dvg8dJFU8pWV/FXlc/7baLwSgO//hnIAGmjBimZf8f47rRiuHHxFpETj7+mLf0QaaT5mzGtZRmlIu7D4Yvaxm/9K8bdiS6+GfFmyAe30ryvxKpugU6wc3p2/x2zmuOe/W4em18T/0GiqFCtMoZ6GPDbP8hOFc3lBJ5oW+Zb6Q4w575P4yOuKxHXnYBqWLU9Z5eDnkEf2pjCTFIeNdC+hBMwqU9l6O/vhtpqEu0fZOrk3f808wlXPYCKjooiOiiQia1x68iNBQkNFquMWepUqhl7lSWxyzj7kKYRra7rzrV5Jvup7GJesnUcMt9Z3pvIHyn6j5jBWnPMnIsIfj9s2HFg+iN8+VQLIT3MxdvDAMziGxKx9QSw3VvxDTb0SVOtmhqtmUR4qOIFVI54g261M/K0xdZsOZL7pNbweTUrpQdw2X8PonxtTp8kwFhxzI+Kh3W0aIWcW0+vrYrxfuicLTt0lOCqckLvXsT+3i/ntfuBTvU8p+9tUNlk7cTdSs8OKI/D4VJp+8C7vNprL7tsxpMT64qEcDAUpO4QUF+XA8JeSvPNFSwbvdnu4AyTuEptH/EOLznMxun1/+0oiTHNNhibwfduH2cddlIOqCIJu38Dx9FbmdPmRj/U+omSbeRiduYGnEvRUml588/E0/OJTPv55BrvuxpMcEYSfmwfBqeoc6/ajMn1OYzCwA122Ozz1dtPqYAsWNSypvI5PKNttCyeDHo63mbFuWC/rRnXNQdpPk1hn5fnIRcBpxPpcxcp4BfMXrmXfnRiS83jfr4sksOYkxR+HfYsZ1eYn6vzajUHTFrFi6TKWL9+IgclhzE+d5PiRvZhsN8LomOO/k7vfl+qF3cYpDOzYgyGLjTl0xgb7S3ZYW5hhtHQe60844vNQyxyN99kNjG1Rg3LFPuHjz8pTrXlHeowYx9hhU1m51w63rPYsk/SkKAJdrDAZ04D/KIFQr9IQllg44xMSrezA08lIjyfM6RArO5dTws3/8UmHtRy7FUBEUiopCVGEe1iwqn15/k/vP5RsupADd5SGJ0lbEzLDcdPcaem3qnxbWAnDX9SgQfu+DB40jPHTV7P7lrZR1txKVanM3uf16fO95s4lZag3ej9X/SOJTdHUmnQSPI6zpm9LapctzIeFSlG29q90HDiCkcMmMm+lKefvd12rkokNusWZBX/w5X+U91O5L3OOexCRmEJaWizB10xZ2Lak8hzv8Vm39ZjfCicxQ/MqMom6vp0ZLb+neJmfaTdzB2anbThjd1f53afsLR6TQejR6YweM4mZZ3M4DZolmrsH5tKvztcU/qoeLQcuYeuegxxTAvhu/Qm0K1+KwnV6M2HjEa55BxESE4r3xW1MaK40/nqFKTPAiPNeIURppwVTRV5j/+T21PuuHN/+0oPB89ayxeQQ+/easnvB31StV5daf41jwY4LuGfdoSiYG7tn0fOn7ylZ+BMKf1mNBn92o9+oCUwcOYfNZ+5o5wHNW/kVWLOk+HF97yJGtFYayFbdGDxtsVLPlj6oZ8ctT2GufL4mhko9M3d67P2leJ5iw6iBdPxnAot3H+eMjR2X7M5gYbaDJVO3YeEYqu311NSbCHzP6jOsrmbO2lJUn3SI675RJKWnkBDlzSX9nlT/UNn+vmjFIBNnguJSld/SHMfd5fySLjQsrXxPvyvPs/ckllYXuerkyKX90/jrS+V3/u9HOq46w00f5ftNSifzodYtnWjng6wc3Z02/eaybvcJrO0ucuH8WU7vWc1M/YMcdb7fxa65m1c0QXcvYDa9OR9q6vePI1l1+o7yelKe8YK6FO7unkqfKt9SsVFPRizayq6jFpw8cYITh/ezz3gNMwZ2osNgZfu9dH9eWTWZ6QlEBdzm0taBVNM877ttGWl0Cc+IRO4d/6mJu23Guh71+bFWfeo1/4O//vmHzp0706lrL/oOGMboqSsxOOGinU82naTwO1zbPpTqmr/3zu8MM7qMb2wyqamJSmNryZZ+NZTvQo//1pqJsWMQ0akZxDkaMfXvH5VtvBw1249juZEpB44fZo9mNo5fKlL0s+b0XGDE4Zu+BIdGEuZxls29qisNvx5Fak7D6Ka/Ek6ecBeh51SwAqtGChE3DrFx9CCGTVrMWhNl+zx+nOPHLbBQtqFjpltYMWUMfXstxtjOL9sFe//KDHfg6IIeyr6tEj82+4chs9eweacx+86aYziuG+1/rE6Dv0YyZ9d5bmZV6gyS7x5h8W/V+OqL2rQev4G9pyw5d8MDHyUwp7ruYmaLL/m/og34a94uzC3PYXdRqUM257Dev5apczex8aRXtg4BNemRNzGf05VG5atRuXYXhs1czSbD/Vha7GbL7AE0+q4mTf8cyyLjszhFpGdtLxmeZszqVItiX9Tl95EbOGBxDnt7J6WtfnJgVSttbvhdG/bP+ovKH5em6aTdWDkHKvt6ZV+gfcwDmalZd9xyuWDAuB8002gqdeO/9fl7odJu+EQo7ee/W25G+DWOLBhImybt+WvYbJau1Wf1qnWsNzDB9OBB9m5Tfl69AQNr5Xt40gt8i0hgfQJVtCc3rfezfdVMxvz1Kz83+J32vaewYIMxB8454RmevY/mUUlEuJ5mz3rlCGipPgbbt7B+kxlWt8Ie6UW6L414n4sc3TSbEe1a8stfgxirBDsr17BsFTGd5GgfHK1N2TitL61/+41fO09mya7TXHLxV4JnMinJYbifMWbFqH/49dc/aTtwBTvP3sQrOkEJmcpRq40JS4d3o2Wr3+jUfyFbz9zGO/r+bUk1EglzOc+xzbMY1Lknf/eZwwbz69zNPs4wM45QLycu7lvB6F5/0urXTgyYvI0jDt5Kw/pvWMyMcuPi4Q3M6vkHLX7/hx7TNnHAzoOw7B9bRgxBt6zZM3coXVr/qryf8cw3scczMo7EROVoXnkvy4d2pJXyelsPX4PJeQ8i74+hzYhQQrMhc8YOpvPYtew+56kd+P/81AFXuHjtMvZZE5/mIiUIt7PbmDNqKH0Hz2fzset4JSmvJcENm63T6TV8Fov33yAwNpbYUOW9H9Rn5qB2yufTkb9Hb8D0ogt+MWnaxlRNaohT1u/17tqVP0auYf8lf6Liw/G23sOek3Zc87ofzrXU8YS6WGKyaBS9fmtBy54TmLfNgqt+uc1o8PLyNbBqZUZ5cOOsaVY9G/1XS5pp69nCjSb36lnEE+pZUgAup3awfvlilupvYfuWTWw+YMftiOznhjX1xpMr+9cwvXsrWv3egc7TdmLh4Et0chwRPlc5vmYi/f78lVbtBjF+kxXOwZo7ZGlkkhp0GfMNk+k+YDyT1p/hln8oEYFXObphBsP+aMmvf3Rj4EITTlx2wTcqOcdgqY734uoRQ/TnLWbVlm1sXreJneZX8cg+n6nyjCkxftyyPcy2Of1p01qp3/9MY9k+G5xD4p6xB0VF2PWznD24i0MWhzDRX8r8efOZN2c2syeMYtS0paw9eJG7D26zp6EiPVkJ9DesOawcfP3T9ndatRjCjI3HsPWKRHMPhCzpgbgens/ADq1oVL8edevUoka1qlSt8gM//PADlSv+SN22c9lsoxnrm0y0hz0nNkyis+bvtRzM9E0WXAmKJSEhkqCrZso+rLeyH2rNH13msOmU5p7vmjeYQMgNczZPHs7gAWOZv9MKB82N7dVhuB3TZ1L3MUxffxLHiDjilP2Zu81uVo3vzW+tWtGx52zWH3PAVTNsJI8a8IIXWLXSwvC6clxpvxYzd+ZMZs6aw5w5C1iy1ohD9ncIeOK9W9WkRd7G2nAOo7q1p9volRie8yJWFYXbyWMc1Qyh844gPi3b31DFEXhpH+sn9WfAmAWsP+VGqHaMjWZIwPSfy/BJ6baMMTjIvs0b2LJtG5v017JxlyXXArOfnbhPrTQPTlgbL2B4my70GLSE7Rf9SUgMxuPSCbbtU8KyTzix6dnfRyz+V/ezeshQBvSbz1ZrVzSb3tOokkPxOGfEyjFdaf57R7pN26wE7pv4xuRw1kE5MIz2vMiZA2uZ3PkPWivb7a8tlPZz6gb2XPIkKP6RSq6KJcjJmkOGK5V2pyu/N2tJyw4DmbBgI0bHruD6xBkE3j4SWIUQuXoVgVW8AVRJRLrbYm52mGMuUcrBZDzxMeEE+nhw944bd9zdueNkieHs5SyYeQT3PAqMr1uBDaw6JPtFV/NsIh4ayiMKFgmsQohcSWAVmh7YtDtmrJo6ig5LLj9hqrp0fK1PcnSrOXeeqTdY90lgff3+DaydlcAa+e81FKLAkcAqhMiVBFahuRjH3Wg4bb6vQs1plngmay5SyU5FZnoqKTG3sT17mkNnvN+aXjAJrK9fsssupmfdmlUJrOclsBZkEliFELmSwCo043gjL25m3E/fUejrX+gycwumJ+257nSL2y7O3Lxqg+XudaxaY8BOa3dCk96S7lWFBNbXTU2CsxFTGxfnnZJtmWARQKLq2a7aF28fCaxCiFxJYBUa6pQIPC7sY/WkwfRo34JG5ctR/odfad93ArPXbGffcWsuOvsQFPu8M3ToNgmsr1FaHFF+lzmyrC/Ni+ihp/cF5XsswcjiAk5BCWS7oF4UEBJYhRC5ksAq/qUiNcoXtytWmO/ayQ6jQ5ifseeaqw/B925Z99aRwPoaZaaSHBuAu4MtZw7u58ABM8ysruDs4UdofFqezQQh3hwSWIUQuZLAKgoyCaxC6A4JrEKIXElgFQWZBFYhdIcEViFEriSwioJMAqsQukMCqxAiVxJYRUEmgVUI3SGBVQiRKwmsoiCTwCqE7pDAKoTIlQRWUZBJYBVCd0hgFULkSgKrKMgksAqhOySwCiFyJYFVFGQSWIXQHRJYhRC5ksAqCjIJrELoDgmsQohcSWDNZwmunNHfwW7jS/hrF+WtZCKcT2C0bBGrt2xn57bVLFiwnh1n3Yl4e275n28ksAqhOySwCiFyJYE1r6WTHnSFw8YbWTBjFrNGtafuF834s/c+nLWPyDvR+NjuY+GgaSxab8xhy7NYnznGfqPVTB08l/W7rxAg92N/IgmsQugOCaxCiFxJYM1rGaSHOHDCdDurFi1nweAmlPmoNg17HcFN+4i8kup7nE3D21OvhwnX47ULs4RgM7MXf/49meVXYrTLRE4ksAqhOySwCiFyJYEVVMmB3DLficGalaxYtp5dp28RkKxd+ZJSL86lbblG1Ot+KI8DawLuuybRufZPtNt1l4fyqiLedjZtm7alySQrgu8PDVCnEOdhg9G6VSxbvhr9rae45BlLunZ1QSSBVQjdIYFVCJErCawq0gJPsKBGZX4sX506DdswaNkJbsZqV7+kSKtp/Fa2EfV75HFgzXTj+OS/qVqyNRNOBZOmXXyf6vYWutWqz7e/ruZc9P2F8YTYbqDP781oWP8HSn/yFxM23yBSu7ogksAqhO6QwCqEyJUE1jSS/U+ztNlcTCy8iNMuzRtqIvIrsMZcYtuQZhQt3ZbJliGPBVbcjOjTsBpFf5rKXq8cBrKmX8egw1zW6dsTrF1UEElgFUJ3SGAVQuRKAqsmsJ5h2S/z2XXS+7FT6y8nHwNrmDWretXlv1//wSQlsD52Wt/NmL6NKvJ+3ZFsufVYnIUMB7Z1nMf6dRclsEpgFUInSGAVQuRKAuv9wDoX4+N3uX/2PG/kZ2A9x+re9fjfUwLrB3VHYXA7h8CacpUtmh5WCawSWIXQERJYhRC5ksD6hgbW2MtsH/Izxb5qmxVYcxoS0LthNYo1noapdw5DAiSwZpHAKoTukMAqhMiVBNY3NLBmumMx7W9++KI5Q474kaJdfF+643q6VK/Hd7/pcz6nC8gksGaRwCqE7pDAKoTIlQTWNzSwkoSn6VS61qlPiy3ORD/SiRp9ejKtG7em+QwbwnK6eYAE1iwSWIXQHRJYxUtKJeSWPZZGBhjtO8Jxx3BlidLMB9/E6qApBw4f5vARK67eCSVefe83xJtDAuuTAquKpHA3LuwzZt/uXey2vkOwZrBoqj83Th/mwP4DHDxyinOX7hCqqRQ5SL08j7bfNeOnvqcI0C7LWQrBt+yy1bOIrNP8mnp2JqueHVHq2dmsepagrWdpQafYOuIv6v25BbuH7g/gjfnoTrT6YzJrbuQy74EE1iwSWIXQHRJYxUvIJMblPGf27eKA6Q42zBrHoM5jWWNqxoEjFhwzO8yx3SsY0/EXmo9Yx/67eTTbunhlJLDmHliTg9y4cWQXe0z3sHfzHIZ2GMzc9dvZbX6SI4eOc+zQVpYM70DLjkOZey5Ue+GTGlWCF1fMzdinhM9l/etRUu8DPq7Ui+lbdmBiZsGZO9FkPHRwp6lnNpzOqmfb2TBzLIO6jGOt6SGlnp1U6tkhju1axuiOzWk+cj0HPe7Xs1gC7A+xYsAkZi9Zh6HZMY4f28u29QsY2Xce6/c4EJTbrVklsGaRwCqE7pDAKl6cKpAz6wzYfeBG1vyUviYT6fjJZ1TvPo9N54NI0jzGezcjm1Tky9Yz2XorUbMkFyrSEpNISU1X/iV0hQTW3AJrPK6nzDBcdghP5ad0z/1ML1eC7xt0ZYzxdXw1m3q6A0bDGvNV5bYMPeqX1SOqCayZsS5YGW1h3fL5zBw9hMG9etBvxDimzl3CKoPdHLgRTnr2wKqpZ/pKPTt4M2taLR+jcXTQ1LMe89lsG0xWPPU0ZsRPSj1rOwvDh+pZGjF3TrNnxSKWb9mJyU59Fi4xwMTWW4mzTyCBNYsEViF0hwRW8eJiL2O84yTH7KOURtUf6wVdqVasDh31rxGa9QAVqT6n2bRIn42HHAnKYfacezJI9lYet9yQXec8ntyQildKAmsugTX9LhdOHmPzPm8ySSD07GLalfqO6v12cj4s495jYh05vm0dC9da4Bx1//6nLyD2EsbbT2J+UXl2pZ5ZzetM1c/q8te664RlPUBFirclG5V6tumwE8G51rPnIIE1iwRWIXSHBFbx4iJcuXHHBy9N92qkFat7NKdEhWFscIx/zl7SFCJs19K7x2Rm7HVGib9CR0hgzSWwJvjj7eHCjRC18hAfLq/rzTeft2bQTmfCXiKbPk75+xEuOCj1zFvTvRpxhpXdlHpWcTibnBLy72yEBNYsEliF0B0SWMWLU6s1zWmW+KvrGdaoDt+03IRt7EMD8J6ZKiOD9EzVg78pXj8JrLkE1qxt/972nxl2AeNBP/H5d2PQvxiWddFhnspez67oM7RhHcr+upkLeXuf2IdJYM0igVUI3SGBVeSBGG5vGUDzMlWpN80af+3Sp1IpYSA+jrg4pSTLyFVdJIE1tzGs92UQfd2AcTXK8NWf6znp/+iMp8/jaYdqMdza3I9flHpWf/q5p8wq8JIksGaRwCqE7pDAKl5e2i32D2vBt6Wa0e+gr9LEPwNVDIGX97N6wjCGD+nO7z0XsdXalwTtaqEbJLA+LbBG4LZ7HE2KfkeDWZa43Z9T6nmoovF3vYWDk++Tx2+nOmM6tDllS/3CADO/x2+3+lTKa0sK4vZVJ9z8oh67mcBDJLBmkcAqhO6QwCpeXtBR5rSuT6kqw9ni8gw9TKpQ7tofZMUiE07YXebaZRNmNalJi5FbOJXrPDvidZDA+pTAmuSK5by/KV3sV0bsV9a/wOar8jzInEF9aTP6ALeeNJ4g8Aizfq/Pl9VGstX1RQYeJBN+bikd/xjO+B03lKj9BBJYs0hgFUJ3SGAVLymTqHML+KdGTb77axuXn9pFqiLylhVmi5aw2TrwXi9P6iU2Nfqeut1WYOb3Aj1UIt9IYH1yYE31Oc7qLnX5tMoEtjnGoJ0f4PnEeHDZ+izmdl5E5foHlHpmPZ+/q9ekwt+GXHnSDHG5yiDJ/zonTthidydCelifgQRWIXSHBFbxklLxNBnFP01a89faG89whb+ahAAv3C87EZJ1NXU6Cdc38HfZprSbchRnubeATpHA+uTAGntjJ/P+qE+d4Qe5GvlCcfUZpeBhPJK/m7bmH/2bOQxNyGMSWLNIYBVCd0hgFS8pg+hb5zhtfgpbn6xbBTyfzHDcjAdRvmRnhm1z5qE7SIrXTgLrkwNrSshtrpqbcdwxlPjnmc4qxVv5vb0YbVnDsq1HOH499CmzC2QQ5WzN6eOWXPB9nnqmIi34OieNDdhqsIEVxue5EfAM3bMSWLNIYBVCd0hgFa+VOt6RIyMaULLOeJbbhpGnU1iKlyaB9WkXXT0vFaokb+zMdrF+0WJWLZhA91atadtvJUcD8npCrGSiA65zxGAja5bMY+H8IbSp35b+qy25Hf+UoTcSWLNIYBVCd0hgFa+RilTvQ8yv8y3le23gmP/zX/cs8pcE1rwNrJkpIbgfXc/sxWac99GMf0ni+uTWtKj1J2Os8/L8gprk4Ouc3rKSuZsukXUto+oGxr98R61uy9jv/ZSrwySwZpHAKoTukMAqXh91PCFWi2nzRQ1azbTglsxppXMksOZtYE2N9sR+yw7O3A4ma97/TAe2df6Vhg1GsvFZZth4ZirCb9piuW0fV6I0valqMj33MapybVqOMMHuaYPNJbBmkcAqhO6QwCpen1QfLq7uTPHPOzB6j2v+X0ginpsE1vuBdSF7z/g/+cr6Z6FWo8rMfHCLANXdnfSv35I6HQxe8Mr/3KlVKuW5tD2p6lgCzKdSs+Sf9Ft7iaB7S5/AmR1/z2e9vr0EVgmsQugECaziFVGTmRiCr5c3d0PvXU2dEXiGjd3rUrzJLLbdjEJmYNU9Elg1gdWSxY0nst7kEu5hEUTHp5CeJxtrGkFHxvBzlVa0mHyOEO3SfJHswfmFbfmqwmBmmfvmErxVZKYmEBURTpj/KZb+Oo1V+tLDKoFVCN0ggVW8Isn4HppB1+Ydabf8OhEZATjsnEzb79szyOAyPikSV3WRBFbNVfaWLG9UiUpfleW7ig3oPOsQV/NkuGkg5yc3p2rtvxl4KCBfD9jSQqzY2KYCX7Vfyi63XGYZUMUSZLWM9vWqUrF8GUoU7cyUHbcK9JkPCaxC6A4JrOIVySDUciE96/1I6Wp/MmB4H7oMnsWi7RfxjEl/cIpU6BYJrKBOjyHIyZ7zZ05x0uIsl24HEpUX1wfG27G2ZS1+aDKW9bef6YbGLyiV2GtbGPBNReqP3c/lrDGtOVCnkxx6BzurU1ictMTK9jZe4ckFeuYOCaxC6A4JrOKVyYgL4M61C5yxsOC05WnOXPcmXCYG0GkSWPOLipSb6+hYoR61O2/FPl67OD9khOBiNIJKRZrTZ9M1AmXuuGcmgVUI3SGBVQiRKwmseUlN+oOwmIiPSR++/7YFv8+/QLh2ad5Rk3H/uRIcOTqhKR+VG8wSm2Dysy/3bSOBVQjdIYFVCJErCax5IyXwEubrFjN1hzNhmgWx51jVphFVW05j/bXIPDztnkbEtb2sXaTPmrOa0acqIs+vpV+1utQftQ/7sLy+OcHbTQKrELrjjQ2smoa0d+/e2p+EEPlh6NChWXVNvKSg46xoV4sv6k9i7cEDmO5YwugBK9l5LjTPL7aKt5xJx+p1+aHrGg5Z7WHDwtmMGr0L24J8uf8LcnJyomLFisTH5+eYDSHEs9DUx/Lly+Pj46NdkjfyPbAOHz6c+vXrY2xsLEWKlHwqTZo0oUGDBjmuk/LsZcfaqQz8pSKF3y9KiWKF+KRcY/4Ys4zNJnvZbZLz77xYMWLTzF60qPQlH737CV8U/5zitf9h6GIDTPbswiTH35GSW5k+fTrFixdn1apVOa6XIkXKqyua+li2bFkCAgK0STBv5HtgnThxIkWKFKFatWpSpEjJp1K0aFGpZ3lRfqxOjZq1qF27FjVr1rxXalSn+o8/5vz4lyg/Vq9BzVrKcynl3nPVoIbyXD/+mPPjpeReypUrx7vvvsv333+f43opUqS8uqKpj19//TUhIXk7a3W+B9YBAwbwzz//kJKSIkWKlHwqvXr1onPnzjmuk/I8JZXUtDTS09PvFeXfaak5PS4PSmoqaWna58l6LuW58+u53vJiZWWV1Ui6u7vnuF6KFCmvrmjq4xs5hrVfv35yMYgQ+UxzYNijRw/tT0IULJcuXcoaMxccLAOAhXjdNPVRZgkQQuRIZgkQBZnMEiCE7pBprYQQuZLAKgoyCaxC6A4JrEKIXElgFQWZBFYhdIcEViFEriSwioJMAqsQukMCqxAiVxJYRUEmgVUI3SGBVQiRKwmsoiCTwCqE7pDAKvKZiqTguzjfcODGzZvcuO6Is1c4Sdq1QrdJYM1fqeFeuNx0wEGpGzcdbuLoHsKTbwKqIiVC+Z3r17jh5ISjgwM3PaQ+5RcJrELoDgmsIh8lE+18EtMNi5m7ZA1rN6xDf9VS5i02ZL+VO5Hp2ocJnSWBNb+kEedmzZEtS5m7eBWr1q9n3Wqlbizawu6TtwhJUWsfl10yEa7nObh2GYsXr2Dtpk1sXLWIBcsN2GF1l+DETO3jRF6RwCqE7pDAKvJJGvFuh1jYuT29FhzAPiSdjIwMpfhxxWAWvVsOZK6FFzEq7cOFTpLAmh8ySfU5ycpeHek21ZDT/mnauhHMLdMlDPylN1MOuhCWnj20qkh1P8jiPn3oNHAHl6I0j1dKagjuR2bR7o+RzNznRFiG9uEiT0hgFUJ3SGAV+UId78Txyb/zTb0RLDgTQPbO1AzPIyzr2Zyvf12EmWei0hQLXSWBNR+kenBuXnvK1+nHeLO7JGsXa6gCrTEY0oovm85kp1P0v/Um4w5HJ/5Jw/pdmHA8SIm8/1JFnGdz57rUaDOLrdejyalvVrwYCaxC6A4JrCIfJBN9bSODKn9NmW6bOOn/SLdP+l3OLu7Kt581pY+RM+EyNEBnSWDNa2kkuRgzruY3fPXnEvbeTdUu11IFcH3zAL4v1oC/118mQLs62WkLA2pWp0KLBRx+9C6h6lBurvmbCl+1pNMKewK1i8XLk8AqhO6QwCryXrIPF9d2omyR72k215I7idrlD8TgYTqR34oUp0K/XVyWwaw6SwJrHksPwdmwL5WLlqPO+IM4xGqXP5BI0OmF/PX555T5ZxNWIWnKshhurupE9fcrU3/gIVweG6qaQsSZ2TQpXZHvum7gTIiMZc0rEliF0B0SWEWeU0Vdw3RIHQp/XJ+um64T9Ni4ulRCbJbTt+SnfFp1Brvd4pChd7pJAmveUie4YDGxCZ9/WJ22S8/jpcmjD8kg5uZWRn1bjELfjmXLDc0pfk+O9KtNcb2q/Db3Ao92sGaNib25ia7ff847tUax+mqcdrl4WRJYhdAdElhFnkv2t2DNr9/y6Xu/MnrPHSIfG1SnItpxO5MqF6dw0V4sORfMY52wQidIYM1b6RG2GP5dic/+9xP9Nt8g+LG6oSbR04wFdb+i8Ed/M/OEH8nxF9nQugLvKL/zzyanHKa9UqP2MmVc9eLoFf2L0Ud95QAwjxS4wBrvyfVT+9i+YzemBw5z7IhSzjnjIWfB8lVqiCPnDpiwU/ncDxw7zKGjFlja3SHikRFDBZ0EVpHHMom9bcSk8kX45H9tmHrIixjtmuziXPcyp1ZxPinUgtEHPYiSK0V0kgTWvKQm2ecQ82t+zid6zRi+8zbh2jXZJfmdYGWz0hT+4CcGGt8i1P0QU5t+id57Leix040U7eP+pVSegKNMr1Mavf80pfdmxxzrnHh+BSawqiPxu36M7Qa72LfflH0Hj3Lc4jSn969l1pBBjFl+gEuhb+NQk0zSgi9hunAyY4YPZ/gLl6nM2GjDnbjn/Iwyg3AwN8VkpxG7Tc04qHzuFlYWHDJcyNghIxhheBUvma7uAQmsIo+lEXV9I0M+f48P9X5nyiFPorVrsot12cPsmsX4uFAD+pm4ECZ1UidJYM1LmSTc2cWEbz5W6kYThu28RZh2TXZJvsdZ0eRLCn1Qg65bruPnYMywnz5H730lsG53fWhWgXuUwOp/mKmawKpXl67LLxOqXSNeToEIrBnh3DmxkYl9RzJmvRK6sh3tpN3cSL/a31L29+ns8dLupNMi8bl4AP2Va9i4aQeHrvq+tp5AdZQrNhdvcsX7RYfBZJDqd5atY/vS9a+/+OuFS38GLbDAKeY5GrIUP64bzmJ470ksMb1BwINfTcDn0GRaffMtpQeYciVae75Eefy1QzvZuHYdG3Ye5ahjuNLaFiwSWEUe0/awfqftYT2ccw9rbFYP6xd8UqgZw03diZS5rXSSBNa8pMrqYZ1X/Vl6WL+i8Pv16bvDiZA7h5ii6WF9v+UTeliP3Oth1fuJnusdiNKuES/nrQ+s6kSCrVcxrGULGvTaxY2HxpukE3N1B1NHT2L8Fjt87m94SX447BrHL+WLKttbKZrMOY3LqxrTlZlCrK8SUC9Ycvz4PgyndqBa65EM3++tfcAbIi0E1wMzaFe1OT1XnsUje6VWh+F2bB3ju05m5cm7RN0f35Nwk0Nzu9Gg0DvofVyf37a4FLg73ElgFXkuJfAU+q3K8en7vzNOCaOPN55qYm4ZMa1aCQoX7cL8M4HKMaXQRRJY81ZG5AW2/12ZYv9rysCtjoTmMBQm0fsIixuWpsiH7Zhy1Jvk+Ets+q0C//2/JnTeejuH8d7KH/E5yMSapdD7pB3DD3ghQ9/yxtseWDNDz7K+Sx2+LtOaMRZBD82XfU8mGSplC3t0O80M4uaWPnz5+V+M3uWS41m0fJEahffpjSybMZju/bvRpuwnvFPhLwYeDdA+4E2QTvztXUxuWp5C9aey8VoOLaTygWc+dOMQLbUzxl2bUeX7bsy78uSbOL+NJLCKPJcZeZk9A2pT7KNG9DK4QfBjZ0nSCLNbzcCvilKo7AQMnWJy2FEKXSCBNW+p4p0xH9uYEh/WosPyC3g/tuFnEuu8nXEVPufj4kNYcykCFe6Y9a7F5/+pQZtFF3M43Z9JmpMBvSsXRe+HgSywk/7VvPJ2B9Z0gk7O4e9vvuWrxoswD3n201zqWAcOj2lM8aoT0b8Y9gov8lOjVmnu8pZOWvpdLPrVpHT5tvQ98gYF1owQbu8cTM2iX1Nt7EGuPk91DTzEhOZNqfzzAuX70i4rQCSwiryX4ssV/a6UK/ojvy+xfvh0R5Z4fI/O4M9CRfm8pT4ngx4/ySl0gwTWPJYeyu0dA6jyWWWaTD2G02OnFpIJPb+C7p9/SuEGi9jvpTnpF4/T2q7U+Lg6Pw0/jse9B2aTSsz5xbT8tiSFf5/PXo+CNrIt/7zdgTWCays6UevjCtQcdpy72qVPpybxzn7mN/6Wb/tswzLo3lGXKi2R+NgYYuKTSEnL1PT757MAzg6uwzcVXiawKgE4I5m4iFBCgoMJfuESRlhUEqnPkvnjnDkx5Rc+L9SE3ltv5tChkxs10daz+aN6c+oPPIandllGSjyxMbHEJySTlqm8n6zlbycJrCLvqRMItVlG57LfUnPUHi5Fapc/EMj1DUOo82kt2q2+iH/K21zF3mwSWPNaCrHXN9Kv4rdU7btZaewfbeEiuLN3Ek0+rUbLeWe4k6ipG2ri7ZfT6fs6VGu3CbvHzgTG4rl3CFVLN6HljJO4y5xWeebtDqxhXFnSkeqfV6fB3Is5jqe+T61WoVLd30/H4n9iAX+UrEmHlXZ4K8dH6oxAnI6sZ8GEvvzdZxpzN1zA7zmuP3oxPpweWJsyLxVY00l2P8jcNvWoWqECFV64NKTJABPsI56h8sU5cmziL3xWqD0T93s8cUYPVaYq23CMSBwWt6NOjbZ03emJsoaMyNuc372YsQOGMKTvJNZbuRPyFp+ulMAq8oFSkcLtMO7bgG9bzWKLwyMjnMJt2Tm6LWVrTWCrDAfQaRJY85oadfwNzIY35bufx7HEJvThHpFYB47M6EjZqsNYbR/y7wVWiVfY1qcldRsPZsW1RxJr4i2OjGrKD03HsORssMzBmofe7sCahr/ZBFrXbkqtKedyuCGFVqwjVmdtOHFde+46xQPbFT0p/VlnZp3wISbmNhbbDNhidByb05sY3+pnatWfwSH//E6seRFYVWQmBOF20Yazp09z+oXLeWxv+BOV9gydL+l+OGwexI9F2zNhl6sSQ3OSQUKgM5ZGZ3CJSCLrk0y5huGf9alafzirb8eS5nmewxv1MTh6htOmixlYpxw/jjPBOvTtvYJZAqvIH5peVvuNDP/tD/qvscL9wVw88XgeXMLgpp0YtM2BwGep4OK1kcCaH1KIubGD8W3/oPv8w9x8kD+TCD6zntHN2tNH/wKeidkbnlQi7Tcwrl0XOo0zx+PBqhTCL6ykc6tuDNQ/x92Hfke8rLc7sCrZKcyKDYO70arDciwfG0uZTOQtS0yNjDA87sCd0HuHT6qwCxiP/IXPaoxlldlBdu7Yy679F3AJTkIdac++2aPpM2YP12Pze9+eF4H1dUgj1uUg8/9oScd5x3F4dEauzHA87M0x3rSbw2fdCE3OuHdQ67uXIXWaUOv3GWw0M+fQ5q2Y2rjgHZNCqv9JVgzow4gtNrjEv71tqgRWkX8yo/Cy2Mb6ZUtYbrCbPQf3s8dkMyvmrkJ/qzV346Vx1XUSWPNLHH5njdmyfBFLNpmw68B+9u3eyuoFK1m1/iQu0Tmcd1BH4m51gHUzl7DawJh9Sn06sGsza5cvZ+52W5zDZG6AvPa2B1ZNKA1zUELp0gUs09/Cjn1mmJkdYJ9mIvtDx7DQ9B7aueAZfn/bUhF3exezaxfmvx99Rbkf29BxnBE29++/nRyKv4c7rn6x/84Rqk4i/PJ2pgzqSocOHZ69dJ7FqqPuTzhl/qYGVkVGDIH2Rqxbs5xF63ZgvPcQ5gf3sMt4l/K5W3Dy9DnOX3Yn7MFuIINIqzm0rvgZHxUpTZVGXRi24jiO2o4gdWII7s538Y9IeqvPWEpgFfkslQgXWyyPm2N+6iTHj57glP1duVHAG0ICa37KIObuJayOH+WYUjdOmJ/AwsaFoCdeM5VKlMcVzhw5wgnLk5wyP4b5BXdCJavmi7c/sGqoSQl1xv64GYdOWGJpeYoThw5jbnUJx4CEe6ejH4jH++gCOn1WmjrtetNvwFTmzZjCqPk72HfZP+fpCdUpRDmasWLmuBzuEPWEMmYtO6x8crgV8X1vcGDNkk6shz0njx7lyPHTWFuac+yIUp9tnPCIfLRCR3JjRQfq1KpO3b8HMHXGZMZNnsfsubs55xVXYIYBSWAVQuRKAqsoyApGYH0O6R5YL+lP5eJdWWQXQ2Z6OH6HJ1Lnm7rUH76HG5qDrcgAglxu45fvk7+86YH1OaQ5suuvmvzQairrXVXKQYAnFrM781Ox6rTdcIOwDOWwIs6dq56hhCTIkIDnJYFViLeABFZRkElgfZgq6DQb+jenSOWZ7Lk/X6HvHnpWqEmdbtu5iYoQq31snr+Dy/Gavtv8FI7dsHqUrdSeQZav7NYFr4GaTK+9DKtQm4ad13Nae5VW0JHJdP/2S35c4UB4egxBZkuYt/8SN97i20ZKYBVC5EoCqyjIJLBmpybmykYmNP+Rb/se5Mb98//Bp5jza1vadFvOXuuTmGzewSqjW/lz90J1BmnR/ri73sLpxhFWtirNh4Vr0HLRcRwcb+HmGUjkWzdNYgqRp6dT55vfaTfLCv+sZSrCz69l8m/1aDJzN2fOHMF4zlrMNTMVZK1/O0lgFULkSgKrKMgksGanIuySEasG9mL8ATciHwycjMHr5BqmDO1F285TWLbjPB4PZoXJY5nxRFzbw7J5Uxk7pCut6ldTvp/q/NSqB4NGTWWB/kHsQ17FTQteIXUSIVaL6TxoEUtP+f57UVWiF1f2LGRQ++4MHTaVVaff/rHsEliFELmSwCoKMgmsD1Olp5KckEByumba+mxUqSQlxBIVFU9iSn5eAqRGlZZEQnwcsTHRREVHEx11r8TExmnv9qR96Fvj3nuOT0ohJePhKK7KSCExJobY2HiSHln3NpLAKoTIlQRWUZBJYBVCd0hgFULkSgKrKMgksAqhOySwCiFyJYFVFGQSWIXQHRJYhRC5ksAqCjIJrELojjc2sGoa0t69e2t/EkLkh6FDh2bVNSEKImdnZypWrEhCQr5M0iSEeA6a+li+fHl8fHy0S/JGvgfWUaNGUbVqVebNmydFipR8KjVq1KBatWo5rpMi5W0vmjN5RYsWZdy4cTmulyJFyqsrmvpYtmxZAgMDtUkwb+R7YJ0wYQJffPEFzZo1kyJFSj6VEiVKSD2TUmBL9erV+eCDD6hfv36O66VIkfLqiqY+lilThuDgYG0SzBv5Hlj79esnY+uEyGcDBgygR48e2p+EKFguXbqUdQoyrxtIIcTz09THN/aiq65du2p/EkLkB82BYffu3bU/CVGw2NvbZwXWgIAA7RIhxOuiqY8yS4AQIkcyS4AoyGSWACF0h0xrJYTIlQRWUZBJYBVCd0hgFULkSgKrKMgksAqhOySwCiFyJYFVFGQSWIXQHRJYhRC5ksAqCjIJrELoDgmsQohcSWAVBZkEViF0hwRW8eok+uPjdRfPqEztAqHrJLDmJxUJfo7YW1tx5tw5rK2sOXfNm0i1dvXTJEfi7+hKQEIa6dpFIm9JYBVvGlWsL7cunuHESUtOW1hz0f4WASnalW84Cawi/2XEEupuy94FIxkxbQ273aR5fVNIYM0vSYRdPYTxmoXMXbmRTYaGbNu8mkXz9dm82x7vhCcc1KkSCLt7nsMrZzK8+1KOeMbylrRHOkcCq3jTZITexGqfPjMGd+CXSo1p228LtvHalW84Cawi/6hSiQsLxMfpGFtH/kJpvY8o1XwuB32ftQtJvG4SWPNDOgmupszo+AedZuzGPkK7mBi8jq1gUNN/GGx4Df+UR+qJKpn4qDB8HU9iNOE3yn9QiI8qzsTUIwE5Z5E/JLCKN1M8zmu7UPfTitQcd4a3ZeuVwCryjTo9DNezFpy0MGH1oKZ899/3KN1qvgTWN4gE1nyQ5MKJib/ydZ0hTD/h9/Dp/HB7do39neK1x7Hhajip2sVZ0oJwu3oO8/1GbJ7wO18rB4CFvp/Ffq9ECaz5RAKreDN5Yj6yGeVLNaKTicdbcwZGAqvIP2oVGamppKYm4Ll/DL+W+oyS0sP6RpHAmtdSiLuxhcE/fM03f63EzDtNu1xLFYSj4VCqFa1Jm+Xn8UrWLtdQZ5KRnkZqSgxex2fx18cfU7TSTEw9JbDmFwms4rVTKfU+I530DBWqZ206Q08y//c6fP3jINbcSNIufPNJYBWvgJoQ80m0Kf2FBNY3jATWPJYWhMOm7nz3aXnqTzrMzTjt8geSCDm7hM7Fi/Hln2ux8M+eWO9LJ9hqAd0+kcCa3ySwitcrg4xQByx2G7PP5g5BOe0OcpB4dTVdqv7It7+u5MyDIUdvPgms4hVIJ+DIBH7/6nMJrG8YCax5Sx3vjPnYn/jiwxq0W27Lox2sKNEz1smQseU/o1Dp4ay/EvHwsIAsyQRYzqOLBNZ8J4FVvF7ppLrtZWy9NvSecwLnRO3iJ0rAfedAGpZpQKNxlvi9Rc2tBFbxCkhgfVNJYM1b6WHn2NKuAsX+25gBBjcJyaEqJHodZlGDryj84Z9MOeJFjHb5vySwviq6HViTCHc+g5mBPvpbdmC0aw+7jPZx9LI7QY8f5Yi8khmBz6VDbN+4Hv3NxuzbbcyuvUc5dT1YiYp5TQmst43o91UDOow/xM1nOrvvhcXwnyj37e/0MnLA392awzsN2GxoyNZ1a9l46Ap3Y97MmXoksIpXQALrm0oCa15SkeR9kDnVPuMTvWYMN7pNuHZNdkl+J1jZrDSF36tPH0NHgh9LoxJYXxVdDazpAVex2rGG1TsPc/z0Gc6et+fiZRuOb5hMn7ajmW1wjSDtY98qGVH4nNFnRM+/adeu3YuXPpNZcMKTOJX27z4TFcmeluzcaMAW48NYWFsrn/tFrl44hvGC4fTpMZY1FwJJzNPKqARWFxMGf9eUTpOP4PgsgTX6LMta/0DRz6rTevZOjp6x5aK9LecvXMD64Gqm9ujC4I1ncIp6rjevEySwildAAuubSgJrXsok4Y4JE775mA/1mjBs5y3CtGuyS/I9zoomX1LovR/5Z+M1/B8bNiCB9VXRxcCa6n+OXQuG0HXYUkxuhPJvhgnlytL2VPukHn9Ot8Iva5malBAHLNZOY8zEqUyfugdr1+jXdNV4PIEXlYBtexXXx08bPJvMWIIu7mbh1LGMHDnyxcv0VWw570/CM2e2VOJcj7JsyBD6TN6JhVu2NxB3ld2jmlCyzC8MP+RNfNbfzCTxzkm2LJnOxCmTWbz9BPZBL9ireXcvQ8s3o8u0E7hkaJflSkXildV0+7EE/ynZjN5rLLnply3lJl9j1z/fU/yXGWxweGwAfTYqMpKiiYhJJDldd9prCaziFZDA+qaSwJqXVCT7HWVRnRIU0vuZ4TufoYd1u5P0sL5GuhZYVdGOHJ76Nw3qdmL4kQBlz5pNZgg3dy9lwcKtHHSM0K5Tkxx4mYNT2/DjZ/9F73/dWXgmUNmCXgW1EnqCuG15lMM7t7Ft3Sz6Na1OsyErOeCjfcgbIUM5iLRkS7+f+f6nqWy+FPlQfVNHOHJ6xzLGLT3MxYBkpZZrKAentw+zanAjiv73HT6sM4Edd58SWDOSSYqNIDQsnIiICKVEEhkZrAT0zfQt24iOo02w8Y8iOlKzLoLwsDDCI5WfE9OVT/q+aG5t7E6NYl9RptNGTgc99ErJCLVmY+tKFG88nfUOuR81qBLvcmH1eMYsNcPGT3cmxZLAKl4BCaxvKgmseSsjyh6jzlX47P+a0H9LTmNY1SR6HWJh/a8o8lF7ph71ljGsr5FuBdZk/I9MoXXpinz7+wYuxGoXPwN1mBWb231PiT9WY/bQXGn5SU1azB3ObVrO4nEjGDu4Ld8WKk3FTqs5Eah9yJsgzY+rG/tSs3B5ms0+ye1nuvBJy2UjnWv9TLV/jHF82rjiGGcst86kR/ee9OrVi169+yr735706NCUyoVK8l21X/izRz8G9O19b32P7vQZs5ANdiGk3t+PZN7mYJ/alC71OwNN3LP1vmukkXBzG4PLlaNG/21YheS+18iMd+H0vKEMW2CKtQTWlyeB9U0igfVNJYE1b6kTbnNyUjNKflSDP5eex+ux0/0ZxDhuY3S5YnxUchj6lx+5eUAWCayvik4F1nQXDo1uSqkidWi1/BpR2sVPl0q43RoGfFua2lOO4BDzmva//vvpX+NHKrVfjvkbE1jVpAacZkPHqhQu9g/Tzb159rucJuNl3J+ffmhJq3kXidQuzVWMA/sX9qNO7drUqlVLW2pS84eyfP7eJ3xaohyVa9xfXovayuPqtx3GvLOB3L8pnjroGDMaVKRMkwlsuvXIgFd1JN4HJ1Lv8yZ0XqHse97AuwlIYBWvgATWN5UE1jyWEc6d3UOp8XklftLMw/pY65dMyLlldPmsKMV+Xs4h75y6cySwvio6FVjDLFnUujIffdOBCWdyGv2cC3UwTjtGU/uLlgw1cSE865x1StZts/18fAmMiCE+7RXsk31M6acJrB1eIrCq00mO9MPtliM3b9588XL7Lt4RSWQ89W1nEnNzK2MrlaBwjRkYucZlO/3+FGrN1fpNqFq3C6NPawf/ZCQQHeyLj38QQeEJpGZm/2tq1Fk3CcjIVpJJdDZiYLkm/DPRDIe47OuUkpmZ7WYCacTaLubXclWp1ssA20eOaNQxNzgyoTmlKoxgqdW9YSEZaemkp/07MFadHk+4rzc+vn4ERqcoh8+6RQKreAUksL6pJLDmtVQSnAwZXvVbKvdYz3H/R6NmKC7GY2lQtA7tVtjinePZWwmsr4pOBdaIMyxuU4MSVXqx6NoTJlDKSCElJYXU+xcUxVzjwKQ2fFF+HBuvR5OemUzs3XPsXTaN0V3b0n7oXBadfGQ8bH7w2kvf6i8ZWNPDcDOdRKvalShXrtyLl3p/M9D4FlFPrTiZxDoaMr56aQq3WMVh39yHU6iVzz0hOf3fABlmwYxG9an52zwOKu9XnRaN3+XDGM4ZQs8+venYYy3mtyOVmPlk6gcXXR1/8kVX6khctvXmh1JN+WOutfaiu/tSibq2lXF1v6fGEGPOa4YDqEO4ccWJG66RWSFcnR6J3/ldLBvai/7d2/PbkK0cd4vRqX2LBFbxCmQSdHQirTWBtcU8zPy1i4XOk8CaD5JcODnldyo1HcGcU/4PB4WIi+yb0I7v6k3EwCEil8YshaDT8+maFVhnsd87SXuhh8hrOhVYM905Oq41Dep3ZrJ1zgMC1EoYDbE7wonTtlyLvrcs6c5+FvxenZIdDDgdEELwdVPW6Rtjev46V0zG0qZGCxqMtCLfd8t5EVjVGaTGBOPl7oarq+uLl7s+BESnPFMYSw86y9b+jfni58XscstpQIAaVZI/7tfM2Xr8LpFZmVZFwsUl/KoEzcaDzXBNCMPJ3AT9lXuxun6BU2sGUO/LtkzYdZuwJ/bfPMe0VinOmA2oTfFvOjPygOfDQ4kyArlpOIr6n/9C/+2OhCrPqXbfz7o9RzlwSzM2IBV/20MYTlJC+dVr2BuNo87XfzFG89h7f0EnSGAVr0AqPqajaPFZEUo0VwLrw4d+QodJYM0P6UqIMGN+p3b0mLUX+we3TozG69hqRjTrwmijGwQ+uJLiUYn4ms/gz3c/pEjFmez3ksCaX3QqsCrbTfQFfUZ17cXfC2wJ1i69TxXnzbVD29m6wwwrt3DuzQ2vObhZxgDlPdQars+unfqsNzmKxc0QYtNVRFzYzpJxM5l/yOuRC3TyQV4E1tchI5y7RxfTtWFf5h1xfWRmDxUpgdewMjVk3W5rrvrFk5aVguO5u7MvNaq0ofUEfXaamrBu00kcAqNJ1vRknlrFqGFrML0emnVqPneawGrMoG8b88+kw08IrCoy/Y8yp843fPXzVLY4P9IDn+rBhZV9KVusO/NO+ivPGcyFbYYYH75y7yxOogtn9m9k2NorhCf747ChB9+U7sP0I175cDOEFyeBVeQfdQrRgZ642e1hUccqFNXTQ+/rVgzYdIbrd3zwj0rNNv5G6CIJrPklmQgHc/auW8Ki1ZvYvHMH27bos3TBOgz2XsI3p9nHVUnER/jiYmvKqgH1+FBTn/7vZwbqW2B3y5Pg2GRexVDEgkS3AqsiLRx3+8NsXLSM5Ss3sG23CcbGW1m3bhu7D1hw9sJVnP0iibu/+WQG4bBtEJX+91/e/6w0FZr3YcLOqwRqTy2nRocQHBhMZEq2Qx5VAkFnV9G/fXMaNmz47OXn0cwzdclhVgutNzWwKjIT/HEy287GZYtZtmEL20x2Y7x5Ixs3b2fP8TPYXLmFa0D8vz22me4cH1Kf7z4oxMefV6Hun1NYdfKuNvylkxIViI8SXuOVg4YnUwLrre30LlGbP0YfxCHXGQrSSL61k8EN29J9/jGckh7ZESj7jrCbh1k+ZDBj5q1mtcEu9h51wDtcm4DTowkN8cMpLJkE1/3Ma1SB7zpt4LiPbt0yTQKryEfpJMWEE+LpgM3hPRgZGrJt71FOXnHDLzSS6MSMZx/ALl4LCaz5SU1iwG2u2dlie+kidhfsuXjTh8jc2jB1GikJUQR7OGJ30hSD7dvZvuMQlpdc8QoKJzY5XecuknjT6VxgzZJElIcDdlY22F29wuXLdpw7Z8+1W76EP5ovYq5gOqU9n5X8g4Ez5zB72VJmjxjE6GX7sPLKpe9MnUrMHStMNq1m2bJlz15W7+fE9eDce2rf4MCaRR1DgJM9tucvYHflKpdtz3Pe9hI3PMOIe7TihVsyr35N6tXvwog5a1k3Zypjxk9h5OozuMQ+z/kQFZkxntgftODcNT+icq3gmWREe3LJ+jq3fGMeHg5wnzqZWO9rXLK/wDk7Z3yjU3Nof8O5ZTyKOoXq0W3TNXTta5LAKoTIlQRWUZDpZmB9dilue5jdviEl/zThhqb7L94ViylNKF32L4ZsdyNN+S/I1Y0r571lSECeSSPx8ip+L/0zbSafwkuzKPAICzo1pmiFfqy9GUd6eiIRV87jHBDJk+439aplhNqwc3ATvqg5ne2OUaRFXMLa0Q23KN3oWpLAKoTIlQRWUZC92YE1Fd8jM+lerTI159kSkJU5UvDZ3Ytvv+xEHwPlPalcOL59I3MNbvE88+G/kPCjDK5Viyqd12GtSyktr6nCs67WL1vmH3ptuKkNpG4cGvc35Up1Z/3tRNKjHDCatJyD1/15jvs/5LNUQs6tYVjV6vy80A7f1EhcDWYzb8cp7CMksL4UCaxC5D8JrKIge7MDawAXFvWlSfGmjLQI1J4mTib07ELaN+lCl2lb2Ge6gXU79nHo8TtY5AlVWizBty5iZ2PFKYNR1Cv6CR9U6spko1Ocsb6Cg2to/gflV0yd7MKxYXUp23Qciy9or6hUBWC/fjId6nRizAZT9hltZp6+LW6hT77k6tVKIth6A+PqNKDtFAP27DNhw6wdWF7115kLrySwCiFyJYFVFGRvemC9ZryOSQM2ctov2xROSZ5cMJjD5OG96TtnOwcvh+XbLBOZib5c37uSxbMnM3rAP/z+S0Ma/tKRTkPGMmmmPgYHnXiOWyC8EVTJHtgsHcVU/cPYZbv9aWrgJcz1x9NzwAQmztvDpSDdmz9ZFevOJePZDBk6hmGjVrDvaoAO9QBLYBVCPIEEVlGQvdmB9cnUKhWZ+T5Ni+buTSpUWc+lQq1WflZrfs7MWqZSfn4r5fq21Pfet45Pj3PvO1O+K+3PukICqxAiVxJYRUH2NgdWId40EliFELmSwCoKMgmsQugOCaxCiFxJYBUFmQRWIXSHBFYhRK4ksIqCTAKrELpDAqsQIlcSWEVBJoFVCN3xxgZWTUPau3dv7U9CiPwwdOjQrLomREHk7OxMxYoVSUjQlZkohSi4NPWxfPny+Pj4aJfkjXwPrKNGjeKHH35g1qxZUqRIyadSvXp1qlSpkuM6KVLe9tKnTx+KFi2a1d7ktF6KFCmvrmjq4zfffENgYN7e2zffA+v48eMpXrw4zZs3lyJFSj6VkiVLUqJEiRzXSZHytpdatWrxwQcf0KhRoxzXS5Ei5dUVTX0sU6YMwcHB2iSYN/I9sPbr14/u3btrfxJC5IcBAwbQs2dP7U9CFCxXrlzJOgUZGhqqXSKEeF009fGNveiqa9eu2p+EEPlBDgxFQWZnZ5fVQAYEBGiXCCFel/v1UWYJEEI8RmYJEAWZzBIgdIeK9KR4YqMiiIyMIirq0RKpLNeUOBJTMpRHv31kWishRK4ksIqCTAKr0B1xeJ7agf6kkYweP5GJEx8tE5gwYTxjxqznwEVf4rW/9TaRwCqEyJUEVlGQSWAVuiODpIgAfO+44OrmhlsuxdXVl5DoZOXRbx8JrEKIXElgFQWZBFYhdIcEViFEriSwioJMAqsQukMCqxAiVxJYRUEmgVUI3SGBVbxGKcT5OeHsH0tCunaR0CkSWF+R5ED8PFy5E/EcFSE5Ar8bLvjHpyLVJ39IYBWviyo1Cn+Hc5wyP8Gps5YctbyBa2ACau16XaOOdMfN0xe/uPx7hRJYxWuQSXLoHS6ZrWHG4EFMMXMlMFm7SugUCaz5LDOe8Lt27F88muHjFrLV8RkqgiqeUDdrDiydypAuSzjsGasc+on8IIFVvC6ZSUG4nNzJhpmD+eunmnz36xwMLobrXmBNCsXH4SgbxvVl6KI9WAZIYH2MBNY3kYrUuCjCfG5gYzyZfyp8yn/fb8TA3a6EZ2ofInSKBNZ8ok4lPiwY/9unMJ7cmvL/fZ9P645nu1ua9gE5UCUTF6k0DjdPsHN8K8q99wkfVpiJqUeCcggo8oMEVvF6KW3mjQ38U/pLvuqwksO+unIuRY0qPZHoIC9c7YxY1OlHPtErRtV+27kQpX1IPpDAKl6hVCLcr2N7/AB7t06he9lPeP/jnxi8x00Cq46SwJpPMiO5e/40py32sXFca6r93zt83nAiO54UWNOCcLtmw/H9xmyZ2Joyeh9R6PtZHPBKlMCaTySwitcrjoAjE6ldsgZNJx/BKUG7+LVTkRbnx02LI5ibb2Vehyp8oVeU6gN3SmDNiQTWN5FyVJaZQXpaKom+lmzs/D2FPm3CwF3Sw6qrJLDmFxWZ6WmkpaUReHI2f5f7jKJ1xz85sKq1v5Mai/fxWfz98ccUrTQTU08JrPlFAqvIM/frb1oGmc961jzFk/ML/qB08T8Zst2JSO3i/KJWZSrts/Ia0zNRPeU1qtWZZChteVpaMNf1O1OtUCmq9JUe1hxJYH2zqULPY9jzBwmsOk4Ca/6LOreQrhW+eHpgfSCNYKsFdPtEAmt+k8Aq8ooq1pMb5iZs23Uet7hnu3VqRvg5DDpUomjl4Sy7EJrP41dVJIU6Ym28ne0WLoQkP+teJYbbBj2oXuRLCay5kcD6ZksPssage2UJrDpOAmv+C7eaT+fynz9HYE0mwHIeXSSw5jsJrCLPhNhgOL4LVX7T51Rw6jOEzzTiHbcyrFJpynbSx9wv/8evxrnsZelfP/HTLAucY54lUmtE4rSpGz8WlsCaKwmsbzYJrG8GCaz5TwKr7no1gVVNcpADlsab0V+9AcM9uzDatZs9Ry7iEZX2TD1x4kWkEO16jiNb17J24za2m+zBZMduzGxv4ZOkfUheCjnNusGtKVp7GeaBzxBYVVF4m02iXslqNJ93lKsuDtia7mDrti1sWreOdVsOc8E3Pk+3jzinHcxpUZGKE45wI1oCa56RwPpmk8D6ZpDAmv8ksOqufA+sGX5c3GfIxnWG7D9pjY21LRevXcLGbA2T+3Wj/fwTXA1P1T74bZJBlONhNoz4m7Zt275E6c2E9We5Ha/9s88oM9QRm52rWbndDHNLK87ZXuTSVXtOb5vJgD+GMnHlBXzzulKFWLFxeDtKNVzJiaBnCKzJnpxf2p6ShSpRr8tstpjbYGd/CfuLdlw4a8KK4UPo0XMDZ/xTcq//6hSSokIJDIom+RnGE8Q5GzP/92pUm3KMmxJY844E1jebBNY3gwTW/CeBVXfla2BN8ebiukkM6TGBxQecCMrQLieFEOX7bf91GUp13451iPZUcJoPl4xXMG3kGMbNXsNqSy/i7q15xTKIcbuMxdZT3AxM4Fm22MdlEnf3PAdXTGP8+PEvUeax7uB1vJ+jRzQ92J4DS4fSZfACDC8HZvsMY3Fa3426n9ag+UhzPLR5LS3CiTP6Uxk1ahwTxxlywiGMxHurnk/UeQxGdeDLRms4HaFd9gRpQVZs+rM8n/yvCr+M2Iy5W3i25w3Edm4PahRqzghzf5JyC6Mh5zFeOJaO4/bjEPv0vUSK2x4Wtf6RH6dbcPuZ36QE1qeSwPpmk8D6ZpDAmv8ksOqufAus6SG47JvMb5V+5p/5Ftx96GuPI+jKQVZNWMa2sx48uPlZmjf2O6fwV5nC/O8/Fam/0oEY7ap8lx6Jn7M1e42MMFw3jyk9/qTOl0PYdDH0xcLba6KOc+Xk/B40qfUn/fZ4PvLaI3E9vJalCzex52rog5txpIXfxGJhV34q9X/o6bVn0kEvnji7lDqTlNgoIsNCCQkNIywsjIhI5WcXM5YPaEPJOvPZeyuAsMgIIpR1mvWhIWFExSeR+qBTM4VwuzX0+vJTilUdwdrLEQ8fGKS7cXxaJ74v2YrhR31zD6xh1zhisIJxa87iFp9tL6FOJSEmkvCQEEKzXkMEkdEReJ3fyLRff+CHMbuxvhtKlPIaNa8vLOu9RBIbn1NvrgTWp5LAqkNSQ3C1O852Q0MMs5cdR7G9E0FiDmcWJLC+GSSw5j8JrLorfxrIDJLdTZnW9Fs+rDmaZXbPM1mRDxZjO1CjbEdmXIjWLnsFUgO5fc6YedOmMWFgZ/6opbz2T4exzj78DbrLWiohp5W69l0Fvmy8HMuIZz3lrUi4yu6uP1Ci5XwMbz1l/EFmNO5HljN5cDe6KPvO7t2707N3H3r93ZL6lcrw4ed1af53V7r36klPZV337t3o2nkMi40v433/4EQVjPP2oVQrVInGs07j9mgPcqglq7r/QvGKYzB0eYH6n+HJubXTGdW5C92yXkNPevXtSae2P1Hj60/5tNovtPmnO31698x6/d27daVz//msPuHJ453ZElifSgKrDom8gOH4NpQqWYpSpf4tX37dkuFGNwnIoQ2WwPpmkMCa/ySw6q58aSAzI/HYN4r6n31NpUE7sY14hsGF94WYM7d9c8rVnYlZwIMxBK9W4k3Mxv3CF18MY82FsDcnsGZ4cGpGa8oWrkqj2bYEaxc/XTpxTtsZXfErfhxhzPnwpwRdVSSu+6bQ7bf61K1b999S43u+Kf4p73z8NRWq13l4Xd0ujFt9AS9tRVbH3uDI1DaU+OIvJh/zIvbeYi018VfWMqxJbb75YzuX4x/fflQxAXg5X+bClVu4+UQrUf0RGXexnNmbvx56DXWpVeVbvir8IR+WrECVmg+vq9tyJFMO3JXA+iIksOqQ5BC8HW05ceIkp06duldOnsLS0oarXtEk5tCaSmB9M0hgzX8SWHVXvjSQKV6cX9CGLz+pz18rnufiHiWo2C2he4MmVOthhntWTskkNToIH09vfHxDiE5My/9tIeYa+8f8/JKBVU16XAg+t65z9erVlyg3cfWJIP5Zsnu0Leu71OKTEr8y+Kj/s19dr47A8+BUGn3RjN4brhKQ9QGnEh/qj4+HB76hEUSn5PSpq1Grs5XgbBddBaagyr5O+xv3JXseYlnrKnxWeSo7nGN46O2pw7m2pg+/VKhP603O94aFqNNITsu8d0OCFD9uHNFn/qQ+tP2tA3/3Ws5hn5THnuOebK9BKbHZL7qKynxoXe4ksD6VBFZdotmYc9qglQ1d+69HSWB9M0hgzX8SWHVX/gRWb+yWtKf0x60YsPEGYdrFj8skRTOuMUOl3Y/G4rS6G82q/Ux7Q3fSlf+SQ25ybvcSxvZX6mmb7kw1seNOfkzJlF3UFUxHv2xgTSfM3pCZratSrly5lygN+XvGIa4+y2DeWDs2dm1AyXIdmWr7hFSVkUpKcjIPMmjCbU7Na0+JssNYahNCamYyCV4XOLhmNmO7taXDwElMN3t0PGwOIm3YMvLeRVeWT+ylTSXEZgUDvy9D2a47uRD+8D5BFXaGVZ1/5YfqozHQ7C9UiSTcseXcHSU4pyUTar6MhRt2Ye7lxdXlPfmtcjP6Hw18OPTmIllz0VUb7UVXz3wbWAmsTyWB9c2WGWLD1h6awNqUQXvuEPkcw4nEqyOBNf9FWi+giyaw1puAkfuzNCupBJ2eT1dNYK08iwPeSTJXZz7JlwZSFYXvkWn8UvI3+q6ww0+7ODu1KplY/5uYbzHHwS/m3indDCd2dW9O9aq9WHgtjAT3c5itW43BiUvcsDNi6s8VqNR/DQfyfD6mR+RJYFWTkRRNmK8Hd+/efYnijX9YHM90UyaVL2fndqZprbYMOx6UY2eKKiOFsMsnOGlhhX34vWWpfidY27E6xX9fjZlHMOHOZmxat4Nd1jdwMJtJ13pNqd7nGHefVgmfdVordRDXNw6k9qeVaL5M2T4e+oDVRNkspmvDxvzQyxRXZUl6uAs2a1ZhdiuYGHUAVjPWYrTHkRiVK/uH/smPlfqwyiEh9+fL5sWmtYrm1ubuVFcCa9V+O7DPxysBJbCK1yLV/xTr2pfjo0KNGbDblecZ/y5eHQms+S2ToBPT6VC6CJ/WGc+OO89yN5tEfI9N5493PqRwxRmYeklgzS/500CqSA+5wPaBf9B+giEnfB/pVU8LxcP+CNvXmXD0ggcRKen3vt+gI0xs3oxK9YayeOdedq7azIHLXoQlpqOOtGfb5PFM32bN7RzGNOapPAmsr0MGCde3M6NPD9pMtcT70ZMZiX7cPGrENkNTTt0KISZrfRoRFzcy6vuyVOu/DENDfTYamXH0WhDRyvqY6/tYO3Eas0zvPDLONAchZ9gw7A9K1F/B8ScF1rjr7B/fmhJf/MmUk/4kPPTATIKPTKRNw1+oPfuyEhUj8btmytJN1riGJytrU4n2iyA2Rvn/xeX0atCQKt124/iMU/nGORsxr1UVqkw++hyBNZRrq/6i8gfFqazpYc3HawElsIpXSEVqfASBLhc4tnowv3ykh55eUb7vu5p9to64B8WQkJbPO1vxXCSw5pdUYoK9cb98kNU961JKT6kLn/9El5XmXHbxwjdCaXwebS9UScRH+HL7/D5WDqjHh5rfeacZA/VPYOfsSVBsMlJ98lZ+NZCa7z/O4wwHDVcyd8la9LfsZK+RAVs2bGCj8REszl3G4bYfUQ++UBUxtkvpVvMz3nm/KN9Ub0uvufux0/YCkh5HiH8wEbHZpx0Kx/XQEvo1qE/9+s9aGvBT81GsPutHrnfmfGMDqyIjBl8HC7YuW86ypfoYGBtjbGKAvr4BRnvNsbpwFWffcGLun+hQKZ/hvrHUePe/vF+0BN807saITbZ4Jt9bnR4XTmiQ8rk/SxdvsCVr+/9KoeqLOfqEO12pAk+zbUJHanfezFnNWFft8nvUpIbasW/JFAYMmMaq7dvZYXYWO78kMh56YBDWU/6gdsWW9Nzj+0zDATRiHQ2Z2awc5cYewiHqyYFVlZFAhPdtbpxaz9gGJXlH2R/9r2Yvpu29gLNXECFxeX8rWQms4hVSk5GaSGyIF66XTnNo+w6MjHdjevoKt5QNPFxpcFOftWaJV0ICa37JIDkuknBfZy6dMGPPTiOMTI9y8rIrviGRRCWmo3q0RVOnkZoYRYinExdPm7HdyEhpbI9y5sodvIMjiE1Jf+aGSTyb/Aus96SF3cHh4gXO21/lxtWLXLxwATuHu/hFPdolFo/L+q40rVubhoPnsHH9ImZOnsyI/kvZdTU4l/GTCYQ6WbFn9WpWP0dZu+EQNnefcGekNzmwZkkl3s+Zy+c0dxW7xrVrF7E9f5FrTt6EaYPoAwm3ODH/H74o3pq+0+cyb/Uq5owYwIh52znm+pznvpNDcL9yjgMnXQh8QsBVJwZnXeFvezssxykhNQcvyaFe3L5wjgtXbuLsE5ftIOUedeBhprVoTNVm8zkeFk+E5zX2mjoTnuPFYf9Kj/HC+aw55jcCsh0s5UytSiUxMoQAtyuc2b8bE6OdGB0+g62TF0GRscQ95blehARWIUSuJLCKgiy/A+szy3DhQI9GVG80jMWOmgWROGwbSeui31B3lhXuSUo4iLmJtZMn7vk9vuqND6zPLs3nGCu6NuTzlluw0Uy/muqP7fxWfPfNb3RdfUM5UMggzOMO9lYe5PdIjGeXTujhMTSr35aWq1xITbvDhR3zGLXxBiEp+bxt5DMJrEKIXElgFQWZrgRWdaAZ42o0pHarJZhrpxWItVvBiAqfU2GuDd7piYQdWMKiXWexz+8pV9JdMJ/8KyVKjGXLjUe7JN8m6YScXc7A6hX4YcpJ3LTJPOzIUKqV+ZP2y9xQ4cm5PRuYtv4GcToUWMPPzKfbn21pMmgJ27etYd0WY04HppCuM6/xxUhgFULkSgKrKMh0I7Bmknh+Lk0r/0qz0eb4ZHWSqYl3OcCaro1pMGgp2/cYYTBvE8ev+ZI/17wkEeVzi0tnLDm1bymjGpZAT68BXRbs5thpK6wdfQlOeLN77x4XisOmkfzyWQMG7L9LbFbYyyD60mp6tOxEu1FrMdm/mQ1bjdnvoWPBPckD2z3rmTdiLHPXGHH4dpx2xZtNAqsQIlcSWEVBphuBNYO4a4ZMmrWaFSd9/r2nfEYEXjY7mTNwGONGzWS99V1C8v46F60oPC8cZP3MqUwZ05+uPzfm52a/0r7/aCZNm8X8PRdwDM23J39NwnA5spWp/dZx/G48D95dmj/Xdi1l5sje9JttwG7bYBk7/opIYBVC5EoCqyjIdCOwPt2T70SUV3K669H9ZdofC5SC+r5fHwmsQohcSWAVBdmbEliFKAgksAohciWBVRRkEliF0B0SWIUQuZLAKgoyCaxC6A4JrEKIXElgFQXZhQsXshpIP7+c7vgvhHiV7tfHNy6wahrSXr16aX8SQuSHIUOG0KdPH+1PQhQsjo6OVKhQgdjYp94pXgiRzzT1URNYfXx8tEvyRr4H1gEDBlCsWLGsxlSKFCn5U4oXL85nn32W4zopUt720qJFC/T09OjQoUOO66VIkfLqiqY+FipUCH9/f20SzBv5HlgtLCwYOnQoPXr0kCJFSj4VTR2TeialoBbNmbxRo0Zlnc3Lab0UKVJeXdHUxzlz5pCQkKBNgnkj3wOrEEIIIYQQL0MCqxBCCCGE0GkSWIUQQgghhE6TwCqEEEIIIXSaBFYhhBBCCKHTJLAKIYQQQgidJoFVCCGEEELoNAmsQgghhBBCp0lgFUIIIYQQOk0CqxBCCCGE0GkSWIUQQgghhE6TwCqEEEIIIXSaBFYhhBBCCKHTJLAKIYQQQgidJoFVCCGEEELoNAmsQgghhBBCp0lgFUIIIYQQOk0CqxBCCCGE0GkSWIUQQgghhE6TwCqEEEIIIXSaBFYhhBBCCKHTJLAKIYQQQgidJoFVCCGEEELoNAmsQgghhBBCh8H/A2U9y2wkT3alAAAAAElFTkSuQmCC;imageBackground=none;imageBorder=#3399FF;strokeWidth=7;" vertex="1" parent="1">
          <mxGeometry x="10" y="30" width="354.77" height="125" as="geometry" />
        </mxCell>
        <mxCell id="kqIMAGAX-EFwgYahWS3e-5" value="" style="endArrow=classic;html=1;rounded=0;strokeColor=#00CC66;strokeWidth=7;" edge="1" parent="1">
          <mxGeometry width="50" height="50" relative="1" as="geometry">
            <mxPoint x="560" y="110" as="sourcePoint" />
            <mxPoint x="700" y="160" as="targetPoint" />
          </mxGeometry>
        </mxCell>
        <mxCell id="kqIMAGAX-EFwgYahWS3e-6" value="" style="endArrow=classic;html=1;rounded=0;strokeColor=#00CC66;strokeWidth=7;" edge="1" parent="1">
          <mxGeometry width="50" height="50" relative="1" as="geometry">
            <mxPoint x="560" y="280" as="sourcePoint" />
            <mxPoint x="690" y="260" as="targetPoint" />
          </mxGeometry>
        </mxCell>
        <mxCell id="kqIMAGAX-EFwgYahWS3e-7" value="" style="endArrow=classic;html=1;rounded=0;strokeColor=#00CC66;strokeWidth=7;" edge="1" parent="1">
          <mxGeometry width="50" height="50" relative="1" as="geometry">
            <mxPoint x="550" y="500" as="sourcePoint" />
            <mxPoint x="690" y="360" as="targetPoint" />
          </mxGeometry>
        </mxCell>
        <mxCell id="kqIMAGAX-EFwgYahWS3e-8" value="" style="rounded=0;whiteSpace=wrap;html=1;fillColor=none;strokeColor=#00CC66;strokeWidth=5;" vertex="1" parent="1">
          <mxGeometry x="500" y="55" width="100" height="120" as="geometry" />
        </mxCell>
        <mxCell id="kqIMAGAX-EFwgYahWS3e-9" value="" style="rounded=0;whiteSpace=wrap;html=1;fillColor=none;strokeColor=#00CC66;strokeWidth=5;" vertex="1" parent="1">
          <mxGeometry x="500" y="215" width="100" height="120" as="geometry" />
        </mxCell>
        <mxCell id="kqIMAGAX-EFwgYahWS3e-10" value="" style="rounded=0;whiteSpace=wrap;html=1;fillColor=none;strokeColor=#00CC66;strokeWidth=5;" vertex="1" parent="1">
          <mxGeometry x="500" y="440" width="100" height="120" as="geometry" />
        </mxCell>
      </root>
    </mxGraphModel>
  </diagram>
</mxfile>
